<?xml version="1.0" standalone="no"?>
<!DOCTYPE svg PUBLIC "-//W3C//DTD SVG 20010904//EN"
 "http://www.w3.org/TR/2001/REC-SVG-20010904/DTD/svg10.dtd">
<svg version="1.0" xmlns="http://www.w3.org/2000/svg"
 width="700.000000pt" height="700.000000pt" viewBox="0 0 700.000000 700.000000"
 preserveAspectRatio="xMidYMid meet">
<metadata>
Created by potrace 1.14, written by Peter Selinger 2001-2017
</metadata>
<g transform="translate(0.000000,700.000000) scale(0.100000,-0.100000)"
fill="#000000" stroke="none">
<path d="M1984 6050 c-11 -5 -26 -21 -31 -37 -60 -160 -96 -302 -97 -383 l-1
-65 231 -460 c212 -423 322 -638 474 -930 31 -60 97 -186 145 -280 48 -93 104
-201 125 -240 21 -38 75 -142 120 -230 46 -88 86 -164 90 -170 4 -5 30 -53 58
-105 117 -220 168 -305 182 -305 21 0 24 29 6 67 -8 18 -18 44 -21 58 -8 25
-127 337 -144 375 -5 11 -76 189 -157 395 -81 206 -242 614 -359 905 -117 292
-259 645 -315 785 -56 140 -109 271 -117 290 -8 20 -40 98 -71 174 -59 144
-79 171 -118 156z"/>
<path d="M1482 5962 c-11 -9 -43 -78 -72 -152 -29 -74 -56 -144 -61 -155 -39
-89 -402 -1052 -474 -1255 -20 -58 -46 -130 -57 -160 -11 -30 -43 -120 -70
-200 -46 -134 -50 -153 -51 -245 -3 -239 46 -404 255 -865 53 -116 223 -457
596 -1190 69 -136 84 -174 84 -212 0 -51 -25 -105 -73 -158 -59 -65 -85 -134
-103 -265 -12 -85 38 -101 152 -51 165 72 289 161 707 507 39 33 250 213 255
219 3 3 61 55 130 115 140 124 207 185 358 330 284 273 310 303 295 342 -3 10
-61 113 -128 228 -156 268 -316 549 -368 645 -22 41 -68 125 -102 185 -34 61
-84 151 -110 200 -26 50 -56 104 -65 120 -29 51 -198 370 -312 590 -95 184
-432 860 -467 937 -53 118 -161 330 -206 405 -55 91 -83 112 -113 85z"/>
<path d="M4884 4589 c-4 -13 -8 -114 -9 -224 -2 -212 -2 -211 -41 -350 -66
-234 -202 -433 -414 -609 -109 -90 -361 -273 -488 -352 -66 -42 -97 -68 -97
-80 0 -10 7 -20 16 -22 28 -5 381 222 539 347 243 191 405 404 479 629 49 150
62 244 60 447 0 83 -1 159 0 170 0 11 -8 31 -18 44 l-19 24 -8 -24z"/>
<path d="M3552 4288 c-11 -14 -7 -70 8 -108 5 -14 21 -81 35 -150 15 -69 29
-134 32 -145 13 -48 11 -284 -4 -360 -18 -100 -68 -251 -122 -375 -77 -175
-76 -170 -59 -186 8 -8 21 -12 29 -9 15 6 57 88 113 221 115 273 149 576 95
859 -16 87 -49 206 -65 238 -15 28 -45 36 -62 15z"/>
<path d="M3601 2525 c-59 -28 -77 -42 -206 -160 -49 -45 -139 -126 -200 -180
-97 -87 -133 -119 -220 -200 -12 -11 -39 -35 -61 -54 -21 -19 -73 -64 -114
-101 -41 -37 -102 -91 -135 -120 -33 -29 -76 -67 -95 -84 -19 -17 -96 -84
-170 -147 -154 -132 -175 -153 -165 -168 17 -29 139 -64 370 -106 50 -10 99
-19 110 -21 10 -2 37 -6 60 -9 22 -3 85 -14 140 -25 55 -11 116 -22 135 -25
43 -7 367 -68 510 -95 108 -21 126 -24 220 -40 30 -6 66 -12 80 -15 39 -8 207
-19 285 -18 48 0 94 8 148 27 73 25 331 149 547 263 52 28 140 74 195 103 55
29 159 84 230 123 72 38 168 90 215 115 47 24 108 57 135 72 28 15 163 85 300
155 297 152 381 199 389 220 8 22 -29 55 -62 55 -15 0 -70 9 -122 19 -107 22
-283 56 -420 81 -30 6 -66 12 -80 15 -14 3 -61 12 -105 20 -44 8 -154 28 -245
45 -91 17 -176 33 -190 36 -14 2 -36 7 -50 9 -14 3 -36 7 -50 10 -14 3 -47 9
-75 15 -62 12 -100 19 -145 26 -19 3 -41 7 -49 10 -8 2 -30 7 -50 10 -20 3
-94 17 -166 30 -71 14 -166 32 -210 40 -44 8 -91 16 -105 19 -212 42 -371 68
-440 72 -76 3 -91 1 -139 -22z"/>
</g>
</svg>
