<?xml version="1.0" encoding="utf-8"?>
<!-- Generator: Adobe Illustrator 23.0.1, SVG Export Plug-In . SVG Version: 6.00 Build 0)  -->
<svg version="1.1" id="Layer_1" xmlns="http://www.w3.org/2000/svg" xmlns:xlink="http://www.w3.org/1999/xlink" x="0px" y="0px"
	 viewBox="0 0 50.9 51.5" style="enable-background:new 0 0 50.9 51.5;" xml:space="preserve">
<style type="text/css">
	.st0{fill:#FFFFFF;}
</style>
<g>
	<g>
		<polygon class="st0" points="2.5,4.8 23.4,7.5 18.5,24.9 		"/>
		<path class="st0" d="M24.2,7.6l15.6,20.7l-18,8.6l-2.2-9.1c0,0-0.6-3.3,0.3-5.9L24.2,7.6z"/>
		<polygon class="st0" points="40.3,28.1 34.5,20 44.3,18.3 		"/>
		<polygon class="st0" points="45,18.3 48.7,22.2 43.4,22.2 		"/>
		<polygon class="st0" points="24.9,36.3 39.7,28.9 39.2,30.7 		"/>
		<polygon class="st0" points="18.5,26.7 12.2,47.6 21.7,40.1 		"/>
		<polygon class="st0" points="10.6,15.9 4.6,8.2 2.2,8.3 		"/>
		<path class="st0" d="M19.4,26.6c0.1,0.7,0.1,1.2,0.1,1.2l2.2,9.1l18-8.6l-0.2-0.2L19.4,26.6z"/>
	</g>
</g>
</svg>
