<?xml version="1.0" encoding="utf-8"?>
<!-- Generator: Adobe Illustrator 23.1.0, SVG Export Plug-In . SVG Version: 6.00 Build 0)  -->
<svg version="1.1" id="Layer_1" xmlns="http://www.w3.org/2000/svg" xmlns:xlink="http://www.w3.org/1999/xlink" x="0px" y="0px"
	 viewBox="0 0 142.3 61.5" style="enable-background:new 0 0 142.3 61.5;" xml:space="preserve">
<style type="text/css">
	.st0{fill:#FFFFFF;}
	.st1{fill:#F32735;}
</style>
<g>
	<path class="st0" d="M49.3,37.7l0.3-1l0.1-0.7l0.1-0.9c0.2-1.4-0.1-2.8-0.7-4.3c-0.3-0.7-0.7-1.3-1.3-1.8l-0.2-0.2
		c-0.1-0.2-0.3-0.3-0.6-0.6c-0.3-0.2-0.4-0.3-0.5-0.3c0,0-0.1-0.1-0.2-0.2c-0.4-0.3-0.8-0.5-1.3-0.6l0-0.1h-0.1l-0.4-0.1
		c-1.2-0.5-2.5-0.7-3.9-0.7c-1.6,0-3.1,0.3-4.7,0.9c-1.8,0.8-3.3,1.9-4.4,3.3c-0.4,0.5-0.8,1-1.1,1.5c0,0,0,0.1-0.1,0.1
		c0,0.1-0.2,0.3-0.3,0.7L29.9,33l0,0l-0.1,0.4l-0.3,1.2c-0.2,0.9-0.2,1.6-0.1,2.3c0,0.5,0.2,0.9,0.4,1.4c0.4,0.7,0.9,1.3,1.5,1.6
		c0.2,0.1,0.3,0.1,0.4,0.1s0.2,0,0.2-0.1s0-0.2-0.1-0.3l-0.3-0.5c0.4,0.2,0.6,0.3,0.7,0.3c0,0,0-0.1-0.1-0.2h0.1
		c0.2,0,0.5-0.4,0.9-1.2c0.2-0.3,0.4-0.6,0.5-0.9c0.1-0.1,0.2-0.3,0.2-0.5h0.1c0.1,0,0.2,0,0.2,0v-0.1l0,0v-0.1c0,0,0,0,0-0.1
		c0,0,0,0-0.1,0c-0.1-0.3-0.2-0.6-0.1-0.8v-0.4l0,0v-0.2c0,0-0.1,0-0.1,0.1v-0.2l0.3-1c0-0.1,0-0.1,0-0.2c0-0.1,0.1-0.1,0.1-0.1
		v-0.1l0.4-0.6l0.6-0.7c0.8-0.7,1.6-1.1,2.4-1.3h0.1c0,0,0.1,0,0.2,0c0.1,0,0.2,0,0.2,0c0.1,0,0.2,0,0.3,0s0.2,0,0.2-0.1h0.9
		c0.7,0,1.4,0.1,2.1,0.3c1.2,0.3,2.1,0.9,2.8,1.7c0.4,0.5,0.7,1.1,0.8,1.7l0,0V34L45,33.5c-0.2-0.4-0.4-0.7-0.6-1.1
		c-1-0.9-1.9-1.5-2.9-1.7c-0.6-0.2-1.2-0.2-1.9-0.2c-1,0-2,0.2-3,0.7c-0.1,0-0.1,0-0.1,0l0,0c0,0-0.1,0.1-0.2,0.1
		c-0.1,0-0.1,0.1-0.1,0.1s0,0-0.1,0L36,31.5h-0.1h-0.1c0,0-0.1,0-0.1,0.1c-0.1,0-0.1,0.1-0.1,0.1l0,0l-0.3,0.2
		c-0.5,0.4-0.9,1-1.1,1.6v0.1l0,0c0,0.1,0,0.1,0,0.1L34,34.6c-0.1,0.3-0.1,0.4-0.1,0.5c0,0,0,0.1,0.1,0.1l0.1-0.7
		c0-0.1,0.1-0.2,0.1-0.3s0.1-0.2,0.1-0.2c0-0.1,0-0.1,0.1-0.1v-0.1l0.1-0.1c0,0,0-0.1,0.1-0.1v-0.1c0.1,0,0.1-0.1,0.1-0.1
		c0.4-0.5,0.9-1,1.5-1.5c1-0.7,2.2-1.1,3.7-1.1c1.4,0,2.6,0.3,3.5,1c0.6,0.4,1.1,0.9,1.5,1.5c0,0.1,0,0.1,0.1,0.2
		c0,0.1,0.1,0.2,0.1,0.3l0.2,0.5l0.1,0.3c0.1,0.6,0.1,1.3-0.1,2.1c-0.1,0.3-0.2,0.7-0.3,1c0,0.2-0.1,0.3-0.1,0.4v0.1
		c0,0,0,0.1-0.1,0.3s-0.1,0.3-0.2,0.3v0.1l-0.2,0.4c-0.2,0.3-0.4,0.6-0.6,0.9c-0.2,0.3-0.5,0.6-0.8,0.9c-1.4,1.5-3.1,2.5-5.2,3.1
		c-1.2,0.4-2.5,0.5-3.8,0.6c-0.8,0-1.6,0-2.5-0.1c-1.3-0.2-2.2-0.3-2.7-0.5l-0.4-0.1h-0.1l-0.6-0.2l-1.2-0.3c0,0-0.3-0.1-0.8-0.2
		h-0.2c-0.3,0-0.5,0.1-0.5,0.3c0,0.1,0,0.3,0.1,0.4c-0.1,0-0.1,0-0.2,0s-0.1,0-0.1,0v0.1c-0.1,0-0.2,0.2-0.3,0.4H24v0.1h0.1l0,0
		c0,0.1,0,0.1-0.1,0.1l-0.5-0.1l0.5,0.2L23.8,45l-0.5-0.1l0.5,0.2l-0.2,0.3H23c-0.1,0-0.1,0-0.1,0s0,0.1,0.1,0.1s0.1,0.1,0.2,0.1
		s0.2,0.1,0.3,0.1l-0.1,0.6c0,0.2,0,0.3,0,0.3s-0.1,0-0.2,0s-0.1,0-0.1,0.1s0,0.1,0,0.1h0.1c0,0,0.1,0,0.1,0.1
		c0.5,0.2,0.8,0.3,0.9,0.5c0,0.1,0.1,0.1,0.2,0.1s0.1,0,0.2,0v-0.1l0.4,0.2c0.4,0.1,0.7,0.2,0.8,0.3c0.8,0.3,1.6,0.6,2.4,1l1.4,0.6
		l1.4,0.6l0.9,0.5c0.1,0,0.6,0.3,1.5,0.8l0,0c-0.1,0-0.2-0.1-0.3-0.1c-0.6-0.4-0.9-0.6-1-0.6H32l-0.4-0.2c-0.3-0.2-0.7-0.4-1.1-0.6
		l0,0l-1.3-0.5c-1-0.5-1.6-0.7-1.7-0.7c-0.2,0-0.3-0.1-0.3-0.1c-0.4-0.2-0.7-0.3-1.1-0.4l-1.6-0.5h-0.2h-0.1c0.1,0,0.1,0,0.2,0
		s0.2,0.1,0.3,0.1c0.1,0.1,0.2,0.1,0.4,0.1c0,0,0.4,0.2,1.4,0.5l4.2,1.8l0.1,0.1c0.7,0.3,1.3,0.7,1.9,1.1l2.4,1.4
		c0,0.1,0.1,0.1,0.1,0.1c0.5,0.3,0.9,0.5,1.4,0.9c0.3,0.2,0.7,0.5,1.3,0.9c0,0.1,0.2,0.2,0.6,0.4c0.7,0.6,1.6,1.4,2.4,2.2v0.1
		c0,0,0,0,0.1,0.1c0.1,0,0.5,0.5,1.2,1.3l0.9,1c0.3,0.5,0.6,0.9,0.9,1.1c-0.5-0.9-1.1-1.8-1.8-2.6l-1.8-1.8
		c-0.1-0.1-0.2-0.1-0.2-0.1s0,0,0-0.1L39.9,56c0.1,0,0.2,0,0.2,0s0.1,0.1,0,0.1l1.3,1.2l0.5,0.5c0.2,0.3,0.4,0.5,0.5,0.7
		c0.1,0.1,0.2,0.2,0.2,0.2l1.4,1.8c0.1,0.1,0.2,0.1,0.3,0.1l-0.6-0.8c0-0.1-0.2-0.3-0.5-0.7s-0.4-0.6-0.5-0.6c0,0-0.4-0.4-1-1.1l0,0
		l0,0v-0.1l0,0l0,0h-0.1c0-0.1,0-0.1-0.1-0.1s-0.2,0-0.2-0.1l0,0h0.1c0-0.1-0.1-0.3-0.1-0.4c-0.1-0.1-0.1-0.2-0.1-0.3
		c0.2,0.2,0.4,0.5,0.8,1c0.1,0.1,0.3,0.2,0.4,0.2c-0.1-0.2-0.2-0.4-0.3-0.5s-0.3-0.3-0.4-0.4c0.4,0.3,0.6,0.5,0.8,0.8l0.7,0.8
		c0.5,0.5,0.8,0.9,0.8,1l0,0l0,0c0.2,0.2,0.4,0.4,0.5,0.7l0,0l-0.2-0.3c0-0.1-0.1-0.2-0.2-0.4l-0.6-0.8l-0.1-0.2
		c-0.3-0.2-0.4-0.5-0.5-0.7c-0.3-0.3-0.5-0.5-0.7-0.8s-0.6-0.7-1.1-1.2H41l-0.1-0.1c0-0.1-0.1-0.1-0.2-0.2l0.4,0.2
		c0.3,0.2,0.5,0.4,0.6,0.6l0.5,0.6l0,0l0.4,0.5c0.2,0.3,0.4,0.5,0.5,0.5l0.9,1.2l0,0l0.1,0.1c0.1,0,0.2,0.1,0.3,0.2
		c0.1,0.1,0.1,0.3,0.2,0.4c0.1,0.1,0.2,0.3,0.3,0.4l0,0c0,0,0,0,0.1,0c0-0.1,0-0.1,0-0.1l-0.6-1l0,0c-0.1-0.1-0.1-0.2-0.1-0.2l0,0
		l0,0c-0.2-0.2-0.4-0.3-0.5-0.5l-0.3-0.5c-0.4-0.4-0.8-0.8-1.2-1.3l0,0c0-0.1-0.1-0.1-0.1-0.2c-0.1,0-0.1-0.1-0.1-0.2
		c0.2,0.2,0.3,0.3,0.3,0.3l0,0L43,57l0.3,0.4h0.1c0.1,0.1,0.2,0.2,0.4,0.4h-0.1l0.1,0.1c0,0.1,0,0.1,0.1,0.1s0.1,0,0.2,0.1
		c0.2,0.2,0.5,0.6,0.9,1.3l0,0c0.1,0.2,0.3,0.4,0.5,0.5c-0.5-0.8-0.8-1.3-0.8-1.3s-0.1-0.1-0.2-0.2c-0.5-0.7-0.8-1.1-0.9-1.1
		c0,0-0.1-0.1-0.3-0.3s-0.4-0.4-0.6-0.6c0,0,0-0.1-0.1-0.1l-0.1-0.1c0.1,0,0.1,0,0.1,0c0.5,0.6,0.8,1,1,1.2c0-0.1,0-0.2-0.1-0.4
		c0.1,0.1,0.2,0.1,0.2,0.1c0.4,0.5,0.7,0.8,0.7,0.9c0.3,0.5,0.5,0.7,0.5,0.7c0.2,0.2,0.3,0.5,0.4,0.7c0.1,0.1,0.2,0.2,0.4,0.3l0,0
		c-0.5-0.8-1-1.6-1.6-2.4L44,57.2h0.1c0.1,0,0.1,0,0.1,0l-0.1-0.3c-0.3-0.2-0.5-0.5-0.7-0.8l-0.2-0.2l0,0l0.9,1.1
		c0.2,0.2,0.4,0.4,0.5,0.6c0,0.1,0.2,0.3,0.5,0.7l0.3,0.4c0.1,0,0.1,0.1,0.1,0.1s0,0,0.1,0c0.1,0.3,0.2,0.5,0.4,0.6h0.2
		c0-0.1,0-0.1-0.1-0.2c0-0.1-0.1-0.2-0.2-0.3c-0.1-0.1-0.2-0.3-0.3-0.4c-0.1-0.1-0.2-0.3-0.3-0.4c0-0.1-0.1-0.3-0.3-0.4v-0.1
		l-0.2-0.2c-0.2-0.3-0.3-0.5-0.3-0.6c-0.1-0.1-0.1-0.2-0.2-0.3l-0.1-0.1c0-0.1-0.3-0.4-0.7-0.8v-0.1l-0.1-0.1
		c-0.1,0-0.1-0.1-0.1-0.2c0.2,0,0.3,0.1,0.4,0.3c0.1,0.2,0.2,0.3,0.3,0.5l0,0c0.2,0.3,0.5,0.6,0.8,0.8v-0.1c0-0.1,0-0.1,0-0.1
		c0.2,0.3,0.4,0.6,0.6,0.8v-0.1c-0.3-0.4-0.5-0.7-0.7-0.9c-0.1,0-0.1-0.1-0.1-0.1s-0.1-0.1-0.1-0.2c-0.2-0.4-0.4-0.7-0.7-1
		c-0.5-0.7-1.3-1.5-2.3-2.4l-0.3-0.2c-0.3-0.3-0.5-0.5-0.8-0.7l0,0L39,50.7c-0.1-0.1-0.3-0.2-0.6-0.4c-0.5-0.4-0.9-0.7-1.2-0.9
		c-0.4-0.2-0.7-0.5-1-0.7l0,0h0.1l0.8,0.6c0.2,0.1,0.4,0.2,0.6,0.3c0.2,0.1,0.4,0.3,0.6,0.4c0.2,0.1,0.4,0.3,0.6,0.4l0.5,0.4
		l2.1,1.7L43,54c0.2,0.2,0.5,0.5,0.7,0.7s0.3,0.4,0.3,0.5c0.3,0.3,0.6,0.7,0.9,1c0.1,0.2,0.3,0.3,0.5,0.5c0.2,0.1,0.4,0.4,0.6,0.7
		c0.2,0.2,0.4,0.5,0.5,0.8l0,0c0-0.1,0-0.1,0-0.1L46,57.4c0-0.1-0.1-0.3-0.5-0.8c-0.1-0.1-0.3-0.4-0.5-0.7c-0.4-0.5-0.8-1-1.3-1.4
		c-0.2-0.2-0.3-0.4-0.5-0.5L43,53.8c-0.2-0.3-0.5-0.5-0.7-0.8l-0.2-0.1c-0.3-0.3-0.7-0.7-1.3-1.2l0,0c-0.1-0.1-0.2-0.2-0.3-0.3
		c-0.5-0.4-0.8-0.7-1.2-0.9c-0.1-0.1-0.1-0.1-0.2-0.1c0,0-0.2-0.1-0.4-0.3L37,48.3c0.1,0,0.2,0,0.2,0c1.6-0.3,3.3-0.9,5.1-1.9
		c1.7-1,3.3-2.3,4.6-4c0.4-0.5,0.8-1.1,1.2-1.6l0.3-0.5c0.1-0.2,0.2-0.3,0.2-0.3c0-0.1,0-0.1,0-0.2c0,0,0.2-0.4,0.5-0.9L49.3,37.7z
		 M43,55.8l0.5,0.6l-0.2-0.2c-0.2-0.2-0.4-0.4-0.5-0.7L43,55.8z M30,44.5c0.7,0.1,1.2,0.2,1.7,0.2h0.8h1.1c1.3,0,2.6-0.2,3.9-0.5
		c-0.1,0.1-0.2,0.1-0.5,0.2c-1.2,0.3-2.4,0.4-3.6,0.4c-0.7,0-1.4,0-2-0.1c-0.1,0-0.2-0.1-0.3-0.1c-0.2,0-0.3,0-0.4,0
		C30.4,44.6,30.2,44.6,30,44.5z M31.8,45.4L30.9,45l1.9,0.1c0,0.1,0,0.1,0.1,0.1s0.1,0,0.1,0v-0.1h0.2c0.1,0,0.1,0,0.2,0
		c0.1,0,0.2,0,0.3,0c-0.1,0-0.2,0.1-0.2,0.1l0,0c0.1,0.1,0.4,0.1,0.7,0.1h0.6c-0.4,0.1-0.9,0.1-1.3,0.1
		C33.5,45.4,31.8,45.4,31.8,45.4z M32.1,45.5h0.8c0.4,0,0.7,0,0.9,0H32.1L32.1,45.5z M33.5,46.3l-0.2-0.1c0.3,0,0.5,0,0.6,0.1H33.5z
		 M36.1,48.2l-0.2-0.1H36L36.1,48.2L36.1,48.2z M33.7,45.9h-0.9c0-0.1-0.1-0.1-0.2-0.1L33.7,45.9c0.5-0.1,0.9-0.1,1.4-0.2h0.2
		c0.1,0,0.2-0.1,0.3-0.1s0.2,0,0.3,0s0.2,0,0.3,0h0.2l0,0h0.2c0.1,0,0.1,0,0.2,0c0.1,0,0.2,0,0.2,0h0.2
		C36.3,45.7,35.1,45.8,33.7,45.9z M48.5,39.2c-0.1,0.3-0.3,0.6-0.3,0.7c-0.5,0.9-1.1,1.8-1.7,2.5c-1.4,1.7-3,3-4.8,4
		c-1.6,0.8-3.3,1.4-4.9,1.7L36.7,48c1.1-0.2,2.2-0.5,3.3-1c2.7-1.1,4.9-2.8,6.8-5.1c0.4-0.5,0.9-1.2,1.4-2.2l0.5-1
		c0.1-0.3,0.2-0.5,0.3-0.8s0.2-0.5,0.2-0.7s0.1-0.4,0.1-0.5l0.1-0.4c0-0.3,0.1-0.6,0.1-0.8c0-0.3,0-0.5,0-0.8s0-0.5,0-0.8v-0.1
		c0-0.5-0.1-0.9-0.2-1.3l-0.1-0.6c-0.2-0.4-0.4-0.8-0.6-1.2l-0.1-0.3l0.6,1.1l0.3,0.8c0.4,1.2,0.4,2.5,0.2,3.9l-0.1,0.6L49,38.4
		C48.7,38.5,48.6,38.9,48.5,39.2z"/>
	<path class="st0" d="M43.7,57.8C43.7,57.8,43.7,57.7,43.7,57.8C43.6,57.7,43.6,57.7,43.7,57.8z"/>
	<path class="st0" d="M37.1,8.4L37,8.6L37.1,8.4L37.1,8.4L37.1,8.4z"/>
	<path class="st0" d="M43.7,57.8L43.7,57.8L43.7,57.8L43.7,57.8z"/>
	<path class="st0" d="M68.7,57.4c-0.1,0-0.1,0-0.2,0.1l0,0l0,0C68.5,57.5,68.6,57.5,68.7,57.4z"/>
	<path class="st0" d="M92.7,37.7L92.7,37.7L92.7,37.7z"/>
	<path class="st0" d="M77.5,26.4c0,0.1,0.1,0.1,0.1,0.2L77.5,26.4z"/>
	<path class="st0" d="M93.3,37.3L93.3,37.3C93.3,37.2,93.3,37.3,93.3,37.3z"/>
	<path class="st0" d="M117.4,47.3L117.4,47.3L117.4,47.3z"/>
	<path class="st0" d="M125.1,14.9c0-0.1,0-0.2,0-0.4V14.9z"/>
	<path class="st0" d="M142.3,6.5c0-0.4,0-0.8-0.1-1.2L142,4.7V4.6c0,0,0-0.2-0.1-0.3c0-0.2-0.1-0.3-0.1-0.3V3.9c0,0,0-0.1-0.1-0.2
		l-0.1-0.1c-1.3-2.3-3.6-3.5-6.8-3.6h-2.3c-4,0.1-8,0.7-12.1,1.7l-2.1,0.5l-1.9,0.6l-1.6,0.6l-0.7,0.3c-0.8,0.5-1.5,1-2,1.7
		c-0.5,0.5-0.7,1.1-0.8,1.5c-0.2,0.8,0,1.6,0.3,2.2c0.7,0.9,1.9,1.5,3.6,1.7l2.7,0.5c0.5,0.1,0.9,0.2,1.2,0.3
		c1.3,0.3,2.3,0.8,3.1,1.5c1.3,1.2,1.6,3,1.1,5.4c0,0.2-0.1,0.5-0.2,0.8s-0.2,0.7-0.3,1.1c-0.1,0.4-0.2,0.8-0.4,1.3
		c-3.5,0-9.4,0-17.5,0l-2.4,0.1c-0.1,0-0.2,0-0.2,0c-0.6,0-1.4,0-2.5,0h-1.4c-2.4,0-10.9,0-25.6,0h-3.2c-0.2,0-0.4,0-0.6,0
		c-0.1,0-0.2,0-0.3,0H68c-0.4,0-2.6,0-6.9,0h-7h-0.8l0.6-0.9c0.5-0.8,0.8-1.6,1-2.5c0.2-1.1,0.2-2.1-0.1-3.1L54.6,15
		c-0.1-0.4-0.3-0.8-0.7-1.1c-0.6-0.7-1.4-1.2-2.4-1.6c-0.1,0-0.2,0-0.2,0s-0.1,0-0.4,0c-0.2-0.1-0.3-0.1-0.4-0.1c-0.1,0-0.1,0-0.2,0
		c0,0-0.3-0.1-0.7-0.1H48c-0.1,0-0.2,0-0.3,0c-0.3,0-0.7,0-1.3,0.1h-0.1h-0.2l-0.3,0.1c-1.3,0.3-2.5,0.6-3.7,1
		c-2.5,0.8-4,1.2-4.7,1.2h-0.2h-1.1c-0.4,0-0.8-0.1-1.4-0.3c-0.9-0.5-1.4-1-1.4-1.6c0-0.3,0-0.5,0-0.8c0-0.2,0.1-0.3,0.2-0.5
		c0.1-0.2,0.2-0.3,0.4-0.5l0,0c0-0.1,0-0.2,0.1-0.2l0.3-0.3c0.4-0.3,0.8-0.5,1.2-0.7c0.3-0.1,0.5-0.2,0.7-0.2h0.1h0.4V9.2h-0.1
		c-0.1,0-0.2,0-0.4,0c0,0-0.1,0.1-0.2,0.1c-0.2,0-0.3,0.1-0.4,0.1c-0.4,0.1-0.6,0.3-0.9,0.5c-0.1,0-0.1,0-0.1,0L34.5,10l-0.1,0.1
		l0,0L34,10.4l-0.5,0.7l-0.2,0.5v0.2l0,0v0.1l0,0L33,12.5v0.1c0,0.1,0,0.1,0,0.2c0,0.1,0.1,0.2,0.1,0.3c-0.1,0-0.1,0-0.1-0.1v-0.1
		v-0.2v-0.1c0-0.1,0-0.3,0-0.6l0.1-0.3l0.1-0.2c0.1-0.1,0.1-0.3,0.2-0.4l0.1-0.2c0.1-0.2,0.2-0.3,0.2-0.3l0,0c0,0,0.1-0.1,0.3-0.3
		s0.4-0.3,0.7-0.5s0.5-0.3,0.8-0.4L36.6,9h0.2l0.1-0.1c0,0-0.1,0-0.2,0L36.1,9c-0.6,0.2-1.2,0.5-1.7,0.9c-0.4,0.3-0.6,0.6-0.9,0.9
		l0,0l0,0h-0.1l0,0v0.1c-0.1,0-0.1,0.1-0.1,0.2v0.1l-0.1,0.1v-0.1c-0.1,0-0.2,0.1-0.3,0.4l0,0v0.1L32.5,12c0.1-0.3,0.2-0.5,0.2-0.7
		l0,0c0-0.1,0-0.2,0.1-0.3s0.1-0.1,0.2-0.2v-0.1l0,0c0.1,0,0.1-0.1,0.1-0.1s0.1-0.1,0.1-0.2c0.1-0.1,0.1-0.2,0.2-0.3
		c-0.3,0.2-0.5,0.4-0.7,0.8l-0.3,0.4c0.5-0.9,1.2-1.7,2.2-2.3c0.8-0.4,1.6-0.6,2.2-0.6h0.1l0,0l0,0c-0.1,0-0.1,0-0.2,0
		c-0.1,0-0.2,0-0.3,0s-0.2,0-0.3,0.1c-0.4,0-0.8,0.1-1.4,0.4l-1.1,0.6C32.9,10.2,32.3,11,32,12c0,0.2,0,0.4,0,0.6c0,0.2,0,0.5,0,0.7
		c-0.1-0.5-0.1-0.9,0-1.3c0-0.1,0.1-0.2,0.1-0.2l0,0c0.1-0.2,0.1-0.4,0.1-0.5l0.1-0.1c0.1-0.3,0.3-0.7,0.7-1.1
		c0.1-0.2,0.3-0.4,0.5-0.5c0-0.1,0.1-0.1,0.2-0.2c0.1-0.1,0.2-0.2,0.3-0.3c0,0,0.1,0,0.1-0.1l0.1,0c0.1-0.1,0.2-0.3,0.5-0.4
		c0.5-0.2,1-0.4,1.5-0.4l0,0h0.2c0.1-0.1,0.3-0.1,0.5-0.1c0.1,0,0.2,0,0.2,0h0.1l0,0l0,0l0,0l0,0l0,0L37.6,8V7.9V7.8
		c-0.1-0.1-0.2-0.1-0.5-0.1c-0.1,0-0.1,0-0.2,0c0,0-0.1,0-0.2,0c-0.1,0-0.1,0-0.2,0h-0.1l0,0h-0.1l-1.1,0.4C34.3,8.5,33.6,9,33,9.7
		c-0.2,0.2-0.4,0.5-0.5,0.7c-0.1,0-0.1,0.1-0.1,0.2c0,0.1-0.1,0.3-0.3,0.5c0.3-0.7,0.7-1.2,1.1-1.7l0.2-0.2c0.5-0.5,0.9-0.8,1.4-1.1
		c-0.1,0.1-0.1,0.1-0.2,0.1c-0.1,0-0.1,0.1-0.2,0.1l0.2-0.1c0.3-0.1,0.5-0.2,0.6-0.3c-0.2,0.2-0.1,0.1,0.1,0
		c0.7-0.2,1.2-0.3,1.6-0.3c0.2,0,0.3,0,0.4,0c0.1,0,0.2,0.1,0.4,0.3L37.8,8c0-0.1,0-0.2,0-0.2l-0.1-0.1c-0.1,0-0.1-0.1-0.2-0.1
		c-0.1,0-0.3-0.1-0.5-0.1c-0.3,0-0.6,0-0.9,0.1C34.9,8,34,8.4,33.4,8.9c-0.6,0.5-1.1,1.1-1.5,1.7v-0.1v-0.1c0,0,0.1-0.1,0.1-0.2
		v-0.1l0.2-0.2l0.3-0.4l0,0l0.1-0.1C33,9,33.3,8.7,33.7,8.5l0,0h-0.1c0,0-0.1,0.1-0.3,0.2l0,0l0,0h-0.1l-0.1,0.1l0.2-0.2
		c0.5-0.5,1.2-0.8,1.9-1.1h0.1c0.4-0.1,0.7-0.2,1.2-0.2h0.4c0.2,0,0.4,0,0.6,0.1c0.1,0,0.2,0.1,0.3,0.2c0,0.1,0.1,0.1,0.1,0.1
		c0.2,0.1,0.3,0.2,0.3,0.4c0-0.2,0-0.4-0.1-0.5s-0.2-0.3-0.4-0.3C37.6,7.1,37.4,7,37.2,7h-0.7L36,7.2c-0.1,0-0.3,0.1-0.7,0.2
		C34.8,7.5,34.4,7.7,34,8l0,0l0,0c0-0.1,0-0.1,0-0.1l0,0l-0.4,0.2c0.8-0.5,1.7-0.9,2.8-1.2c0.4-0.1,0.7-0.1,1.1-0.1h0.3h0.1
		c0.1,0,0.1,0.1,0.2,0.1c0.3,0.2,0.5,0.5,0.6,0.8v0.1v0.1V8l0,0L39,7.8V7.7V7.6c-0.1-0.5-0.4-0.9-0.8-1.1l-0.4-0.1h-1.3L36,6.6l0,0
		c-0.1,0-0.1,0-0.2,0c-0.1,0-0.2,0-0.2,0.1c-0.1,0-0.1,0-0.2,0C35,6.8,34.6,7,34.2,7.2l0,0c-0.8,0.4-1.5,0.9-2.1,1.6
		C32,8.9,31.9,9,31.9,9l-0.1,0.1v0.1c0,0-0.1,0.1-0.3,0.3l-0.1,0.2v0.1l0,0l0,0l-0.1,0.1c0,0,0,0.1-0.1,0.2c0,0.1-0.1,0.2-0.3,0.3
		c0.5-1.1,1.2-2,2.4-2.8c0.3-0.3,0.6-0.5,1-0.7h-0.2c0.1-0.1,0.5-0.3,1-0.5c0.3-0.1,0.7-0.2,1.1-0.3c-0.2,0-0.3,0-0.4,0.1
		c-0.1,0-0.2,0.1-0.2,0.1c-0.1,0-0.1,0-0.2,0c0,0-0.1,0-0.1,0.1c-2,0.8-3.5,2-4.6,3.8c-0.3,0.5-0.5,1.1-0.7,1.6
		c-0.2,0.9-0.2,1.6-0.1,1.9v0.2C30,14,30,14.1,30,14.2c0.3,0.6,0.5,1.1,0.6,1.4c0.5,0.8,1.4,1.6,2.7,2.1c0.6,0.3,1.5,0.4,2.5,0.5H37
		l0.4-0.1c0.3,0,0.5,0,0.7,0c1-0.1,1.9-0.3,2.8-0.6c1.3-0.4,2.3-0.7,3-0.8c0.7-0.2,1.1-0.3,1.2-0.3l0,0c-0.3,0.1-0.6,0.2-0.9,0.3
		c-0.3,0.1-0.7,0.3-1.4,0.4c-0.9,0.3-2.3,0.7-4.1,1.1c-0.8,0.2-1.9,0.2-3.1,0.2H35c-1.3-0.2-2.3-0.6-3.1-1.2
		c-0.9-0.7-1.5-1.4-1.8-2.2L30,14.7c-0.1-0.4-0.2-0.8-0.2-1.2c-0.1-0.5,0-1.1,0.1-1.6c0.4-1.5,1.1-2.7,2-3.7c0.6-0.6,1-1,1.3-1.1
		l1.1-0.8c0.3-0.2,0.8-0.5,1.5-0.7c0.3,0,0.6-0.1,0.8-0.2c0.2,0,0.5,0,0.7-0.1c0.6,0,1,0,1.2,0.1V5.3h-0.1c0,0-0.1,0-0.2,0
		c-0.1,0-0.3,0-0.4,0c-0.5,0-0.9,0-1.3,0.1c-0.2,0-0.3,0.1-0.3,0.1c-0.1,0-0.2,0-0.3,0s-0.2,0.1-0.4,0.1C35.2,5.7,35,5.7,35,5.7
		c-0.9,0.3-1.7,0.8-2.6,1.5c-0.4,0.3-0.8,0.7-1.2,1.1c-0.4,0.4-0.7,0.8-0.9,1.3c-0.4,0.7-0.7,1.4-0.9,2.2c-0.2,0.9-0.2,1.7,0,2.5
		c0.2,1,0.7,1.9,1.4,2.6c1.2,1.1,2.6,1.7,4.3,1.8h0.6c0.9,0,1.5,0,2-0.1l0.7-0.1c0.4-0.1,0.6-0.1,0.7-0.1c0.4-0.1,0.8-0.2,1.3-0.3
		c0.4-0.1,0.9-0.2,1.3-0.3c0.5-0.1,0.9-0.2,1.4-0.4h0.1l1.4-0.4c1.2-0.3,2.1-0.5,2.5-0.5H47h0.2h0.2c0.1,0,0.2,0,0.4,0l0.9,0.1h0.1
		c0,0,0.1,0,0.3,0.1h0.1c0.5,0.2,0.8,0.5,0.8,0.7v0.1c0.1,0.2,0.1,0.5,0,0.8v0.2c0,0-0.1,0.1-0.1,0.3c-0.1,0.2-0.1,0.3-0.2,0.4
		c0,0.1-0.1,0.1-0.1,0.1s0,0,0,0.1c0,0,0,0.1-0.1,0.1l-0.2,0.2C49,20.2,48.5,20.6,48,21l-1,0.7H32.1c-1.7,0-3,0-4.1,0.1
		c-0.1,0-0.3,0-0.4,0H27c-1.9,0-8.8,0-20.7,0H3.7c-1.7,0-2.8,0.1-3.1,0.2H0.5c0,0.2,1,0.3,3.2,0.4c-0.2,0-0.4,0-0.6,0s-0.5,0-0.8,0
		s-0.6,0-0.8,0c-0.3,0-0.5,0-0.5,0c-0.1,0-0.1,0-0.1,0s0.3,0.1,0.9,0.1c-0.6,0-1,0.2-1.1,0.5c-0.1,0.4,0.2,0.7,0.8,1.1
		C1.9,24.7,2.8,24.9,4,25c-0.2,0-0.4,0-0.6,0c-0.2,0-0.5,0-0.7,0s-0.4,0-0.6,0s-0.3,0-0.4,0s-0.1,0-0.1,0s0.2,0,0.8,0h3.1
		c4.1,0,8.3,0,12.6,0c-2.9,1.5-5.8,3.3-8.9,5.5C7,32.1,5,33.9,3.2,36l-1.1,1.4C1,39,0.4,40.3,0.2,41.3c-0.1,0.6-0.2,1.3-0.2,2v0.3
		l0.1,0.6l0.3,0.9c0.1,0.2,0.2,0.4,0.3,0.5c0.6,1.1,1.3,1.8,2,2.2l0.6,0.4c1.7,1.2,4,2.1,6.9,2.8c0.1,0,0.1,0,0.2,0
		c0.1,0,0.3,0.1,0.5,0.1c0.3,0,0.4,0.1,0.4,0.1l1,0.1c1.7,0.2,3.2,0.3,4.5,0.3s2.1,0,2.3-0.1c0.2-0.1,0.4-0.2,0.4-0.3
		c0-0.2-0.1-0.3-0.5-0.4h0.1c0,0,0.1,0,0.2,0s0.1,0,0.2,0c0,0,0.1,0,0.1-0.1h-0.1l0,0l0,0c0.1,0,0.2-0.2,0.2-0.4
		c0.1-0.2,0.1-0.5,0.1-0.9H20l0.3-0.9c0.1-0.2,0.3-0.6,0.4-1.2c0.3-0.9,0.6-1.8,0.8-2.7L23,39l0.3-1.6l0.4-1.8l1-4.6
		c0.2-1,0.6-2.6,1.1-5c0.1-0.1,0.1-0.1,0.2-0.1h-0.2v-0.3h0.1l0,0v-0.4l1.3-0.1l0,0c0.1,0,0.4,0,0.8,0h3.3c11.1,0,17.9,0,20.4-0.1
		l0,0c0.1,0.1,0.5,0.1,1.1,0.1h5.3h3.4v0.2l0,0h-0.1l0,0c-0.1,0-0.1,0-0.1,0c0,0.1,0,0.1,0.1,0.2c0.1,0,0.1,0.1,0.2,0.1
		c0.1,0.1,0.3,0.3,0.4,0.4c0.1,0.2,0.2,0.3,0.2,0.5l0.1,0.2l0,0l0.1,0.1c0,0,0,0,0.1,0v-0.1l0.1,0.1c0,0,0,0,0,0.1V27
		c0,0.2,0,0.3,0,0.3c0.1,0.4,0,0.8,0,1.4c-0.1,0.6-0.4,1.3-0.8,2.1c-0.1,0.3-0.3,0.6-0.5,1c-0.1,0.2-0.1,0.3-0.1,0.3
		s-0.1,0.1-0.1,0.2c-0.1,0.1-0.1,0.2-0.2,0.4L60.8,33l0,0c0,0.1,0,0.1-0.1,0.2c-0.1,0.1-0.1,0.2-0.2,0.2c-0.8,1.2-1.7,2.3-2.7,3.4
		c-1.3,1.5-2.4,2.8-3.2,3.8c-0.1,0.1-0.2,0.3-0.3,0.4c-0.1,0.1-0.1,0.2-0.2,0.2l-1.4,1.9c0.4-0.9,1.5-2.3,3.1-4.2
		c2-2.2,3.6-4.2,4.8-6l0.3-0.4l0.6-1c0.1-0.3,0.3-0.6,0.5-1c0.3-0.5,0.5-1.1,0.6-1.7c0.1-0.3,0.1-0.6,0.1-1v-0.1v-0.1v-0.1v-0.1
		c0,0,0-0.1,0-0.2s0-0.2-0.1-0.4l0,0v-0.1c0-0.1-0.1-0.1-0.2-0.1v0.1v0.1c0,0,0,0,0,0.1c0,0,0,0.1,0.1,0.1l0.1,0.5v0.1V28l-0.1,0.8
		c-0.2,0.8-0.6,1.8-1.3,2.9l-0.3,0.5l-0.1,0.1c-0.1,0.2-0.4,0.7-1,1.4C58,36,56.7,37.5,56,38.4s-1.5,1.8-2.2,2.8
		c-2.2,2.8-3.5,5.5-4.1,8c-0.3,1.4-0.3,2.7-0.1,4.1c0,0.1,0,0.1,0,0.2c0,0.1,0.1,0.5,0.4,1.2c0.3,0.7,0.7,1.4,1.2,2.2
		c0.5,0.5,1,1,1.6,1.5c2.4,1.7,5.3,2.6,8.9,2.7c1.7,0,3.5-0.3,5.4-0.9l0.2-0.1l0,0c0.2,0,0.3-0.1,0.5-0.2h0.1
		c0.2-0.1,0.4-0.2,0.6-0.3s0.4-0.2,0.7-0.4l-0.5,0.2l-0.8,0.3l0,0h-0.1C67.3,59.9,67.1,60,67,60c0,0-0.2,0-0.4,0.1l-0.5,0.1h-0.2
		c-0.3,0.1-0.5,0.2-0.6,0.2s-0.2,0-0.4,0.1c-0.1,0-0.3,0-0.4,0s-0.3,0-0.5,0.1c-0.2,0-0.4,0.1-0.7,0.1s-0.5,0-0.8,0.1
		c-0.8,0-1.4,0-1.7,0H60c-0.4-0.1-0.8-0.1-1.3-0.1h-0.4l-1.3,0c-1.2-0.3-2.3-0.8-3.3-1.4h0.1c0.1,0,0.2,0,0.4,0.1h0.1
		c0.5,0.2,1.1,0.5,2,0.8l2.4,0.5c0.5,0.1,0.9,0.1,1.3,0.1c0,0,0.2,0,0.5,0h0.3h1h0.5c0.5,0,1.1-0.1,1.7-0.2h0.1
		c0.1,0,0.3-0.1,0.5-0.1s0.4-0.1,0.4-0.1c0.1,0,0.3,0,0.4-0.1c0.3-0.1,0.7-0.2,1-0.3s0.7-0.2,1-0.4c0.1,0,0.2-0.1,0.3-0.1
		c0.1,0,0.2-0.1,0.2-0.1s0.1,0,0.1-0.1h0.1l0.5-0.3c-1.6,0.8-3.4,1.3-5.3,1.6c-0.1,0-0.3,0-0.5,0h-1.5c-1,0-2-0.1-2.8-0.2l0,0l0,0
		v-0.1c0,0-0.1,0-0.3,0v0.1c-0.2-0.1-0.4-0.1-0.5-0.1h-0.1c-0.1,0-0.2,0-0.3,0h0.2l0,0c-0.1-0.1-0.3-0.2-0.6-0.3h-0.1
		c-0.3-0.1-0.5-0.2-0.6-0.3l2.2,0.6c0.1,0,0.2,0,0.2,0s0.1,0,0.3,0s0.3,0,0.5,0.1H60c-0.1-0.1-0.5-0.2-1.1-0.3c-0.2,0-0.4,0-0.7-0.1
		c-0.2-0.1-0.4-0.1-0.6-0.2c1.3,0.3,2.5,0.5,3.7,0.5c2.2,0,4.4-0.5,6.5-1.4h-0.2c-0.9,0.4-1.8,0.7-2.7,0.9H65
		c-0.6,0.1-1.3,0.2-1.9,0.2L62,60.3c-1.7,0-3.5-0.3-5.4-0.9c-0.9-0.4-1.5-0.7-1.9-0.9c1.7,0.8,3.1,1.3,4,1.4c0,0,0.1,0,0.2,0
		s0.3,0,0.5,0.1h0.1c0.5,0.1,1.1,0.2,1.9,0.2l1.5-0.1c0.7,0,1.4-0.1,2.1-0.2h0.1c0.2,0,0.3,0,0.3-0.1c0.2-0.1,0.3-0.2,0.4-0.2
		s0.2-0.1,0.4-0.1c0.1,0,0.3-0.1,0.7-0.2c0.3-0.1,0.6-0.3,0.9-0.4l0,0c0,0,0.2-0.1,0.6-0.3h0.1c0,0,0,0,0.1-0.1l0,0l-0.3,0.1
		c-0.8,0.4-1.7,0.7-2.5,1h-0.2c-0.1,0-0.2,0-0.3,0h-0.1l0,0h-0.1c0,0-0.1,0-0.3,0.1c-0.1,0-0.3,0.1-0.4,0.1s-0.2,0.1-0.3,0.1
		C63.9,60,63.6,60,63.4,60c-0.6,0.1-1.3,0.1-1.9,0.1c-1,0-1.9-0.1-2.9-0.3l-0.5-0.1c-0.2,0-0.3-0.1-0.4-0.2l1,0.2
		c0.2,0,0.3,0,0.4,0.1h0.2h0.2h0.2h0.1h1.1h0.8c0.1,0,0.4,0,0.9,0L62,59.9c0.5,0,0.8,0,0.8,0c0.1,0,0.2-0.1,0.2-0.1
		c0.1,0,0.1,0,0.2,0c0.1,0,0.1,0,0.2-0.1c0.1,0,0.3,0,0.6,0h0.3l1.6-0.4H66h0.1c0.1-0.1,0.2-0.1,0.3-0.1c0.1,0,0.1,0,0.2,0
		c0,0,0.1,0,0.2,0s0.2-0.1,0.3-0.1l0.5-0.2c0.4-0.2,0.6-0.4,0.9-0.6c-0.9,0.5-1.7,0.9-2.6,1.1c-1.4,0.5-2.9,0.7-4.6,0.7
		c-1.1,0-2.1-0.1-3.1-0.3l0.2-0.1c0.2,0.1,0.3,0.1,0.5,0.1c0.1,0,0.1,0,0.2,0c0.1,0,0.2,0,0.2,0H60c0.1,0,0.2,0.1,0.4,0.1
		c0.1,0,0.3,0,0.4,0c0.1,0,0.4,0,0.8,0h0.3H62c-0.1-0.1-0.3-0.1-0.5-0.1h-0.3h1l1.5-0.1c1.2-0.1,2.5-0.5,4-1.1
		c0.4-0.2,0.6-0.3,0.6-0.4c0.1,0,0.1-0.1,0.2-0.2c-0.1,0.1-0.2,0.1-0.3,0.1l-0.4,0.2l-0.6,0.2l0,0h-0.1c-0.3,0.1-0.6,0.2-0.9,0.3
		c-0.1,0-0.1,0-0.2,0s-0.2,0.1-0.4,0.1C65.4,59,65.3,59,65.1,59c-0.1,0-0.3,0-0.4,0s-0.3,0-0.7,0.1c-0.1,0-0.3,0.1-0.4,0.1
		c-0.1,0-0.3,0-0.4,0c-0.1,0-0.2,0-0.3,0h-0.5v-0.1c0,0,0.1,0,0.1-0.1c-0.3,0-0.5,0-0.5-0.1h-0.7c-0.7,0-1.4-0.1-2-0.2l0,0
		c0.9,0.2,1.8,0.2,2.7,0.2h0.8c0.2-0.1,0.5-0.1,1-0.1H64c0.8-0.1,1.7-0.3,2.5-0.7c0.1,0,0.1-0.1,0.2-0.1s0.2-0.1,0.3-0.1
		c0.1,0,0.2,0,0.3-0.1c0.2,0,0.4-0.1,0.5-0.2h0.1c0,0,0.1-0.1,0.3-0.2l0.2-0.1l0,0l-0.7,0.3l0,0l-1.5,0.6H66c0-0.2-0.2-0.2-0.3-0.2
		c-0.1,0-0.1,0-0.2,0s-0.2,0-0.5,0.1h-0.2h-0.3c-0.1,0-0.2,0.1-0.3,0.1c-0.1,0-0.3,0-0.4,0c-0.1,0-0.2,0-0.3,0h-0.3h-0.3h-1.7
		c-0.1,0-0.2,0-0.3,0s-0.2,0-0.2,0h-0.4L60,58.1h-0.3C59.5,58,59.3,58,59.2,58S59,57.9,59,57.9c0.3,0.1,0.6,0.1,0.9,0.2
		c0.3,0,0.7,0.1,1,0.1s0.6,0,1,0s0.8,0,1.2-0.1L62.9,58H63c0.2,0,0.3,0,0.4,0c0.1,0,0.3,0,0.4,0c0.1,0,0.3,0,0.3,0
		c0.1,0,0.2,0,0.2,0c0.1,0,0.1,0,0.2-0.1h0.1h0.1h-0.2c-0.7,0.1-1.4,0.2-2.1,0.2c-2.1,0-4-0.5-5.8-1.4c-1.5-0.7-2.6-1.6-3.2-2.9
		c-0.4-0.9-0.6-1.8-0.5-2.6c0,0,0-0.1,0-0.2c0-0.1,0-0.2,0-0.2c0-0.2,0-0.3,0-0.3L53,50c0.2-0.9,0.4-1.7,0.8-2.6l0.3-0.7l0,0
		c0.2-0.4,0.5-0.8,0.8-1.3l1.3-1.7c0.1-0.1,0.1-0.1,0.1-0.2c0-0.1,0.1-0.1,0.2-0.2c-0.6,0.7-1.5,2.1-2.5,4c-0.4,0.8-0.7,1.6-0.9,2.4
		L53,50.2l-0.1,1l0,0v0.2v0.1c0,0.3,0,0.4,0,0.4V52c0,0,0,0.1,0,0.2c0,0.1,0,0.2,0.1,0.2l0.1,0.6c0.2,0.5,0.5,1,0.8,1.4
		c0.8,1,2,1.8,3.5,2.5c1.3,0.5,2.6,0.7,4,0.8h0.2H62c0.4,0,0.6,0,0.8-0.1s0.4-0.1,0.6-0.1c0.1-0.1,0.3-0.1,0.5-0.1H64
		c0.3,0,0.5,0,0.6-0.1c0.1,0,0.1,0,0.2,0s0.1,0,0.2-0.1h0.1l0.1-0.1c0.1,0,0.1,0,0.2-0.1h0.1l0.4-0.1l0,0h-0.2
		c-0.1,0-0.2,0.1-0.2,0.1s-0.1,0-0.2,0s-0.1,0-0.2,0.1c-0.1,0-0.1,0.1-0.2,0.1s-0.2,0-0.3,0c-0.1,0-0.2,0-0.4,0.1H64
		c-0.7,0.1-1.4,0.2-2.1,0.2c-1.6,0-3.3-0.3-5-1C56.1,55.8,55,55,54.4,54c-0.3-0.4-0.5-0.8-0.7-1.3c-0.1-0.5-0.2-1-0.2-1.5
		c0-0.1,0-0.1,0-0.2c0-0.1,0-0.1,0-0.2v-0.1v-0.2l0.2-1.1c0.3-1.4,1.2-3.1,2.7-5.2c0.7-1,1.6-2,2.4-3l1.2-1.4l2.1-2.4
		c0.7-0.8,1.3-1.7,2-2.6l0.4-0.6v-0.1c0.3-0.4,0.6-1,1-1.8c0.5-1.1,0.9-2.1,1.1-2.8l0.1-0.5c0.2-0.8,0.2-1.6,0.1-2.5v-0.1
		c-0.1-0.4-0.2-0.8-0.3-1.2c0.6,0,1.2,0,1.6,0h0.1c0.5,0,1.5,0,3.1,0h3.2l0.6,0.7l0,0c0,0.1,0,0.2,0.1,0.2c0.1,0.1,0.2,0.1,0.2,0.2
		s0.1,0.1,0.1,0.2l0.4,0.6l0,0l0.3,0.4c0,0,0,0.1,0.1,0.3c0.1,0.1,0.2,0.3,0.2,0.4c0.2,0.2,0.3,0.3,0.3,0.5s0.1,0.3,0.1,0.3v0.1
		c0,0,0,0,0.1,0.1l0,0c0,0,0,0,0,0.1c0,0,0,0.1,0,0.2l0,0l0.1,0.4v0.2c-0.3-0.9-0.6-1.5-0.8-1.7l0,0c-0.1-0.1-0.2-0.2-0.3-0.4
		c-0.1-0.1-0.2-0.2-0.2-0.3c-0.1-0.1-0.2-0.2-0.3-0.3l0,0v0.2c-0.1,0-0.1,0-0.1-0.1s-0.2-0.3-0.5-0.8l0.1-0.3v0.1
		c0.7,0.7,1.1,1.4,1.4,2c0.1,0.2,0.2,0.4,0.3,0.8l0.2,0.8c0.1,0.5,0.1,0.8,0,1c-0.1,0.3-0.2,0.6-0.3,0.7c-0.1,0.4-0.5,0.8-1.1,1.3
		c-0.4,0.4-1.1,0.9-2,1.4s-1.9,1.1-2.9,1.7l-1.3,0.9c-0.5,0.3-0.9,0.7-1.4,1.1c-1,0.9-1.6,1.9-2,3.1v0.1L65.8,42
		c-0.1,0.5-0.1,1-0.1,1.4c0,0.2,0,0.3,0,0.4c0,0.1,0.1,0.2,0.1,0.3s0,0.1,0,0.1c0.1,0.4,0.2,0.8,0.3,1.2l0.1,0.3l-0.4-1
		c-0.3-0.8-0.4-1.7-0.1-2.8c0.2-0.7,0.4-1.4,0.7-1.9c0.7-1.2,1.7-2.3,3-3.2l1.6-1.1l1.9-1.1c0.2-0.2,0.7-0.5,1.3-0.8l0.4-0.3
		c1.1-0.7,1.8-1.3,2-1.8c0.1-0.2,0.2-0.5,0.3-1v-0.2l-0.3-1.1c-0.2-0.4-0.3-0.7-0.5-1.1s-0.4-0.6-0.6-0.8l0,0l-0.7-0.7
		c0-0.1-0.1-0.2-0.2-0.3l-0.9-1.1v0.1v0.1c0,0,0,0,0.1,0.1c0.2,0.2,0.3,0.3,0.4,0.5s0.3,0.4,0.4,0.5c1,1.2,1.6,2.4,1.9,3.4v0.2v0.1
		c0,0,0,0.1,0,0.2c0.1,0,0,0.2,0,0.5l-0.2,0.5c-0.4,0.4-0.8,0.8-1.2,1.1c-0.7,0.5-1.5,1.1-2.4,1.5l-0.2,0.1l0,0
		c-1.2,0.6-2.2,1.3-3.1,1.9c-1.7,1.2-3,2.6-3.7,4.2c-0.1,0.2-0.2,0.4-0.2,0.6l-0.2,1.2c0,0,0,0.1,0,0.2c0,0.1,0,0.2,0,0.4
		c0,0.1,0,0.3,0,0.5v0.3l0.1,0.1v0.1c0,0.3,0.1,0.5,0.2,0.7v0.2c0.2,0.6,0.5,1.2,0.9,1.7c0.5,0.6,1,1.2,1.6,1.6l1.1,0.6
		c2.1,1.3,4.9,1.9,8.5,1.9c2.1,0,4-0.2,5.8-0.6V50l0,0h0.1v-0.1c0.5-0.1,0.8-0.2,0.8-0.2s0.1,0,0.1-0.1c0.3-0.1,0.5-0.2,0.6-0.4
		c0-0.1,0-0.2-0.2-0.3c0-0.1,0.1-0.2,0.1-0.2c0.2-0.4,0.3-0.7,0.5-1.1c0.1-0.4,0.2-0.8,0.3-1.2l0.7-2.3l0.3-1.2l0.1-0.3
		c0.2-1,0.4-1.6,0.4-1.9l0.1-0.7c0-0.1,0-0.3,0-0.4l0.1-0.2v-0.2l0.2-0.8l0.1-0.1c0-0.1,0-0.1,0-0.2c0,0,0-0.1,0-0.2
		c0.2-0.6,0.4-1.2,0.5-1.8l0.6-3.3c0.1-0.4,0.2-0.7,0.3-0.7l0,0c0,0,0-0.1,0.1-0.1c0,0,0.1,0,0.2-0.1c0.1,0,0.2-0.1,0.5-0.1
		c1.1,0,2,0.3,2.9,0.9l0.4,0.4c0.4,0.5,0.6,1.1,0.5,1.6v0.1v0.3c-0.2,0.5-0.5,0.9-0.7,1.2l-0.2,0.1v0.2l0,0H93h0.1l0,0
		c0,0,0,0,0.1-0.1l0,0l0,0v-0.1l0,0l0.1-0.1c0,0,0.1,0,0.1-0.1s0.1-0.2,0.1-0.3h0.1l-0.4,0.6c-0.1,0-0.1,0.1-0.1,0.1l0,0
		c0,0,0,0-0.1,0l0,0h-0.1c0,0,0,0-0.1,0.1h-0.1h-0.1v0.1v0.1l0.3-0.1l0,0l0,0l0,0l0,0l0,0l0.1-0.1v0.1c0.1,0,0.2,0,0.2,0l0,0
		l0.1-0.1h0.1c-0.1,0.2-0.2,0.3-0.4,0.4l0,0c-0.1,0.1-0.2,0.1-0.3,0.2l0,0h0.1h0.1H93c0,0,0.1,0,0.1-0.1c0.1,0,0.1,0,0.2,0l-0.2,0.1
		c-0.1,0.1-0.3,0.2-0.4,0.2h-0.2c-0.1,0-0.1,0-0.1,0l0,0l0,0v0.1l0.1,0.1h0.1h0.1c0,0,0,0,0,0.1c0.1,0,0.1-0.1,0.2-0.1H93
		c0.2-0.1,0.3-0.1,0.4-0.2c0.1-0.1,0.2-0.1,0.2-0.2l0,0c0.2-0.1,0.3-0.2,0.3-0.3c0.1-0.1,0.3-0.3,0.5-0.6c-0.2,0.5-0.5,0.8-0.8,1
		s-0.6,0.4-0.8,0.4c0,0,0,0.1-0.1,0.1s-0.2,0-0.2,0h-0.1l-0.1-0.1l0,0c0,0,0,0,0-0.1c0,0,0-0.1-0.1-0.1l0,0l0,0h-0.1l0,0v0.1l0,0
		l0.1,0.3l0.1,0.1h0.1c0,0,0,0,0.1,0.1c0.1,0,0.2,0.1,0.3,0.1c0.1,0,0.2,0,0.4-0.1h0.2c0.2-0.1,0.3-0.1,0.3-0.2
		c0.1,0,0.1-0.1,0.2-0.2c0.1-0.1,0.1-0.1,0.2-0.1v0.1c0,0,0,0-0.1,0l0,0c0,0-0.1,0-0.1,0.1c-0.1,0-0.2,0.1-0.3,0.2
		c-0.1,0.1-0.2,0.1-0.3,0.1c-0.1,0-0.2,0.1-0.2,0.1H93c0,0-0.1,0-0.2,0s-0.1,0-0.2,0l-0.2-0.1h0.2l0,0l0,0l0,0h-0.1
		c-0.1,0-0.2,0-0.2-0.1c-0.1,0-0.1-0.2-0.1-0.3v-0.2v-0.1c-0.1,0-0.1,0.1-0.1,0.1s0,0-0.1,0.1l0,0c0,0.2,0,0.3,0.1,0.5
		c0.1,0.1,0.3,0.3,0.6,0.4c0.5,0,1-0.2,1.5-0.5v0.1c-0.4,0.3-0.9,0.4-1.4,0.5v0.1c0.1,0,0.2,0,0.3,0H93l0,0h-0.2
		c-0.2,0-0.4-0.1-0.7-0.2c-0.2-0.1-0.3-0.3-0.4-0.6c0-0.1,0-0.2,0-0.3s0.1-0.2,0.1-0.2c0.1-0.1,0.1-0.1,0.1-0.2l0.1-0.1h-0.1
		c0,0-0.1,0.1-0.2,0.1c-0.1,0.1-0.1,0.1-0.2,0.2c0,0.1-0.1,0.2-0.1,0.3s0,0.3,0,0.5s0.1,0.3,0.3,0.5c0.2,0.1,0.4,0.2,0.6,0.2l0,0
		l0,0v0.1v0.1h0.2v0.1c0.5-0.1,1.1-0.2,1.6-0.5l0,0c-0.5,0.3-1,0.5-1.6,0.5s-1.1-0.3-1.4-0.9C91,38.2,90.9,38,91,37.7
		c0-0.2,0.1-0.3,0.1-0.4c0.1-0.1,0.2-0.2,0.3-0.3c0.1,0,0.2-0.1,0.2-0.1l0.1-0.1c0,0,0.1,0,0.1-0.1l0,0v-0.1h-0.1l-0.2,0.1
		c-0.4,0.2-0.6,0.4-0.8,0.7c-0.1,0.4-0.1,0.7-0.1,0.9s0.1,0.4,0.2,0.6V39v0.1c0,0.1,0.1,0.1,0.2,0.1c0.1,0.2,0.3,0.3,0.4,0.3
		c0.2,0.2,0.5,0.2,0.9,0.2c0.6,0,1.2-0.1,1.6-0.4c0.3-0.2,0.5-0.3,0.7-0.4c-0.3,0.3-0.7,0.5-1.4,0.8c-0.4,0.1-0.8,0.2-1.2,0.2h-0.4
		V40l0,0c0,0,0,0,0.1,0l0,0c-0.2-0.1-0.6-0.2-1.1-0.5l-0.3-0.3c0.1,0.3,0.4,0.5,1,0.8c0.5,0.1,0.9,0.1,1.2,0.1
		c0.7-0.1,1.4-0.4,2.2-0.9c0.5-0.4,1-0.9,1.5-1.6c0.5-0.7,0.9-1.5,1.1-2.4c0.2-0.7,0.2-1.5,0-2.2c-0.1-0.7-0.3-1.2-0.4-1.5
		c-0.4-0.8-0.7-1.3-1.1-1.6c-0.6-0.7-1.3-1.2-2.1-1.5l0,0l0,0c0.1,0.1,0.3,0.2,0.5,0.2s0.3,0.1,0.5,0.2c1.4,0.8,2.3,1.9,2.8,3.3
		c0.3,0.9,0.3,2,0.1,3.1l-0.2,0.7c-0.3,0.6-0.4,1-0.5,1.1l-0.1,0.1L96.7,38v0.1l-0.2,0.1c-0.1,0.1-0.2,0.2-0.3,0.3
		c-0.1,0.1-0.2,0.2-0.2,0.2c0,0.1-0.1,0.1-0.1,0.2S95.8,39,95.7,39s-0.1,0.1-0.1,0.1l-0.3,0.2c-0.4,0.3-0.8,0.5-1.2,0.7
		c-0.2,0-0.4,0.1-0.5,0.1c-0.3,0.1-0.8,0.1-1.5,0.1c-0.1,0-0.2,0-0.3,0c-0.5,0-0.9-0.2-1.2-0.6v-0.1c-0.2-0.1-0.3-0.4-0.4-1
		c0-0.2,0-0.3,0-0.5c0,0,0-0.2,0-0.4l0.1-0.2h-0.1h-0.1v0.2c-0.1,0.7,0.1,1.4,0.5,2l0.5,0.3c0.3,0.3,0.8,0.4,1.4,0.5
		c0.5,0,1-0.1,1.5-0.2c0.5-0.2,0.9-0.4,1.5-0.7l0.7-0.6c0.1-0.1,0.1-0.2,0.2-0.2l0.1-0.1c0,0,0,0,0-0.1c0,0,0-0.1,0.1-0.1h0.1
		l0.2-0.3l0.6-0.9c0.1-0.2,0.2-0.3,0.2-0.4c0-0.1,0.1-0.1,0.1-0.2c0,0,0.1-0.1,0.1-0.2c0.3-0.8,0.5-1.4,0.6-2c0.1-0.9,0-1.9-0.2-2.9
		L98,30.8c-0.3-0.5-0.6-1-0.9-1.4l-0.6-0.6c-0.5-0.4-1-0.7-1.6-0.9l0,0c-0.4-0.2-0.8-0.4-1.3-0.6c-0.5-0.1-0.9-0.2-1.1-0.2h-0.4
		C91.8,27,91.5,27,91.2,27s-0.6,0-1,0.1l-0.5,0.1c-0.1,0-0.2,0-0.3,0c-0.1,0-0.2,0.1-0.3,0.1c-0.8,0.3-1.5,0.6-2,1.1l-0.5,0.4
		c-0.4,0.3-0.8,0.9-1.3,1.7c-0.3,0.5-0.4,0.9-0.5,1.2c-0.1,0.2-0.2,0.6-0.3,1.1c0,0.3-0.1,0.6-0.1,0.8l-0.4,2l-0.2,1.7
		c-0.2,1-0.4,1.7-0.4,2c-0.3,1.3-0.5,2.2-0.5,2.7c-0.4,2-0.7,3.1-0.8,3.4c0,0-0.1,0-0.2,0s-0.4,0-0.7,0.1c-0.7,0.1-1.4,0.1-2.1,0.1
		c-0.9,0-1.7,0-2.6-0.1l-1-0.1h-0.1c-0.1,0-0.3,0-0.8-0.1c-1.5-0.3-2.6-0.8-3.3-1.4c-0.7-0.6-1.1-1.2-1.1-1.8l-0.1-0.3v-0.1v-0.1
		v-0.2c0.1-0.2,0.1-0.4,0.2-0.5l0.1-0.1l0,0h0.1v-0.1c0,0,0,0,0.1,0l0,0l0.2-0.2c0.6-0.6,1.8-1.4,3.4-2.5l1.6-1
		c0.6-0.4,1.3-0.9,1.9-1.4l0.7-0.6l0.8-0.9l0.6-0.8l0.1-0.3l0.1-0.1c0.3-0.5,0.5-1.1,0.7-1.7l0.2-0.7c0-0.3,0-0.5,0-0.8v-0.2
		c0-0.3,0-0.4,0-0.4s0,0,0-0.1v-0.1l-0.1-0.4c-0.1-0.5-0.2-0.8-0.2-0.8s0-0.1-0.1-0.2c0-0.1-0.1-0.2-0.1-0.3c0,0-0.1-0.1-0.1-0.2
		c-0.2,0.1-0.3,0-0.3-0.1l0,0l-0.2-0.4c-0.3-0.5-0.5-0.9-0.9-1.2h18.8l3.1-0.1c0.5,0,0.9,0,1.3,0c-0.1,0-0.3,0-0.4,0
		c-0.2,0-0.4,0-0.6,0s-0.3,0-0.3,0c-0.1,0-0.1,0-0.1,0s0.3,0,0.8,0h2.8h12.8c-2.9,1.5-5.8,3.3-8.9,5.5c-2.5,1.8-4.4,3.6-6,5.5
		l-0.4,0.5c0,0.1-0.1,0.1-0.2,0.2c-0.7,1-1.2,1.7-1.4,2.1c-0.5,0.8-0.8,1.7-1,2.6c-0.1,0.6-0.2,1.2-0.1,1.8c0,0.1,0,0.2,0,0.3l0,0
		c0,0.3,0.1,0.5,0.1,0.5s0,0.1,0.1,0.3c0,0.1,0.1,0.3,0.1,0.4c0,0.1,0.1,0.2,0.1,0.3c0.1,0.2,0.2,0.4,0.3,0.5c0.6,1,1.2,1.8,1.9,2.2
		l0.6,0.4c1.3,0.9,2.9,1.6,4.8,2.2l2.1,0.5c0.1,0,0.1,0,0.2,0s0.3,0.1,0.5,0.1c0.3,0,0.4,0.1,0.5,0.1l1,0.1c1.5,0.2,2.9,0.3,4.5,0.3
		l0,0c1.2,0,1.9,0,2.1-0.1c0.3,0,0.5-0.1,0.7-0.2l0,0c0-0.2-0.1-0.4-0.5-0.5c0.2,0,0.3-0.1,0.3-0.1h0.1c0.1,0,0.1,0,0.1-0.1h-0.2
		l0,0c0.1,0,0.1-0.2,0.2-0.4s0.1-0.5,0.1-0.9l0,0v-0.1c0.1-0.4,0.2-0.7,0.4-1c0.2-0.6,0.4-1.2,0.6-1.8s0.3-1.2,0.5-1.9l0.2-0.9
		c0.2-1,0.5-1.9,0.7-2.9c0.2-0.6,0.3-1.2,0.4-1.9l0.1-0.4l0.4-1.8l0.5-2.2l0.1-0.7l0.1-0.6c0.1-0.5,0.2-0.9,0.3-1.3l0.1-0.2
		c0-0.1,0-0.2,0-0.3s0-0.2,0-0.3c0.3-1,0.7-2.6,1.2-5c0.1-0.1,0.1-0.1,0.2-0.1h-0.2v-0.3l0,0l0,0v-0.4l0,0c0.1,0,0.2,0,0.3,0h0.2
		c1.2,0,2.3,0,3.4,0l-0.7,3.3c-0.2,1.1-0.4,2.1-0.6,3.2c-0.4,1.9-0.7,3.1-0.7,3.7l-1.1,5l-0.5,2.5c-0.1,0.2-0.5,2.1-1.3,5.6
		c-0.3,1.1-0.5,2.2-0.8,3.2l-0.5,1.9l-0.1,0.8c0.6-1.8,1.4-4.6,2.2-8.3v0.1l-0.6,2.8c-0.2,0.5-0.3,1.2-0.5,2.1l-0.6,2.2l-0.2,0.7
		c0,0.1,0,0.2,0,0.4c0.5-1.8,1-3.6,1.5-5.3l0,0c0.1,0,0.1,0,0.1-0.1h-0.1l0.1-0.1v-0.3c0,0,0,0,0.1,0c0.1-0.1,0.2-0.3,0.2-0.5
		c0.1-0.2,0.1-0.3,0.2-0.4c-0.1,0.3-0.1,0.6-0.2,0.9c-0.1,0.6-0.2,1-0.2,1.3c0.1-0.2,0.2-0.5,0.3-0.8c0-0.2,0.1-0.4,0.2-0.6
		l-0.6,2.5c-0.2,1.1-0.5,2.1-0.8,3.2c0.1,0,0.1-0.1,0.1-0.1c0.1-0.6,0.2-1.1,0.4-1.4c0.1-0.3,0.2-0.7,0.3-1.1
		c0.1-0.4,0.2-0.8,0.4-1.2l0.4-1.6c0.1-0.4,0.3-0.9,0.4-1.5c0.1-0.3,0.2-0.6,0.3-1c-0.2,0.7-0.3,1.2-0.4,1.6
		c-0.1,0.5-0.2,0.9-0.3,1.1c-0.1,0.4-0.2,0.7-0.2,0.9c-0.1,0.2-0.1,0.4-0.2,0.6c0,0.1,0,0.3,0,0.5c0,0.1-0.1,0.2-0.1,0.3L124,52
		l-0.2,0.8l0,0c0,0,0,0.2,0,0.4v0.1l-0.2,1.1v0.1h0.1v-0.1c0.2-0.5,0.3-0.9,0.4-1.4v-0.2l0.1-0.1l0,0l0.2-1.3
		c0.1-0.4,0.2-0.8,0.3-1.2l0.3-1.4l0.2-0.6l-0.5,2.2c0,0.1,0,0.3,0,0.4l-0.1,0.4v-0.1v-0.2l-0.1,0.2c0,0.2,0,0.4,0,0.4s0,0.2,0,0.3
		c-0.2,0.7-0.4,1.4-0.6,2c0,0.1-0.1,0.2-0.1,0.3c0,0.2,0,0.4,0,0.6c0.6-2.1,1.2-4.1,1.6-6.1h0.1l0,0l-0.2,0.7l-0.3,1.3
		c0.1-0.1,0.1-0.2,0.2-0.3c0-0.1,0-0.1,0.1-0.1v0.2c-0.2,0.8-0.4,1.6-0.6,2.4c-0.1,0.5-0.2,0.8-0.3,1.2c-0.1,0.2-0.1,0.4-0.1,0.6
		c0.5-1.4,0.8-2.7,1.1-3.7h0.2c0,0,0.1,0,0.1-0.1s0-0.1,0-0.1l0,0l0.1-0.7l0.3-1l0,0l-0.5,1.7c-0.3,1.1-0.6,2-0.7,2.7l-0.3,1.3v0.1
		l0,0c0.1,0,0.1-0.1,0.1-0.2c0-0.1,0.1-0.2,0.1-0.3c0.1-0.3,0.2-0.5,0.2-0.7s0.1-0.4,0.2-0.6c0.1-0.2,0.1-0.4,0.2-0.6
		c0.1,0,0.1-0.1,0.1-0.2V52c0.1-0.2,0.2-0.4,0.2-0.8c0.2-0.6,0.4-1.2,0.6-2c0.1-0.3,0.1-0.5,0.2-0.7l-0.1,0.7
		c-0.1,0.2-0.1,0.5-0.2,0.7s-0.1,0.5-0.2,0.7l-0.1,0.7l0.1-0.2l0,0c-0.1,0.3-0.2,0.7-0.3,1.3v-0.1c0.1-0.6,0.3-1.2,0.5-1.8
		c0.5-1.3,0.8-2.5,1.2-3.8l0.8-3.5c0.1-0.3,0.2-0.5,0.2-0.8l0.3-1.4l0.1-0.9c0.2-0.6,0.3-1.2,0.5-1.8c0.1-0.6,0.2-1.1,0.4-1.6
		c0.1-0.5,0.3-1,0.4-1.5v-0.1c0,0,0.1,0,0.1-0.1c-0.1,0.2-0.1,0.4-0.2,0.8c0,0.1,0,0.4-0.1,0.9l-0.3,1.3l-0.7,3.2
		c-0.1,0.5-0.3,0.9-0.4,1.4c-0.1,0.5-0.2,0.9-0.4,1.4c-0.1,0.5-0.2,0.9-0.3,1.3l-0.6,2.1c-0.1,0.3-0.2,0.6-0.2,0.9
		c-0.3,1-0.5,1.7-0.6,2.1l-0.1,0.4c0,0.1,0,0.2,0,0.4s0,0.4,0,0.6c0,0.2-0.1,0.4-0.2,0.6c-0.1,0.2-0.1,0.4-0.2,0.6
		c0,0.2-0.1,0.4-0.2,0.6l0,0l0.1-0.1c0.1-0.5,0.2-0.9,0.4-1.2l0.6-2c0.3-0.7,0.5-1.5,0.6-2.2l0.2-0.9c0.2-1.1,0.5-2.2,0.8-3.3
		c0.2-0.7,0.4-1.6,0.6-2.7c0.1-0.5,0.4-1.6,0.8-3.5l0.3-1.2c0-0.3,0.1-0.8,0.2-1.6l0.5-2l0.1-0.5c0.3-1.1,0.5-2.2,0.8-3.3
		c0.3-1.3,0.5-2.6,0.8-3.9h1.7c0.9,0,1.7,0,2.5-0.1c0.8,0,1.4,0,1.6-0.1l0,0c0-0.2-0.5-0.3-1.7-0.4c0.1,0,0.4,0,0.8,0h0.7l0,0l0,0
		c-0.1,0-0.2,0-0.4,0l0,0h0.1c0.3,0,0.5-0.2,0.6-0.6c0-0.4-0.1-0.7-0.4-1.1c-0.3-0.4-0.8-0.6-1.4-0.6h0.7c0.1,0,0.2,0,0.3,0
		s0.2,0,0.2,0c-0.2-0.1-0.9-0.1-2-0.1h1.2c0,0-0.6,0-1.9,0c0.3-0.5,0.6-1.1,1-1.7s0.7-1.2,1.2-1.8l1.3-1.9l0.6-1
		c0.6-0.8,1.2-1.9,1.8-3.2c0.4-0.7,0.6-1.4,0.9-2.1c0.1-0.4,0.2-0.8,0.3-1.1c0.2-0.7,0.2-1.2,0.1-1.4l0,0c0-0.1,0-0.2,0-0.3
		C142.3,6.9,142.3,6.8,142.3,6.5z M31.5,9.9C32,9.1,32.7,8.5,33.4,8C32.7,8.6,32,9.3,31.5,9.9L31.5,9.9z M31.2,11
		c0.3-0.7,0.8-1.4,1.3-1.9c-0.4,0.5-0.7,0.9-1.1,1.5L31.2,11z M21.6,25L21.6,25h-0.1H21.6z M21.4,25.2h0.1v0.1l-0.1,0.1V25.2z
		 M21.4,25.6l0.1-0.1v0.3h-0.1V25.6z M20,47.3L20,47.3L20,47.3v0.3h-0.1h-0.2l0.3-0.8c0.1-0.4,0.2-0.9,0.3-1.3
		c0.1-0.3,0.1-0.4,0.1-0.5l-0.3,1.7L20,47.3C19.9,47.4,20,47.4,20,47.3z M19.7,34.5c0-0.1,0-0.2,0-0.5l0.1-0.5l0.8-4.3
		c0-0.4,0.1-0.8,0.2-1.2l0,0l0,0l-0.2,0.9C20.6,30.1,20.3,32,19.7,34.5z M19.8,44.8c-0.1,0.5-0.3,0.9-0.4,1.3v-0.3
		C19.5,45.4,19.6,45.1,19.8,44.8z M21.1,26.3L21.1,26.3c-0.5,0.3-1,0.5-1.5,0.8l-0.8,0.4c-0.5,0.3-0.9,0.5-1.3,0.7
		c-0.3,0.2-0.6,0.3-0.8,0.3c0.8-0.5,1.6-0.9,2.3-1.2c0.3-0.1,0.6-0.3,0.8-0.5C20.2,26.6,20.6,26.4,21.1,26.3L21.1,26.3
		c-0.1,0-0.1,0-0.2,0s-0.2,0.1-0.2,0.1L21.1,26.3z M17.3,28l0.1-0.2c0.5-0.3,1.1-0.6,1.7-0.9l1.3-0.7c-0.1,0-0.2,0-0.3,0.1
		c-0.1,0-0.2,0.1-0.3,0.1c-0.1,0-0.2,0.1-0.2,0.1l0.4-0.2l1.3-0.6V26C19.8,26.6,18.5,27.2,17.3,28z M18.4,26.6l-1,0.5l0,0
		c0.8-0.5,1.7-0.9,2.5-1.3L18.4,26.6z M18.7,26.7L18,27c-0.5,0.3-1,0.6-1.6,0.8C17.2,27.4,17.9,27,18.7,26.7z M17.7,28.3
		c0.5-0.3,1-0.5,1.4-0.7s0.8-0.4,1.1-0.6c0.3-0.2,0.6-0.3,0.8-0.4v0.3c-0.4,0.2-0.7,0.3-1.1,0.4c-0.6,0.4-1.3,0.7-2,1
		s-1.4,0.7-2,1.1s-1.2,0.7-1.8,1C14.9,29.9,16.2,29.1,17.7,28.3z M18.3,28.8L18.3,28.8c0,0-0.1,0-0.2,0v0.1c-0.1,0-0.3,0.1-0.4,0.2
		s-0.3,0.2-0.4,0.3c0.1-0.1,0.2-0.2,0.2-0.2l0,0c-0.3,0-0.5,0.1-0.7,0.2s-0.4,0.2-0.6,0.3c0.5-0.3,1-0.6,1.6-0.9
		c0.5-0.3,1.1-0.6,1.6-0.9c-0.2,0-0.3,0.1-0.5,0.2s-0.3,0.2-0.5,0.2c-0.1,0.1-0.2,0.1-0.3,0.2c-0.1,0-0.2,0.1-0.4,0.2
		c-0.2,0.1-0.3,0.2-0.5,0.2c1.3-0.7,2.6-1.4,3.8-2l-0.1,0.6C20,28,19.1,28.4,18.3,28.8L18.3,28.8L18.3,28.8z M14.6,31.3L14.6,31.3
		c2.1-1.3,4.1-2.5,6.2-3.5v0.1c-2.3,1.1-4.4,2.3-6.5,3.7C14.3,31.5,14.5,31.4,14.6,31.3z M20.9,27.8L20.9,27.8l0.2-0.2v0.1
		L20.9,27.8z M21,27.5l0.1-0.6h0.2l-0.1,0.6H21z M21.1,26.8c0.1-0.1,0.1-0.2,0.2-0.3l0,0v0.2L21.1,26.8z M21.3,26.2L21.3,26.2
		L21.3,26.2C21.4,26.2,21.3,26.2,21.3,26.2z M21.3,25.2v0.2l-0.7,0.3l0,0v-0.1l0,0l0,0c-0.1,0.1-0.1,0.1-0.2,0.1h-0.1L21.3,25.2
		L21.3,25.2z M20.5,25h0.2H20.5h-0.3C20.3,25,20.4,25,20.5,25z M20.3,25.2c-1.1,0.5-2.1,1-2.9,1.4C17,26.8,16.7,27,16.5,27
		c0.8-0.5,1.6-0.9,2.4-1.3l1.1-0.5H20.3z M19.3,25h0.5h-0.1h-0.5H19.3z M3,25.1C4.8,25,8.1,25,12.8,25h5.7h-0.1L3,25.1z M3.2,36.9
		c-0.1,0-0.1,0.1-0.2,0.2c-0.5,0.6-0.7,0.9-0.7,1c0,0-0.1,0.1-0.1,0.2c0,0.1-0.1,0.1-0.1,0.2c0,0.1-0.1,0.1-0.1,0.2
		c0,0.1-0.1,0.1-0.1,0.2l-0.3,0.5c-0.5,1-0.8,1.9-1,2.6c-0.2,0.7-0.2,1.4,0,2.1v0.4l0,0c-0.1-0.4-0.1-0.9-0.1-1.4v-0.2
		c0-0.3,0-0.4,0-0.5c0,0,0-0.4,0.2-0.9c0.2-0.9,0.6-1.9,1.3-3l0.6-0.8c0.2-0.4,0.5-0.7,0.7-1l0.3-0.5c0.7-0.8,1.5-1.6,2.4-2.4
		c2.8-2.5,5.8-4.7,9-6.5c1.3-0.7,2.7-1.5,4-2.1h0.4c-4.7,2.1-9.3,5.1-13.6,9.1c-0.3,0.3-0.5,0.5-0.7,0.7s-0.3,0.4-0.5,0.5
		C3.7,36.3,3.2,36.8,3.2,36.9z M16.7,47.5l-0.5-0.1c-1.2,0-2.3-0.2-3.4-0.4s-2.2-0.5-3.3-0.8L8,45.7c-1.1-0.5-2.1-1-2.8-1.7
		c0-0.1-0.1-0.1-0.1-0.1L5,43.8c0,0-0.1-0.1-0.2-0.2c-0.1-0.1-0.1-0.1-0.2-0.2c-0.1-0.1-0.1-0.2-0.1-0.2c0-0.1,0-0.1,0-0.2
		c-0.1-0.2-0.2-0.4-0.2-0.6c0-0.2,0-0.4,0-0.7v0.5c0,0.3,0,0.6,0.1,0.8L5,43.7c0.4,0.5,0.9,0.9,1.6,1.3c1.2,0.7,2.8,1.2,4.6,1.6
		c0.1,0,0.2,0.1,0.4,0.1s0.4,0.1,0.6,0.1c0.2,0.1,0.5,0.1,0.7,0.2l3.6,0.3v0.2H16.7z M11.1,46.3c-1.6-0.4-3-0.9-4.2-1.6l-0.5-0.3
		l-1-0.9l-0.5-0.8l0,0v-0.1c0,0,0,0,0-0.1v-0.1l0,0v-0.1c0-0.1,0-0.2,0-0.4L5,41.4C5.1,41,5.3,40.5,5.6,40l0.3-0.5
		c1.2-1.7,3-3.5,5.4-5.3c3.1-2.4,6.3-4.5,9.7-6.2l-0.8,4l-2,9.7L17,47C14.7,47,12.9,46.7,11.1,46.3z M17,47.4L17,47.4L17,47.4
		l-0.1,0.1L17,47.4L17,47.4L17,47.4z M16.9,47.2c0.1-0.2,0.4-1.6,1-4.2v-0.1c0,0,0,0.1,0,0.2l-0.3,1.5c-0.1,0.6-0.3,1.1-0.4,1.5
		C17.2,46.4,17.1,46.8,16.9,47.2L16.9,47.2z M17.1,47.4L17.1,47.4h0.3l0.3-0.1L17.1,47.4l0.5-1.8h0.1l0,0l0,0h-0.1l0.1-0.1l-0.1-0.1
		c0,0,0-0.1,0-0.2c0,0.1,0,0.1,0,0.1l0,0l0,0c0.1-0.1,0.2-0.2,0.2-0.3s0.1-0.3,0.1-0.4V45c0,0.1,0,0.3-0.1,0.4
		c-0.1,0.2-0.1,0.3-0.2,0.5v0.6c0.1-0.2,0.2-0.5,0.3-0.7c0-0.2,0.1-0.4,0.2-0.6c-0.2,0.8-0.4,1.6-0.6,2.4l-0.1,0.2L17.1,47.4z
		 M17.9,47.5c0,0-0.1,0-0.2,0c0.1-0.3,0.2-0.6,0.4-0.9l0.1-0.4c0.1-0.3,0.1-0.6,0.2-0.9c0.1-0.3,0.2-0.6,0.2-1
		c0.1-0.4,0.2-0.7,0.3-1.1l-0.1,0.7c-0.1,0.5-0.2,0.9-0.3,1.1c-0.1,0.5-0.2,0.7-0.2,0.9l-0.2,0.8L18,47.4L17.9,47.5z M18.4,47.1
		l-0.1,0.5h-0.1v-0.1c0.1-0.3,0.3-0.9,0.4-1.7l0.2-0.6c0-0.2,0.1-0.4,0.2-0.5c-0.1,0.5-0.2,0.9-0.4,1.4l-0.1,0.6
		c0,0.3-0.1,0.5-0.2,0.7v-0.3H18.4z M18.5,47.6l0.6-2.4h0.1c-0.2,0.5-0.3,1-0.5,1.7c0.1-0.1,0.1-0.1,0.2-0.2l-0.2,0.8h-0.2V47.6z
		 M19.2,47.6h-0.3l0.1-0.5h0.1l0,0V47c0-0.1,0.1-0.1,0.1-0.1L19.2,47.6z M19.4,46.9l0.4-1.5l0,0L19.4,46.9z M19.6,47.9l0.3-0.1
		l-0.1,0.4C19.8,48.1,19.7,48,19.6,47.9z M23.3,36L23,37.3L22.9,38c0,0.2-0.1,0.5-0.2,0.8s-0.2,0.7-0.3,1c-0.2,0.8-0.4,1.6-0.6,2.4
		c-0.6,2.2-1,3.7-1.2,4.4L20.5,47l-0.1,1c0,0.1-0.1,0.3-0.1,0.4c-0.1,0.1-0.1,0.3-0.1,0.4c0,0.1-0.1,0.3-0.1,0.4c0-0.4,0-0.7-0.1-1
		l0.1-0.5h0.1c0.1-0.4,0.2-0.7,0.3-1c0.5-1.6,1-3.2,1.4-4.9c0.1-0.5,0.3-1,0.4-1.4c0.2-0.9,0.3-1.5,0.4-1.9l0.4-1.8l0.1-0.5
		c0.1-0.5,0.3-0.9,0.4-1.4c0.1-0.4,0.2-0.8,0.3-1.3v-0.1L23.3,36z M50,12.3c-0.1,0-0.2,0-0.3-0.1h-1.4c-0.9,0-2.1,0.2-3.4,0.5
		c-0.8,0.2-1.6,0.4-2.4,0.7h0.1c0.2-0.1,0.7-0.3,1.5-0.5l0.9-0.2c0.9-0.2,1.7-0.4,2.5-0.4h0.8c0,0,0.1,0,0.2,0c0.2,0,0.3,0,0.4,0
		h0.4c0.4,0,0.6,0,0.6,0S49.9,12.3,50,12.3h0.3l0,0c0.3,0,0.9,0.2,1.7,0.6c0.8,0.4,1.5,1,2,1.9l0.1,0.2l0,0c0.1,0,0.1,0.1,0.1,0.2
		c0,0.1,0,0.2,0,0.3l0,0v0.1c0.2,0.7,0.2,1.3,0.1,1.7v0.3c-0.2,0.8-0.3,1.4-0.5,1.8l0.3,0.6c0,0.1-0.1,0.3-0.2,0.6l-0.1,0.1
		c0,0.1-0.1,0.1-0.1,0.2s-0.1,0.2-0.3,0.4c-0.2,0.2-0.2,0.3-0.2,0.4c0,0,0,0.1-0.1,0.1H53l0.2-0.4c0.4-0.5,0.6-1,0.9-1.6l0.3-0.7
		l0.3-1.4c0-0.3,0-0.5,0.1-0.7c0-0.5-0.1-0.9-0.3-1.4c0-0.2,0-0.4-0.2-0.7c-0.3-0.6-0.7-1.1-1.2-1.5c-0.6-0.4-1.2-0.7-1.8-0.8
		l-0.8-0.2C50.2,12.4,50.1,12.3,50,12.3z M29.3,22.3h-0.1c0,0,0,0-0.1,0C29.1,22.3,29.2,22.3,29.3,22.3z M26,25h2.2H26L26,25z
		 M48.4,25H29.6c0.3,0,0.6,0,0.8-0.1h1.1L48.4,25L48.4,25z M48.9,25h3.2h0.7c0.1,0,0.1,0,0.2,0H48.9L48.9,25z M61.5,25.1h-8.8h1.1
		c0.5,0,1,0,1.3,0H61.5L61.5,25.1z M60.4,59c-1,0-1.7-0.2-2.2-0.4C59,58.7,59.7,58.9,60.4,59z M66.6,25.1L66.6,25.1l2.3-0.1h0.3
		L66.6,25.1z M69.5,25.1c0.1,0,0.2,0,0.3,0c1.5,0,3.1-0.1,4.6-0.1l0.1,0.1H69.5z M93.6,39c0.2-0.1,0.3-0.2,0.5-0.3s0.4-0.2,0.6-0.3
		C94.4,38.7,94,38.9,93.6,39z M89.2,32.2L89.2,32.2l0.2-0.2c0.1,0,0.2,0,0.3-0.1c0.1-0.1,0.4-0.1,0.7-0.1c0.2,0,0.5,0,0.7,0.1
		s0.5,0.1,0.8,0.2s0.5,0.2,0.8,0.4h-0.1c0,0-0.1-0.1-0.2-0.1c-0.1-0.1-0.4-0.2-0.8-0.3s-0.8-0.2-1.2-0.2c-0.3,0-0.5,0-0.7,0.1
		C89.4,32.2,89.3,32.3,89.2,32.2L89.2,32.2L89.2,32.2L89.2,32.2l-0.1,0.2L89,32.5v-0.1L89.2,32.2z M85.9,45.1l0.7-2.6
		c0.1-0.3,0.2-0.6,0.2-1c0.1-0.3,0.2-0.9,0.5-1.6l0,0l0,0l-0.2,0.9L87,41.4l-0.3,1.7l-0.2,0.7c-0.1,0.5-0.3,1-0.4,1.5
		c-0.1,0.4-0.3,0.8-0.4,1.2L85.5,47l-0.4,1.1L85,48.4c0-0.2,0-0.3,0-0.4C85.4,46.9,85.7,45.9,85.9,45.1z M85.1,48.7L85,49h-0.1l0,0
		l0,0C85,48.9,85,48.8,85.1,48.7z M84.9,47.1L84.9,47.1L84.9,47.1L84.9,47.1z M85,49.1l-0.1,0.2h-0.3L85,49.1z M83.4,39.5
		c0.2-0.8,0.3-1.5,0.4-2C84,36.6,84,36,84,35.9l0.2-0.5h0.1l-0.6,3.2l-0.1,0.5l-0.3,1.3C83.3,40.4,83.3,40.1,83.4,39.5z M83.3,45.8
		l-0.1,0.4h-0.1L83.3,45.8z M82.2,45.7C82.2,45.7,82.3,45.8,82.2,45.7C82.3,45.8,82.3,45.8,82.2,45.7l0.1,0.3h-0.1V45.7z M82.1,46.2
		L82.1,46.2L82.1,46.2L82.1,46.2L82.1,46.2z M70.1,43.8L70.1,43.8c0.4,0.5,0.8,1,1.3,1.3c0.7,0.4,1.6,0.7,2.6,1
		c0.4,0.1,0.8,0.2,1.3,0.2c0.2,0.1,0.4,0.1,0.6,0.1s0.4,0,0.7,0c0.1,0,0.3,0,0.6,0c0.3,0,0.6,0,1.1,0.1c0.7,0,1.5,0,2.2-0.1h0.8
		c0.2-0.1,0.4-0.1,0.6-0.1v0.1l0,0v0.1h-0.7c-0.7,0.1-1.3,0.1-2,0.1c-1.2,0-2.4-0.1-3.6-0.2L75,46.3h-0.3c-1.5-0.3-2.5-0.6-3.1-1.1
		c-1.2-0.7-1.8-1.6-1.8-2.7L70,43v0.3L70.1,43.8z M126.2,49.8l0.1-0.7c0.1-0.3,0.2-0.5,0.3-0.8C126.6,48.8,126.4,49.3,126.2,49.8z
		 M120.7,25L120.7,25L120.7,25L120.7,25z M120.5,25.2L120.5,25.2l0.1,0.1l-0.1,0.1V25.2z M120.5,25.6l0.1-0.1v0.3c0,0,0,0.1-0.1,0.1
		l0,0V25.6z M119.1,47.3C119.1,47.3,119.1,47.2,119.1,47.3L119.1,47.3v0.4H119h-0.2v-0.3c0.2-0.5,0.4-1.1,0.5-1.7
		c0-0.1,0.1-0.2,0.1-0.3s0.1-0.2,0.1-0.2v0.6c0,0.2-0.1,0.3-0.2,0.5s-0.1,0.4-0.2,0.6L119.1,47.3C119,47.4,119.1,47.3,119.1,47.3z
		 M119.4,31.6l-0.6,2.9c0-0.2,0.1-0.7,0.2-1.5l0.2-0.8c0.3-1.5,0.6-2.9,0.7-4.1h0.1L119.4,31.6z M118.9,44.8
		c-0.1,0.5-0.2,0.9-0.4,1.3l0.1-0.6C118.6,45.2,118.7,45,118.9,44.8z M120.2,26.3L120.2,26.3c-0.5,0.3-1,0.5-1.5,0.8l-0.9,0.4
		c-0.5,0.3-0.9,0.5-1.2,0.7c-0.3,0.2-0.6,0.3-0.8,0.3l2.2-1.2c0.3-0.1,0.6-0.3,0.9-0.5C119.3,26.6,119.7,26.4,120.2,26.3L120.2,26.3
		c-0.1,0-0.1,0-0.2,0s-0.2,0.1-0.2,0.1L120.2,26.3z M116.3,28v-0.2l1.7-0.9l1.3-0.7c-0.1,0-0.2,0-0.3,0.1c-0.1,0-0.2,0.1-0.3,0.1
		c-0.1,0-0.2,0.1-0.2,0.1l0.4-0.2l1.3-0.6V26C118.9,26.6,117.6,27.2,116.3,28z M116.5,27L116.5,27c0.9-0.5,1.7-0.9,2.6-1.3L116.5,27
		z M117.7,26.7l-0.5,0.3C117.4,26.9,117.6,26.8,117.7,26.7z M117,27.1c-0.5,0.3-1,0.6-1.5,0.8C116,27.5,116.5,27.3,117,27.1z
		 M116.8,28.3c0.5-0.3,0.9-0.5,1.4-0.7c0.4-0.2,0.8-0.4,1.3-0.7l0.6-0.3v0.3c-0.4,0.2-0.7,0.3-1.1,0.4
		C118.3,27.6,117.6,28,116.8,28.3c-0.6,0.4-1.3,0.7-1.9,1.2c-0.5,0.4-1.1,0.7-1.7,1C114,29.9,115.2,29.1,116.8,28.3z M117.4,28.8
		c-0.1,0-0.1,0-0.2,0.1V29c-0.2,0.1-0.4,0.2-0.4,0.3c-0.1,0.1-0.2,0.2-0.3,0.2c0.1-0.1,0.2-0.2,0.2-0.2l0,0c-0.3,0-0.5,0.1-0.7,0.2
		s-0.4,0.2-0.6,0.3c0.5-0.3,1-0.6,1.5-0.9l0,0c0.5-0.3,1.1-0.6,1.6-0.9c-0.4,0.1-0.9,0.3-1.6,0.7l-0.5,0.2c1.3-0.7,2.6-1.4,3.8-2
		l-0.1,0.6C119,28,118.2,28.4,117.4,28.8L117.4,28.8L117.4,28.8z M113.7,31.3L113.7,31.3c2.1-1.3,4.1-2.5,6.1-3.5v0.1
		c-2.2,1.1-4.4,2.3-6.5,3.7C113.4,31.5,113.5,31.4,113.7,31.3z M120,27.8L120,27.8l0.2-0.2v0.1L120,27.8z M120.1,27.5l0.1-0.6h0.1
		L120.1,27.5L120.1,27.5z M120.2,26.8c0.1-0.1,0.1-0.2,0.1-0.2c0-0.1,0-0.1,0-0.1s0,0,0.1,0v0.2L120.2,26.8z M120.4,26.2L120.4,26.2
		L120.4,26.2C120.5,26.2,120.4,26.2,120.4,26.2z M120.4,25.2v0.2l-0.7,0.3l0,0v-0.1c0,0,0,0-0.1,0s-0.1,0.1-0.2,0.1h-0.1l0,0
		L120.4,25.2L120.4,25.2z M119.6,25h0.2l-0.1,0.1h-0.4C119.4,25,119.5,25,119.6,25z M119.3,25.2c-1.1,0.5-2.1,1-2.9,1.4
		c-0.4,0.2-0.7,0.4-0.9,0.4c0.8-0.5,1.6-0.9,2.4-1.3l1-0.5H119.3z M118.4,25h0.5h-0.1H118.4L118.4,25z M102.7,22.4L102.7,22.4
		C102.6,22.4,102.6,22.4,102.7,22.4C102.7,22.4,102.7,22.4,102.7,22.4z M78.4,25L78.4,25L78.4,25L78.4,25L78.4,25z M78.8,26
		c0,0,0.1,0.2,0.2,0.4c0.4,0.5,0.6,1.1,0.9,1.7l-0.1,0.1c0,0.1,0,0.1,0.1,0.1c0,0.2,0.1,0.3,0.1,0.4l0,0c0.1,0.1,0.1,0.2,0.1,0.4
		c0-0.1,0-0.2-0.1-0.2v0.6c0,0,0,0.1,0,0.2s0,0.2,0,0.3c0,0.1,0,0.2,0,0.2v0.6c0-1.6-0.2-2.7-0.8-3.4c0,0.3,0.1,0.5,0.2,0.8l0.2,0.4
		l0,0l0,0c0.1,0.1,0.1,0.3,0.1,0.5v0.1c0,0.1,0,0.1,0,0.1l-0.1-0.8c0,0-0.1,0-0.1-0.1s0-0.2-0.1-0.3c0-0.1-0.1-0.2-0.1-0.3v-0.1
		c-0.2-0.5-0.6-1.2-1.4-2.1l-0.1-0.2l-0.3-0.3h0.8L78.8,26z M78.1,25L78.1,25l-0.7,0.1V25H78.1z M77.1,25L77.1,25l-0.2,0.1V25H77.1z
		 M77.7,26.5l0.4,0.6c0.5,0.8,0.9,1.6,1,2.3c0,0.2,0,0.3,0,0.5l-0.2-0.8l-0.2-0.7c-0.1-0.2-0.2-0.5-0.3-0.7
		c-0.1-0.2-0.3-0.5-0.5-0.7s-0.4-0.5-0.6-0.8c0.1,0,0.2,0.1,0.2,0.1c-0.1-0.2-0.2-0.4-0.4-0.5c-0.1,0-0.2-0.1-0.3-0.3
		c-0.1-0.1-0.2-0.3-0.4-0.4h0.2L77.7,26.5z M76.4,25L76.4,25L76.4,25L76.4,25L76.4,25z M76,25L76,25l-0.3,0.1V25H76z M74.8,25h0.5
		l0.1,0.1L74.8,25L74.8,25z M77.8,29.3c-0.2-0.6-0.5-1.3-0.9-1.8l-1-1.4c-0.3-0.3-0.5-0.6-0.8-0.8h0.4c0.5,0.5,1,1.1,1.5,1.8h-0.2
		l0,0l0.1,0.4C77.3,28,77.7,28.6,77.8,29.3L77.8,29.3z M78.1,29.2l-0.2-0.6v0.1c0,0.1,0.1,0.1,0.1,0.2C78,28.9,78.1,29,78.1,29.2
		c0,0,0.1,0.1,0.1,0.3c0,0.2,0,0.4,0,0.6C78.2,29.8,78.2,29.5,78.1,29.2z M77.4,27c0,0.1,0,0.3,0,0.4c0.1,0.1,0.1,0.2,0.2,0.3
		l-0.4-0.6c-0.5-0.6-0.9-1.3-1.5-1.8h0.4c1.3,1.5,2.2,2.8,2.5,4.1h-0.1C78.3,28.4,77.9,27.7,77.4,27z M78.8,32.8L78.8,32.8
		L78.8,32.8L78.6,33c0.4-0.6,0.6-1.2,0.7-1.8c0.2-1.1,0.1-2.1-0.4-3.1c-0.1-0.5-0.4-1-0.7-1.4l-0.3-0.4c-0.2-0.2-0.3-0.3-0.3-0.5
		L77,25.2h0.3l0.1,0.1l0,0c0.1,0.1,0.1,0.2,0.2,0.3c0.1,0.1,0.2,0.2,0.2,0.2c0,0.1,0.1,0.1,0.1,0.2c0,0,0.1,0.1,0.1,0.2
		c0.1,0.2,0.2,0.4,0.3,0.7c0.4,0.5,0.6,1.1,0.8,1.7c0,0.1,0.1,0.1,0.1,0.2s0,0.1,0.1,0.2c0,0.1,0,0.1,0,0.1s0,0.2,0,0.5
		c0,0.1,0,0.1,0,0.2v0.1v0.2v0.1l0,0c0,0.1,0,0.1,0,0.2l0,0v0.1L79.2,31C79.3,31.9,79.1,32.4,78.8,32.8z M79.7,26.9
		c0,0.1,0.1,0.1,0.1,0.2s0.1,0.2,0.1,0.2c0,0.1,0.1,0.1,0.1,0.1c0.3,0.6,0.5,1.3,0.6,2.1c0,0.5,0,0.8,0,1.1c0,0.3-0.1,0.6-0.1,0.8
		c-0.1,0.3-0.2,0.5-0.3,0.8c-0.1,0.3-0.2,0.5-0.4,0.8c-0.1,0.1-0.1,0.2-0.2,0.3c0,0.1-0.1,0.1-0.2,0.2c-0.1,0.1-0.1,0.2-0.2,0.3
		c0.1-0.1,0.1-0.3,0.2-0.4c0.1-0.1,0.2-0.2,0.2-0.3c0.2-0.3,0.3-0.6,0.4-0.8c0.1-0.3,0.2-0.5,0.3-0.8v-0.4c0.1-0.3,0.1-0.6,0.1-1
		v-0.3l-0.2-1.2L80,27.9c-0.1-0.2-0.2-0.4-0.3-0.7c-0.1-0.2-0.2-0.4-0.3-0.6c-0.1-0.2-0.2-0.4-0.3-0.6l-0.6-0.8h0.1
		C79,25.7,79.4,26.3,79.7,26.9z M78.8,25.1L78.8,25.1L97.7,25h3.7L78.8,25.1z M102.1,25.1c1.5-0.1,3-0.1,4.5-0.1h11h-0.1L102.1,25.1
		z M102.1,37.1c-0.1,0.1-0.2,0.3-0.3,0.4c-0.1,0.1-0.2,0.2-0.2,0.3c-0.1,0.1-0.1,0.2-0.2,0.3c0,0.1-0.1,0.1-0.1,0.2
		c0,0.1-0.1,0.1-0.1,0.2c0,0.1-0.1,0.1-0.1,0.2c0,0.1-0.1,0.1-0.1,0.2c0,0.1-0.1,0.2-0.2,0.3l-0.1,0.2c-0.5,0.8-0.8,1.7-1,2.6
		c-0.2,0.7-0.2,1.4,0,2.1v0.2l0,0c-0.1-0.9-0.2-1.3-0.2-1.4V42c0.3-1.3,0.8-2.5,1.6-3.6l0.4-0.7c0.1-0.2,0.3-0.3,0.4-0.5
		s0.2-0.3,0.3-0.4c0.1-0.1,0.1-0.2,0.2-0.2s0.1-0.1,0.1-0.1l0.1-0.1l0,0c0.7-0.8,1.5-1.6,2.4-2.4c2.6-2.4,5.6-4.5,9-6.5
		c1.3-0.7,2.6-1.5,4-2.1h0.5c-2.9,1.3-5.7,2.9-8.2,4.7c-1.7,1.2-3.5,2.6-5.5,4.4c-0.5,0.5-0.9,0.9-1.2,1.3c-0.4,0.4-0.7,0.8-1.1,1.3
		C102.3,36.8,102.2,36.9,102.1,37.1z M115.7,47.5l-0.5-0.1c-1.1,0-2.3-0.2-3.4-0.4s-2.2-0.5-3.3-0.8l-0.4-0.1l-0.9-0.3
		c-1.1-0.5-2.1-1-2.8-1.7c0-0.1-0.1-0.1-0.1-0.1l-0.1-0.1c0,0-0.1-0.1-0.1-0.2c0-0.1-0.1-0.1-0.2-0.2c-0.1-0.1-0.1-0.2-0.1-0.2
		c0-0.1,0-0.1,0-0.2c-0.1-0.2-0.2-0.4-0.2-0.6c0-0.2,0-0.4,0-0.7v0.5c0,0.3,0.1,0.6,0.2,0.8l0.5,0.7c0.4,0.5,0.9,0.9,1.6,1.3
		c1.2,0.7,2.8,1.2,4.6,1.6c0.1,0,0.2,0.1,0.4,0.1c0.2,0,0.4,0.1,0.6,0.1c0.2,0.1,0.5,0.1,0.7,0.2l3.6,0.3L115.7,47.5L115.7,47.5z
		 M115.8,47.1c-1.9-0.1-3.8-0.4-5.6-0.8c-1.6-0.4-3-0.9-4.2-1.6l-0.5-0.3l-1-0.9l-0.6-0.8l0,0v-0.1c0,0,0,0,0-0.1v-0.1l0,0v-0.1
		c0-0.1,0-0.2,0-0.4v-0.5c0.1-0.4,0.3-0.9,0.6-1.4l0.3-0.5c1.2-1.7,3-3.5,5.3-5.3c3.1-2.4,6.4-4.5,9.8-6.2l-2.4,12l-1.1,4.9
		L115.8,47.1z M116.1,47.4L116.1,47.4L116.1,47.4L116.1,47.4L116.1,47.4L116.1,47.4L116.1,47.4z M116,47.2c0.4-1.5,0.7-2.9,1-4.3
		c0.1,0,0.1,0.1,0.1,0.1v0.1l-0.5,2.3L116,47.2L116,47.2z M116.7,47.4h-0.5v-0.1h0.3l0.3-0.1c-0.2,0-0.3,0-0.5,0l0.5-1.7h0.1v-0.1
		h-0.1l0,0l0.1-0.1v-0.1V45c0,0.1,0,0.1,0,0.1s0.1,0,0.1-0.1c0.1,0,0.1-0.1,0.1-0.3c0-0.1,0.1-0.3,0.1-0.4v0.4c0,0.1,0,0.3-0.1,0.4
		c-0.1,0.2-0.1,0.3-0.2,0.5v0.6c0.1-0.2,0.2-0.5,0.3-0.9c0-0.2,0.1-0.3,0.1-0.4C117.1,45.7,116.9,46.5,116.7,47.4L116.7,47.4z
		 M116.8,47.5c0.1-0.3,0.2-0.6,0.3-0.9c0.1-0.5,0.2-0.9,0.4-1.4c0.1-0.3,0.2-0.7,0.2-1v-0.3c0.1-0.3,0.2-0.5,0.3-0.8l-0.1,0.7
		c0,0.2-0.1,0.4-0.2,0.6c-0.1,0.2-0.2,0.5-0.3,1c-0.1,0.1-0.1,0.3-0.1,0.4c0,0.1-0.1,0.3-0.1,0.4c0,0.1-0.1,0.2-0.1,0.3l-0.2,1.1
		L116.8,47.5z M117.4,47.6L117.4,47.6L117.4,47.6c0-0.4,0.1-0.8,0.2-1.1l0.3-1.3c0-0.1,0.1-0.3,0.2-0.5l-0.6,2.7c0,0,0,0,0-0.1
		L117.4,47.6z M117.9,47.6h-0.3l0.7-2.4h0.1l-0.1,0.6c-0.1,0.2-0.2,0.5-0.2,0.7l-0.1,0.4l0.2-0.3L117.9,47.6z M118.3,47.6H118
		l0.1-0.5h0.1h0.1V47c0-0.1,0.1-0.1,0.1-0.1L118.3,47.6z M118.5,46.9l0.4-1.5l0,0L118.5,46.9z M118.9,48.3c0-0.2-0.1-0.3-0.2-0.3
		l0.3-0.1L118.9,48.3z M122.7,34.5c-0.1,0.6-0.3,1.1-0.4,1.5l-0.6,2.8c-0.1,0.4-0.2,0.7-0.3,1.1c-0.2,0.8-0.4,1.6-0.6,2.4l-0.7,2.6
		l-0.5,1.7l-0.1,0.4c0,0.1,0,0.2,0,0.4s0,0.4,0,0.6l-0.4,1.3c0-0.4,0-0.7-0.1-1l0.1-0.6l0.3-1c0.6-1.6,1.1-3.3,1.4-4.9l1-4.1
		c0.2-0.5,0.3-1.1,0.4-1.6s0.3-1.4,0.7-2.6v-0.1l0,0L122.7,34.5z M122.5,21.8c0.5-1,0.8-2.1,1-3.1c0.5-2.5,0.1-4.4-1.2-5.7
		c-0.7-0.7-1.8-1.2-3.2-1.6c-0.7-0.2-1.4-0.3-2.1-0.4h0.1c0.7,0,1.7,0.3,3.1,0.7c2,0.6,3.2,1.9,3.5,3.8c0.2,0.9,0.1,2.1-0.2,3.6
		c-0.1,0.6-0.3,1.2-0.5,1.8l-0.1,0.4v0.4c0.3-0.9,0.6-1.8,0.8-2.7c0.2-0.9,0.3-1.6,0.3-2s0-0.8-0.1-1.2c-0.1-0.7-0.2-1.2-0.4-1.6
		c-0.3-0.6-0.7-1.2-1.2-1.6l0,0l0,0l-0.1-0.2l-0.1,0.1c-0.1-0.2-0.3-0.2-0.4-0.3c-0.1,0-0.3-0.1-0.5-0.2h0.2l0,0
		c-0.2-0.2-0.5-0.4-1-0.6l-0.4-0.2c0.7,0.2,1.3,0.5,1.8,0.8c0.5,0.4,1,0.8,1.4,1.2c-0.2-0.5-0.6-1-1.3-1.4l-0.5-0.4
		c2.3,1.2,3.2,3.5,2.8,6.8l-0.3,1.5c-0.1,0.5-0.3,1-0.5,1.5c0.1-0.1,0.1-0.1,0.1-0.2c0.3-0.8,0.5-1.8,0.8-3c0.2-1,0.2-2.1,0-3.2
		s-0.8-2.1-1.8-2.9c-1-0.8-2.7-1.5-4.9-1.9c2.5,0.4,4.3,1.1,5.5,2.3c0.4,0.4,0.6,0.9,0.8,1.3c0.4,0.5,0.6,1.1,0.7,1.8v0.7
		c0,1-0.1,1.7-0.2,2.1c0,0.2,0,0.3,0,0.3c0,0.2,0,0.3,0,0.5l-0.5,1.7c0,0-0.2,0.4-0.4,1C123.4,21.8,122.9,21.8,122.5,21.8z
		 M126.7,25h-1.2C125.9,25,126.3,25,126.7,25z M124.3,21.8c0.4-1,0.7-2,0.9-3.1c0.5-2.2,0.4-4.1-0.3-5.6c-0.5-0.9-1.2-1.6-2-2.1h0.2
		c1.1,0.7,1.9,1.8,2.3,3.2c0-0.1,0-0.3,0-0.5c0.4,1.1,0.5,2.4,0.3,3.8c-0.1,0.5-0.2,1.1-0.3,1.7c-0.2,0.7-0.4,1.4-0.7,2.1l-0.1,0.4
		h-0.1C124.4,21.8,124.3,21.8,124.3,21.8z M125.1,21.8h-0.4c0.4-1,0.7-2.1,1-3.1c0.4-1.6,0.4-3.1,0.1-4.3h0.1l0,0v-0.7l0,0
		c-0.5-1.2-1.1-2.2-2.1-3.1l0,0c1,0.8,1.7,1.8,2,3.1c0.2,1,0.3,2,0.2,3c-0.1,0.8-0.2,1.6-0.3,2.3c-0.1,0.5-0.2,1-0.3,1.2
		c-0.1,0.3-0.3,0.7-0.5,1.2L125.1,21.8z M124.8,12c-0.4-0.5-1.1-1.1-2.1-1.8l-0.2-0.2C123.4,10.5,124.2,11.2,124.8,12z M124.2,12.6
		c0.6,0.8,0.9,1.6,1,2.6c-0.1-0.1-0.1-0.1-0.1-0.2s0-0.1,0-0.1l0,0V15c0,0.1,0,0.2,0,0.2c0,0.2,0,0.4,0.1,0.6c0.1,0.1,0.1,0.3,0,0.6
		c0,0.8-0.1,1.6-0.3,2.4c-0.2,0.8-0.4,1.6-0.7,2.4l-0.2,0.5h-0.1c0.3-0.9,0.7-1.9,0.9-3c0.1-0.3,0.1-0.5,0.1-0.5l0,0l0,0
		c0.1-0.4,0.1-1.1,0.1-2.2c0-1-0.3-2-0.7-2.8c-0.4-0.8-1-1.4-1.7-2c-0.1,0-0.3-0.1-0.5-0.2c-0.2-0.1-0.3-0.3-0.5-0.4
		C122.9,11.2,123.7,11.9,124.2,12.6z M128.3,29.9c-0.1,0.7-0.4,2.1-0.8,4.1l-0.5,2.4c0-0.2,0.1-0.7,0.3-1.7c0-0.3,0.1-0.6,0.1-0.9
		l0.3-1.4c0.1-0.5,0.2-0.9,0.2-1.3s0.2-1.3,0.5-2.7c0-0.1,0-0.4,0.1-0.8l0.2-0.6l0.2-1.7l0,0c0,0.2,0,0.4,0,0.5L128.3,29.9z
		 M130.3,21.5l-0.1,0.2h-4h-1c0.1-0.3,0.3-0.8,0.6-1.6l0.4-1.6l0.1-0.9c0.1,0,0.1-0.1,0.2-0.4c0-0.1,0-0.1,0-0.2s0-0.1,0-0.1
		c0.2-0.7,0.2-1.5,0-2.2c-0.3-2.1-1.2-3.6-2.6-4.6l0,0l-0.5-0.5c1.8,0.9,2.9,2.6,3.4,5.1v-0.4l0,0c0.1,1.1,0.1,2.1,0,3.2l0.1-0.2
		c0.1-0.5,0.1-1.3,0-2.4c-0.1-1.7-0.6-3.1-1.5-4.1c-1.2-1.5-3.1-2.5-5.7-3.1l-1.5-0.3H118l0,0c-0.4,0-0.8-0.1-1.1-0.3
		c-0.1-0.1-0.1-0.2,0-0.3c0.1-0.2,0.3-0.4,0.6-0.5l1.6-0.4c0.1,0,0.2,0,0.3,0c0.1,0,0.2,0,0.2,0c0.3-0.1,0.8-0.3,1.5-0.4
		c2.9-0.6,5.4-1,7.4-1.1l3.2-0.1h0.4c-0.7,0-1.1,0-1.4,0c-0.5,0-0.9,0-1.3,0.1c-3.7,0.3-7.3,0.9-10.9,1.9c-0.2,0.1-0.3,0.1-0.5,0.1
		c-0.5,0.1-0.7,0.3-0.7,0.5c0,0.1,0,0.2,0.1,0.2c0.2,0.1,0.5,0.2,0.7,0.2l0,0c0.2,0,0.4,0,0.5,0.1l1,0.2c1.1,0.2,2.2,0.6,3.4,1.2
		c2.1,1,3.4,2.6,3.9,4.8l0.3,1.1c0.2,1,0.2,2,0,3l-0.2,1.2c-0.1,0.5-0.2,1.1-0.4,1.6h0.1l0.1-0.2c0.2-0.7,0.4-1.5,0.5-2.2
		c0.5-2.1,0.3-4.1-0.4-5.9c-0.9-2.2-2.9-3.7-6-4.5c-0.8-0.2-1.6-0.4-2.4-0.6c-0.1,0-0.2,0-0.3,0c-0.1,0-0.2,0-0.2-0.1
		s-0.1-0.1-0.1-0.1l0.1-0.1h0.1l0,0l0.5-0.1c2.6-0.7,5.4-1.3,8.5-1.6c1.2-0.2,2.4-0.3,3.5-0.3h0.5h1.8c0.8,0,1.5,0.2,2.2,0.4
		c0.5,0.1,0.8,0.3,1.1,0.5s0.5,0.5,0.6,0.8h0.1l0,0l0.1,0.3l0,0v0.1l0.1,0.3v0.5v0.1c0,0.2,0,0.7-0.2,1.6l0,0
		c-0.1,0.4-0.3,1-0.6,1.6c-0.5,0.9-1.2,2.1-2,3.4l-0.9,1.4C132.5,17.5,131.4,19.4,130.3,21.5z M138.1,25h-4.5l0,0H138.1z M142.1,6.8
		c0,0.7-0.1,1.5-0.2,2.2c-0.1,0.5-0.2,0.8-0.2,0.9c-0.1,0.1-0.2,0.4-0.3,0.9c0,0.1-0.1,0.1-0.1,0.2c0,0.1,0,0.1-0.1,0.1
		c-0.3,0.8-0.8,1.9-1.6,3.1c-0.5,0.8-0.9,1.5-1.2,1.8l-0.1,0.1c0,0-0.1,0.1-0.1,0.2s-0.1,0.1-0.1,0.2v0.1c-0.3,0.4-0.6,0.8-0.8,1.2
		c-0.2,0.4-0.5,0.8-0.8,1.2c-0.5,0.8-0.9,1.6-1.4,2.3l-0.1,0.2l0,0l0.2-0.6l-0.1,0.1c0.1-0.2,0.2-0.4,0.3-0.6l0.1-0.1
		c0.9-1.5,1.6-2.6,2-3.2l0.6-0.9c0.2-0.3,0.4-0.6,0.5-0.8l1.1-1.7c0.7-1.3,1.3-2.5,1.6-3.5c0-0.1,0.1-0.2,0.1-0.2V9.7
		c0.1-0.2,0.1-0.3,0.1-0.5l0.2-1.1c0.3-1.7,0-3.3-0.7-4.7c-0.3-0.5-0.6-0.9-1-1.2v0l0,0c0-0.1,0-0.1-0.1-0.1
		c-0.1-0.1-0.2-0.2-0.4-0.3c-0.2-0.1-0.3-0.2-0.3-0.2s-0.1,0-0.1-0.1c-0.1,0-0.1-0.1-0.2-0.1c-0.9-0.4-1.7-0.7-2.5-0.8
		c-0.7-0.2-1.5-0.2-2.5-0.2h-1.6c-0.5,0-1.3,0-2.3,0.1c0.2-0.1,0.5-0.1,0.8-0.1s0.7,0,1,0h2.7c2.6,0,4.6,0.7,6.2,2.2
		c0.5,0.5,0.8,0.9,0.8,1.1c0.1,0.1,0.2,0.2,0.2,0.4c0,0.2,0.1,0.3,0.2,0.5l0.1,0.1c0,0.1,0,0.2,0,0.3c0,0,0,0.1,0.1,0.3
		c0,0.1,0,0.2,0,0.3c0,0,0,0.1,0,0.2s0,0.2,0,0.3c0,0.1,0,0.3,0,0.4L142.1,6.8L142.1,6.8z"/>
	<path class="st0" d="M124.8,54.8C124.8,54.7,124.8,54.7,124.8,54.8L124.8,54.8L124.8,54.8z"/>
	<path class="st0" d="M126.7,20.5L126.7,20.5L126.7,20.5L126.7,20.5z"/>
</g>
<path class="st1" d="M103.2,58.9h-1.1l-0.5-0.1c-0.1,0-0.1-0.1-0.2-0.1c0,0-0.1,0-0.2,0c-0.3-0.1-0.4-0.2-0.5-0.2c0,0-0.1,0-0.2,0
	c-0.3-0.2-0.5-0.3-0.5-0.4c0,0-0.1-0.1-0.2-0.3c-0.1-0.1-0.2-0.2-0.4-0.3l0,0c-0.1-0.1-0.2-0.2-0.2-0.3c-0.4-0.7-0.5-1.5-0.3-2.5
	l0.2-0.7c0.1-0.2,0.3-0.5,0.6-1c0.1-0.2,0.2-0.3,0.2-0.3s0,0,0.1,0c0,0,0.2-0.1,0.4-0.4l0,0c0,0,0,0,0.1,0l-0.2,0.1l-0.1,0.2
	c-0.2,0.1-0.3,0.2-0.3,0.3V53l-0.1,0.3c-0.3,0.5-0.5,0.9-0.6,1.4c-0.2,0.7-0.1,1.4,0.1,1.9c0,0.1,0.1,0.1,0.1,0.1v0.1l0.4,0.5l0,0
	c0.1,0.2,0.3,0.3,0.4,0.4c0.1,0.1,0.2,0.2,0.3,0.2c0,0.1,0.1,0.1,0.1,0.1l0.1,0.1c0,0,0.1,0,0.2,0s0.2,0,0.2,0.1l0,0
	c-0.3-0.1-0.5-0.3-0.7-0.5l0,0l-0.1-0.2c-0.2-0.1-0.3-0.3-0.4-0.5c0-0.1-0.1-0.1-0.1-0.1c-0.2-0.2-0.3-0.5-0.4-0.9
	c-0.1-0.5-0.1-1,0-1.6l0.2-0.5l0.7-0.9l0.1-0.1l0,0v-0.1h0.1l-0.3,0.4l0,0l0,0l0,0v0.1l-0.2,0.3l0,0c-0.1,0.1-0.1,0.2-0.1,0.3V54
	h0.1l0.1-0.1c0-0.1,0-0.2,0-0.2c0-0.1,0.1-0.1,0.2-0.2c0.1-0.1,0.1-0.1,0.1-0.1v-0.1c0,0,0-0.1,0.1-0.1h0.1v-0.1l0,0V53
	c0,0,0.1,0,0.1-0.1l0,0l0,0l0,0c0,0,0-0.1,0.1-0.1c0.1-0.1,0.1-0.1,0.1-0.1s0,0,0.1,0v0.1c0,0.1,0,0.1,0,0.1s0,0-0.1,0l0,0
	c0,0,0,0-0.1,0.1c0,0.1-0.1,0.1-0.1,0.1l-0.1,0.1c-0.1,0.1-0.1,0.1-0.2,0.2c0,0-0.1,0.1-0.1,0.2h0.2l0,0h0.1
	c0.2-0.3,0.5-0.5,0.8-0.6l0,0c0,0.1,0,0.1-0.1,0.2l-0.1,0.1l0,0c-0.1,0-0.2,0-0.2,0.1c-0.1,0.1-0.2,0.2-0.2,0.2l0,0c0,0,0.1,0,0.2,0
	l-0.1,0.1l0,0l0,0v0.1c0,0-0.1,0-0.1,0.1h0.1c0.2-0.5,0.5-0.8,0.9-0.9l0,0c0,0.1,0,0.1-0.1,0.1l-0.4,0.2v0.1l0,0l0,0l0,0v0.1v0.1
	v0.1l-0.1,0.1l0,0v0.1c0,0,0.1,0,0.1-0.1v-0.1c0.1-0.1,0.1-0.1,0.1-0.2l0.1-0.1c0,0,0.1-0.1,0.1-0.2l0,0c0,0,0,0,0.1,0l0,0l0.2-0.1
	c0-0.7,0.1-1.1,0.1-1.3l0,0c0,0,0-0.1,0-0.2l0,0c-0.1-0.1-0.1-0.3,0-0.6c0-0.1,0.1-0.2,0.1-0.2s0.1-0.1,0.2-0.1l0,0
	c0.4-0.1,0.7-0.1,1.1-0.1s0.8,0.1,1.2,0.2c0.2,0,0.2,0,0.2,0c0.1,0.1,0.2,0.1,0.3,0.1c0.1,0,0.2,0.1,0.2,0.1s0.1,0.1,0.2,0.1
	s0.2,0.1,0.3,0.2c0.1,0.1,0.2,0.1,0.2,0.2c0.1,0,0.2,0.2,0.4,0.5c0.3,0.4,0.5,0.9,0.5,1.7l0,0v0.2c0,0.1,0,0.2,0,0.2
	c-0.1,0.3-0.2,0.5-0.3,0.7v0.1c0,0.1-0.1,0.1-0.1,0.2l-0.1,0.1l-0.1,0.1c0,0-0.1,0.1-0.2,0.1V56H106l0.3-0.5l-0.1-0.3
	c0-0.1,0.1-0.1,0.1-0.1l0.2-0.9c0-0.9-0.2-1.5-0.7-2c-0.1,0-0.1-0.1-0.2-0.1c0,0-0.1-0.1-0.2-0.2c-0.1-0.1-0.2-0.1-0.3-0.2H105
	c-0.1,0-0.2,0-0.2-0.1l0,0c0.1,0.1,0.2,0.2,0.4,0.3c0.1,0.1,0.2,0.2,0.2,0.2s0.2,0.2,0.3,0.4c0,0,0.1,0,0.1,0.1l0.4,0.9
	c0.1,0.3,0.1,0.6,0,0.8c-0.1,0.3-0.2,0.6-0.4,0.9l-0.1,0.2l0,0l0.1-0.1c0-0.1,0-0.1,0.1-0.2h-0.1l0,0c0-0.1,0-0.2,0-0.3
	c0.1-0.2,0.1-0.3,0-0.3l-0.1,0.1l-0.1,0.4l0,0l-0.1,0.2h-0.1l0,0c0,0,0,0-0.1,0v0.1c0,0.1-0.1,0.1-0.1,0.1l0,0l0.2,0.2
	c0.1,0,0.1,0,0.1,0.1v0.1c0.2,0,0.3,0,0.4,0.1s0.1,0.2,0.1,0.2c0,0.1-0.1,0.2-0.2,0.4l-0.1,0.1l0,0c0,0,0,0-0.1,0.1
	c-0.3,0.3-0.7,0.6-1.1,0.9C104.5,58.6,103.8,58.9,103.2,58.9z"/>
<path class="st1" d="M100.8,54.1c0-0.1,0-0.1,0.1-0.2c0.1-0.1,0.1-0.1,0.1-0.2C100.9,53.7,100.8,53.9,100.8,54.1L100.8,54.1z"/>
<path class="st1" d="M100.9,54.2c0.1-0.1,0.1-0.1,0.1-0.2c0-0.1,0-0.1,0-0.1C101,54,100.9,54.1,100.9,54.2z"/>
<path class="st1" d="M101.9,54.6C102,54.6,102,54.5,101.9,54.6c0.1-0.1,0.1-0.2,0.1-0.2s0.1-0.1,0.1-0.2c0.1-0.1,0.1-0.1,0.1-0.2
	c0.1,0,0.2,0,0.2-0.1v-0.3h-0.1l0,0l-0.3,0.2v0.1V54h-0.1c0,0,0,0,0,0.1v0.1c0,0,0,0,0,0.1v0.1C101.9,54.5,101.9,54.5,101.9,54.6
	L101.9,54.6z"/>
<path class="st1" d="M102.4,54.3C102.4,54.3,102.4,54.2,102.4,54.3C102.4,54.2,102.5,54.2,102.4,54.3l0.1-0.3L102.4,54.3z"/>
<path class="st1" d="M104.7,55.2l0.1-0.2l0,0l-0.1,0.1V55.2C104.7,55.1,104.7,55.1,104.7,55.2L104.7,55.2z"/>
<polygon class="st1" points="105,55.4 105.1,55 105,55.1 104.9,55.3 105,55.3 "/>
<path class="st1" d="M105.3,55.6l0.2-0.4h-0.1c0,0-0.1,0-0.2,0l0.1-0.3h-0.1c0,0.1,0,0.2-0.1,0.3c0,0.1-0.1,0.1-0.1,0.1L105.3,55.6z
	"/>
<path class="st1" d="M105.7,55.8l0.3-0.6h-0.2h-0.1c-0.1,0.1-0.1,0.2-0.2,0.3L105.7,55.8z"/>
<path class="st1" d="M105.7,55.1L105.7,55.1l0.1-0.2C105.8,54.9,105.8,54.9,105.7,55.1L105.7,55.1z"/>
<polygon class="st1" points="106,55.3 106.1,54.9 106.1,54.9 106,55.1 "/>
</svg>
