<?xml version="1.0" encoding="utf-8"?>
<!-- Generator: Adobe Illustrator 25.0.1, SVG Export Plug-In . SVG Version: 6.00 Build 0)  -->
<svg version="1.1" id="Layer_1" xmlns="http://www.w3.org/2000/svg" xmlns:xlink="http://www.w3.org/1999/xlink" x="0px" y="0px"
	 viewBox="0 0 41.5 18.1" style="enable-background:new 0 0 41.5 18.1;" xml:space="preserve">
<style type="text/css">
	.st0{fill:#FFFFFF;}
</style>
<g>
	<path class="st0" d="M27.9,10.5c0.1,0.1,0.1,0.2,0.2,0.3c0.2,0.4,0.5,0.5,0.9,0.5c0.2,0,0.5-0.1,0.7-0.2c0.1-0.1,0.2-0.1,0.3-0.3
		c0.2-0.3,0-0.7-0.3-0.8c-0.1,0-0.2,0-0.3,0c-0.6,0.3-1.1,0.2-1.7-0.1c-0.4-0.2-0.6-0.6-0.7-1c-0.1-0.5,0.1-0.9,0.4-1.3
		c0.4-0.5,1-0.7,1.6-0.8c0.7-0.1,1.4,0.1,2,0.5c0.3,0.2,0.5,0.4,0.8,0.7c0,0,0.1,0.1,0.1,0.1c0.1,0,0.1-0.1,0.1-0.1
		c0-0.2,0-0.5,0-0.7c0-0.3,0-0.3,0.3-0.3c1.7,0,3.4,0,5.1,0c1.3,0,2.5,0,3.8,0c0.1,0,0.1,0,0.2,0c0.1,0,0.2,0.1,0.2,0.2
		c0,0.2,0,0.4,0,0.5c0,0.2-0.1,0.3-0.3,0.3c-0.2,0-0.5,0-0.7,0c-1.3,0-2.7,0-4,0c-0.2,0-0.2,0-0.2,0.2c0,0.5,0,1.1,0,1.6
		c0,0,0,0.1,0,0.1c0.1,0,0.1,0,0.1-0.1c0.4-0.4,0.9-0.8,1.4-1.1c0.4-0.2,0.7-0.4,1.1-0.5c0.1,0,0.2,0,0.4,0c0.4,0.1,0.7,0.2,1,0.5
		c0.2,0.2,0.3,0.3,0.4,0.5c0.1,0.2,0,0.3-0.1,0.3c-0.2,0.1-0.3,0.2-0.4,0.4c-0.2,0.3-0.3,0.6-0.3,0.9c-0.2,0.8-0.2,1.6-0.1,2.4
		c0,0.2,0.1,0.5,0.2,0.7c0.1,0.3,0.3,0.4,0.6,0.3c0,0,0,0,0,0c0.3-0.1,0.3-0.1,0.4,0.2C41,14.6,41,14.8,41,15c0,0.3-0.2,0.4-0.4,0.5
		c-0.4,0.1-0.8,0.1-1.1-0.2c-0.2-0.2-0.3-0.4-0.5-0.6c-0.2-0.4-0.3-0.8-0.4-1.3c-0.1-0.4-0.1-0.9-0.1-1.3c0-0.6-0.1-1.2-0.1-1.8
		c-0.1,0-0.1,0-0.2,0.1c-0.8,0.5-1.3,1.2-1.5,2.1c-0.1,0.3-0.2,0.6-0.2,0.9c0,0.2-0.1,0.3-0.3,0.2c-0.4-0.2-0.8-0.3-1.2-0.5
		c-0.1,0-0.1-0.1-0.1-0.1c0,0,0-0.1,0-0.1c0-1.5,0-3,0-4.6c0-0.2,0-0.2-0.2-0.2c-0.4,0-0.8,0-1.3,0c-0.2,0-0.2,0-0.2,0.2
		c0,1.1,0,2.2,0,3.3c0,1.3,0,2.7,0,4c0,0.1,0,0.1,0,0.2c0,0.2-0.2,0.2-0.3,0.2c0,0,0,0,0,0c-0.3-0.2-0.6-0.4-0.9-0.6
		c-0.1,0-0.1-0.1-0.1-0.2c0,0,0-0.1,0-0.1c0-1.8,0-3.5,0-5.3c0-0.1,0-0.2-0.1-0.4c-0.2-0.3-0.5-0.6-0.7-0.9c-0.3-0.3-0.6-0.5-1-0.5
		c-0.3,0-0.6,0-0.8,0.1c-0.3,0.2-0.4,0.4-0.4,0.7c0,0.2,0.1,0.3,0.2,0.4c0.1,0,0.1,0.1,0.2,0c0.1,0,0.2-0.1,0.3-0.1
		C30,9,30.4,9.1,30.8,9.5c0.6,0.6,0.7,1.3,0.4,2.1c-0.5,1.1-1.5,1.4-2.4,1.2c-0.6-0.2-1-0.6-1.2-1.2c-0.1-0.2,0-0.3,0-0.5
		C27.7,10.9,27.8,10.7,27.9,10.5z"/>
	<path class="st0" d="M3.4,3.7c0.2-0.1,0.3-0.2,0.4-0.3C3.9,3.3,3.9,3.3,4,3.2c0,0,0,0,0,0C3.8,3.6,3.7,4,3.6,4.4
		C3.2,5.5,3.1,6.6,3.2,7.8c0.1,1.1,0.3,2.2,0.8,3.2c0.4,0.9,1,1.8,1.8,2.4C6.3,13.7,7,14,7.7,14.1c0.6,0.1,1.1,0,1.7,0
		c1.3-0.2,3-1.3,3.5-3.2c0.4-1.6,0.1-3-1.1-4.3c0,0-0.1,0-0.1-0.1c0.2,0,0.4,0,0.6,0c0.9,0.1,1.8,0.4,2.6,0.8
		c0.3,0.2,0.6,0.4,0.9,0.6C15.9,8,15.9,8,16,8.1c0,0,0.1,0.1,0.1,0.1c0,0.2,0,0.5,0,0.7c0,0.2,0,0.3,0,0.5c0,0.5-0.1,0.9-0.2,1.4
		c-0.2,0.6-0.4,1.2-0.7,1.8c-0.5,0.9-1.1,1.6-1.9,2.2c-0.7,0.5-1.4,0.9-2.2,1.2c-0.9,0.3-1.7,0.4-2.6,0.4c-0.5,0-1.1-0.1-1.6-0.2
		c-0.6-0.2-1.2-0.4-1.7-0.7C5,15.3,5,15.3,5,15.2c0,0,0,0,0,0c0,0,0,0,0,0c0,0,0,0,0,0c0,0,0,0,0,0c0,0,0,0,0,0c0,0,0,0,0,0
		c-0.1,0-0.1,0-0.2-0.1c0,0,0,0,0,0c0,0,0,0,0,0c0,0,0,0,0,0c0,0,0,0-0.1,0c0,0,0,0,0,0c0,0,0,0-0.1,0c0-0.1-0.1-0.1-0.1-0.1
		c0-0.1-0.1-0.1-0.1-0.1c-0.6-0.5-1.2-1.1-1.7-1.7c-0.5-0.7-0.8-1.5-1.1-2.3c-0.2-0.6-0.3-1.3-0.3-1.9c0-0.2,0-0.4,0-0.6
		c0,0,0-0.1,0-0.1c0,0.1,0,0.2,0,0.4c-0.1,0.4,0,0.8,0,1.2c0,0.4,0.1,0.8,0.2,1.2c0.2,0.8,0.6,1.6,1.1,2.3c0.1,0.1,0.2,0.2,0.3,0.4
		c-0.1,0-0.1,0-0.1-0.1c-0.5-0.6-0.9-1.3-1.1-2.1C1.4,10.7,1.3,10,1.2,9.4c-0.1-0.6,0-1.1,0.1-1.7c0-0.4,0.1-0.7,0.2-1.1
		c0.2-0.5,0.4-1.1,0.7-1.5c0,0,0-0.1,0.1-0.1C2.2,5.2,2.1,5.4,2.1,5.6c0.2-0.3,0.4-0.7,0.6-1c0,0,0.1-0.1,0.1-0.1
		c0.1,0,0.1-0.1,0.1-0.1c0.1,0,0.1-0.1,0.1-0.1c0,0,0,0,0,0C3.1,4.1,3.1,4,3.1,4c0.1,0,0.1,0,0.1-0.1l0,0C3.3,3.9,3.3,3.8,3.4,3.7
		L3.4,3.7C3.4,3.8,3.4,3.8,3.4,3.7L3.4,3.7z"/>
	<path class="st0" d="M2.3,5C2.3,5,2.2,5.1,2.3,5C1.9,5.6,1.7,6.1,1.5,6.6C1.4,7,1.4,7.3,1.3,7.7C1.2,8.3,1.2,8.8,1.2,9.4
		c0.1,0.6,0.2,1.3,0.4,1.9c0.3,0.8,0.6,1.5,1.1,2.1c0,0,0.1,0.1,0.1,0.1l0,0c0,0.1,0.1,0.2,0.2,0.2l0,0c0,0,0,0.1,0,0.1l0,0
		c0,0.1,0,0.1,0.1,0.1c0.1,0.1,0.3,0.3,0.4,0.4c0,0,0.1,0.1,0.1,0.1l0,0c0,0,0,0,0.1,0l0,0c0,0,0,0,0,0l0,0c0,0,0,0,0,0l0,0
		c0,0.1,0,0.1,0.1,0.1l0,0c0,0,0,0,0.1,0l0,0c0,0,0,0,0,0l0,0c0,0,0,0.1,0.1,0.1l0,0c0,0,0,0,0.1,0l0,0c0,0,0,0,0,0l0,0c0,0,0,0,0,0
		l0,0c0,0,0,0,0.1,0c0,0,0,0,0,0c0,0.1,0.1,0.1,0.1,0.1l0,0c0,0,0,0,0,0l0,0C4.5,15,4.6,15,4.7,15l0,0c0,0.1,0.1,0.1,0.1,0.1l0,0
		c0,0.1,0.1,0.1,0.2,0.1l0,0c0,0.1,0.1,0.1,0.1,0.1c0.5,0.3,1.1,0.5,1.7,0.7c0.5,0.1,1,0.2,1.6,0.2c0.9,0,1.8-0.1,2.6-0.4
		c0.8-0.3,1.6-0.7,2.2-1.2c0.8-0.6,1.4-1.4,1.9-2.2c0.3-0.6,0.6-1.1,0.7-1.8c0.1-0.4,0.2-0.9,0.2-1.4c0-0.2,0-0.3,0-0.5
		c0-0.2,0-0.5,0-0.7c0,0,0-0.1,0-0.1c0.1,0.1,0.2,0.2,0.3,0.3c0.1-0.2,0.2-0.3,0.3-0.5c0.9,4.1-1.3,8.6-6,9.9
		c-4.6,1.3-9.3-1.4-10.5-6c-1.2-4.4,1.4-8.3,4.3-9.7c0,0,0,0.1,0,0.1C4.4,2.5,4.2,2.8,4.1,3c0,0,0,0-0.1,0.1C4,3,3.9,3.1,3.9,3.1
		C3.6,3.3,3.4,3.5,3.2,3.8c0,0-0.1,0.1-0.1,0.2l0,0c0,0,0,0,0,0l0,0c0,0,0,0,0,0l0,0c0,0,0,0,0,0l0,0c0,0,0,0,0,0c0,0,0,0,0,0
		c-0.1,0-0.1,0-0.1,0.1l0,0c0,0,0,0,0,0l0,0c0,0,0,0,0,0c0,0,0,0,0,0c-0.1,0-0.1,0-0.1,0.1l0,0c0,0,0,0,0,0l0,0
		c-0.1,0-0.1,0-0.1,0.1l0,0c0,0,0,0,0,0l0,0c-0.1,0-0.1,0-0.1,0.1l0,0c-0.1,0-0.1,0-0.1,0.1l0,0c-0.1,0-0.1,0-0.1,0.1l0,0
		c0,0-0.1,0,0,0.1l0,0C2.3,4.9,2.3,5,2.3,5L2.3,5z"/>
	<path class="st0" d="M25,11c0-0.1,0-0.1,0-0.2c0-0.9,0-1.7,0-2.6c0,0,0-0.1,0-0.1C25,8,25,8,24.9,8c0,0-0.1,0-0.1,0
		c-1.7,0-3.4,0-5.1,0c-0.3,0-0.4-0.1-0.4-0.4c0-0.1,0-0.3,0-0.4c0-0.2,0.1-0.2,0.2-0.2c0,0,0.1,0,0.1,0c2.3,0,4.6,0,6.9,0
		c0.4,0,0.4,0.1,0.4,0.4c0,0.1,0,0.3,0,0.4c0,0.2-0.1,0.2-0.2,0.2c-0.1,0-0.2,0-0.3,0c-0.1,0-0.1,0-0.1,0.1c0,0,0,0.1,0,0.1
		c0,2.5,0,4.9,0,7.4c0,0.1,0,0.1,0,0.2c0,0.2-0.2,0.2-0.3,0.2c-0.3-0.2-0.7-0.4-1-0.6c-0.1,0-0.1-0.1-0.1-0.2c0-0.4,0-0.9,0-1.3
		c0-0.9-0.3-1.6-0.9-2.3c-0.4-0.4-0.9-0.7-1.5-0.7c-0.5,0-0.9,0.3-0.9,0.8c0,0.4,0.1,0.6,0.4,0.7c0.3,0.1,0.6,0.1,0.9-0.1
		c0.1-0.1,0.2-0.2,0.2-0.4c0-0.2,0-0.3,0-0.5c0.7,0.3,1,0.8,1,1.3c0,0.4-0.2,0.8-0.6,1c-0.3,0.2-0.6,0.3-0.9,0.3
		c-0.3,0-0.6,0-0.8-0.1c-0.4-0.2-0.8-0.4-1-0.8c-0.4-0.7-0.5-1.5-0.3-2.3c0.1-0.3,0.3-0.6,0.6-0.9c0.5-0.5,1.1-0.7,1.7-0.5
		c0.6,0.1,1.1,0.5,1.6,1C24.7,10.6,24.8,10.8,25,11C24.9,10.9,24.9,11,25,11z"/>
	<path class="st0" d="M14.6,4.7c0-0.3,0-0.5,0-0.8c0-0.3,0-0.6,0-0.9c0-0.2,0-0.2,0.2-0.2c0.8,0,1.5,0.2,2.3,0.5
		c0.6,0.2,1.1,0.5,1.6,0.9c0,0,0.1,0.1,0.1,0.1c0,0,0,0,0,0c-0.8,1.2-1.5,2.3-2.3,3.5c-1.5-1.4-3.2-1.9-5.2-1.7
		c-2,0.2-3.5,1.1-4.8,2.7C6.8,7.5,8,5.9,9.7,5.1C11.3,4.4,12.9,4.2,14.6,4.7z"/>
	<path class="st0" d="M4.7,11c-0.1-0.2-0.2-0.3-0.3-0.5c-0.5-1-0.8-2-0.9-3.1c-0.2-3,1.3-5.8,4-7.2c0.1,0,0.2-0.1,0.3-0.1
		C7.9,0,7.9,0,8,0.1c0.1,0.3,0.3,0.5,0.4,0.8c0.3,0.6,0.7,1.2,1,1.8c0,0,0,0,0,0c0.1,0.1,0.1,0.1-0.1,0.2C8.6,3.2,8,3.6,7.4,4.1
		C6,5.3,5.1,6.8,4.8,8.5C4.6,9.3,4.6,10.1,4.7,11z"/>
	<path class="st0" d="M5.7,8.2c0-0.1,0-0.3,0.1-0.4C6.4,5.6,7.7,4,9.9,3.1c0,0,0,0,0,0C10.1,3,10.1,3,10,2.9C9.7,2.4,9.5,2,9.3,1.5
		c0,0,0-0.1,0-0.1C9.6,1.2,9.9,1,10.3,0.8c0.9-0.4,1.7-0.6,2.7-0.6c0.3,0,0.6,0,0.9,0.1c0.1,0,0.1,0,0.1,0.1c0,0,0,0.1,0,0.1
		c0,1.2,0.1,2.4,0.1,3.5c0,0.1,0,0.1-0.1,0.1c-2.8-0.3-5.1,0.4-7.1,2.5C6.5,7.1,6.1,7.6,5.7,8.2C5.8,8.2,5.8,8.2,5.7,8.2L5.7,8.2z"
		/>
	<path class="st0" d="M3.1,3.9c0-0.1,0-0.1,0.1-0.2c0.2-0.2,0.4-0.4,0.7-0.6c0,0,0.1-0.1,0.2,0C3.8,3.3,3.6,3.5,3.4,3.7l0,0
		c0,0-0.1,0-0.1,0.1l0,0c0,0-0.1,0-0.1,0.1l0,0C3.2,3.9,3.2,3.9,3.1,3.9z"/>
	<path class="st0" d="M5.7,8.2C5.7,8.2,5.7,8.3,5.7,8.2C5.7,8.3,5.7,8.3,5.7,8.2C5.7,8.2,5.7,8.2,5.7,8.2C5.7,8.2,5.7,8.2,5.7,8.2z"
		/>
	<path class="st0" d="M4,3.2C4,3.2,4,3.2,4,3.2C4,3.2,4,3.2,4,3.2C4,3.2,4,3.2,4,3.2z"/>
	<path class="st0" d="M2.9,13.5c-0.1-0.1-0.2-0.2-0.3-0.4c-0.5-0.7-0.9-1.5-1.1-2.3C1.5,10.4,1.4,10,1.3,9.6c0-0.4-0.1-0.8,0-1.2
		c0-0.1,0-0.2,0-0.4c0.1,0,0,0.1,0,0.1c0,0.2,0,0.4,0,0.6c0,0.6,0.1,1.3,0.3,1.9c0.2,0.8,0.6,1.6,1.1,2.3c0.5,0.7,1,1.2,1.7,1.7
		c0,0,0.1,0.1,0.1,0.1c0,0,0,0,0,0c0,0,0,0-0.1,0l0,0c0,0,0,0-0.1,0l0,0c0,0,0,0,0,0l0,0c0,0,0,0,0,0l0,0c0,0,0,0-0.1,0l0,0
		c0-0.1,0-0.1-0.1-0.1l0,0c0,0,0,0,0,0l0,0c0,0,0,0-0.1,0l0,0c0-0.1,0-0.1-0.1-0.1l0,0c0,0,0,0,0,0l0,0c0,0,0,0,0,0l0,0
		c0,0,0,0-0.1,0l0,0c0,0,0-0.1,0-0.1c-0.1-0.1-0.3-0.3-0.4-0.4c0,0-0.1,0-0.1,0l0,0c0,0,0-0.1,0-0.1l0,0C3.1,13.6,3,13.5,2.9,13.5
		L2.9,13.5z"/>
	<path class="st0" d="M4.4,14.8c0.1,0,0.1,0,0.1,0.1c0,0,0,0,0,0c0,0,0,0-0.1,0l0,0C4.5,14.9,4.5,14.9,4.4,14.8L4.4,14.8
		C4.4,14.9,4.4,14.9,4.4,14.8C4.4,14.8,4.4,14.8,4.4,14.8z"/>
	<path class="st0" d="M4.6,14.9C4.6,14.9,4.6,14.9,4.6,14.9L4.6,14.9C4.6,15,4.6,15,4.6,14.9L4.6,14.9z"/>
	<path class="st0" d="M5,15.2C5,15.2,5,15.2,5,15.2L5,15.2C5,15.2,5,15.2,5,15.2C5,15.2,5,15.2,5,15.2L5,15.2z"/>
	<path class="st0" d="M4.7,15C4.7,15,4.7,15,4.7,15L4.7,15C4.7,15,4.7,15,4.7,15L4.7,15C4.7,15,4.7,15,4.7,15L4.7,15z"/>
	<path class="st0" d="M4.8,15.1C4.8,15.1,4.8,15.1,4.8,15.1C4.8,15.1,4.8,15.1,4.8,15.1L4.8,15.1C4.8,15.1,4.8,15.1,4.8,15.1
		L4.8,15.1z"/>
	<path class="st0" d="M4.6,15C4.7,15,4.7,15,4.6,15C4.7,15,4.7,15,4.6,15C4.7,15,4.6,15,4.6,15L4.6,15z"/>
	<path class="st0" d="M4.7,15C4.8,15,4.8,15.1,4.7,15C4.8,15.1,4.8,15.1,4.7,15C4.8,15.1,4.7,15.1,4.7,15L4.7,15z"/>
	<path class="st0" d="M5,15.2C5,15.2,5,15.2,5,15.2C4.9,15.2,5,15.2,5,15.2C5,15.2,5,15.2,5,15.2L5,15.2z"/>
	<path class="st0" d="M3.1,13.7C3.2,13.7,3.2,13.8,3.1,13.7c0.2,0.2,0.4,0.3,0.5,0.5c0,0,0,0.1,0,0.1c-0.1,0-0.1,0-0.1-0.1
		c-0.1-0.1-0.3-0.3-0.4-0.4C3.2,13.8,3.1,13.8,3.1,13.7z"/>
	<path class="st0" d="M2.9,13.5c0.1,0.1,0.2,0.1,0.2,0.2C3,13.6,2.9,13.6,2.9,13.5z"/>
	<path class="st0" d="M4.6,15C4.6,15,4.7,15,4.6,15C4.7,15,4.7,15,4.6,15c0,0.1-0.1,0-0.1,0C4.5,14.9,4.5,14.9,4.6,15
		C4.6,15,4.6,15,4.6,15z"/>
	<path class="st0" d="M3.8,14.4c0.1,0,0.1,0,0.1,0.1C3.9,14.5,3.8,14.5,3.8,14.4z"/>
	<path class="st0" d="M2.4,4.9C2.4,5,2.4,5,2.3,5C2.3,5,2.3,4.9,2.4,4.9z"/>
	<path class="st0" d="M4.4,14.8C4.4,14.9,4.4,14.9,4.4,14.8C4.4,14.9,4.4,14.9,4.4,14.8C4.4,14.8,4.4,14.8,4.4,14.8z"/>
	<path class="st0" d="M4.7,15C4.7,15.1,4.8,15.1,4.7,15C4.8,15.1,4.8,15.1,4.7,15C4.7,15.1,4.7,15.1,4.7,15C4.7,15,4.7,15,4.7,15z"
		/>
	<path class="st0" d="M2.8,4.3C2.8,4.3,2.8,4.3,2.8,4.3C2.8,4.3,2.8,4.2,2.8,4.3C2.8,4.3,2.8,4.3,2.8,4.3z"/>
	<path class="st0" d="M2.7,4.4C2.7,4.4,2.7,4.4,2.7,4.4c0,0.1-0.1,0.1-0.1,0.1C2.7,4.4,2.7,4.4,2.7,4.4z"/>
	<path class="st0" d="M2.6,4.5c0,0.1,0,0.1-0.1,0.1C2.5,4.6,2.5,4.5,2.6,4.5z"/>
	<path class="st0" d="M2.6,4.6c0,0.1,0,0.1-0.1,0.1C2.5,4.7,2.5,4.6,2.6,4.6z"/>
	<path class="st0" d="M2.5,4.8c0,0.1,0,0.1-0.1,0.1C2.4,4.8,2.4,4.7,2.5,4.8z"/>
	<path class="st0" d="M4.1,14.6C4.1,14.6,4.1,14.6,4.1,14.6C4.1,14.7,4.1,14.7,4.1,14.6z"/>
	<path class="st0" d="M3.7,14.3C3.7,14.3,3.8,14.3,3.7,14.3C3.7,14.4,3.7,14.4,3.7,14.3z"/>
	<path class="st0" d="M3.1,13.7C3.1,13.7,3.1,13.7,3.1,13.7C3.1,13.7,3.1,13.7,3.1,13.7z"/>
	<path class="st0" d="M4,14.5C4,14.5,4,14.5,4,14.5C4,14.6,4,14.6,4,14.5z"/>
	<path class="st0" d="M4.1,14.7C4.2,14.7,4.2,14.7,4.1,14.7C4.2,14.7,4.1,14.7,4.1,14.7z"/>
	<path class="st0" d="M4.3,14.8C4.3,14.8,4.3,14.8,4.3,14.8C4.3,14.8,4.3,14.8,4.3,14.8z"/>
	<path class="st0" d="M2.4,4.9C2.4,4.9,2.4,4.9,2.4,4.9C2.4,4.9,2.4,4.9,2.4,4.9z"/>
	<path class="st0" d="M3.8,14.4C3.8,14.4,3.8,14.4,3.8,14.4C3.8,14.4,3.8,14.4,3.8,14.4z"/>
	<path class="st0" d="M4,14.6C4,14.6,4.1,14.6,4,14.6C4,14.6,4,14.6,4,14.6z"/>
	<path class="st0" d="M3.1,3.9C3.1,3.9,3.1,3.9,3.1,3.9C3.1,4,3.1,4,3.1,3.9C3.1,3.9,3.1,3.9,3.1,3.9z"/>
	<path class="st0" d="M3.1,4C3.1,4,3.1,4,3.1,4C3.1,4,3.1,4,3.1,4z"/>
	<path class="st0" d="M4.2,14.8C4.3,14.8,4.3,14.8,4.2,14.8C4.3,14.8,4.2,14.8,4.2,14.8z"/>
	<path class="st0" d="M2.8,4.4C2.8,4.4,2.8,4.4,2.8,4.4C2.7,4.4,2.7,4.4,2.8,4.4z"/>
	<path class="st0" d="M2.9,4.2C2.9,4.2,2.9,4.2,2.9,4.2C2.8,4.2,2.9,4.2,2.9,4.2z"/>
	<path class="st0" d="M3,4C3,4.1,3,4.1,3,4C3,4,3,4,3,4z"/>
	<path class="st0" d="M4.5,14.9C4.5,14.9,4.5,14.9,4.5,14.9C4.5,14.9,4.5,14.9,4.5,14.9z"/>
	<path class="st0" d="M3.1,4C3.1,4,3.1,4,3.1,4C3,4,3,4,3.1,4z"/>
	<path class="st0" d="M2.9,4.2C2.9,4.2,2.9,4.2,2.9,4.2C2.9,4.2,2.9,4.2,2.9,4.2z"/>
	<path class="st0" d="M2.7,4.5C2.7,4.5,2.7,4.5,2.7,4.5C2.6,4.5,2.6,4.5,2.7,4.5z"/>
	<path class="st0" d="M3.8,14.4C3.8,14.4,3.8,14.4,3.8,14.4C3.8,14.4,3.8,14.4,3.8,14.4z"/>
	<path class="st0" d="M4.2,14.7C4.2,14.7,4.2,14.7,4.2,14.7C4.2,14.7,4.2,14.7,4.2,14.7z"/>
</g>
</svg>
