<?xml version="1.0" encoding="utf-8"?>
<!-- Generator: Adobe Illustrator 25.0.1, SVG Export Plug-In . SVG Version: 6.00 Build 0)  -->
<svg version="1.1" id="Layer_1" xmlns="http://www.w3.org/2000/svg" xmlns:xlink="http://www.w3.org/1999/xlink" x="0px" y="0px"
	 viewBox="0 0 45.6 8.6" style="enable-background:new 0 0 45.6 8.6;" xml:space="preserve">
<style type="text/css">
	.st0{fill:#FDFEFE;}
	.st1{fill:#FEFEFE;}
	.st2{fill:#FDFDFE;}
	.st3{fill:#FDFDFD;}
	.st4{fill:#FCFDFD;}
	.st5{fill:#FBFCFD;}
	.st6{fill:#FFFFFF;}
</style>
<g>
	<path class="st0" d="M32.2,4.5c0,0.4,0,0.8,0,1.2c0,0.4-0.3,0.3-0.5,0.3c-0.2,0-0.4,0-0.4-0.3c0-0.6,0-1.1,0-1.7
		c0-0.5-0.3-0.4-0.6-0.4c-0.3,0-0.4,0.1-0.4,0.4c0,0.6,0,1.1,0,1.7c0,0.4-0.2,0.4-0.5,0.4c-0.3,0-0.5,0-0.5-0.4c0-0.6,0-1.1,0-1.7
		c0-0.5-0.3-0.4-0.6-0.4c-0.3-0.1-0.4,0.1-0.4,0.4c0,0.6,0,1.1,0,1.7c0,0.4-0.2,0.4-0.5,0.4c-0.3,0-0.5-0.1-0.5-0.4
		c0-0.5,0-0.9,0-1.4c0-0.3,0.1-0.6-0.3-0.7c-0.2,0-0.1-0.3-0.1-0.4c0-0.2,0.2-0.2,0.4-0.2c0.5,0.2,1-0.1,1.5,0
		c0.3,0,0.6-0.1,0.9,0.2c0.2,0.1,0.3-0.2,0.5-0.2c0.5,0,1.1,0,1.6,0c0.3,0,0.4,0.1,0.4,0.4C32.1,3.7,32.2,4.1,32.2,4.5z"/>
	<path class="st1" d="M26.3,4.5c0,0.4,0,0.8,0,1.2c0,0.4-0.3,0.4-0.5,0.4c-0.3,0-0.4-0.1-0.4-0.4c0-0.6,0-1.1,0-1.7
		c0-0.4-0.3-0.4-0.6-0.4c-0.3,0-0.5,0-0.5,0.4c0,0.6,0,1.1,0,1.7c0,0.4-0.2,0.4-0.5,0.4c-0.3,0-0.5-0.1-0.5-0.4c0-0.6,0-1.1,0-1.7
		c0-0.5-0.3-0.3-0.6-0.4c-0.3-0.1-0.4,0.1-0.4,0.4c0,0.6,0,1.1,0,1.7c0,0.4-0.2,0.4-0.5,0.4c-0.3,0-0.5-0.1-0.5-0.5
		c0-0.5,0-0.9,0-1.4c0-0.3,0.2-0.6-0.3-0.7c-0.1,0-0.1-0.3-0.1-0.4c0-0.2,0.2-0.2,0.4-0.1C21.7,3,22,3,22.3,3c0.5,0,1-0.2,1.5,0.1
		c0.2,0.1,0.3-0.2,0.5-0.2c0.5,0,1.1,0,1.6,0c0.3,0,0.4,0.1,0.3,0.4C26.2,3.7,26.3,4.1,26.3,4.5z"/>
	<path class="st2" d="M7.5,6.1c-0.4,0-0.9,0-1.3,0C6,6.1,5.8,6,5.8,5.7c0-0.4,0.2-0.3,0.5-0.4c0.5,0,1.1,0,1.6,0
		c0.2,0,0.3,0,0.3-0.3c0-0.2-0.1-0.3-0.3-0.3c-0.5,0-1.1,0-1.6,0c-0.4,0-0.5-0.1-0.5-0.5C5.8,3,5.8,3,7.1,3c0.7,0,1.3,0,2,0
		c0.2,0,0.4,0,0.4,0.3c0,0.3-0.1,0.3-0.4,0.3c-0.6,0-1.2,0-1.7,0C7.1,3.6,7,3.6,7,3.9c0,0.3,0.1,0.4,0.4,0.4c0.5,0,1.1,0,1.6,0
		c0.3,0,0.4,0.1,0.4,0.4C9.5,6.1,9.5,6.1,8,6.1C7.9,6.1,7.7,6.1,7.5,6.1z"/>
	<path class="st2" d="M3.4,3c0.5,0,1,0,1.5,0c0.2,0,0.4,0,0.3,0.3c0,0.3-0.1,0.3-0.4,0.3c-0.6,0-1.2,0-1.7,0c-0.2,0-0.4,0-0.4,0.3
		c0,0.3,0.2,0.4,0.4,0.4c0.5,0,1.1,0,1.6,0c0.3,0,0.4,0.1,0.4,0.4c0,0.4,0,0.7,0,1.1C5.2,6,5,6.1,4.7,6.1c-0.9,0-1.8,0-2.7,0
		c-0.2,0-0.4,0-0.4-0.3c0-0.3,0.2-0.4,0.4-0.4c0.5,0,0.9,0,1.4,0C3.6,5.3,4,5.5,4,5.1c0-0.4-0.4-0.3-0.6-0.3c-0.5,0-1,0-1.4,0
		c-0.3,0-0.4-0.1-0.4-0.4C1.5,3,1.5,3,3,3C3.1,3,3.3,3,3.4,3z"/>
	<path class="st3" d="M15,3c0.4,0,0.8,0,1.3,0c0.4,0,0.4,0.2,0.4,0.5c0,0.3,0.1,0.6-0.4,0.6c-0.3,0-0.6,0.1-0.8-0.4
		c-0.1-0.3-0.6-0.1-0.9-0.1c-0.2,0-0.2,0.2-0.2,0.4c0,0.4,0,0.7,0,1.1c0,0.3,0.1,0.4,0.4,0.4c0.3,0,0.7,0.2,0.9-0.4
		c0.1-0.2,0.5-0.1,0.8-0.1c0.2,0,0.2,0.3,0.2,0.4c0,0.7,0,0.7-0.7,0.7c-0.7,0-1.5,0-2.2,0c-0.3,0-0.5-0.1-0.5-0.5c0-0.8,0-1.5,0-2.3
		c0-0.3,0.1-0.4,0.4-0.4C14.1,3,14.6,3,15,3z"/>
	<path class="st4" d="M9.9,4.5c0-0.4,0-0.8,0-1.2c0-0.4,0.3-0.4,0.5-0.3C10.7,3,11,2.9,11,3.3c0,0.6,0,1.1,0,1.7
		c0,0.2,0,0.4,0.2,0.4c0.2,0,0.4,0.1,0.5-0.3c0.1-0.5,0.6-0.2,0.9-0.2c0.3,0,0.2,0.2,0.2,0.4c0,0.8,0,0.8-0.8,0.8
		c-0.6,0-1.2,0-1.7,0c-0.3,0-0.5-0.1-0.4-0.4C10,5.2,9.9,4.9,9.9,4.5z"/>
	<path class="st2" d="M36.7,4.7c0-0.3,0-0.5,0-0.8c0-0.2,0-0.4-0.2-0.5c-0.2-0.1-0.1-0.3-0.1-0.4c0-0.2,0.2-0.2,0.3-0.2
		c0.8,0.1,1.6-0.1,2.4,0c0.4,0,0.4,0.2,0.3,0.5c0,0.2,0.2,0.6-0.3,0.6c-0.3,0-0.8,0.2-0.9-0.4c0-0.1-0.2-0.1-0.4-0.1
		c-0.2,0-0.2,0.2-0.2,0.3c0,0.6,0,1.2,0,1.8C37.7,6,37.5,6,37.2,6c-0.3,0-0.5,0-0.5-0.4C36.7,5.3,36.7,5,36.7,4.7z"/>
	<path class="st4" d="M40.8,3.7c0.3,0.4,0.5,0.3,0.7-0.1c-0.4,0-0.9,0-1.3,0c-0.2,0-0.4,0-0.4-0.3C39.8,3,40,2.9,40.2,3
		c0.8,0,1.6,0,2.3,0c0.1,0,0.3,0,0.4,0.1c0.1,0.2,0,0.3-0.1,0.5c-0.2,0.2-0.4,0.4-0.6,0.6c-0.4,0.4-0.4,0.4-0.1,0.8
		c-0.4,0-0.7,0-1.1,0c-0.2,0-0.2-0.1-0.2-0.3C40.8,4.4,40.8,4.1,40.8,3.7z"/>
	<path class="st5" d="M40.5,4.5c0,0.4,0.1,0.8,0.5,0.6c0.5,0.5,1.1,0.1,1.6,0.2c0.2,0,0.3,0.1,0.3,0.3c0,0.2,0,0.4-0.3,0.4
		c-0.9,0-1.8,0-2.7,0c-0.3,0-0.4-0.2-0.2-0.5C40,5.2,40.2,4.9,40.5,4.5z"/>
	<path class="st1" d="M35.9,5c-0.3-0.1-0.8-0.2-0.9,0.1c-0.2,0.5-0.6,0.3-0.9,0.3c-0.3,0-0.4-0.1-0.4-0.4c0-0.3,0.1-0.4,0.4-0.4
		c0.2,0,0.5,0,0.7,0c1.3,0,1.3,0,1.2-1.3c0-0.3-0.1-0.4-0.4-0.4c-0.9,0-1.7,0-2.6,0c-0.3,0-0.4,0.1-0.4,0.4c0,0.8,0,1.5,0,2.3
		c0,0.3,0.1,0.4,0.4,0.4c0.4,0,0.8,0,1.3,0c0.4,0,0.8,0,1.2,0C35.7,6,36,6.1,36,5.8C36,5.5,36.2,5.1,35.9,5z M33.7,3.6
		c0.1-0.1,1-0.1,1.1,0C35,3.7,35,3.9,34.9,4c-0.1,0.2-0.4,0.1-0.6,0.1c-0.2,0-0.5,0.1-0.6-0.1C33.6,3.9,33.6,3.7,33.7,3.6z"/>
	<path class="st1" d="M20.1,2.9c-0.4,0-0.9,0-1.3,0c-0.4,0-0.9,0-1.3,0c-0.3,0-0.4,0.1-0.4,0.4c0,0.8,0,1.5,0,2.3
		c0,0.3,0.1,0.4,0.4,0.4c0.9,0,1.7,0,2.6,0c0.2,0,0.4-0.1,0.4-0.3c0-0.8,0-1.6,0-2.4C20.5,3,20.4,2.9,20.1,2.9z M19.5,4.5
		c0,0.9,0,0.9-0.9,0.9c-0.4,0-0.6-0.1-0.6-0.6c0-0.1,0-0.2,0-0.4c0-1,0.2-1.1,1.2-0.9c0.2,0,0.3,0.1,0.2,0.3
		C19.5,4.1,19.5,4.3,19.5,4.5z"/>
</g>
<g>
	<path class="st6" d="M1.9,8.6c-1,0-1.8-0.8-1.8-1.8L0,1.8c0-0.5,0.2-1,0.5-1.3C0.9,0.2,1.3,0,1.8,0l42,0.3c0.5,0,1,0.2,1.4,0.7
		s0.5,1,0.4,1.5l-0.8,4.1C44.7,7.4,43.9,8,43.1,8L1.9,8.6C1.9,8.6,1.9,8.6,1.9,8.6z M1.8,0.3c-0.4,0-0.8,0.2-1,0.4
		C0.5,1.1,0.3,1.4,0.3,1.8l0.1,5c0,0.8,0.7,1.4,1.5,1.4c0,0,0,0,0,0l41.2-0.6c0.7,0,1.3-0.5,1.4-1.2l0.8-4.1c0.1-0.4,0-0.9-0.3-1.2
		c-0.3-0.3-0.7-0.5-1.1-0.5L1.8,0.3C1.8,0.3,1.8,0.3,1.8,0.3z"/>
</g>
</svg>
