<?xml version="1.0" encoding="utf-8"?>
<!-- Generator: Adobe Illustrator 25.0.1, SVG Export Plug-In . SVG Version: 6.00 Build 0)  -->
<svg version="1.1" id="Layer_1" xmlns="http://www.w3.org/2000/svg" xmlns:xlink="http://www.w3.org/1999/xlink" x="0px" y="0px"
	 viewBox="0 0 44.9 20.6" style="enable-background:new 0 0 44.9 20.6;" xml:space="preserve">
<style type="text/css">
	.st0{fill:#FFFFFF;}
</style>
<g>
	<g>
		<polygon class="st0" points="31,10.1 32.3,15.6 40.3,11.5 		"/>
		<polygon class="st0" points="33.4,1.3 31,9.7 40.5,11.2 		"/>
		<polygon class="st0" points="23.1,0 33,1.2 30.7,9.6 		"/>
		<polygon class="st0" points="23.1,1.7 24.1,1.7 27.2,5.7 		"/>
		<polygon class="st0" points="40.9,11.2 38.1,7.3 42.7,6.4 		"/>
		<polygon class="st0" points="40.4,12.5 40.6,11.7 33.4,15.4 		"/>
		<polygon class="st0" points="30.7,10.1 32.2,17 27.8,20.6 		"/>
		<polygon class="st0" points="42.3,8.5 44.9,8.4 43,6.6 		"/>
	</g>
	<path class="st0" d="M23.9,8.2v0.7c-0.3-0.4-1-0.7-1.4-0.6C22,8.4,21.4,8.7,21,9.5c-0.4-0.8-1.1-1.3-1.7-1.3h-1.7v0.9h1.1
		c0.5,0,1-0.1,1.5,0.4c0.2,0.2,0.3,0.4,0.3,0.7c0.1,0.7-0.1,1.5-0.9,1.5c-0.2,0-0.5,0-0.7-0.1l-0.1,0.1c0.2,0.3,0.3,0.5,0.5,0.8
		c0.5-0.1,0.9-0.4,1.2-0.7c0.2-0.2,0.4-0.4,0.5-0.7c0.1,0.3,0.2,0.5,0.4,0.7c0.3,0.3,0.7,0.6,1.1,0.7c0.1-0.3,0.3-0.6,0.4-0.8
		l-0.1-0.1c-0.2,0.1-0.5,0.1-0.7,0.1c-0.8,0-1-0.9-0.8-1.5C21.5,9.5,22,9,22.5,9c0.5,0,1.2,0.4,1.3,1c0.1,0.3,0.1,0.6,0.1,0.9v5
		c0,0,0.2,0,0.4,0c0.2,0,0.4,0,0.4,0V8.2H23.9z"/>
	<path class="st0" d="M3,5.3c1.4-0.1,3.5,1.6,3.6,2l0.1,0v-1c-1-0.5-2.3-1.5-4.1-1.4C0.8,5,0,6.1,0,8.2l0,0v0.9l0,6.8
		c0,0,0.2,0,0.4,0c0.2,0,0.4,0,0.4,0V9.1H6v0.6c-2.9,0.1-4.1,1.7-4.1,3c0,1.7,1.7,3.2,4.8,3.2h0.1v0l0,0V9.1V8.9V8.2H0.9l0,0
		c0-0.1-0.1-0.5-0.1-0.5C0.8,6.4,1.6,5.4,3,5.3z M2.9,12.7c0-1.2,1.3-2.4,3.1-2.6v5.5C4.1,15.2,2.9,13.7,2.9,12.7z"/>
	<path class="st0" d="M7,8.2v0.9h5.4v0.6c-2.9,0.1-4.1,1.7-4.1,3c0,1.7,1.7,3.2,4.8,3.2h0.1v-0.3v-5.5c0,0,0.1,0,0.1,0
		c1,0,1.5,0.6,1.6,1.4c0,0.8-0.6,1.2-0.9,1.3l0,0.1l0.7,0c0.4-0.5,0.7-1.1,0.6-1.7c0-1.1-0.8-1.6-2.2-1.6V9.1h3.4v6.8
		c0,0,0.2,0,0.4,0c0.1,0,0.4,0,0.4,0V9.1V8.2H7z M9.3,12.7c0-1.2,1.3-2.4,3.1-2.6v5.5C10.5,15.2,9.3,13.7,9.3,12.7z"/>
</g>
</svg>
