<?xml version="1.0" encoding="utf-8"?>
<!-- Generator: Adobe Illustrator 23.1.0, SVG Export Plug-In . SVG Version: 6.00 Build 0)  -->
<svg version="1.1" id="Layer_1" xmlns="http://www.w3.org/2000/svg" xmlns:xlink="http://www.w3.org/1999/xlink" x="0px" y="0px"
	 viewBox="0 0 70.9 91.9" style="enable-background:new 0 0 70.9 91.9;" xml:space="preserve">
<style type="text/css">
	.st0{fill:#75D665;}
	.st1{fill:#5EA550;}
	.st2{fill:#F2D927;}
	.st3{fill:#D1B824;}
	.st4{fill:#8DF777;}
	.st5{fill:#FF3A1A;}
	.st6{fill:#FF7A64;}
	.st7{opacity:0.27;fill:#FFFFFF;}
</style>
<g>
	<path class="st0" d="M2.7,25.6V78c0,7.7,15,13.9,33.5,13.9c18.5,0,33.5-6.2,33.5-13.9V25.6H2.7z"/>
	<path class="st1" d="M2.7,32.6c0,0,12.9,13,38.9,10.6c26.1-2.4,28.2-11.4,28.2-11.4v7.5c0,0-7.2,9.2-25.5,9.6
		C15,49.6,2.7,33.7,2.7,33.7V32.6z"/>
	<g>
		<path class="st2" d="M2.8,56c0.3-0.3,0.6-0.6,0.9-0.9C9.7,49,14.8,42,18.8,34.3c0.9-1.8,1.7-4,0.5-5.6c0.5,0.7-5.3,8.2-5.9,9
			c-2.9,3.8-6.4,8.6-10.5,11.7V56z"/>
		<path class="st2" d="M32.2,39.9c0.3-0.7,0.6-1.4,0.4-2.1c-0.2-0.7-1-1.3-1.6-1c-0.3,0.2-0.5,0.4-0.6,0.7
			c-6.6,11-15.7,20.5-26.4,27.7c-0.4,0.2-0.7,0.5-1.1,0.7v9.2C2.9,75,3,75,3.1,74.9C15.9,66.4,26.2,54.1,32.2,39.9z"/>
		<path class="st2" d="M69.9,53.1c-3.4,9.9-7.4,19.6-12.8,28.7c-1.8,3.1-3.9,6.2-6.4,8.9c5-1,9.3-2.5,12.6-4.3
			c0-0.1,0.1-0.1,0.1-0.2c2.5-6.2,4.6-12.5,6.5-18.9V53.1z"/>
		<path class="st2" d="M16.5,89.1c1.7-2.4,4-4.2,6.2-6.1c10-8.7,18.2-19.3,24.2-31.1c1.5-3,2.9-6.2,3.1-9.6c0.1-1.5-0.6-3.5-2.1-3.3
			c-0.9,0.1-1.5,1.1-1.9,1.9c-5.1,10.2-12,19.4-19.7,27.8C21.5,74,16.2,79,9.8,81.9c-1.5,0.7-3.1,1.2-4.7,1.2
			c2.3,2.5,6.3,4.6,11.3,6.1C16.4,89.2,16.4,89.1,16.5,89.1z"/>
		<path class="st2" d="M37.9,91.9c0.5-1.2,1.3-2.4,2-3.4c8.4-12.3,15.3-25.6,21.9-38.9c2.2-4.5,4.5-9.2,4.2-14.2
			c-0.1-1.1-0.7-2.6-1.8-2.4c-0.6,0.2-0.9,0.8-1.2,1.4c-1.3,3.3-2,6.8-3,10.2c-1.3,4.1-3.2,7.9-5.2,11.7c-3.7,6.9-7.7,13.6-12.1,20
			c-2.7,4-5.6,8-9.2,11.2c-1.7,1.6-3.7,3-5.7,4.1c2.7,0.3,5.6,0.5,8.5,0.5C36.9,91.9,37.4,91.9,37.9,91.9z"/>
	</g>
	<g>
		<path class="st3" d="M11.1,40.7c0.9,0.6,1.9,1.1,3,1.7c0.5-0.8,1-1.5,1.5-2.3c-1.1-0.4-2.1-0.8-3-1.3C12,39.4,11.6,40,11.1,40.7z"
			/>
		<path class="st3" d="M61.6,38.8c-0.5,1.9-1,3.8-1.6,5.7c-0.2,0.5-0.3,1-0.5,1.6c2-0.8,3.6-1.6,5-2.4c0.9-2.4,1.5-4.8,1.6-7.4
			C65,37.1,63.5,38,61.6,38.8z"/>
		<path class="st3" d="M41.5,49c0.9,0,1.9,0,2.8,0c1.4,0,2.7-0.1,4-0.2c0.8-2,1.5-4.1,1.6-6.3c0-0.1,0-0.2,0-0.2
			c-1.5,0.3-3.2,0.5-5,0.7C43.9,45,42.7,47,41.5,49z"/>
		<path class="st3" d="M26.9,42.9c-0.9,1.2-1.7,2.4-2.7,3.6c1.3,0.4,2.8,0.7,4.2,1.1c0.8-1.4,1.5-2.8,2.2-4.2
			C29.3,43.2,28.1,43.1,26.9,42.9z"/>
	</g>
	<g>
		<path class="st0" d="M70.9,29c0,8-15.5,14.4-34.6,14.4S1.8,37.8,1.8,29.9c0-8,15.4-15.3,34.5-15.3S70.9,21,70.9,29z"/>
		<polygon class="st0" points="1.8,29.9 1.7,18.6 70.9,18.6 70.9,29 		"/>
		<ellipse class="st4" cx="36.3" cy="18.3" rx="34.6" ry="11.5"/>
	</g>
	<polygon class="st5" points="37.3,29.9 36.3,91.9 39.7,91.9 39.7,29.8 	"/>
	<polygon class="st6" points="37.3,29.9 37,6.8 38,6.8 39.7,29.8 	"/>
	<polygon class="st6" points="1.7,18.3 70.7,17.3 70.5,16.6 1.8,17.5 	"/>
	<path class="st5" d="M42.9,7.8c2-2.5,4.7-4.5,7.7-5.5c1.8-0.6,3.8-0.8,5.6-0.1c1.8,0.7,3.1,2.6,2.7,4.5c-0.1,0.7-0.4,1.3-0.8,1.8
		c-2.1,3.2-5.9,4.7-9.5,6c-3.1,1.1-6.2,2.1-9.4,2.6c-0.3,0-0.6,0.1-0.8-0.1c-0.2-0.1-0.3-0.5-0.1-0.7c0.1-0.1,0.2-0.1,0.3-0.1
		c5.2-1,10-3.3,14.7-5.7c0.9-0.5,1.9-1,2.6-1.7c0.8-0.7,1.3-1.7,1.3-2.7c0-1.8-1.9-3.2-3.7-3.3c-1.8-0.1-3.6,0.8-5.1,1.9
		c-2.4,1.6-4.5,3.6-6.2,5.9c-0.9,1.1-1.6,2.3-2.3,3.6c-0.4,0.8-0.8,2.4-1.5,2.9c-0.3-1,0.5-2.7,0.9-3.7C40.2,11.6,41.4,9.6,42.9,7.8
		z"/>
	<path class="st5" d="M42.4,22.8c1.7,1.1,3.6,2,5.6,2.2c2,0.2,4.1-0.2,5.7-1.6c0.2-0.2,0.4-0.4,0.4-0.6c0.1-0.5-0.5-0.9-1-1.1
		c-1.7-0.4-3.5,0.5-4.5,1.9c-1,1.4-1.2,3.3-1,5c0.4,2.7,2.1,5.2,4.5,6.2c1.2,0.5,2.5,0.6,3.8,0.6c1.3-0.1,2.7-0.3,3.8-1
		c0.4-0.3,0.8-0.7,0.7-1.2c-0.1-0.2-0.3-0.4-0.5-0.5c-1.1-0.7-2.5-0.6-3.7-0.2c-1.8,0.6-3.3,1.8-4.4,3.2c-2,2.5-3,5.9-2.4,9
		c0.6,3.2,2.8,6,5.8,7.2c2.2,0.9,4.7,0.8,7,0.7c0-0.4,0-0.7-0.1-1.1c-1.8,0-3.7-0.3-5.5-0.7c-1.1-0.3-2.2-0.7-3.1-1.3
		c-2.4-1.6-3.6-4.6-3.4-7.4c0.2-2.8,1.8-5.5,3.9-7.3c1.1-0.9,2.4-1.7,3.8-1.5c0.2,0,0.5,0.1,0.6,0.3c0.2,0.4-0.4,0.7-0.7,0.7
		c-2.4,0.5-5.2,0.2-6.9-1.6c-1.2-1.4-1.5-3.3-1.7-5.2c-0.1-1.2-0.2-2.4,0.4-3.5c0.5-1.1,1.8-1.8,2.9-1.4c0.2,0.1,0.4,0.3,0.4,0.5
		c0,0.2-0.2,0.3-0.4,0.4c-2.1,0.8-4.5,0.7-6.6-0.1c-2.1-0.8-3.9-2.4-4.9-4.5c-0.3-0.5-0.9-2.2-1.6-2.2c-0.7,0-0.3,1.1-0.2,1.5
		C39.4,20.2,40.8,21.7,42.4,22.8z"/>
	<path class="st5" d="M33.2,19.1c-1.4,1.4-2.7,3.1-3.3,5c-0.6,1.9-0.6,4.1,0.4,5.9c0.1,0.2,0.3,0.5,0.5,0.6c0.5,0.2,1-0.3,1.3-0.8
		c0.8-1.6,0.2-3.5-1-4.8c-1.2-1.2-3-1.8-4.7-1.9c-2.7-0.1-5.5,1-7,3.2c-0.7,1.1-1.1,2.3-1.3,3.6c-0.2,1.3-0.2,2.7,0.3,3.9
		c0.2,0.5,0.6,1,1.1,0.9c0.2,0,0.4-0.2,0.6-0.4c0.9-0.9,1.1-2.3,0.9-3.6c-0.2-1.8-1.1-3.5-2.3-5c-2.1-2.5-5.2-4.1-8.4-4.1
		c-3.2-0.1-6.5,1.5-8.2,4.2c-1.3,2-1.7,4.4-2.1,6.7c0.3,0.1,0.7,0.2,1.1,0.1c0.4-1.8,1-3.6,1.8-5.2c0.5-1,1.1-2,1.9-2.8
		c2-2,5.2-2.6,7.9-1.9c2.7,0.8,5,2.8,6.4,5.3c0.7,1.2,1.2,2.7,0.8,4c-0.1,0.2-0.2,0.4-0.4,0.5c-0.4,0.1-0.6-0.5-0.6-0.9
		c0-2.5,0.8-5.2,2.9-6.4c1.6-0.9,3.6-0.9,5.4-0.7c1.2,0.1,2.4,0.3,3.3,1c0.9,0.7,1.4,2.1,0.8,3.1c-0.1,0.2-0.4,0.4-0.6,0.3
		c-0.2-0.1-0.2-0.3-0.3-0.5c-0.3-2.2,0.2-4.6,1.4-6.5c1.2-1.9,3.2-3.3,5.3-3.9c0.5-0.2,2.3-0.5,2.5-1.2c0.1-0.6-1-0.5-1.5-0.5
		C36.3,16.6,34.5,17.7,33.2,19.1z"/>
	<path class="st7" d="M7.1,45c-0.3,1.5-0.3,3-0.2,4.5C7.2,54.7,7.3,60,6.3,65.1c-0.4,2.1-1,4.1-1.1,6.2c-0.1,2.1,0.2,4.3,1.5,6
		s3.6,2.7,5.6,2c1.9-0.7,3.1-2.8,3.3-4.9c0.2-2.1-0.4-4.1-0.8-6.1c-1-4.5-1.3-9.1-1.1-13.7c0.1-1.7,0.2-3.4,0.1-5.1
		c-0.2-2.3-1.2-4.2-2.7-5.9C9.5,41.8,7.6,42.9,7.1,45z"/>
	<path class="st7" d="M7.4,16.7c0.5-0.2,0.8-0.5,1.2-0.8c3.9-3.1,9.1-4.3,14.1-4.6c1.4-0.1,2.8-0.1,4.1-0.5c0.2-0.1,0.5-0.2,0.6-0.4
		c0.1-0.3-0.1-0.6-0.3-0.7c-0.3-0.1-0.6-0.1-0.9-0.1c-3.8,0.2-7.6,0.6-11.3,1.4c-1.7,0.3-3.4,0.7-5,1.4c-1.3,0.6-2.5,1.4-3.5,2.4
		c-0.4,0.4-0.8,0.9-0.5,1.5C6.1,16.8,6.8,16.9,7.4,16.7z"/>
	<path class="st5" d="M34.4,7.3c-1.6-3.1-4.1-5.9-7.4-7c-1.2-0.4-2.5-0.5-3.7-0.1c-0.8,0.3-1.5,0.7-2.2,1.3c-1.8,1.5-3.2,3.6-3.2,6
		c0,2.4,1.6,4.6,3.6,5.9c2,1.3,4.4,2,6.7,2.5c3,0.7,5.9,1.2,8.9,1.6c0.5,0.1,1,0.1,1.5-0.1c-0.3-0.8-1.4-1-2.4-1.1
		c-3.9-0.4-7.6-1.8-11.3-3.2c-1.2-0.4-2.3-0.9-3.4-1.6c-1-0.7-1.9-1.7-2.2-2.9c-0.2-0.7-0.2-1.5,0-2.3c0.3-1.8,1.4-3.6,3.1-4.2
		c0.7-0.3,1.5-0.3,2.3-0.2c3,0.3,5.6,2.1,7.5,4.3c1.9,2.3,3.2,5,4.2,7.8c0.4,1.2,0.8,2.6,1.9,3.4c0.6-0.4-1.4-4.1-1.7-4.8
		C36,10.8,35.3,9,34.4,7.3z"/>
</g>
</svg>
