<?xml version="1.0" encoding="utf-8"?>
<!-- Generator: Adobe Illustrator 23.1.0, SVG Export Plug-In . SVG Version: 6.00 Build 0)  -->
<svg version="1.1" id="Layer_1" xmlns="http://www.w3.org/2000/svg" xmlns:xlink="http://www.w3.org/1999/xlink" x="0px" y="0px"
	 viewBox="0 0 859.4 751.9" style="enable-background:new 0 0 859.4 751.9;" xml:space="preserve">
<style type="text/css">
	.st0{opacity:0.5;}
	.st1{fill:url(#SVGID_1_);}
	.st2{fill:#FFFFFF;}
	.st3{opacity:4.000000e-02;fill:#FF146C;enable-background:new    ;}
	.st4{opacity:5.000000e-02;enable-background:new    ;}
	.st5{opacity:0.5;fill:#4D8AF0;enable-background:new    ;}
	.st6{opacity:0.5;fill:#F55F44;enable-background:new    ;}
	.st7{opacity:0.5;fill:#47E6B1;enable-background:new    ;}
	.st8{fill:#47E6B1;}
	.st9{fill:#E0E0FF;}
	.st10{fill:#5254CF;}
	.st11{opacity:0.4;fill:#E0E0FF;enable-background:new    ;}
	.st12{fill:#FFB147;}
	.st13{fill:#1B1B43;}
	.st14{opacity:0.2;fill:#1B1B43;enable-background:new    ;}
	.st15{fill:#FFBC96;}
	.st16{opacity:0.4;fill:#FE5B52;enable-background:new    ;}
	.st17{fill:#D28572;}
	.st18{fill:#CBCBFF;}
	.st19{fill:#9192FF;}
	.st20{fill:#B0B0D2;}
	.st21{opacity:0.3;fill:#1B1B43;enable-background:new    ;}
	.st22{fill:#925D4F;}
	.st23{fill:#FED3D1;}
	.st24{opacity:0.3;fill:#BE443D;enable-background:new    ;}
	.st25{fill:#FE5B52;}
	.st26{fill:#BE443D;}
	.st27{fill:#393A8F;}
	.st28{opacity:0.4;fill:#FFFFFF;enable-background:new    ;}
	.st29{fill:#1D70B7;}
</style>
<title>security on</title>
<g class="st0">
	
		<linearGradient id="SVGID_1_" gradientUnits="userSpaceOnUse" x1="602" y1="885.4" x2="602" y2="169" gradientTransform="matrix(1 0 0 1 -170.6 -169)">
		<stop  offset="0" style="stop-color:#808080;stop-opacity:0.25"/>
		<stop  offset="0.54" style="stop-color:#808080;stop-opacity:0.12"/>
		<stop  offset="1" style="stop-color:#808080;stop-opacity:0.1"/>
	</linearGradient>
	<path class="st1" d="M431.4,0l-278,171.1c0,0,0,352.9,278,545.3c278-192.4,278-545.3,278-545.3L431.4,0z"/>
</g>
<path class="st2" d="M431.4,10.7l-269.7,166c0,0,0,342.3,269.7,529c269.7-186.7,269.7-529,269.7-529L431.4,10.7z"/>
<path class="st3" d="M433,10.7l-4.6,2.8v688.9c1.5,1.1,3.1,2.2,4.6,3.2c269.7-186.7,269.7-529,269.7-529L433,10.7z"/>
<polygon class="st4" points="338.9,406.4 341,407 341.7,426.6 338.9,426.6 "/>
<path class="st5" d="M165.3,48c-1.7-0.8-2.6-2.7-2-4.4c0-0.1,0.1-0.3,0.1-0.4l0,0c0.1-1-0.7-1.9-1.7-2c-0.6,0-1.2,0.2-1.6,0.7l0,0
	c-0.1,0.1-0.1,0.2-0.2,0.4c-0.8,1.7-2.7,2.6-4.4,2c-0.1,0-0.3-0.1-0.4-0.1l0,0c-1-0.1-1.9,0.7-2,1.7c0,0.6,0.2,1.2,0.7,1.6l0,0
	c0.1,0.1,0.2,0.1,0.4,0.2c1.7,0.8,2.6,2.7,2,4.4c0,0.1-0.1,0.3-0.1,0.4l0,0c-0.1,1,0.7,1.9,1.7,2c0.6,0.1,1.3-0.2,1.7-0.8l0,0
	c0.1-0.1,0.1-0.2,0.2-0.4c0.8-1.7,2.7-2.6,4.4-2c0.1,0,0.3,0.1,0.4,0.1l0,0c1,0.1,1.9-0.7,2-1.7c0-0.6-0.2-1.2-0.7-1.6l0,0
	C165.6,48.1,165.4,48.1,165.3,48z"/>
<path class="st5" d="M19.3,373c-1.7-0.8-2.6-2.7-2-4.4c0-0.1,0.1-0.3,0.1-0.4l0,0c0.1-1-0.7-1.9-1.7-2c-0.6,0-1.2,0.2-1.6,0.7l0,0
	c-0.1,0.1-0.1,0.2-0.2,0.4c-0.8,1.7-2.7,2.6-4.4,2c-0.1,0-0.3-0.1-0.4-0.1l0,0c-1-0.1-1.9,0.7-2,1.7c0,0.6,0.2,1.2,0.7,1.6l0,0
	c0.1,0.1,0.2,0.1,0.4,0.2c1.7,0.8,2.6,2.7,2,4.4c0,0.1-0.1,0.3-0.1,0.4l0,0c-0.1,1,0.7,1.9,1.7,2c0.6,0.1,1.3-0.2,1.7-0.8l0,0
	c0.1-0.1,0.1-0.2,0.2-0.4c0.8-1.7,2.7-2.6,4.4-2c0.1,0,0.3,0.1,0.4,0.1l0,0c1,0.1,1.9-0.7,2-1.7c0-0.6-0.2-1.2-0.7-1.6l0,0
	C19.6,373.1,19.4,373.1,19.3,373z"/>
<circle class="st6" cx="748.4" cy="254" r="6"/>
<circle class="st6" cx="121.4" cy="683" r="6"/>
<circle class="st6" cx="850.4" cy="485" r="6"/>
<path class="st5" d="M704.3,77c-1.7-0.8-2.6-2.7-2-4.4c0-0.1,0.1-0.3,0.1-0.4l0,0c0.1-1-0.7-1.9-1.7-2c-0.6,0-1.2,0.2-1.6,0.7l0,0
	c-0.1,0.1-0.1,0.2-0.2,0.4c-0.8,1.7-2.7,2.6-4.4,2c-0.1,0-0.3-0.1-0.4-0.1l0,0c-1-0.1-1.9,0.7-2,1.7c0,0.6,0.2,1.2,0.7,1.6l0,0
	c0.1,0.1,0.2,0.1,0.4,0.2c1.7,0.8,2.6,2.7,2,4.4c0,0.1-0.1,0.3-0.1,0.4l0,0c-0.1,1,0.7,1.9,1.7,2c0.6,0.1,1.3-0.2,1.7-0.8l0,0
	c0.1-0.1,0.1-0.2,0.2-0.4c0.8-1.7,2.7-2.6,4.4-2c0.1,0,0.3,0.1,0.4,0.1l0,0c1,0.1,1.9-0.7,2-1.7c0-0.6-0.2-1.2-0.7-1.6l0,0
	C704.6,77.1,704.4,77.1,704.3,77z"/>
<path class="st5" d="M804.3,705c-1.7-0.8-2.6-2.7-2-4.4c0-0.1,0.1-0.3,0.1-0.4l0,0c0.1-1-0.7-1.9-1.7-2c-0.6,0-1.2,0.2-1.6,0.7l0,0
	c-0.1,0.1-0.1,0.2-0.2,0.4c-0.8,1.7-2.7,2.6-4.4,2c-0.1,0-0.3-0.1-0.4-0.1l0,0c-1-0.1-1.9,0.7-2,1.7c0,0.6,0.2,1.2,0.7,1.6l0,0
	c0.1,0.1,0.2,0.1,0.4,0.2c1.7,0.8,2.6,2.7,2,4.4c0,0.1-0.1,0.3-0.1,0.4l0,0c-0.1,1,0.7,1.9,1.7,2c0.6,0.1,1.3-0.2,1.7-0.8l0,0
	c0.1-0.1,0.1-0.2,0.2-0.4c0.8-1.7,2.7-2.6,4.4-2c0.1,0,0.3,0.1,0.4,0.1l0,0c1,0.1,1.9-0.7,2-1.7c0-0.6-0.2-1.2-0.7-1.6l0,0
	C804.6,705.1,804.4,705.1,804.3,705z"/>
<path class="st5" d="M12.3,183c-1.7-0.8-2.6-2.7-2-4.4c0-0.1,0.1-0.3,0.1-0.4l0,0c0.1-1-0.7-1.9-1.7-2c-0.6,0-1.2,0.2-1.6,0.7l0,0
	C7,177,7,177.1,6.9,177.3c-0.8,1.7-2.7,2.6-4.4,2c-0.1,0-0.3-0.1-0.4-0.1l0,0c-1-0.1-1.9,0.7-2,1.7c0,0.6,0.2,1.2,0.7,1.6l0,0
	c0.1,0.1,0.2,0.1,0.4,0.2c1.7,0.8,2.6,2.7,2,4.4c0,0.1-0.1,0.3-0.1,0.4l0,0c-0.1,1,0.7,1.9,1.7,2c0.6,0.1,1.3-0.2,1.7-0.8l0,0
	c0.1-0.1,0.1-0.2,0.2-0.4c0.8-1.7,2.7-2.6,4.4-2c0.1,0,0.3,0.1,0.4,0.1l0,0c1,0.1,1.9-0.7,2-1.7c0-0.6-0.2-1.2-0.7-1.6l0,0
	C12.6,183.1,12.4,183.1,12.3,183z"/>
<circle class="st7" cx="79.4" cy="284" r="6"/>
<circle class="st7" cx="853.4" cy="332" r="6"/>
<g class="st0">
	<rect x="583.4" y="0" class="st8" width="3" height="17"/>
	<rect x="576.4" y="7" class="st8" width="17" height="3"/>
</g>
<g class="st0">
	<rect x="594.4" y="666" class="st8" width="3" height="17"/>
	<rect x="587.4" y="673" class="st8" width="17" height="3"/>
</g>
<g class="st0">
	<rect x="26.4" y="702" class="st8" width="3" height="17"/>
	<rect x="19.4" y="709" class="st8" width="17" height="3"/>
</g>
<g class="st0">
	<rect x="709.4" y="396" class="st8" width="3" height="17"/>
	<rect x="702.4" y="403" class="st8" width="17" height="3"/>
</g>
<polygon class="st7" points="795.6,123 802,128.9 811.2,115.5 814.4,118.2 802,134.3 792.9,124.1 "/>
<g>
	<path class="st9" d="M717.7,612c12.7-62.5,8.1-120.3-24.5-175.3c-23.3-39.2-63.6-71.9-109.8-72.8c-43.6-0.8-82.8,26-125.9,32.8
		c-70.8,11.1-144-32.7-212.8-12.6c-36.8,10.7-66.7,39.2-83.6,73.1s-21.7,72.7-19,110.3c4.7,66.8,34.7,133.3,85.9,176.5h417.2
		C680.2,703.8,709.4,652.4,717.7,612"/>
	<g>
		<path class="st9" d="M369,685.6h-25.5c-3.7,0-6.8-3-6.8-6.8v-0.7c0-3.7,3-6.8,6.8-6.8H369c3.7,0,6.8,3,6.8,6.8v0.7
			C375.8,682.6,372.8,685.6,369,685.6z"/>
		<path class="st9" d="M413.4,685.6h-25.5c-3.7,0-6.8-3-6.8-6.8v-0.7c0-3.7,3-6.8,6.8-6.8h25.5c3.7,0,6.8,3,6.8,6.8v0.7
			C420.2,682.6,417.2,685.6,413.4,685.6z"/>
		<path class="st9" d="M390.9,666h-25.5c-3.7,0-6.8-3-6.8-6.8v-0.7c0-3.7,3-6.8,6.8-6.8h25.5c3.7,0,6.8,3,6.8,6.8v0.7
			C397.7,662.9,394.6,666,390.9,666z"/>
	</g>
	<g>
		<g>
			<g>
				<g>
					<path class="st2" d="M584.1,330.9c0-4.9-4-8.9-8.9-8.9H279.1c-4.9,0-8.9,4-8.9,8.9v7.3H584L584.1,330.9L584.1,330.9z"/>
					<path class="st10" d="M584.6,338.6H269.8v-7.8c0-5.2,4.2-9.4,9.4-9.4h296.1c5.2,0,9.4,4.2,9.4,9.4v7.8H584.6z M270.7,337.7
						h312.9v-6.8c0-4.6-3.8-8.4-8.4-8.4H279.1c-4.6,0-8.4,3.8-8.4,8.4V337.7z"/>
				</g>
				<g>
					<path class="st2" d="M270.2,338.2V527c0,4.9,4,8.9,8.9,8.9h296.1c4.9,0,8.9-4,8.9-8.9V338.2H270.2z"/>
					<path class="st10" d="M575.2,536.4H279.1c-5.2,0-9.4-4.2-9.4-9.4V337.7h314.8V527C584.6,532.2,580.4,536.4,575.2,536.4z
						 M270.7,338.6V527c0,4.6,3.8,8.4,8.4,8.4h296.1c4.6,0,8.4-3.8,8.4-8.4V338.6H270.7z"/>
				</g>
				<g>
					<g>
						<ellipse class="st2" cx="285.5" cy="330.1" rx="3.2" ry="3.2"/>
						<path class="st10" d="M285.5,333.7c-2,0-3.6-1.6-3.6-3.6s1.6-3.6,3.6-3.6s3.6,1.6,3.6,3.6S287.5,333.7,285.5,333.7z
							 M285.5,327.4c-1.5,0-2.7,1.2-2.7,2.7s1.2,2.7,2.7,2.7s2.7-1.2,2.7-2.7S286.9,327.4,285.5,327.4z"/>
					</g>
					<g>
						<ellipse class="st2" cx="297.8" cy="330.1" rx="3.2" ry="3.2"/>
						<path class="st10" d="M297.8,333.7c-2,0-3.6-1.6-3.6-3.6s1.6-3.6,3.6-3.6s3.6,1.6,3.6,3.6S299.8,333.7,297.8,333.7z
							 M297.8,327.4c-1.5,0-2.7,1.2-2.7,2.7s1.2,2.7,2.7,2.7s2.7-1.2,2.7-2.7S299.3,327.4,297.8,327.4z"/>
					</g>
					<g>
						<ellipse class="st2" cx="310.2" cy="330.1" rx="3.2" ry="3.2"/>
						<path class="st10" d="M310.2,333.7c-2,0-3.6-1.6-3.6-3.6s1.6-3.6,3.6-3.6s3.6,1.6,3.6,3.6S312.2,333.7,310.2,333.7z
							 M310.2,327.4c-1.5,0-2.7,1.2-2.7,2.7s1.2,2.7,2.7,2.7s2.7-1.2,2.7-2.7C312.9,328.6,311.7,327.4,310.2,327.4z"/>
					</g>
				</g>
			</g>
			<rect x="303" y="358.8" class="st11" width="248.4" height="149.1"/>
		</g>
		<g>
			<path class="st12" d="M472.3,535.4h-81.1c-3-28-3.8-53.1-1.1-69.8c0.7-4.5,1.7-8.5,3-11.7l34.2-7l39.7,3.6
				C473.6,467.8,474.7,498.9,472.3,535.4z"/>
			<rect x="429.3" y="454.7" class="st13" width="1" height="32.3"/>
			<path class="st14" d="M467,450.5c0,0-32,22.4-76.8,15c0.7-4.5,1.7-8.5,3-11.7l34.2-7L467,450.5z"/>
			<path class="st13" d="M411.2,323.8c0,0-15.4,19.6-11.7,36.3l54.1-2.3c0,0,0.5-32.7-11.4-35.5L411.2,323.8z"/>
			<path class="st13" d="M457.8,355.9h-1c0-21.4-11.1-31.2-11.2-31.3l0.6-0.7C446.3,324,457.8,334.1,457.8,355.9z"/>
			<g>
				<path class="st15" d="M398,435.4c-0.1,2.2-0.5,4.4-1.3,6.4c-2,5.3-6.1,9.6-11.4,11.7c-1.3,0.5-2.6,0.9-4,1.1
					c-2.5,0.4-5.5,0.7-9,0.7c-17.5,0-30.2-13.3-31.7-17.3c-1.5-4.1,2.7-2.6,2.7-2.6c1.5-3.4,5-0.7,5-0.7c1-3.6,4.3-0.2,4.3-0.2
					s0.1-2,2-1.9c1.1,0.1,4.9,2.3,7.6,4.1c1.4,0.9,3,1.3,4.6,1.3c0.6,0,1.3-0.1,1.9-0.2c3.3-0.8,5.9-3.4,6.5-6.8l5.2-28.6h12.4
					l4,5.1C398.4,413.9,398.3,426.7,398,435.4z"/>
				<path class="st16" d="M396.7,441.8c-2,5.3-6.1,9.6-11.4,11.7c-0.4-1.1-0.7-2.2-0.7-3.4c0-4.9,4-8.9,8.9-8.9
					C394.7,441.2,395.7,441.4,396.7,441.8z"/>
				<path class="st10" d="M424.8,347.8l-25.5,5.2c-9.4,1.9-16.7,9.2-18.7,18.6l-6.9,32.8l23.2,3.2L424.8,347.8z"/>
				<path class="st10" d="M433.7,347.8l25.5,5.2c9.4,1.9,16.7,9.2,18.7,18.6l3.2,23.3l-22.5,3.9L433.7,347.8z"/>
				<path class="st10" d="M396.8,407.6c0,0-1.2,37.4-3.7,46.4c0,0,34.6,12.1,73.9-3.4l-3.1-68.9l-30.2-33.8h-8.9L394.7,387
					L396.8,407.6z"/>
				<path class="st15" d="M510.7,348.7c0.1,2.4-3.9,9.8-7,15.1c-2.3,3.9-3.7,8.2-4.3,12.7c-4,33.5-6.6,61.5-18.3,69.3
					c-2.7,1.8-5.9,2.6-9.7,2c-2.7-0.4-4.9-1.4-6.7-3.1c-12.3-10.9-6.3-46.1-6.3-46.1l15.2-2.6c0,0,3.4-28.7,5.6-38.6
					s5.6-4.6,5.6-4.6c1.2-3.1,4.6-1.2,4.6-1.2c2.5-4,5.6-0.9,5.6-0.9c1.9-3.7,7.1,2.8,7.1,2.8C505.6,352,510.4,343.6,510.7,348.7z"
					/>
				
					<rect x="381.9" y="391.3" transform="matrix(4.768120e-02 -0.9989 0.9989 4.768120e-02 -12.7688 770.3032)" class="st13" width="31.4" height="1"/>
				<polygon class="st13" points="458.1,399.3 456.2,374.3 457.1,374.3 459,398.2 473.7,395.7 473.8,396.6 				"/>
				
					<rect x="447.4" y="395.4" transform="matrix(0.1313 -0.9913 0.9913 0.1313 19.278 813.7511)" class="st17" width="53.1" height="1"/>
				<path class="st16" d="M481.2,445.9c-2.7,1.8-5.9,2.6-9.7,2c-2.7-0.4-4.9-1.4-6.7-3.1c1.5-2.9,4.5-4.9,8-4.9
					C476.7,439.9,480,442.4,481.2,445.9z"/>
				<g>
					
						<rect x="484.9" y="352.8" transform="matrix(0.9883 -0.1527 0.1527 0.9883 -48.6251 78.2896)" class="st17" width="1" height="5.8"/>
					
						<rect x="490.1" y="351.5" transform="matrix(0.9501 -0.3121 0.3121 0.9501 -86.1153 170.8171)" class="st17" width="1" height="5.9"/>
					
						<rect x="495.7" y="350.1" transform="matrix(0.9421 -0.3354 0.3354 0.9421 -89.7073 186.8861)" class="st17" width="1" height="6.2"/>
				</g>
				<path class="st18" d="M448,375.8h-8c-0.8,0-1.5-0.7-1.5-1.5v-0.4c0-0.8,0.7-1.5,1.5-1.5h8c0.8,0,1.5,0.7,1.5,1.5v0.4
					C449.5,375.1,448.8,375.8,448,375.8z"/>
				<path class="st13" d="M428.5,365.1c-6.5,0-11.1-4-11.1-4l0.6-0.7c0.4,0.4,9.7,8.5,21,0l0.6,0.8
					C435.5,364.1,431.7,365.1,428.5,365.1z"/>
				<g>
					<path class="st17" d="M358.4,439.5c-2-0.8-4.2-2.5-6.4-4.9l0.7-0.6c2,2.3,4.1,3.9,6,4.6L358.4,439.5z"/>
					<path class="st17" d="M353,440.9c-1.9-1.2-3.7-3.2-5.3-6.1l0.8-0.5c1.5,2.7,3.1,4.6,5,5.8L353,440.9z"/>
					<path class="st17" d="M349.1,442.6c-2.3-1.7-4.5-4.1-6.5-7.4l0.8-0.5c2,3.1,4.1,5.5,6.3,7.1L349.1,442.6z"/>
				</g>
			</g>
			<g>
				<path class="st15" d="M428.4,358.9L428.4,358.9c-5.3,0-9.7-4.3-9.7-9.7v-16.3H438v16.3C438.1,354.6,433.8,358.9,428.4,358.9z"/>
				<path class="st17" d="M418.8,334.6c6,10,12.4,10.9,19.3,0.1L418.8,334.6z"/>
				<path class="st15" d="M428.4,338.7L428.4,338.7c-7.4,0-13.4-6-13.4-13.4v-22.6h26.8v22.6C441.8,332.7,435.8,338.7,428.4,338.7z"
					/>
				<path class="st13" d="M428.2,325.7c-1.6-1.5-2.2-2.6-1.8-3.6c0.3-0.9,1.4-1.2,2.1-1.3v-2.9h1v3.8H429c-0.5,0-1.5,0.2-1.7,0.7
					c-0.1,0.2-0.1,1,1.6,2.5L428.2,325.7z"/>
				<g>
					<path class="st2" d="M433.2,328.6c0.6-0.9,0.9-1.7,0.9-1.7c-3.2,0.3-10.1,0.3-10.1,0.3s0.2,0.8,0.8,1.7
						C426.8,329,430.1,329,433.2,328.6z"/>
					<path class="st13" d="M424.7,328.9c0.7,1.1,2,2.3,4.1,2.4s3.5-1.4,4.3-2.7C430.1,329,426.8,329,424.7,328.9z"/>
				</g>
				<path class="st13" d="M441.7,317c0,0.5,0.5-10.7-17-13.1c0,0-9.9,5.6-8.7,13.8l-5.4-1c-2.1-5.6-1.4-20.7,10.8-19.7
					c0,0,2.6-3.7,6.9-3.8c21.8-0.4,18.3,23.8,17.8,24.5L441.7,317z"/>
				<g>
					
						<ellipse transform="matrix(0.3132 -0.9497 0.9497 0.3132 0.3847 641.7586)" class="st15" cx="443.9" cy="320.6" rx="5.9" ry="4.9"/>
					<path class="st13" d="M443.2,322.3l-0.9-0.1c0.2-1.3,1.1-3.8,3.5-4l0.1,0.9C443.6,319.3,443.2,322.3,443.2,322.3z"/>
				</g>
				<g>
					
						<ellipse transform="matrix(0.9497 -0.3132 0.3132 0.9497 -79.6503 145.4186)" class="st15" cx="412.8" cy="320.6" rx="4.9" ry="5.9"/>
					<path class="st13" d="M413.5,322.3c0-0.1-0.4-3-2.6-3.1l0.1-0.9c2.4,0.1,3.3,2.7,3.5,4H413.5z"/>
				</g>
				<path class="st13" d="M435.3,315.1c0,0.9-0.6,1.6-1.4,1.6s-1.4-0.7-1.4-1.6s0.6-1.6,1.4-1.6S435.3,314.3,435.3,315.1z"/>
				<path class="st13" d="M436.4,311.7l-4.2-0.5c-0.5-0.1-0.8-0.5-0.8-1l0,0c0.1-0.5,0.5-0.8,1-0.8l4.2,0.5c0.5,0.1,0.8,0.5,0.8,1
					l0,0C437.3,311.4,436.9,311.8,436.4,311.7z"/>
				<path class="st13" d="M421.4,315.1c0,0.9,0.6,1.6,1.4,1.6s1.4-0.7,1.4-1.6s-0.6-1.6-1.4-1.6S421.4,314.3,421.4,315.1z"/>
				<path class="st13" d="M420.4,311.7l4.2-0.5c0.5-0.1,0.8-0.5,0.8-1l0,0c-0.1-0.5-0.5-0.8-1-0.8l-4.2,0.5c-0.5,0.1-0.8,0.5-0.8,1
					l0,0C419.5,311.4,419.9,311.8,420.4,311.7z"/>
				<circle class="st16" cx="436.6" cy="321.3" r="3.1"/>
				<circle class="st16" cx="420.2" cy="321.3" r="3.1"/>
			</g>
		</g>
		<g>
			<g>
				<path class="st2" d="M332.8,420.6h-77.3c-7,0-12.6-5.6-12.6-12.6v-22.6c0-7,5.6-12.6,12.6-12.6h77.3c7,0,12.6,5.6,12.6,12.6V408
					C345.4,415,339.7,420.6,332.8,420.6z"/>
				<path class="st10" d="M340.6,421h-92.9c-2.9,0-5.2-2.4-5.2-5.2v-38.2c0-2.9,2.4-5.2,5.2-5.2h92.9c2.9,0,5.2,2.4,5.2,5.2v38.2
					C345.8,418.7,343.5,421,340.6,421z M247.7,373.3c-2.4,0-4.3,1.9-4.3,4.3v38.2c0,2.4,1.9,4.3,4.3,4.3h92.9c2.4,0,4.3-1.9,4.3-4.3
					v-38.2c0-2.4-1.9-4.3-4.3-4.3H247.7z"/>
			</g>
			<g>
				<rect x="254.3" y="384.6" class="st9" width="79.6" height="1"/>
				<rect x="254.3" y="396.2" class="st9" width="79.6" height="1"/>
				<rect x="254.3" y="407.9" class="st9" width="79.6" height="1"/>
			</g>
			<polygon class="st10" points="255.6,408.9 254.9,408.3 260.6,401.2 270.3,404.5 278.8,395.4 287.3,402.3 297.4,391 306.5,401.5 
				314.6,380.5 323,393.7 332.9,379.6 333.6,380.1 323,395.5 314.8,382.6 306.8,403.3 297.3,392.5 287.4,403.6 278.9,396.7 
				270.6,405.6 260.9,402.3 			"/>
		</g>
		<g>
			<g>
				<path class="st2" d="M512.4,291l-4.6-37.1c-18.5,2.3-32.8,18-32.8,37.1c0,20.6,16.7,37.4,37.4,37.4c20.6,0,37.4-16.7,37.4-37.4
					c0-1.1-0.1-2.2-0.1-3.2L512.4,291z"/>
				<path class="st10" d="M512.4,328.8c-20.9,0-37.8-17-37.8-37.8c0-19.1,14.3-35.2,33.2-37.6l0.5-0.1l4.6,37.1l37.2-3.2v0.5
					c0.1,1.2,0.2,2.3,0.2,3.3C550.2,311.8,533.3,328.8,512.4,328.8z M507.4,254.4c-18.2,2.5-31.9,18.1-31.9,36.5
					c0,20.3,16.6,36.9,36.9,36.9c20.3,0,36.9-16.6,36.9-36.9c0-0.9,0-1.8-0.1-2.7l-37.2,3.2L507.4,254.4z"/>
			</g>
			<path class="st19" d="M531.9,283.4l37.2-3.2c-0.6-7-3.1-13.4-7-18.8L531.9,283.4z"/>
			<g>
				<path class="st9" d="M542.6,269c-6.8-9.3-17.8-15.4-30.2-15.4c-1.6,0-3.1,0.1-4.6,0.3l4.6,37.1L542.6,269z"/>
				<path class="st10" d="M512,291.8l-4.7-38.4l0.5-0.1c1.6-0.2,3.1-0.3,4.6-0.3c12,0,23.5,5.8,30.6,15.6l0.3,0.4L512,291.8z
					 M508.3,254.3l4.4,35.8l29.2-21.2c-7-9.3-18-14.8-29.5-14.8C511.1,254.1,509.7,254.2,508.3,254.3z"/>
			</g>
		</g>
		<g>
			<g>
				<path class="st2" d="M596.6,484.3h-49c-8.6,0-15.5-6.9-15.5-15.5v-55.7c0-8.6,6.9-15.5,15.5-15.5h49c8.6,0,15.5,6.9,15.5,15.5
					v55.7C612.1,477.4,605.1,484.3,596.6,484.3z"/>
				<path class="st10" d="M606.2,484.8h-68.3c-3.5,0-6.4-2.9-6.4-6.4v-74.9c0-3.5,2.9-6.4,6.4-6.4h68.3c3.5,0,6.4,2.9,6.4,6.4v74.9
					C612.5,481.9,609.7,484.8,606.2,484.8z M537.9,398.1c-3,0-5.4,2.4-5.4,5.4v74.9c0,3,2.4,5.4,5.4,5.4h68.3c3,0,5.4-2.4,5.4-5.4
					v-74.9c0-3-2.4-5.4-5.4-5.4H537.9z"/>
			</g>
			<g>
				<rect x="541.1" y="410" class="st9" width="61.8" height="1"/>
				<rect x="541.1" y="425.3" class="st9" width="61.8" height="1"/>
				<rect x="541.1" y="440.5" class="st9" width="61.8" height="1"/>
				<rect x="541.1" y="455.7" class="st9" width="61.8" height="1"/>
				<rect x="541.1" y="470.9" class="st9" width="61.8" height="1"/>
			</g>
			<g>
				<rect x="541.1" y="430.5" class="st18" width="5.3" height="41.4"/>
				<rect x="552.6" y="445.9" class="st9" width="5.3" height="26"/>
				<rect x="564" y="436.3" class="st18" width="5.3" height="35.6"/>
				<rect x="575.5" y="429.9" class="st9" width="5.3" height="42"/>
				<rect x="586.9" y="422.1" class="st18" width="5.3" height="49.8"/>
				<rect x="598.4" y="413.9" class="st9" width="5.3" height="58"/>
			</g>
		</g>
		<g>
			<g>
				<path class="st2" d="M378.8,259.1h-46.6c-3.1,0-5.5,2.5-5.5,5.5v18.9c0,3.1,2.5,5.5,5.5,5.5H364l12.2,10.5V289h2.5
					c3.1,0,5.5-2.5,5.5-5.5v-18.9C384.4,261.6,381.9,259.1,378.8,259.1z"/>
				<path class="st10" d="M376.8,300.6l-12.9-11h-31.7c-3.3,0-6-2.7-6-6v-18.9c0-3.3,2.7-6,6-6h46.6c3.3,0,6,2.7,6,6v18.9
					c0,3.3-2.7,6-6,6h-2V300.6z M332.2,259.6c-2.8,0-5,2.3-5,5v18.9c0,2.8,2.3,5,5,5h32l11.6,9.9v-9.9h3c2.8,0,5-2.3,5-5v-18.9
					c0-2.8-2.3-5-5-5H332.2z"/>
			</g>
			<g>
				<rect x="333.7" y="266.7" class="st19" width="37.3" height="1"/>
				<rect x="333.7" y="273.1" class="st19" width="42.3" height="1"/>
				<rect x="333.7" y="279.5" class="st19" width="29.7" height="1"/>
			</g>
		</g>
	</g>
	<g>
		<rect x="353.1" y="582.2" class="st20" width="13.3" height="161.7"/>
		<rect x="488.6" y="582.2" class="st20" width="13.3" height="161.7"/>
		<rect x="353.1" y="581.8" class="st21" width="13.3" height="28.5"/>
		<rect x="488.6" y="581.8" class="st21" width="13.3" height="28.5"/>
		<rect x="278" y="576.7" class="st20" width="299" height="13.4"/>
	</g>
	<g>
		<rect x="507.2" y="572.1" class="st13" width="34.6" height="4.6"/>
		<path class="st13" d="M512.3,576.7h-5.1l-20.4-53.8c-0.6-1.6,0.6-3.2,2.2-3.2l0,0c1,0,1.9,0.6,2.2,1.5L512.3,576.7z"/>
	</g>
	<g>
		<rect x="321.1" y="572.2" class="st13" width="34.6" height="4.6"/>
		<path class="st13" d="M350.5,576.7h5.1l20.4-53.8c0.6-1.6-0.6-3.2-2.2-3.2l0,0c-1,0-1.9,0.6-2.2,1.5L350.5,576.7z"/>
	</g>
	<g>
		<g>
			<g>
				<polygon class="st17" points="253,514.7 271.9,517.8 272.1,507.4 272.3,497.1 272.4,488.3 267.2,485.8 258.2,496.4 				"/>
				<path class="st22" d="M264.3,497c0,0,2.3,4.8,7.7,10.4l0.2-10.3L264.3,497z"/>
				<path class="st22" d="M285.3,484.3c0.2,0.1,6,8.9,3.4,9.7c-2.6,0.8-5.9,0.5-5.9,0.5L285.3,484.3z"/>
				<path class="st17" d="M287.2,476.8l-2.4,21.9c-0.2,1.9-1.4,3.5-3.2,4.1l0,0c-1.2,0.5-2.6,0.5-3.8-0.1l-13.6-5.8l-1.8-12.4
					l11-11.5L287.2,476.8z"/>
				<polygon class="st23" points="254.6,502.7 248.1,517.1 273.3,521.1 275,509.8 				"/>
				<path class="st13" d="M271.1,484.6c0,0,11.1-1.9,16.1-7.9c0,0,1.8-11.5-15.2-13.1c-18.4-1.7-35.7,24.4-35.7,24.4l22.5,19.7
					L271.1,484.6z"/>
				
					<ellipse transform="matrix(0.8893 -0.4573 0.4573 0.8893 -192.133 177.4073)" class="st17" cx="270.4" cy="485.6" rx="3.9" ry="5"/>
				<path class="st13" d="M271.2,487.4c-0.1-0.5-0.5-2-1.3-2.6c-0.3-0.2-0.7-0.3-1.1-0.2l-0.2-0.9c0.7-0.2,1.3,0,1.8,0.3
					c1.3,0.9,1.7,3.1,1.7,3.2L271.2,487.4z"/>
				<circle class="st24" cx="279.2" cy="490.1" r="3.7"/>
			</g>
			<g>
				<path class="st25" d="M281.5,549.5c-1.5,5.5-5.3,10.2-10.8,12.4c-0.3,0.1-0.6,0.3-1,0.4c-0.3,0.1-0.6,0.2-1,0.4
					c-10.2,4-18.1,12.4-21.3,22.8c-0.2,0.6-0.3,1.2-0.5,1.7c0,0-21.2,3.1-42.6-8.8c0,0,11.8-41.8,37.8-61.7c6-4.6,13.9-5.9,21.2-3.6
					c3.2,1,6.1,2.5,8.8,4.4c2.7,1.9,5,4.3,7,6.9l0.5,0.6l2.3,16.8C282.4,544.4,282.2,547,281.5,549.5z"/>
				<path class="st26" d="M281.5,549.5c-1.5,5.5-5.3,10.2-10.8,12.4c-0.3,0.1-0.6,0.3-1,0.4c-0.3,0.1-0.6,0.2-1,0.4
					c-3.3-8.1-6-20.9-6-20.9l15.9,2.1L281.5,549.5z"/>
				<path class="st17" d="M315.8,531.5c0,0,13.9-14.9,18.3-13.8c1.9,0.5-3.8,6.4-3.8,6.4s5.4,0.1,14.2-4.4c1-0.5,2.1-0.1,2.5,0.9
					l0,0c0.3,0.6,0.2,1.3-0.3,1.9c-1.8,2.3-7.3,8.4-15,11.1l-3.3,4.2l-8.2,3.9L315.8,531.5z"/>
				<path class="st25" d="M328.5,537.9l-18.2,32.5c-2.3,4-6.5,6.5-11.1,6.5c-1.9,0-3.7-0.4-5.3-1.2c-1.6-0.8-3.1-1.9-4.3-3.3
					L263,541.6l16.9-16.7l18.5,25.3l17.6-18.8L328.5,537.9z"/>
				<path class="st13" d="M303.4,559.7c-10.7-16.7-24.9-36.4-32.5-42.9l0.6-0.7c8.8,7.5,24.7,30.7,32.7,43.1L303.4,559.7z"/>
				<path class="st13" d="M299.6,577.8c-1.9,0-4-0.5-6-1.6c-5.8-3.1-30.1-32.9-31.1-34.1l0.7-0.6c0.3,0.3,25.2,30.9,30.8,33.9
					c6.4,3.5,10.8,0.3,12.8-1.9c3.2-3.5,21-35.4,21.2-35.8l0.8,0.5c-0.7,1.3-18,32.4-21.3,36C305.3,576.5,302.5,577.8,299.6,577.8z"
					/>
			</g>
			<g>
				<path class="st13" d="M269.6,706.4l-16.4,32.3l3.6,0.5l5.9-8.4l18.6,13.2h10.9c0,0,2.2-2.2-3.5-8.1c-6.7-6.9-10.5-16-10.3-25.5
					v-0.8l-4.5-4.6L269.6,706.4z"/>
				<path class="st27" d="M270.3,716.5l-3.6,27.4h3.6l4.7-9.2l17.4,8.8h13.7c0,0,1.9-2.5-4.6-7.5c-7.6-5.9-12.6-14.4-13.8-23.8
					l-0.1-0.8l-5.1-3.9L270.3,716.5z"/>
				<path class="st13" d="M289.6,719.9l25.5-89.5c2.1-7.2-1.4-14.9-8.1-18.1l-22.9-11l-1.4,106.3L289.6,719.9z"/>
				<path class="st10" d="M204.5,578.4l-5.1,24.4c-3,14.3,7.9,27.7,22.5,27.7h48c-4.8,23.5-1.7,55.7,0,88.9l19.8,0.5l13.7-85.3
					c2.3-14.3-5.8-28.2-19.3-33.3l-36.9-14L204.5,578.4z"/>
				<path class="st28" d="M283.9,719.9l-0.9-0.1c0.1-0.8,10.4-80.6,7.6-95.3c-2.9-15.1-32.1-19.5-47.8-21.9
					c-1.4-0.2-2.7-0.4-3.8-0.6c-3.9-0.6-6.7-2.3-8.3-5c-3.1-5.4-0.4-12.7-0.3-13l0.9,0.3c0,0.1-2.7,7.3,0.2,12.2
					c1.4,2.5,4,4,7.6,4.6c1.1,0.2,2.4,0.4,3.8,0.6c15.9,2.4,45.5,6.8,48.6,22.6c1.2,6.2,0.3,24.2-2.7,53.4
					C286.6,699.5,283.9,719.7,283.9,719.9z"/>
			</g>
		</g>
		<g>
			<g>
				<polygon class="st20" points="215.4,634.3 212.1,653.3 196.4,744 189.8,744 205.5,653.3 208.8,634.3 				"/>
				<polygon class="st20" points="259.1,744 252.5,744 236.8,653.3 233.6,634.3 240.2,634.3 243.4,653.3 				"/>
				<polygon class="st21" points="215.4,634.3 212.1,653.3 205.5,653.3 208.8,634.3 				"/>
				<polygon class="st21" points="243.4,653.3 236.8,653.3 233.6,634.3 240.2,634.3 				"/>
			</g>
			<path class="st18" d="M253.6,639.5h-61.8v-9h61.8c2.5,0,4.5,2,4.5,4.5l0,0C258.2,637.5,256.1,639.5,253.6,639.5z"/>
			<path class="st18" d="M200.6,639.5h-8.7l-29.4-72.2c-0.8-2,0.1-4.3,2-5.2l0,0c2.1-1,4.6,0,5.5,2.2L200.6,639.5z"/>
		</g>
	</g>
	<g>
		<g>
			<g>
				<path class="st17" d="M601.8,483.6c-0.2,0.1-6.3,8.6-3.8,9.5s5.8,0.7,5.8,0.7L601.8,483.6z"/>
				<polygon class="st15" points="632.6,515.3 612.3,517.7 612.6,507.4 613,497.2 613.4,488.4 619.1,486.1 628.1,496.9 				"/>
				<path class="st17" d="M621.5,497.3c0,0-2.7,4.7-8.8,10.1l0.4-10.3L621.5,497.3z"/>
				<path class="st15" d="M600.2,476.1l1.4,21.9c0.1,1.9,1.3,3.5,3,4.2l0,0c1.2,0.5,2.5,0.6,3.8,0.1l13.7-5.1l2.4-12.2L614,473.1
					L600.2,476.1z"/>
				<path class="st13" d="M616.1,485c0,0-3.4-6.6-6.9-7.6c0,0-13.5,4.4-16.5-6c0,0,7.6,0.1,14.2-4.5c6.5-4.6,13.3-2.4,18.1,1.9
					c0,0,15.4,0.8,3.3,28c0,0-3.1,1-10.8-9.9L616.1,485z"/>
				<path class="st15" d="M619.9,487.2c-1.4,2.4-4,3.5-5.8,2.5s-2.2-3.8-0.8-6.2c1.4-2.4,4-3.5,5.8-2.5
					C620.9,482.1,621.3,484.9,619.9,487.2z"/>
				<ellipse class="st16" cx="608.2" cy="489" rx="3.7" ry="3.8"/>
				<path class="st13" d="M615.5,487c-0.2-1.2,0.2-3.8,2.8-4.5l0.3,0.9c-2.5,0.7-2.1,3.3-2.1,3.5L615.5,487z"/>
			</g>
			<polygon class="st18" points="612.3,517.7 612.5,507.1 630.4,502.5 635.6,515.7 			"/>
			<path class="st13" d="M615,513.5c-9,8.8-15.5,21.9-23.8,35.2c0,0-27.9,7.2-35.9,15.2l14.4,7.3l49.1-13.6L615,513.5z"/>
			<g>
				<path class="st13" d="M542.4,712l-11.2,31.8l-35.1-8.7c0,0,5.5-7.5,21.9-5.3l8.7-24.6L542.4,712z"/>
				<path class="st27" d="M612.5,586.2l-50.6,16.5c-11.9,3.9-21,13.6-24.1,25.7l-20.4,84.4l27.6,7.1c10.8-25.6,21.3-56.2,28.5-85.9
					L612.5,586.2z"/>
				<path class="st13" d="M594.1,714.4l4.1,29.5h-38.4c0,0,3.5-8.6,20-10.5l-1-17.8L594.1,714.4z"/>
				<path class="st10" d="M658.4,577.8l5.1,24.4c3,14.3-7.7,28.5-22.3,28.5h-46.1c2.6,23.7,5.1,54.9,3.4,88.1l-25.3,0.5L559.6,634
					c-2.3-14.3,5.8-28.2,19.3-33.3l33.6-14.4L658.4,577.8z"/>
			</g>
			<path class="st13" d="M660.1,585.8c-4.2-39.7-10.1-77.1-40-75.4c-1.8,0.1-3.4,0.9-4.7,2.2l0,0c-5.1,5.1-7.8,12.3-7.2,19.5
				l4.3,54.2C612.5,586.2,635.8,590.5,660.1,585.8z"/>
			<g>
				<path class="st15" d="M555.3,563.5c0,0-17.6,3.3-20.4,13.3h25l4.8-3.3L555.3,563.5z"/>
				<path class="st13" d="M620.2,519.1l-22.8,35.4l-42.1,9l4.5,13.3l35.3-0.2c9.5-0.2,17.6-5.1,22.8-13l19.6-28.2L620.2,519.1z"/>
			</g>
			<path class="st10" d="M555.4,564l-0.2-0.9l41.8-9c1.1-3.1,2.2-6.4,3.3-9.6c4.4-12.9,8.5-25.1,13.7-31.8l0.8,0.6
				c-5,6.5-9.2,18.7-13.5,31.5c-1.1,3.2-2.2,6.6-3.4,9.8l-0.1,0.3l-0.3,0.1L555.4,564z"/>
			<path class="st10" d="M580.5,577.5c-9.8,0-19.9-0.2-20.7-0.2v-1c0.3,0,34.3,0.6,38.5-0.3h0.1c10.1-2.2,18.5-9.3,22.4-18.9
				l4.7-11.5l0.9,0.4l-4.7,11.5c-4.1,9.9-12.7,17.1-23.1,19.5h-0.1C596.6,577.4,588.7,577.5,580.5,577.5z"/>
		</g>
		<g>
			<g>
				<polygon class="st20" points="668.6,744 675.2,744 656.2,634.3 649.6,634.3 				"/>
				<polygon class="st20" points="612.4,744 605.8,744 624.8,634.3 631.4,634.3 				"/>
				<g>
					<polygon class="st21" points="631.4,634.3 628.1,653.3 621.5,653.3 624.8,634.3 					"/>
					<polygon class="st21" points="659.5,653.3 652.9,653.3 649.6,634.3 656.2,634.3 					"/>
				</g>
			</g>
			<path class="st18" d="M611.4,639.5h61.8v-9h-61.8c-2.5,0-4.5,2-4.5,4.5l0,0C606.8,637.5,608.9,639.5,611.4,639.5z"/>
			<path class="st18" d="M664.4,639.5h8.7l29.4-72.2c0.8-2-0.1-4.3-2-5.2l0,0c-2.1-1-4.6,0-5.5,2.2L664.4,639.5z"/>
		</g>
	</g>
	<polyline class="st13" points="734.3,744.4 128.5,744.4 128.5,743.5 734.3,743.5 	"/>
</g>
<g>
	<path class="st29" d="M700.6,196.7c-6-0.3-11.5-1-16.8-2.3c-5.2-1.3-9.9-2.9-14.1-5s-7.8-4.5-10.9-7.3c-3.1-2.8-5.4-5.9-7-9.3
		l-1.8-3.5c0.6,0.1,1.3,0.1,1.8,0.1s1.2,0,1.7,0h3.7c3.1,0,5.9-0.1,8.5-0.3c2.6-0.1,4.7-0.3,6.7-0.5c3.8-0.4,7.2-1.2,10.1-2.4
		c2.9-1.3,5.5-2.8,7.6-4.6c2-1.8,3.7-3.8,4.7-6c1.2-2.2,1.7-4.4,1.7-6.7c0-1.5-0.6-3.5-1.8-6c-1.2-2.4-2.8-5-4.9-7.8
		c-2-2.7-4.5-5.4-7.2-8.1c-2.7-2.7-5.6-5.1-8.7-7.2H702l-5.2-6.8h-1c0.6-2,1-4.9,1-8.3c0-3.7-0.6-7-1.8-9.9c-1.3-2.8-3.2-5.2-6-7.3
		c-2.8-2-6.4-3.6-10.9-4.7s-10-1.8-16.6-2.2c-16.5,0-28.3,1.8-35.3,5.2c-3.5,1.7-6,3.2-7.9,4.4c-1.9,1.3-3.3,2.3-4.1,3.2
		c-0.9,0.9-1.4,1.8-1.5,2.6c-0.1,0.8-0.3,1.7-0.3,2.4c7.9,0,13.4-1.4,16.4-4.4h0.1c0.5-0.8,1.8-1.5,3.7-2.2c1.9-0.8,4.1-1.3,6.8-1.8
		c2.6-0.5,5.4-0.9,8.5-1.3c2.9-0.4,5.9-0.5,8.7-0.5c8.3,0,14.1,1,17.4,3.1c3.3,2,5,5.2,5,9.6c0,2.2-0.4,4.4-1,6.7
		c-0.6,2.3-1.3,4-1.8,5.1h-21.4c-2.8-0.5-5.4-0.8-7.6-1c-2.2-0.3-4.1-0.4-5.5-0.4h-1.4c-0.5,0-1,0-1.3,0.1l-0.4,7.3
		c-2.6-3.5-6.3-5.5-11.1-6H616h-2H532l5.6,6.8h56v1L575.9,134c-5.9,4.4-10.9,8.1-15,11.1s-7.4,5.6-10,7.7c-2.6,2-4.4,3.6-5.5,4.7
		c-1.2,1.2-1.7,1.9-1.7,2.3c8.3,6.8,17.2,12.7,26.2,17.5c9.2,4.9,18.8,9.1,28.8,12.5c3.8,1.3,6.7,2.3,8.7,2.9c2,0.6,3.5,1,4.2,1v-74
		h7.8c2.4,0,4.7,0.4,7,1.2c2.2,0.8,4.1,1.8,5.8,3.1c1.7,1.3,2.9,2.6,4,4.1c0.9,1.5,1.4,2.9,1.4,4.2l-1.2,19.7h0.3
		c0,0.1,0.9,0.5,2.7,0.9c1.8,0.4,3.7,0.8,5.9,1.2c2.2,0.4,4.2,0.8,6.3,1.2c2,0.4,3.2,0.5,3.7,0.5c1.4,0,2.9-0.6,4.5-1.9
		s2.9-2.7,4.2-4.4s2.3-3.2,3.2-4.7c0.9-1.5,1.3-2.6,1.3-3.1c0-2.6-3.8-5.1-11.4-7.6l-1-0.4v-11.9l0.3,0.1c3.1,2.2,5.9,4.2,8.5,6
		c2.4,1.8,4.5,3.6,6.1,5.4s2.8,3.6,3.7,5.5s1.3,4,1.3,6.3c0,2.8-0.8,5.1-2.2,7.2c-1.5,2-3.5,3.6-6,4.9c-2.6,1.3-5.5,2.2-9,2.8
		c-3.5,0.6-7.2,0.9-11.1,0.9c-2.4,0-5.2-0.1-8.5-0.3s-6.7-0.3-10.5-0.5c-0.5,0-0.8,0.5-0.8,1.7c0,2,0.6,4.6,1.8,7.4
		c1.3,2.9,3.1,5.9,5.6,9c2.6,3.1,5.8,6,9.7,9.1c4,2.9,8.7,5.6,14.2,7.9s11.8,4.2,18.8,5.6c7,1.4,15,2.2,23.8,2.2l8.1-0.1
		C710.1,199.5,707,197.5,700.6,196.7z M593.7,178.9c-3.8-0.5-9-2.9-15.4-7.3l-9-6l11.3-9.1c2.9-2.4,5.5-4.5,7.7-6.1
		c2.2-1.8,4-3.2,5.4-4.2V178.9z"/>
	<g>
		<path class="st29" d="M698.8,61.7c0,3.1,0.9,5.8,1.9,8.3c3.5,8.5,7.8,16.4,11.9,24.5c0.1,0.1,0.1,0.3,0.3,0.5
			c0.9,1.5,1,2.8-0.3,4.2c-1,1-1.5,2.4-1.8,3.8c-0.1,0.6-0.4,1.3,0.3,1.7c0.5,0.4,1.2,0.1,1.7-0.1c2.2-0.9,4.1-2.2,5.9-3.6
			c7.3-5.8,14.3-11.9,21-18.6c1.4-1.4,1.4-1.4,0.4-3.2c-9.3-15.6-17.8-31.6-25.6-48.1c-0.5-1.2-1.2-2.2-1.8-3.2
			c-0.3-0.5-0.5-1-1.2-1c-0.6,0.1-0.6,0.6-0.9,1.2c-1.4,3.6-2.8,7.2-4.2,10.9c-2.4,6.4-4.7,12.8-7,19.2
			C698.9,59.6,698.7,60.7,698.8,61.7z"/>
		<path class="st29" d="M753,106.3c1.5,0,2.8-0.5,4.1-1.2c6.7-3.1,12.9-6.8,19.5-10.2c2.7-1.4,5.5-2.8,8.2-4.2
			c0.5-0.3,1-0.5,1.4-0.8c0.4-0.3,1.2-0.5,1-1c-0.1-0.6-0.9-0.6-1.4-0.6c-7.8-1.5-15.6-2.9-23.4-4.4c-4.7-0.9-9.6-1.8-14.3-2.7
			c-1.8-0.4-3.2-0.1-4.6,1.2C737,88.1,730.7,94,724,99.5c-1.2,1-1.2,1.3,0.5,1.8c3.2,0.9,6.4,1.3,9.6,1.9c5,0.9,10,1.9,15.1,2.7
			C750.5,106,751.7,106.2,753,106.3z"/>
		<path class="st29" d="M717,32.4c0,0.8,0.3,1.4,0.5,1.9c5.5,11.1,11.3,22.1,16.9,33.2c1.4,2.6,2.8,5.2,4.1,7.8
			c0.1,0.3,0.4,0.6,0.5,0.9c0.1,0.1,0.3,0.5,0.5,0.4c0.4-0.1,0.3-0.5,0.1-0.8c-0.4-0.9-0.6-1.8-1-2.8c-6-15.1-12.2-30.2-18.2-45.3
			c-0.3-0.6-0.5-1.8-1.3-1.8c-0.9,0-0.9,1.2-1.2,1.8C717.6,29.2,717.2,30.9,717,32.4z"/>
		<path class="st29" d="M765,48.6c-0.5,0.8-0.4,1.4-0.3,2c0.6,7.6-2.3,13.3-8.2,17.8c-2.3,1.8-4.7,3.6-7.2,5.1
			c-0.3,0.1-0.4,0.3-0.6,0.4c-0.3,0.1-0.5,0.4-0.3,0.8c0.1,0.3,0.5,0.1,0.6,0c5.4-3.2,10.8-6.4,14.2-12c2.4-4,2.8-8.5,2.4-12.9
			C765.6,49.3,765.5,49.3,765,48.6z"/>
		<path class="st29" d="M743.6,54.4c0.5,1.8,0.9,3.7,1.3,5.6c0.8,4-0.3,7.6-1.7,11.1c-0.4,0.9-0.8,1.7-1.2,2.6
			c-0.1,0.4-0.3,0.6,0.1,0.9c0.5,0.3,0.6-0.3,0.8-0.5c3.5-6.3,4.4-12.9,1.9-19.8c-0.1-0.4-0.3-0.9-0.8-0.9
			C743.6,53.5,743.6,54.1,743.6,54.4z"/>
	</g>
	<g>
		<path d="M727.6,163.4c5.9,0,11,0,16.6,0c0.1-1.7,0.3-3.2,0.3-4.7c0-9-0.1-18.1,0.1-27c0-1.4,1.2-3.6,2.3-4.2
			c6.8-3.1,15-0.8,19.7,5.1c4.7,5.9,5,14.1,0.4,20.5c-2-1.4-4.2-2.8-6.1-4.2c1.5-9.3-0.4-12.8-7.6-13.7c0,12.2,0,24.2,0,36.6
			c-12.7,0-24.8,0-37.4,0c0.1-4.9-1.8-9.5,3.7-13.6c6.3-4.6,7.9-11.8,5.9-19.3c-2.2-7.7-7.3-12.4-15.2-14.1
			c-1.2-0.3-2.2-0.5-3.6-0.8c0-2.6,0-5.1,0-8.1c9.6-0.1,17.2,3.7,22.5,11.3C737.8,139.1,736.6,151.1,727.6,163.4z"/>
		<path d="M755.9,176.8c2.3,1.5,4.4,2.9,6.4,4.4c-5.9,11.1-21.3,17.8-35.3,15.6c-14.9-2.3-26.9-14.1-29.7-29.1
			c-2.8-14.5,4-29.6,16.8-37c1.4,2.2,2.8,4.5,4.4,6.9c-8.1,5.8-12.8,13.1-13.1,23c-0.1,7.7,2.6,14.3,7.9,19.7
			C725,192.6,741.6,191.2,755.9,176.8z"/>
		<path d="M770.5,110.6c2.3,1.5,4.5,3.1,6.8,4.6c5.8-6.8,12.9-10.1,21.8-7.4c8.6,2.7,12.7,9.2,14,17.9c2.8,0,5.2,0,7.8,0
			C822,115.4,814,104,803,100C790.7,95.7,777.8,99.9,770.5,110.6z"/>
		<path d="M790.9,175.3c-6.7-0.1-11.8,4.9-11.8,11.5c0,6.5,5.1,11.8,11.7,11.7c6.4,0,11.7-5.4,11.7-11.8
			C802.3,180.3,797.4,175.4,790.9,175.3z M790.7,191.7c-2.7,0-4.9-2.2-4.9-4.9s2.2-4.9,4.9-4.9c2.7,0,4.9,2.2,4.9,4.9
			S793.4,191.7,790.7,191.7z"/>
		<path d="M814.8,126.9c-1.2,0-2.2,0.3-3.7,0.4c0,2-0.1,3.8,0,5.8c0.4,3.3,1.4,6.5,1.5,9.9c0.3,7.7,0.1,15.5,0.1,23.2
			c0,4,0,7.9,0,12c2.9,0,5.4,0,8.5,0c0-13.4,0-26.6,0-39.9c0-0.6,0-1.4,0-2V127C819,126.9,817,126.9,814.8,126.9z"/>
		<g>
			<path d="M804,126.8c-12.3,0-24.5,0-36.7,0c2,1.7,4.4,4.4,5.4,8.2c0,0,0.1,0.3,0.3,0.9c6.3,0,12.4,0,18.8,0
				c-3.2,10-9.2,17.3-17.8,22.3c-1.2,0.6-2.8,1.7-2.9,2.7c-0.4,3.6-0.1,7.3-0.1,11c12.7,0,24.7,0,36.7,0c0.3-0.6,0.5-1,0.5-1.4
				c0-13.6,0-27.1,0.1-40.8C808.1,126.4,806,126.8,804,126.8z M798.9,163.3c-5.1,0-10.2,0-15,0c5.1-6.4,10.2-12.9,15-19.1
				C798.9,149.7,798.9,156.4,798.9,163.3z"/>
		</g>
	</g>
</g>
</svg>
