<?xml version="1.0" encoding="utf-8"?>
<!-- Generator: Adobe Illustrator 23.1.0, SVG Export Plug-In . SVG Version: 6.00 Build 0)  -->
<svg version="1.1" id="Layer_1" xmlns="http://www.w3.org/2000/svg" xmlns:xlink="http://www.w3.org/1999/xlink" x="0px" y="0px"
	 viewBox="0 0 113.3 30" style="enable-background:new 0 0 113.3 30;" xml:space="preserve">
<style type="text/css">
	.st0{fill:#FFFFFF;}
	.st1{fill-rule:evenodd;clip-rule:evenodd;fill:#3E97FF;}
	.st2{fill:#3E97FF;}
</style>
<path class="st0" d="M45.3-32.8c0.2-0.2,0.3-0.5,0.3-0.8c0-0.7-0.6-1.3-1.2-1.3c-0.3,0-0.7,0.1-0.9,0.4l-4.4,4.7v-3.8
	c0-0.7-0.6-1.3-1.3-1.3s-1.3,0.6-1.3,1.3v10.1c0,0.7,0.6,1.3,1.3,1.3c0.7,0,1.3-0.6,1.3-1.3v-3l1.1-1.1l3.5,4.7
	c0.3,0.4,0.6,0.6,1.1,0.6c0.7,0,1.3-0.6,1.3-1.3c0-0.2-0.1-0.5-0.2-0.7l-3.9-5.1L45.3-32.8z M54.8-24.7c-0.6,0-1.1,0.6-2.3,0.6
	c-1.2,0-1.9-0.6-2.1-1.7h4.5c0.7,0,1.2-0.5,1.2-1.3c0-0.8-0.2-1.8-1-2.6c-0.6-0.6-1.6-1.1-2.9-1.1c-1.3,0-2.3,0.4-3,1.2
	c-0.7,0.7-1.2,1.8-1.2,3c0,1.3,0.4,2.4,1.2,3.2c0.8,0.8,1.9,1.2,3.3,1.2c0.8,0,1.6-0.1,2.3-0.4c0.7-0.3,1-0.6,1-1.1
	C55.7-24.2,55.3-24.7,54.8-24.7z M50.4-27.4c0.2-1,0.8-1.6,1.7-1.6c1,0,1.6,0.7,1.6,1.6H50.4z M65.6-24.7c-0.6,0-1.1,0.6-2.3,0.6
	c-1.2,0-1.9-0.6-2.1-1.7h4.5c0.7,0,1.2-0.5,1.2-1.3c0-0.8-0.2-1.8-1-2.6c-0.6-0.6-1.6-1.1-2.9-1.1c-1.3,0-2.3,0.4-3,1.2
	c-0.7,0.7-1.2,1.8-1.2,3c0,1.3,0.4,2.4,1.2,3.2c0.8,0.8,1.9,1.2,3.3,1.2c0.8,0,1.6-0.1,2.3-0.4c0.7-0.3,1-0.6,1-1.1
	C66.4-24.2,66.1-24.7,65.6-24.7z M61.1-27.4c0.2-1,0.8-1.6,1.7-1.6c1,0,1.6,0.7,1.6,1.6H61.1z M69.8-29.7v6.3c0,0.6,0.5,1.2,1.2,1.2
	c0.6,0,1.2-0.5,1.2-1.2v-2.9c0-1.2,0.5-2.5,1.9-2.5c0.5,0,0.9,0.2,1.1,0.4c0.3,0.4,0.4,1,0.4,1.5v3.4c0,0.6,0.5,1.2,1.2,1.2
	c0.6,0,1.2-0.5,1.2-1.2v-4c0-1.2-0.4-2.1-1-2.6c-0.6-0.6-1.5-0.8-2.4-0.8c-0.9,0-1.8,0.3-2.5,1c-0.1-0.6-0.6-1-1.2-1
	C70.3-30.8,69.8-30.3,69.8-29.7z"/>
<path class="st1" d="M22.4-22.4c0.8,0.9,2.3,0.8,2.8-0.2c1.3-2.3,1.6-4.5,1.6-6.8c0-2.3-0.5-5-1.7-7c-0.5-1-1.8-1-2.6-0.2l-5.3,5
	c-1.3,1.5-1.3,2.5,0,3.9L22.4-22.4z M20-19.8c0.9,0.8,0.9,2.1-0.1,2.8c-2.3,1.6-5.1,2.5-8.1,2.5c-8,0-14.5-6.7-14.5-15
	c0-8.3,6.5-15,14.5-15c2.9,0,5.6,0.9,7.8,2.4c1,0.6,1,2,0.2,2.8l-6.1,6c-0.4,0.4-1,0.6-1.5,0.6c-1.2,0-2.2-1-2.2-2.3V-37
	c0-1.2-0.9-2.1-2-2.1c-1.1,0-2,0.9-2,2.1v15.6c0,1.2,0.9,2.1,2,2.1c1.1,0,2-0.9,2-2.1v-2.4c0-1.3,1-2.3,2.3-2.3
	c0.6,0,1.1,0.2,1.5,0.6L20-19.8z"/>
<path class="st2" d="M-26.7-18.8L-26.7-18.8c-0.9,0.1-1.7-0.5-1.9-1.4l-1.7-11c-0.1-0.9,0.5-1.7,1.4-1.9c0.9-0.1,1.7,0.5,1.9,1.4
	l1.7,11C-25.2-19.8-25.8-18.9-26.7-18.8"/>
<path class="st2" d="M-29-9.3L-29-9.3c-0.9,0.1-1.7-0.5-1.9-1.4l-0.9-5.6c-0.1-0.9,0.5-1.7,1.4-1.9c0.9-0.1,1.7,0.5,1.9,1.4l0.9,5.6
	C-27.5-10.3-28.1-9.5-29-9.3"/>
<path class="st2" d="M-23.6-19.1L-23.6-19.1c-0.9-0.3-1.3-1.2-1-2.1l2.8-8.4c0.3-0.9,1.2-1.3,2.1-1c0.9,0.3,1.3,1.2,1,2.1l-2.8,8.4
	C-21.8-19.3-22.7-18.8-23.6-19.1"/>
<path class="st2" d="M-32.7-10L-32.7-10c-0.7,0.1-1.3-0.3-1.4-1l-0.7-4.5c-0.1-0.7,0.3-1.3,1-1.4c0.7-0.1,1.3,0.3,1.4,1l0.7,4.5
	C-31.6-10.7-32.1-10.1-32.7-10"/>
<path class="st2" d="M-26.6-18h9.2c0,0,3.3,0.3,1.9,4.8l-1.8,6.3c0,0-0.5,2.4-5.7,2.2c-0.1,0-0.1,0-0.2,0l-5.7,0
	c-0.7,0-1.2-0.5-1.2-1.2c0-0.7,0.5-1.2,1.2-1.2l7.6,0c0.7,0,1.4-0.4,1.7-1c0.2-0.3,0.4-0.8,0.6-1.4l1.3-4.7l0.3-0.9
	c0.1-0.3-0.1-0.5-0.4-0.5l-8.7,0.1c-0.7,0-1.2-0.5-1.2-1.2C-27.8-17.5-27.3-18-26.6-18"/>
<path class="st0" d="M21.4,52.1c0,0-0.3-0.1-0.2,1.3l0,3.7c0,0,0,0.9,1,0.9v-3.5l3.6,3.6c0,0,0.2-0.4,0.2-0.8V53
	c0-0.4-0.2-0.7-0.5-0.9c-0.1-0.1-0.3-0.1-0.5-0.1v3.7L21.4,52.1z"/>
<path class="st0" d="M27.6,52.1c0,0-0.3-0.1-0.2,1.3l0,3.7c0,0,0,0.9,1,0.9v-3.5l3.6,3.6c0,0,0.2-0.4,0.2-0.8V53
	c0-0.4-0.2-0.7-0.5-0.9c-0.1-0.1-0.3-0.1-0.5-0.1v3.7L27.6,52.1z"/>
<path class="st0" d="M33.7,52.1v5.8h4.5c0,0,0.1-0.6-0.5-0.9c-0.2-0.1-0.4-0.1-0.6-0.1l-2.3,0v-1.5l1.4,0c0,0,0.8,0,1-1h-2.4v-1.3
	l2.3,0c0,0,1,0,1.1-1H33.7z"/>
<path class="st0" d="M42.9,55.9c0,0-0.2-0.2,0.1-0.2c0,0,0.8-0.2,1-0.8c0,0,0.4-0.5,0.2-1.2c-0.1-0.5-0.5-0.9-0.9-1.2
	c-0.3-0.2-0.7-0.3-1.1-0.2h-2.8V58c0,0,1.1,0.1,1.1-1.1v-1.1l0.8,0c0.2,0,0.3,0,0.4,0.2c0.2,0.1,0.4,0.4,0.5,0.7l0.8,1.3h1.4
	L42.9,55.9z M41,54.7c-0.6-0.1-0.6-0.4-0.6-0.4v-1.2l2,0c0.1,0,0.3,0,0.4,0.1c0,0,0.1,0.1,0.1,0.1c0.3,0.2,0.3,0.6,0.1,0.9
	c-0.3,0.4-0.7,0.4-0.7,0.4H41z"/>
<path class="st0" d="M49.7,53.1c0,0,0.1-0.6-0.6-1c-0.1,0-0.1,0-0.2,0h-2.3c-0.2,0-0.5,0.1-0.7,0.2c-0.4,0.2-1,0.7-0.9,1.6
	c0,0-0.1,1.5,1.6,1.5H48c0.3,0,0.6,0.1,0.7,0.4c0.1,0.1,0.1,0.3,0.1,0.5c0,0-0.1,0.6-0.7,0.6h-3c0,0,0.1,0.9,0.8,1h2.5
	c0,0,1.3,0,1.5-1.6c0,0,0.1-1.3-1.2-1.7c0,0-0.4-0.2-2.1-0.1c-0.2,0-0.3,0-0.4-0.1C46.1,54.2,46,54,46,53.8c0,0,0-0.4,0.5-0.6H49.7z
	"/>
<path class="st0" d="M80.1,55.9c0,0-0.2-0.2,0.1-0.2c0,0,0.8-0.2,1-0.8c0,0,0.4-0.5,0.2-1.2c-0.1-0.5-0.5-0.9-0.9-1.2
	c-0.3-0.2-0.7-0.3-1.1-0.2h-2.8v5.9c0,0,1.1,0.1,1.1-1.1v-1.1l0.8,0c0.2,0,0.3,0,0.4,0.2c0.2,0.1,0.4,0.4,0.5,0.7l0.8,1.3h1.4
	L80.1,55.9z M78.2,54.8c-0.6-0.1-0.6-0.4-0.6-0.4v-1.2l2,0c0.1,0,0.3,0,0.4,0.1c0,0,0.1,0.1,0.1,0.1c0.3,0.2,0.3,0.6,0.1,0.9
	c-0.3,0.4-0.7,0.4-0.7,0.4H78.2z"/>
<path class="st0" d="M57.3,55c0,0-0.2-0.1,0-0.2c0,0,0.7-0.3,0.6-1.2c0,0,0-1.4-1.5-1.4H53v5.1c0,0,0.2,0.7,0.9,0.8h2.7
	c0,0,1.4-0.2,1.5-1.7C58.1,56.4,58.3,55.3,57.3,55 M56.4,57C56.4,57.1,56.3,57.1,56.4,57l-1.7,0c-0.3,0-0.5-0.1-0.6-0.2
	c-0.1-0.1-0.1-0.1-0.1-0.2v-3.4l2,0c0.1,0,0.2,0,0.3,0.1c0.3,0.2,0.4,0.4,0.3,0.6c-0.1,0.3-0.4,0.6-0.7,0.6h-1.4c0,0,0,0.1,0,0.1
	c0,0.5,0.5,0.9,1,0.9l0.7,0c0.2,0,0.5,0.1,0.6,0.2C56.9,55.9,57,56,57,56C57.3,56.7,56.6,57,56.4,57"/>
<path class="st0" d="M58.8,58v-4c0,0,0.5-2.2,2.8-2c0,0,2-0.1,2.5,2.3V58H63V57h-1.8c0,0-0.8-0.1-0.8-1H63l0-1.7c0,0-0.4-1.7-2-1.2
	c0,0-1,0.3-1,1.6l0,3.4H58.8z"/>
<path class="st0" d="M70.2,58v-4c0,0,0.5-2.2,2.8-2c0,0,2-0.1,2.5,2.3V58h-1.2V57h-1.8c0,0-0.8-0.1-0.8-1h2.6l0-1.7
	c0,0-0.4-1.7-2-1.2c0,0-1,0.3-1,1.6l0,3.4H70.2z"/>
<path class="st0" d="M64.8,52.2h4.8l-3.1,4.9h2.2c0.5,0,0.9,0.4,0.9,1c0,0,0,0,0,0h-5l3.1-4.8h-1.9c-0.3,0-0.6-0.1-0.8-0.4
	C64.9,52.7,64.8,52.5,64.8,52.2"/>
<g>
	<polygon class="st0" points="45.9,2 44.9,13.3 44.7,13.3 43.5,5.2 41.7,5.2 40.5,13.3 40.4,13.3 39.3,2 37.4,2 38.8,14.8 
		41.6,14.8 42.6,7 42.7,7 43.6,14.8 46.4,14.8 47.8,2 	"/>
	<g>
		<path class="st0" d="M54,3.7c0.4,0,0.7-0.1,0.9-0.4c0.3-0.3,0.4-0.6,0.4-0.9c0-0.4-0.1-0.7-0.4-0.9C54.7,1.2,54.4,1,54,1
			c-0.4,0-0.7,0.1-0.9,0.4c-0.3,0.3-0.4,0.6-0.4,0.9c0,0.4,0.1,0.7,0.4,0.9C53.3,3.6,53.6,3.7,54,3.7z"/>
		<polygon class="st0" points="55,6.9 55,5.8 55,5.2 50,5.2 50,6.9 53.1,6.9 53.1,13.1 49.5,13.1 49.5,14.8 53.1,14.8 53.3,14.8 
			54.8,14.8 55,14.8 57.9,14.8 57.9,13.1 55,13.1 		"/>
		<path class="st0" d="M64.9,5c-0.8,0-1.4,0.2-1.8,0.5c-0.4,0.3-0.6,0.8-0.7,1.4h-0.2l-0.2-1.7h-1.7v9.5h1.9V9.4
			c0-1.8,0.8-2.6,2.3-2.6c0.5,0,1,0.2,1.3,0.5c0.3,0.3,0.5,0.8,0.5,1.3v6.2h1.9V8.6c0-1.1-0.3-2-0.8-2.6S65.9,5,64.9,5z"/>
		<path class="st0" d="M75.7,5c-0.8,0-1.4,0.2-1.8,0.5c-0.4,0.3-0.6,0.8-0.7,1.4H73l-0.2-1.7h-1.7v9.5H73V9.4c0-1.8,0.8-2.6,2.3-2.6
			c0.5,0,1,0.2,1.3,0.5C76.9,7.5,77,8,77,8.6v6.2h1.9V8.6c0-1.1-0.3-2-0.8-2.6C77.5,5.3,76.8,5,75.7,5z"/>
		<path class="st0" d="M89.9,9.6c0-1.5-0.4-2.6-1.1-3.4c-0.7-0.8-1.7-1.2-3-1.2c-1.4,0-2.4,0.4-3.2,1.3c-0.7,0.9-1.1,2.1-1.1,3.6
			c0,1.6,0.4,2.8,1.3,3.7c0.9,0.9,2.1,1.3,3.8,1.3c0.4,0,0.8,0,1.2,0c0.5,0,1-0.1,1.5-0.2L89.2,13c-0.4,0.1-0.8,0.1-1.2,0.2
			c-0.4,0-0.8,0.1-1.2,0.1c-1.1,0-2-0.3-2.6-0.9c-0.4-0.4-0.7-0.9-0.8-1.6h6.4C89.9,10.5,89.9,10.1,89.9,9.6z M83.4,9.4
			C83.4,8.6,83.6,8,84,7.5c0.4-0.6,1.1-0.8,1.9-0.8c0.7,0,1.3,0.2,1.7,0.7c0.4,0.5,0.6,1.1,0.6,2H83.4z"/>
	</g>
	<g>
		<path class="st0" d="M98.8,5c-1.6,0-2.5,0.9-2.6,2.6h-0.2l-0.3-2.4h-0.1h-1.4h-1.8v1.7h1.8v6.2h-2.1v1.7h2.1H96h2.3v-1.7H96v-2.4
			c0-1.3,0.2-2.3,0.6-3c0.4-0.7,1-1,1.8-1c0.5,0,0.8,0.2,1,0.5c0.2,0.3,0.3,0.8,0.3,1.5h1.9c0-1.3-0.2-2.2-0.7-2.7
			C100.5,5.3,99.8,5,98.8,5z"/>
		<path class="st0" d="M110.7,10.3c-0.5-0.4-1.2-0.7-2.2-1l-1.8-0.4c-0.4-0.1-0.7-0.2-0.9-0.3c-0.2-0.1-0.3-0.3-0.3-0.6
			c0-0.4,0.2-0.7,0.7-0.9c0.5-0.2,1.3-0.3,2.3-0.3c0.4,0,0.7,0,1.1,0c0.4,0,0.8,0.1,1.3,0.1l0.2-1.7c-0.4-0.1-0.8-0.1-1.2-0.1
			c-0.4,0-0.8,0-1.3,0c-1.8,0-3.1,0.2-3.9,0.7C104,6.2,103.6,7,103.6,8c0,0.7,0.2,1.3,0.7,1.6c0.4,0.4,1.1,0.7,2.1,0.9l2.2,0.6
			c0.3,0.1,0.6,0.2,0.7,0.3c0.2,0.1,0.2,0.4,0.2,0.6c0,0.4-0.2,0.7-0.7,0.9c-0.4,0.2-1.1,0.3-2.1,0.3c-0.4,0-0.9,0-1.4-0.1
			c-0.5,0-1-0.1-1.7-0.2l-0.2,1.7c0.4,0.1,0.9,0.2,1.4,0.2c0.5,0,1.1,0.1,1.9,0.1c1.7,0,2.9-0.2,3.6-0.7c0.8-0.5,1.1-1.2,1.1-2.2
			C111.4,11.2,111.2,10.7,110.7,10.3z"/>
	</g>
	<path class="st0" d="M46.4,22.9c-0.7-0.5-1.7-0.8-2.9-0.8V22c0.8-0.1,1.5-0.3,2.1-0.7c0.7-0.5,1-1.2,1-2c0-1-0.4-1.8-1.1-2.4
		c-0.7-0.6-1.7-0.8-3-0.8h-1.9h-0.3h-1.6v12.8h1.7h0.1h3c1.2,0,2.2-0.3,2.9-0.9c0.7-0.6,1-1.5,1-2.6C47.4,24.3,47.1,23.5,46.4,22.9z
		 M42.4,17.7c0.7,0,1.3,0.1,1.7,0.4c0.4,0.3,0.6,0.7,0.6,1.3c0,0.6-0.2,1-0.6,1.3c-0.4,0.3-0.9,0.5-1.6,0.5h-2v-3.5H42.4z
		 M44.9,26.5c-0.4,0.4-1.1,0.5-1.8,0.5h-2.5v-4.2h2.4c0.8,0,1.5,0.2,1.9,0.6c0.5,0.4,0.7,0.9,0.7,1.6C45.5,25.7,45.3,26.2,44.9,26.5
		z"/>
	<path class="st0" d="M56.8,27.1v-4c0-1.3-0.4-2.2-1.1-2.9c-0.8-0.7-1.9-1-3.5-1l-1.9,0l-0.2,1.7l2.3,0.1c0.9,0,1.5,0.2,2,0.5
		c0.4,0.3,0.7,0.8,0.7,1.4v0.4c-0.1,0-0.2,0-0.3-0.1c-0.4-0.1-1-0.1-1.5-0.1c-1.4,0-2.4,0.3-3.2,0.8c-0.8,0.5-1.1,1.3-1.1,2.3
		c0,0.9,0.3,1.6,0.8,2C50.2,28.7,51,29,52,29c0.6,0,1.2-0.1,1.6-0.3c0.5-0.2,0.8-0.5,1.1-0.8c0.2-0.3,0.3-0.7,0.3-1.1h0.2l0.1,2.1
		l3.1-0.1v-1.5L56.8,27.1z M54.7,26.3c-0.2,0.3-0.5,0.6-0.9,0.8c-0.4,0.2-0.9,0.3-1.5,0.3c-0.5,0-0.9-0.1-1.2-0.3
		c-0.3-0.2-0.4-0.6-0.4-1c0-1,0.8-1.5,2.5-1.5c0.4,0,0.8,0,1.2,0c0.2,0,0.4,0,0.7,0.1v0.6v0.1C55,25.7,54.9,26,54.7,26.3z"/>
	<polygon class="st0" points="62.6,27.1 68,20.9 68,19.2 60.3,19.2 60.3,20.9 65.7,20.9 60.3,27.1 60.3,28.8 68.1,28.8 68.1,27.1 	
		"/>
	<path class="st0" d="M78.4,27.1v-4c0-1.3-0.4-2.2-1.1-2.9c-0.8-0.7-1.9-1-3.5-1l-1.9,0l-0.2,1.7l2.3,0.1c0.9,0,1.5,0.2,2,0.5
		c0.4,0.3,0.7,0.8,0.7,1.4v0.4c-0.1,0-0.2,0-0.3-0.1c-0.4-0.1-1-0.1-1.5-0.1c-1.4,0-2.4,0.3-3.2,0.8c-0.8,0.5-1.1,1.3-1.1,2.3
		c0,0.9,0.3,1.6,0.8,2c0.5,0.5,1.3,0.7,2.3,0.7c0.6,0,1.2-0.1,1.6-0.3c0.5-0.2,0.8-0.5,1.1-0.8c0.2-0.3,0.3-0.7,0.3-1.1h0.2l0.1,2.1
		l3.1-0.1v-1.5L78.4,27.1z M76.3,26.3c-0.2,0.3-0.5,0.6-0.9,0.8c-0.4,0.2-0.9,0.3-1.5,0.3c-0.5,0-0.9-0.1-1.2-0.3
		c-0.3-0.2-0.4-0.6-0.4-1c0-1,0.8-1.5,2.5-1.5c0.4,0,0.8,0,1.2,0c0.2,0,0.4,0,0.7,0.1v0.6v0.1C76.6,25.7,76.5,26,76.3,26.3z"/>
	<path class="st0" d="M90.1,19.9c-0.4-0.6-1.2-0.8-2.1-0.8c-1.6,0-2.5,0.9-2.6,2.6h-0.2l-0.3-2.4h-0.1h-1.4h-1.8v1.7h1.8v6.2h-2.1
		v1.7h2.1h1.9h2.3v-1.7h-2.3v-2.4c0-1.3,0.2-2.3,0.6-3c0.4-0.7,1-1,1.8-1c0.5,0,0.8,0.2,1,0.5c0.2,0.3,0.3,0.8,0.3,1.5h1.9
		C90.8,21.4,90.6,20.5,90.1,19.9z"/>
</g>
<g>
	<circle class="st1" cx="15.2" cy="14.8" r="15"/>
	<g>
		<path class="st0" d="M27,10.8c0,0-0.1,0.2-0.2,0.4c-0.1,0.2-0.2,0.5-0.4,0.8c-0.1,0.3-0.2,0.6-0.4,0.8s-0.2,0.4-0.2,0.5
			c-0.3,0.6-0.6,1.3-1,1.9c-0.4,0.6-0.8,1.2-1.1,1.8c-0.4,0.6-0.8,1.2-1.1,1.8c-0.4,0.6-0.7,1.2-1,1.9c0.4-0.5,0.9-1.1,1.4-2
			c0.5-0.8,1.1-1.7,1.6-2.6c0.5-0.9,1-1.8,1.4-2.7c0.4-0.9,0.7-1.6,0.9-2.2l0.1,0c0,0.2-0.1,0.4-0.2,0.6c-0.1,0.2-0.2,0.4-0.2,0.6
			c-0.1,0.3-0.3,0.7-0.4,1c-0.1,0.3-0.3,0.7-0.5,1c-0.2,0.4-0.5,0.9-0.9,1.6c-0.4,0.7-0.9,1.5-1.4,2.3c-0.5,0.8-1.1,1.7-1.7,2.5
			c-0.6,0.9-1.2,1.6-1.8,2.3c-0.6,0.7-1.2,1.3-1.8,1.7c-0.6,0.4-1.1,0.7-1.5,0.7c-0.5,0-0.9-0.1-1.1-0.4c-0.3-0.3-0.5-0.6-0.6-0.9
			c-0.1-0.4-0.2-0.8-0.3-1.2c0-0.4-0.1-0.8-0.1-1.2c0-0.9,0.1-1.8,0.2-2.6s0.2-1.7,0.2-2.5v-0.1c-0.3,0.5-0.5,0.9-0.8,1.4
			c-0.2,0.5-0.5,0.9-0.7,1.4l-0.1,0.4c-0.5,0.5-0.9,1.1-1.3,1.7c-0.3,0.6-0.8,1.2-1.2,1.7c-0.1,0.1-0.2,0.2-0.3,0.3
			c-0.1,0.1-0.2,0.3-0.3,0.4c-0.1,0-0.1,0.1-0.2,0.1c-0.1,0-0.1,0.1-0.1,0.1c-0.2,0.1-0.5,0.3-0.8,0.5s-0.6,0.2-0.9,0.2
			c-0.1,0-0.2,0-0.2-0.1c-0.3,0-0.5-0.1-0.6-0.4c-0.1-0.3-0.2-0.6-0.3-0.9c-0.1-0.4-0.1-0.7-0.1-1.1c0-0.3,0-0.6,0-0.8
			c0-2.5,0.3-5,0.8-7.6c0.6-2.5,1.3-4.9,2.2-7.3c-0.6,0.7-1.3,1.3-1.9,2s-1.2,1.4-1.9,2l-0.1-0.1c0-0.1,0-0.3,0.1-0.5
			c0-0.2,0.1-0.3,0.1-0.5c-0.1,0.2-0.1,0.3-0.2,0.5s-0.1,0.3-0.2,0.5c0,0,0,0,0-0.1c0,0,0,0,0-0.1c0-0.3,0.1-0.6,0.3-1.1
			C6.5,9,6.8,8.5,7.1,8c0.3-0.5,0.7-1.1,1.1-1.6c0.4-0.5,0.8-1,1.2-1.5c0.4-0.4,0.8-0.8,1.2-1.1c0.4-0.3,0.7-0.4,1-0.4
			c0.2,0.1,0.4,0.2,0.6,0.2c0.2,0,0.4,0.1,0.6,0.2C13,3.8,13.1,4,13.3,4.1c0.1,0.2,0.2,0.4,0.2,0.7c0,0.2,0,0.4,0,0.5s0,0.3,0.1,0.5
			l0.2-0.7C13.5,6.1,13.4,7,13.3,8c-0.2,0.9-0.3,1.9-0.5,2.8c-0.2,0.9-0.4,1.9-0.6,2.8c-0.2,0.9-0.4,1.8-0.6,2.8l-0.1,0.2
			c-0.1,0.6-0.3,1.2-0.4,1.9c-0.2,0.7-0.2,1.3-0.2,1.9v0.1c0.1-0.1,0.2-0.2,0.2-0.3c0.1-0.1,0.1-0.2,0.2-0.3c0.5-0.8,1-1.5,1.5-2.3
			c0.5-0.8,1-1.5,1.5-2.3c0.5-0.8,1-1.6,1.4-2.3c0.5-0.8,0.8-1.6,1.1-2.5c0.1-0.3,0.2-0.6,0.4-1c0.1-0.4,0.3-0.7,0.5-1.1
			c0.2-0.4,0.3-0.7,0.5-1c0.2-0.3,0.4-0.6,0.6-0.8c0.1-0.1,0.2-0.2,0.3-0.3c0.1-0.1,0.2-0.2,0.4-0.2c-0.2,0.6-0.5,1.2-0.9,1.8
			C18.3,8.4,18,9,17.9,9.6c0.1-0.2,0.2-0.5,0.4-0.9c0.2-0.3,0.3-0.7,0.5-1.1c0.2-0.4,0.4-0.7,0.6-1c0.2-0.3,0.4-0.5,0.6-0.6l0,0.3
			c-0.1,0.2-0.2,0.5-0.2,0.7c-0.1,0.2-0.1,0.5-0.2,0.7c0.1-0.3,0.2-0.5,0.3-0.8c0.1-0.2,0.2-0.5,0.3-0.8c0.2,0,0.4,0.1,0.4,0.3
			c0,0.2,0.1,0.3,0.1,0.5c0,0,0,0.2-0.1,0.5c0,0.3-0.1,0.6-0.2,1c-0.1,0.4-0.1,0.7-0.2,1c-0.1,0.3-0.1,0.5-0.1,0.5
			c0-0.1,0.1-0.1,0.1-0.2c0-0.1,0.1-0.3,0.1-0.4c0-0.1,0-0.2,0.1-0.4c0,0,0.1,0.1,0.1,0.2c0,0.1,0,0.1,0,0.2v0.2c-0.1,1-0.2,2-0.4,3
			c-0.2,1-0.4,2-0.6,2.9c-0.2,1-0.4,2-0.6,2.9c-0.2,1-0.3,2-0.4,3c0.4-0.7,0.9-1.5,1.4-2.3c0.5-0.9,1-1.8,1.5-2.7
			c0.5-0.9,1-1.9,1.5-2.9c0.5-1,0.9-2,1.3-3c0.4-1,0.7-1.9,0.9-2.9c0.2-0.9,0.3-1.8,0.3-2.6c0-0.3,0-0.5-0.1-0.7
			C25.2,4.2,25.1,4.1,25,4c-0.1-0.1-0.2-0.2-0.3-0.4c-0.1-0.1-0.2-0.3-0.3-0.5l-0.2-0.1c0-0.2,0.1-0.3,0.3-0.4
			c0.2-0.1,0.3-0.1,0.5-0.1c0.5,0,0.9,0.2,1.3,0.5s0.7,0.7,0.9,1.2c0.2,0.5,0.4,0.9,0.5,1.5c0.1,0.5,0.2,1,0.2,1.4
			c0,0.5-0.1,1-0.2,1.5s-0.3,1-0.3,1.5l0.2-0.6c0,0.1-0.1,0.3-0.1,0.5c0,0.2-0.1,0.4-0.2,0.5l-0.1,0l0-0.1c0,0-0.1,0.1-0.1,0.2
			c0,0.1-0.1,0.2-0.1,0.2v0.1l0.1,0l0,0.2L27,11L27,10.8z M6.5,9.7C6.5,9.7,6.5,9.8,6.5,9.7C6.5,9.8,6.5,9.7,6.5,9.7z M7.9,7.3
			C7.7,7.4,7.6,7.5,7.4,7.7C7.3,7.9,7.2,8.1,7,8.3C6.9,8.6,6.8,8.8,6.7,9C6.7,9.3,6.6,9.5,6.5,9.7c0.2-0.4,0.4-0.8,0.7-1.2
			C7.5,8.1,7.7,7.7,7.9,7.3z M8,23.7C8,23.7,8,23.6,8,23.4c0.1-1.1,0.1-2.1,0.1-3.2c0-1.1,0.1-2.1,0.3-3.2c0.3-1.3,0.5-2.6,0.8-3.9
			c0.3-1.3,0.6-2.6,0.8-3.9c-0.3,0.8-0.5,1.7-0.7,2.6s-0.5,1.7-0.7,2.6l0-0.5c-0.1,1.4-0.3,2.8-0.5,4.2c-0.2,1.4-0.3,2.8-0.3,4.2
			c0,0.3,0,0.5,0,0.8C7.9,23.2,7.9,23.5,8,23.7z M8.4,15.3l0.1-0.1l-0.1,0V15.3L8.4,15.3z M9,12.5L9,12.5c0,0.1,0,0.1,0,0.2V12.5z
			 M9,12.2L9,12.2L9,12.2L9,12.2z M9.2,11.6L9.2,11.6c0,0,0.1,0,0.1-0.2c0-0.1,0.1-0.3,0.1-0.4s0.1-0.3,0.1-0.5
			c0-0.1,0.1-0.2,0.1-0.3L9.2,11.6z M9.7,15.2l0-0.1L9.7,15.2L9.7,15.2L9.7,15.2z M9.7,10C9.7,10,9.6,10,9.7,10L9.7,10z M9.7,14.8
			L9.7,14.8L9.7,14.8L9.7,14.8z M9.8,15.4c0.1-0.2,0.2-0.5,0.3-1c0.1-0.5,0.2-0.9,0.3-1.4s0.2-1,0.3-1.5c0.1-0.5,0.2-0.8,0.2-1.1
			c-0.1,0.1-0.1,0.4-0.3,0.8c-0.1,0.5-0.2,1-0.4,1.5c-0.1,0.6-0.2,1.1-0.3,1.6C9.9,14.9,9.8,15.3,9.8,15.4z M10.6,20.4L10.6,20.4
			l-0.2,0.1l0.1,0.1L10.6,20.4z M10.5,20.7c0,0.1,0,0.1,0,0.2L10.5,20.7z M10.7,16.1c0,0,0,0.1,0,0.1c0,0,0,0.1,0,0.1
			c0.1-0.1,0.1-0.3,0.1-0.5c0-0.2,0-0.3,0.1-0.5c0-0.4,0.1-0.9,0.2-1.3s0.2-0.9,0.3-1.3s0.2-0.9,0.3-1.3s0.2-0.9,0.2-1.3
			c-0.1,0.1-0.2,0.4-0.3,0.9c-0.1,0.5-0.3,1-0.4,1.6c-0.1,0.6-0.2,1.1-0.3,1.6c-0.1,0.5-0.2,0.9-0.2,1.1c0,0.2-0.1,0.4-0.2,0.5
			l-0.1,0l0.1,0.1c0,0,0,0.1,0,0.1C10.7,16.1,10.7,16.1,10.7,16.1z M10.6,20.3c0-0.1,0.1-0.2,0.1-0.4c0-0.2,0-0.3,0-0.4
			c0-0.1,0-0.1,0-0.1L10.6,20.3z M10.7,19.2c0.3-0.8,0.5-1.7,0.6-2.6c0.2-0.9,0.3-1.7,0.6-2.6c0.2-1,0.4-2,0.6-3c0.2-1,0.4-2,0.5-3
			C13,8,13,8,13,8c0,0.1,0,0.1,0,0.1l-0.4,1.6c-0.1,0.6-0.3,1.3-0.5,2.1c-0.2,0.8-0.4,1.7-0.6,2.5c-0.2,0.9-0.4,1.7-0.5,2.5
			c-0.1,0.8-0.2,1.5-0.2,2.1V19.2z M10.7,21.3L10.7,21.3l-0.1,0.1L10.7,21.3L10.7,21.3z M11,10.1C11,10.1,10.9,10.2,11,10.1
			c0,0.1,0,0.1,0,0.1V10.1z M11.4,20.4c0.3-0.6,0.8-1.3,1.2-1.9c0.5-0.7,0.9-1.3,1.4-2c0.5-0.7,0.9-1.3,1.3-2
			c0.4-0.7,0.7-1.4,0.9-2.1c-0.5,0.6-0.9,1.3-1.3,1.9c-0.4,0.7-0.8,1.3-1.2,2c-0.4,0.7-0.8,1.3-1.3,2s-0.8,1.4-1.2,2.1v0.1
			L11.4,20.4z M13.1,7.7l0.1-0.4c0,0.1,0,0.1-0.1,0.2C13.1,7.5,13.1,7.6,13.1,7.7L13.1,7.7z M13.3,6.7l-0.1,0.1L13.3,7V6.7L13.3,6.7
			z M13.3,6.6l0.1-0.1l-0.1-0.1l-0.1,0.1V6.6z M13.3,6.2L13.3,6.2L13.3,6.2l0.1,0L13.3,6.2L13.3,6.2z M14,18.6
			c0,0.1-0.1,0.2-0.2,0.4c-0.1,0.1-0.1,0.3-0.2,0.3L14,18.6z M14.1,18.5L14.1,18.5l0.6-1.1L14.1,18.5z M14.1,17.8
			c0.3-0.3,0.5-0.6,0.7-0.9c0.2-0.3,0.3-0.7,0.5-1c0,0-0.1,0-0.1,0.1c0,0.1-0.1,0.2-0.2,0.3c-0.1,0.1-0.1,0.2-0.2,0.3
			s-0.1,0.2-0.2,0.2l-0.3,0.6c0,0.1,0,0.2,0,0.2C14.2,17.6,14.1,17.7,14.1,17.8z M14.7,17.3c0.1-0.2,0.1-0.3,0.2-0.4l-0.1,0.2
			L14.7,17.3z M15.3,21.2c0,0.1,0,0.1,0,0.2L15.3,21.2z M15.3,21.9C15.3,21.9,15.3,21.9,15.3,21.9L15.3,21.9z M15.3,20.1
			c0,0.1,0,0.1,0,0.2c0,0.1,0,0.1,0,0.2L15.3,20.1z M15.4,19.8L15.4,19.8v0.1V19.8z M15.5,23c0.1-1.6,0.3-3.2,0.5-4.8
			c0.2-1.6,0.4-3.2,0.8-4.7c-0.2,0.5-0.4,1.1-0.6,1.8c-0.2,0.7-0.3,1.5-0.4,2.3c-0.1,0.8-0.2,1.6-0.2,2.3c-0.1,0.8-0.1,1.4-0.1,1.9
			c0,0.2,0,0.4,0,0.6C15.5,22.6,15.5,22.8,15.5,23z M15.5,23.2L15.5,23.2L15.5,23.2L15.5,23.2z M18.3,11.7c-0.5,1.7-0.9,3.5-1.3,5.3
			c-0.4,1.8-0.6,3.6-0.6,5.4c0,0.1,0,0.3,0,0.5s0,0.4,0.1,0.5c0,0,0,0,0-0.1c0.1-0.6,0.1-1.2,0.1-1.8s0-1.2,0.1-1.8
			c0.1-0.6,0.2-1.2,0.3-2c0.2-0.7,0.3-1.4,0.5-2.2c0.2-0.7,0.3-1.4,0.5-2.1c0.1-0.7,0.2-1.2,0.2-1.6V11.7z M16.8,13.2
			c0.1-0.1,0.2-0.3,0.2-0.4c0,0.1-0.1,0.1-0.1,0.2C16.8,13,16.8,13.1,16.8,13.2L16.8,13.2z M17.5,23c0,0,0-0.1,0.1-0.1
			c0,0,0-0.1,0-0.1c0.1-0.6,0.2-1.1,0.2-1.8c0-0.6,0.1-1.3,0.2-1.8c0.2-1.3,0.4-2.5,0.6-3.8c0.2-1.2,0.5-2.5,0.7-3.8
			c-0.1,0.2-0.2,0.6-0.4,1.2c-0.1,0.6-0.3,1.2-0.4,1.9c-0.1,0.7-0.3,1.4-0.4,2.2c-0.1,0.8-0.2,1.5-0.3,2.3c-0.1,0.7-0.2,1.4-0.2,2
			c-0.1,0.6-0.1,1.1-0.1,1.4c0,0.1,0,0.2,0,0.2C17.5,22.8,17.5,22.9,17.5,23z M17.6,10.2L17.6,10.2l0.1-0.3l-0.1,0L17.6,10.2z
			 M17.8,9.1C17.9,9,18,9,18,8.8l-0.1,0L17.8,9.1z M17.9,22.3c0.1-0.1,0.1-0.3,0.2-0.7c0.1-0.4,0.2-0.9,0.2-1.5
			c0.1-0.6,0.2-1.2,0.3-1.9s0.2-1.4,0.3-2c0.1-0.6,0.2-1.2,0.3-1.7s0.2-0.9,0.3-1.1c-0.1-0.2-0.1-0.4,0-0.6c0.1-0.2,0.1-0.5,0.2-0.7
			c0.1-0.3,0.2-0.5,0.2-0.8c0.1-0.2,0.1-0.5,0.1-0.7c0-0.1,0-0.2,0-0.2c-0.1,0.2-0.2,0.6-0.4,1.2c-0.1,0.6-0.3,1.3-0.5,2.1
			s-0.3,1.7-0.5,2.6c-0.2,0.9-0.3,1.8-0.5,2.6c-0.1,0.8-0.2,1.5-0.3,2.2c-0.1,0.6-0.1,1.1-0.1,1.3V22.3z M18,8.7L18,8.7l0.1-0.2
			l-0.1,0L18,8.7z M19,8.7L19,8.7l0.1-0.1l-0.1,0L19,8.7z M20.4,8.8L20.5,9l-0.1,0.1l0-0.1L20.4,8.8z M20.4,8.6
			c0.1-0.2,0.1-0.5,0.2-0.7c0-0.2,0.1-0.5,0.2-0.7l0,0.1c0,0.2,0,0.5-0.1,0.7C20.7,8.3,20.6,8.5,20.4,8.6L20.4,8.6z M21.3,17.6
			c0.3-0.4,0.6-0.9,0.9-1.3c0.2-0.5,0.5-0.9,0.7-1.4c-0.3,0.4-0.6,0.9-0.8,1.3C21.7,16.6,21.5,17.1,21.3,17.6z M22.5,15.1
			c-0.1,0.1-0.1,0.1-0.2,0.2c0,0.1-0.1,0.2-0.1,0.2c0.1-0.1,0.1-0.1,0.2-0.2C22.4,15.3,22.5,15.2,22.5,15.1z M25.3,13.6
			c-0.5,0.8-1,1.6-1.5,2.4c-0.5,0.8-1,1.6-1.3,2.5c0.1-0.1,0.3-0.4,0.6-0.8s0.6-0.9,0.9-1.5c0.3-0.5,0.6-1.1,0.8-1.6
			C25.1,14.2,25.2,13.8,25.3,13.6z M22.8,14.6C22.8,14.6,22.7,14.6,22.8,14.6c-0.1,0.1-0.1,0.1-0.1,0.2L22.8,14.6z M23.8,14.9
			c-0.2,0.3-0.4,0.5-0.6,0.8c-0.1,0.3-0.3,0.6-0.4,0.9c0.2-0.3,0.3-0.6,0.5-0.9C23.5,15.5,23.7,15.2,23.8,14.9z M25.4,13.4v0.1V13.4
			l0.1-0.1L25.4,13.4z M27,11C27,11.1,27,11.1,27,11L27,11L27,11z"/>
	</g>
</g>
</svg>
