<?xml version="1.0" encoding="utf-8"?>
<!-- Generator: Adobe Illustrator 23.0.1, SVG Export Plug-In . SVG Version: 6.00 Build 0)  -->
<svg version="1.1" id="Layer_1" xmlns="http://www.w3.org/2000/svg" xmlns:xlink="http://www.w3.org/1999/xlink" x="0px" y="0px"
	 viewBox="0 0 50.9 67.3" style="enable-background:new 0 0 50.9 67.3;" xml:space="preserve">
<style type="text/css">
	.st0{fill:#FFFFFF;}
</style>
<g>
	<g>
		<path class="st0" d="M33.1,46c-1.4,1-3.4,1.2-3.9,3.4c-1-1.1-1.8-2-2.9-2.7c-1.7-1.2-3.5-1.2-5.3-0.2c-1.5,0.9-2.3,2.3-2.9,3.8
			c-0.4,0.9-0.2,1.3,0.7,1.7c2.6,1.2,3.1,3.4,1.5,5.8c-0.1,0.1-0.1,0.3-0.2,0.4c0.8,0,1.5-0.1,2.2-0.1c1.2,0,2.2-0.6,3-1.4
			c1.4-1.5,1.2-3.5-0.6-4.5c-0.6-0.3-1.2-0.6-1.8-0.9c0.5-0.7,1.3-0.7,2-0.6c2.2,0.2,4.4,2.6,4.5,4.8c0,2.6,0,5.1,0,7.7
			c0,1.5,0.6,2.5,1.9,3.1c0.4,0.2,0.7,0.3,1.1,0.5c1.2,0.6,1.2,0.6,1.2-0.7c0-6.4,0-12.7,0-19.1C33.3,46.7,33.4,46.4,33.1,46z"/>
		<path class="st0" d="M15.4,45.9c-0.5,0.3-0.9,0.6-1.4,0.8c-2,0.8-2.7,2.1-2.6,4.3c0.1,2.2,0,4.4,0,6.8c-1.6-1.3-3-2.5-4.8-2.8
			c-2-0.4-3.7,0.1-5.1,1.6c-1.9,2-2,4.3-0.2,7.2c0.3-0.4,0.4-0.7,0.6-1C3.2,61.1,4.8,60,7,60.5c2.1,0.4,4,1.3,4.5,3.8
			c0.3,1.5,1.7,1.9,2.9,2.6c1.1,0.6,1.1,0.6,1.1-0.7c0-6.5,0-13,0-19.5C15.6,46.5,15.7,46.2,15.4,45.9z"/>
		<path class="st0" d="M47.5,61.4c-0.2-1.5-0.2-3,0.2-4.5c0.4-1.6,1.4-2.7,3.2-3.2c-0.7-0.4-1.1-0.8-1.4-1.3
			c-1.4-2.3-3.4-2.4-5.7-1.8c-1.4,0.4-2.7,1-4.2,1.6c0-2.2,0-4.2,0-6.4c-0.8,0.5-1.5,0.8-2.1,1.2c-1.5,0.7-2.2,1.8-2.1,3.5
			c0,3.1,0,6.2,0,9.4c0,0.3-0.2,0.6,0.3,1c0.1-0.2,0.2-0.4,0.4-0.6c2.1-2.3,4.7-3.7,7.7-4.4c0.8-0.2,0.9,0,0.8,0.7
			c-0.2,0.9-0.3,1.9-0.4,2.8c-0.1,2-0.1,4,0.7,5.8c0.3,0.8,0.7,1.8,1.6,1.9c1.2,0.2,2.5,0,4,0C48.6,65.5,47.8,63.6,47.5,61.4z"/>
	</g>
	<path class="st0" d="M39.7,14.6c-1.1-1.8-2.7-3-5.1-2.9c-2.1,0.1-3.9,1.2-6,1.5c-0.6,0.1-0.1,0.5,0,0.7c0.8,0.8,1.6,1.6,2.4,2.3
		c1.9,1.6,3.1,3.6,3.4,6.2c0.4,4.2-2.1,8.3-6,9.6c-4.1,1.4-8.6-0.3-10.8-4c-1.4-2.3-1.4-4.8-0.9-7.3l0,0c0.7-1.9,1.9-3.5,3.4-4.8
		c1.1-1,2.3-2.1,3.3-3.2c1.8-1.8,2.9-4,2.8-6.6c-0.1-2-0.9-3.8-0.9-5.9c-0.3,0.2-0.4,0.3-0.5,0.4C21,4.4,17.1,8.1,13.5,12.1
		c-4.3,4.7-5.8,10.4-3.9,16.6c3.1,10.1,15.3,14.8,24,9.4l0,0c0.6-0.1,1.1-0.5,1.5-0.9l0,0l0,0c2.5-1.7,4.3-3.9,5.5-6.7
		C42.9,24.9,42.9,19.6,39.7,14.6z"/>
</g>
</svg>
