<?xml version="1.0" encoding="utf-8"?>
<!-- Generator: Adobe Illustrator 23.1.0, SVG Export Plug-In . SVG Version: 6.00 Build 0)  -->
<svg version="1.1" id="Layer_1" xmlns="http://www.w3.org/2000/svg" xmlns:xlink="http://www.w3.org/1999/xlink" x="0px" y="0px"
	 viewBox="0 0 663.3 530.4" style="enable-background:new 0 0 663.3 530.4;" xml:space="preserve">
<style type="text/css">
	.st0{opacity:0.4;}
	.st1{fill:#659FEB;}
	.st2{fill:#FFA47A;stroke:#FFA47A;stroke-width:1.4755;stroke-linecap:round;stroke-linejoin:round;stroke-miterlimit:10;}
	.st3{fill:#FF7F4D;stroke:#FF7F4D;stroke-width:0.5955;stroke-miterlimit:10;}
	.st4{fill:#CF5540;}
	.st5{fill:#00043B;}
	.st6{fill:#FFA47A;}
	.st7{fill:#FFFFFF;}
	.st8{opacity:0.37;fill:#E8632E;stroke:#E8632E;stroke-width:0.3175;stroke-miterlimit:10;}
	.st9{fill:#659FEB;stroke:#659FEB;stroke-width:0.3175;stroke-miterlimit:10;}
	.st10{fill:none;stroke:#F8F1EE;stroke-width:0.724;stroke-miterlimit:10;}
	.st11{fill:#FFA47A;stroke:#FFA47A;stroke-width:1.3032;stroke-miterlimit:10;}
	.st12{fill:#365185;stroke:#365185;stroke-width:0.3019;stroke-miterlimit:10;}
	.st13{opacity:0.43;}
	.st14{fill:#365185;}
	.st15{fill:#4465A6;stroke:#4465A6;stroke-width:0.3019;stroke-miterlimit:10;}
	.st16{opacity:0.5;fill:#4465A6;}
	.st17{fill:#F8F1EE;stroke:#F8F1EE;stroke-width:1.4755;stroke-miterlimit:10;}
	.st18{fill:#F8F1EE;stroke:#F8F1EE;stroke-width:1.4755;stroke-linecap:round;stroke-linejoin:round;stroke-miterlimit:10;}
	.st19{fill:none;stroke:#F8F1EE;stroke-width:1.0605;stroke-linecap:round;stroke-linejoin:round;stroke-miterlimit:10;}
	.st20{fill:#2E4470;stroke:#2E4470;stroke-width:0.3019;stroke-miterlimit:10;}
	.st21{fill:#1D2B47;stroke:#1D2B47;stroke-width:0.3019;stroke-miterlimit:10;}
	.st22{fill:#CFB2A3;}
	.st23{opacity:0.76;}
	.st24{fill:#F2FCF9;}
	.st25{fill:#F8F1EE;}
	.st26{opacity:0.42;fill:#E0CFC8;}
	.st27{opacity:0.46;}
	
		.st28{fill:none;stroke:#FF7F4D;stroke-width:2.121;stroke-linecap:round;stroke-linejoin:round;stroke-miterlimit:10;stroke-dasharray:9.0924;}
	
		.st29{fill:none;stroke:#F8F1EE;stroke-width:2.121;stroke-linecap:round;stroke-linejoin:round;stroke-miterlimit:10;stroke-dasharray:7.3324;}
	.st30{fill:none;stroke:#659FEB;stroke-width:1.0605;stroke-miterlimit:10;}
	.st31{fill:#FF7F4D;}
	.st32{fill:none;stroke:#FF7F4D;stroke-width:1.0605;stroke-miterlimit:10;}
	
		.st33{fill:#659FEB;stroke:#659FEB;stroke-width:1.0605;stroke-linecap:round;stroke-linejoin:round;stroke-miterlimit:10;stroke-dasharray:9.0924;}
	.st34{fill:none;stroke:#659FEB;stroke-width:0.9479;stroke-miterlimit:10;}
</style>
<g>
	<g class="st0">
		<g>
			<g>
				<path class="st1" d="M441.1,366.4c5.7-14.7,12.9-28.9,21.4-42.2c8.5-13.3,18.3-25.8,29.2-37.2c10.9-11.4,22.9-21.9,35.8-31
					c13.3-9.4,27.5-17.6,42.5-24c16.2-6.9,34.4-11.3,51.9-7.2c14.2,3.4,27.2,12.1,33,25.9c6.3,15.1,6.9,33.2,2.5,48.9
					c-3.7,13.4-11.5,25.3-21.7,34.7c-10.2,9.3-22.5,16.2-35.5,20.6c-13.2,4.6-27.3,6.8-41.3,6.4c-3.4-0.1-6.7-0.4-10-0.8
					c-2-0.2-2,2.9,0,3.1c14.3,1.7,28.8,0.6,42.8-2.9c13.8-3.5,27.2-9.5,38.6-18c11.2-8.3,20.6-19,26.3-31.7
					c7.1-15.9,8.5-34.2,4.5-51.2c-1.6-6.6-4-13.3-8-18.8c-4.6-6.3-10.8-11.3-17.8-14.7c-15.8-7.8-33.9-7.5-50.6-2.8
					c-9.2,2.6-18,6.3-26.5,10.5c-7.3,3.6-14.3,7.6-21.2,11.9c-13.8,8.7-26.6,18.7-38.4,29.9c-11.8,11.1-22.4,23.4-31.8,36.6
					c-9.4,13.2-17.5,27.3-24.1,42.1c-1.6,3.6-3.2,7.3-4.6,11.1C437.4,367.4,440.4,368.2,441.1,366.4L441.1,366.4z"/>
			</g>
		</g>
		<g>
			<path class="st1" d="M452.1,366.9c29.2-48.3,69.7-92.7,123.1-111.2c10.2-3.5,21-6.1,31.8-5c10.7,1.1,21.5,6.3,27.2,15.4
				c5.6,9,5.7,20.5,3.1,30.7c-4.6,18.1-17,33.5-31.9,44.7c-14.9,11.2-32.3,18.7-49.8,25.1"/>
			<g>
				<path class="st1" d="M453.5,367.7c12.2-20.1,26.1-39.3,42.3-56.4c15.9-16.8,33.9-31.7,54.3-42.7c10.5-5.7,21.7-10.5,33.2-13.7
					c12.3-3.4,25.9-4.5,37.6,1.5c5.1,2.6,9.5,6.4,12.4,11.3c3.1,5.3,4.3,11.6,4.1,17.7c-0.3,11.9-5.2,23.5-11.8,33.2
					c-14.5,21.2-37.9,33.8-61.2,43.1c-3.1,1.2-6.1,2.4-9.2,3.5c-1.9,0.7-1.1,3.7,0.8,3c24.8-9.2,50-20.6,67.3-41.4
					c7.8-9.3,13.8-20.4,16.2-32.4c2.4-12.2,0.8-25.7-8.4-34.7c-9-8.8-22.1-11.7-34.3-10.6c-13.1,1.2-25.9,6-37.8,11.5
					c-21.7,10-41.2,24.4-58.2,41.1c-17.3,17-32.2,36.3-45.1,56.7c-1.6,2.5-3.2,5.1-4.8,7.7C449.7,367.8,452.4,369.4,453.5,367.7
					L453.5,367.7z"/>
			</g>
		</g>
		<g>
			<g>
				<path class="st1" d="M403.4,453c3.8,20.7,13.2,40.3,29.5,54c13.9,11.7,31.3,18.3,49,21.3c8.5,1.4,17.2,2.1,25.9,2.1
					c12.5,0,25.2-1.7,36.2-8c22.5-12.9,26.1-40.5,36.3-62c9.9-20.9,23.2-42.6,45.1-52.4c2.7-1.2,5.5-2.2,8.3-3
					c1.9-0.5,1.1-3.6-0.8-3c-11.2,3.1-21.2,9.4-29.5,17.6c-8.4,8.3-14.9,18.4-20.5,28.7c-2.8,5.3-5.5,10.6-7.8,16.1
					c-2.3,5.6-4.3,11.3-6.4,16.9c-4,11-8.5,22.5-16.9,31c-9.2,9.3-22.1,13.5-34.9,14.4c-9,0.7-18.2,0.3-27.2-0.8
					c-17.3-2-34.6-7.2-49-17.2c-16.5-11.5-27.3-29-32.3-48.3c-0.7-2.8-1.3-5.6-1.9-8.5C406.1,450.2,403.1,451.1,403.4,453L403.4,453
					z"/>
			</g>
		</g>
		<g>
			<path class="st1" d="M419.2,367.8c0.1,1.2-1.3,2.3-2.5,1.8c-10.8-32.6-9.2-67.8-10.9-102.1c-1.6-34.3-7.6-70.6-30.1-96.5
				c-9.6-11-22.7-20-37.2-20.7s-30.1,8.9-32.6,23.3c-0.9,5.5,0,11.1,0.4,16.7c0.7,10.1-0.3,20.3-3.1,30c-0.9,3.2-2.1,6.4-4.5,8.7
				c-6.5,6-17.2,1.5-25.6,4.1c-5.8,1.8-10,6.8-12.7,12.2c-5.1,10.3-5.6,22.5-2.7,33.6c2.8,11.1,8.7,21.3,15.7,30.4
				c20.4,26.4,51,44.8,83.9,50.3"/>
			<g>
				<path class="st1" d="M417.6,367.8c0,0.3-0.2,0.4-0.5,0.3c0.4,0.4,0.7,0.7,1.1,1.1c-6.7-20.1-8.6-41.3-9.5-62.4
					c-0.8-20.1-0.7-40.3-2.9-60.3c-2-18-5.8-36-13.5-52.6c-7.4-16-19-31.6-35-39.9c-7.7-4-16.4-6.2-25.1-5
					c-7.7,1.1-15.2,4.6-20.6,10.3c-2.7,2.8-4.8,6-6.1,9.6c-1.7,4.5-1.8,9.4-1.4,14.2c0.4,5.4,1,10.7,0.8,16.2
					c-0.2,5.4-0.9,10.7-2.1,16c-1,4.3-2,9.8-5.6,12.8c-3,2.6-7.3,2.7-11.1,2.6c-4.1-0.1-8.3-0.4-12.4,0.5c-4.2,1-7.8,3.5-10.5,6.7
					c-6.1,7.1-8.7,16.9-8.9,26.2c-0.2,9.9,2.4,19.6,6.7,28.4c4.1,8.6,9.8,16.5,16,23.7c5.9,6.8,12.4,12.9,19.5,18.3
					c14.2,10.9,30.4,19.1,47.7,23.8c4.2,1.1,8.4,2.1,12.7,2.8c2,0.3,2.8-2.7,0.8-3c-17.5-3-34.3-9.5-49.3-19
					c-15.1-9.6-28.6-22.3-38.5-37.3c-10.6-15.9-17.2-37.1-8.4-55.3c1.8-3.8,4.3-7.4,7.8-9.8c3.5-2.4,7.5-2.9,11.6-2.9
					c4.1,0,8.3,0.4,12.3-0.4c4.2-0.9,7.5-3.5,9.4-7.4c2.2-4.4,3.2-9.5,4-14.2c0.9-5.2,1.4-10.5,1.3-15.7c-0.1-9.5-3.1-19.8,1.6-28.7
					c3.6-6.7,10.2-11.5,17.3-13.8c8-2.6,16.5-1.7,24.3,1.3c16.7,6.6,28.9,22,36.8,37.6c8.1,16.1,12.2,34,14.3,51.8
					c2.4,19.7,2.4,39.6,3.1,59.4c0.8,20.9,2.4,42,8.3,62.1c0.4,1.2,0.7,2.4,1.1,3.6c0.4,1.2,0.7,2,2.1,2.1c2,0.2,3.7-1.5,3.8-3.5
					C420.8,365.8,417.7,365.8,417.6,367.8L417.6,367.8z"/>
			</g>
		</g>
		<g>
			<g>
				<path class="st1" d="M293.2,214.8c-22.7-1.8-43.3,16-48.6,37.4c-2.9,11.9-1.7,24.5,2.4,35.9c4.2,11.4,11.3,21.4,20.2,29.6
					c10,9.2,22,16,34.7,20.9c1.9,0.7,2.7-2.3,0.8-3c-21.2-8.2-41.2-22.6-50.8-43.8c-4.8-10.5-6.9-22.6-5.2-34.1
					c1.6-10.8,6.7-20.7,14.7-28.1c8.5-7.9,20-12.7,31.8-11.7C295.2,218.1,295.2,214.9,293.2,214.8L293.2,214.8z"/>
			</g>
		</g>
		<g>
			<path class="st1" d="M350.9,345c-18.7-4.8-49.8,5.5-69.1,6.2c-19.3,0.6-39.1,6.9-52.3,21c-5.9,6.3-10.4,15.9-6.1,23.4
				c1.6,2.8,4.2,4.8,6.9,6.4c14.8,8.6,33.5,5.1,50.2,8.8c7,1.5,14.5,5.2,16.4,12.1c2.4,8.7-5.4,17.9-2.6,26.5
				c1.6,4.9,6.5,8.1,11.6,9c5,0.9,10.2-0.1,15.2-1.5c11.5-3.3,22.4-9.1,30.7-17.7c8.2-8.6,13.6-20.4,13.2-32.3
				c-0.3-9.1,30.9-56.5,27-64.7"/>
			<g>
				<path class="st1" d="M351.3,343.5c-6.9-1.8-14.3-1.5-21.4-0.8c-8.1,0.8-16.2,2.3-24.2,3.7c-7.3,1.3-14.6,2.7-22,3.1
					c-4,0.2-8.1,0.4-12.1,0.9c-4.2,0.6-8.3,1.4-12.3,2.5c-8.1,2.3-15.9,5.8-22.7,10.8c-6.7,4.9-13,11.1-15.6,19.2
					c-1.2,3.8-1.4,7.9,0.1,11.6c1.6,3.9,4.9,6.7,8.5,8.8c7.7,4.4,16.5,5.7,25.2,6.4c8.7,0.7,17.7,0.6,26.2,2.7
					c6.9,1.7,14.7,5.9,14.7,14c0,7.9-5.6,15.3-3,23.3c2.8,8.3,12.3,11.3,20.2,10.4c4.7-0.5,9.3-1.9,13.7-3.5c4.1-1.5,8.2-3.3,12-5.5
					c7.5-4.3,14.3-10,19.2-17.2c5-7.1,8.1-15.6,8.5-24.2c0.1-1.2-0.1-2.4,0.1-3.6c0,0.5,0.1-0.3,0.1-0.5c0.1-0.3,0.2-0.7,0.3-1
					c0.4-1.6,1.1-3.3,1.7-4.7c4.2-9.8,9.6-19.2,14.5-28.7c2.5-4.8,4.9-9.7,7.1-14.7c1.5-3.6,3.2-7.4,3.6-11.4c0.1-1.3,0-2.5-0.5-3.7
					c-0.8-1.8-3.5-0.2-2.7,1.6c-0.2-0.5,0,0.1,0.1,0.3c0.1,0.2,0,0.3,0,0c0,0.2,0,0.3,0,0.5c0,0.3,0,0.6,0,0.8c0,0.1,0,0.3,0,0.4
					c0,0.3,0-0.1,0,0.3c-0.3,1.7-0.8,3.3-1.3,4.9c-1.5,4.4-3.5,8.6-5.6,12.8c-4.8,9.9-10.2,19.5-15,29.3c-1.7,3.6-3.6,7.2-4.7,11
					c-0.4,1.2-0.6,2.4-0.6,3.7c0.1,4.2-0.5,8.3-1.7,12.4c-5,16.6-19.3,28.1-35.1,34c-7.8,2.9-17.8,6.1-25.6,1.5
					c-3.1-1.9-5.4-4.9-5.7-8.6c-0.3-3.8,1-7.6,2.1-11.2c1.1-3.7,1.9-7.5,1.3-11.4c-0.6-3.5-2.6-6.6-5.3-8.8
					c-6.1-5-14.3-6.3-21.9-7.1c-8.6-0.9-17.3-0.7-25.8-2.2c-4.1-0.7-8.1-1.8-11.8-3.5c-3.7-1.7-7.4-4.1-9.3-7.8
					c-3.7-7.1,1.3-15.8,6.2-21c5.6-6,12.5-10.5,19.9-13.8c7.4-3.3,15.5-5.3,23.6-6.2c3.7-0.4,7.5-0.5,11.2-0.8
					c3.5-0.3,7-0.8,10.5-1.3c15-2.3,30.2-6.3,45.5-5.9c3.1,0.1,6.2,0.4,9.2,1.2C352.4,347,353.3,344,351.3,343.5L351.3,343.5z"/>
			</g>
		</g>
		<g>
			<g>
				<path class="st1" d="M291.5,411c0.6,4.9-1.4,10.1-3,14.6c-2.1,5.7-4.5,11.3-6.2,17c-1.4,4.6-2.8,10-1.1,14.7
					c2.2,6.2,7.8,10.9,13.6,13.6c13.3,6.2,29.1,4.4,42.3-1.2c14.1-6.1,25.7-16.9,33.6-29.9c8.4-13.8,12.8-29.7,14.7-45.7
					c0.2-2,0.4-3.9,0.5-5.9c0.1-2-3-2-3.1,0c-1.1,15.4-4.6,30.8-11.7,44.6c-6.8,13.2-17,24.5-30.1,31.6c-12.1,6.6-27,9.7-40.4,5.5
					c-6.1-1.9-11.9-5.5-15.2-11.1c-1.2-2-1.7-3.9-1.7-6.2c0-2.4,0.5-4.8,1.1-7.1c1.5-5.6,3.8-11,5.8-16.4c1.8-4.9,3.8-9.9,4.2-15.2
					c0.1-1,0.1-2,0-3C294.4,409,291.3,408.9,291.5,411L291.5,411z"/>
			</g>
		</g>
		<g>
			<path class="st1" d="M386.2,353.1c5.5,13.8,32.8,104.5,40.4,117.2c4.8,8.2,10.1,16.3,17.2,22.6c7.8,7,17.4,11.6,27,15.7
				c13.7,5.8,29.8,10.6,42.8,3.4c11.2-6.2,16.3-20.1,15.8-32.9c-0.5-12.8-17.8-117.8-22.9-129.5"/>
			<g>
				<path class="st1" d="M384.7,353.5c3.2,8.2,5.7,16.7,8.4,25c4.3,13.4,8.6,26.8,13,40.1c4.1,12.5,8.2,25,12.8,37.4
					c1.5,4.1,3,8.2,4.8,12.1c0.8,1.8,1.8,3.5,2.8,5.2c2.9,4.8,5.9,9.4,9.5,13.7c7.2,8.8,16.6,14.9,26.8,19.7
					c9.8,4.6,20.1,8.9,30.9,10.2c10,1.1,20.3-1.3,27.4-8.8c6.4-6.8,9.5-16.2,9.9-25.4c0.2-3.5-0.2-7-0.7-10.5
					c-0.6-4.6-1.2-9.2-1.9-13.7c-1.9-12.9-4-25.7-6.1-38.5c-2.3-13.5-4.7-27-7.3-40.5c-1.8-9.2-3.4-18.5-6-27.5
					c-0.3-1.1-0.7-2.2-1.1-3.2c-0.3-0.8-1.5-0.9-2.1-0.6c-0.8,0.5-0.9,1.4-0.6,2.1c-0.2-0.6,0,0.1,0.1,0.2c0.1,0.2,0.2,0.5,0.3,0.8
					c0.2,0.6,0.4,1.2,0.5,1.8c0.5,1.6,0.9,3.2,1.3,4.8c1.1,4.6,2.1,9.1,3,13.7c2.6,12.7,4.9,25.4,7.1,38.1
					c2.3,13.3,4.5,26.6,6.6,39.9c1.4,9,2.8,17.7,3.7,26.7c1.5,14.8-4.9,32.1-20.5,36.5c-10.1,2.8-20.9-0.1-30.5-3.7
					c-10.2-3.8-20.6-8.5-29.2-15.3c-8.3-6.6-14.6-15.6-19.7-24.7c-1.7-3-2.7-5.7-3.9-8.9c-4.4-11.2-8.1-22.7-11.9-34.1
					c-4.5-13.5-8.8-27-13.2-40.5c-3.2-9.9-6.3-19.7-9.7-29.5c-0.4-1.2-0.9-2.4-1.3-3.6C387,350.8,383.9,351.6,384.7,353.5
					L384.7,353.5z"/>
			</g>
		</g>
		<g>
			<path class="st1" d="M490.8,318.1c6.7-12.5,13.5-25.1,16.9-38.9c3.3-13.8,2.9-29-4.4-41.2c-1.4-2.4-3.2-4.8-5.7-6.2
				c-2.5-1.4-5.8-1.6-8,0.2c-1.8,1.4-2.6,3.8-3.3,6c-1.7,5.5-3.4,11-5.1,16.5c-0.3,1.1-0.7,2.3-1.6,3.1c-1.9,1.9-5.3,1.1-7.4-0.7
				c-2.1-1.8-3.4-4.3-5.5-6c-5.4-4.6-14.3-2.6-19,2.7c-4.7,5.3,7.6,95.5,7.9,102.6"/>
			<g>
				<path class="st1" d="M492.2,318.9c6.8-12.6,13.8-25.5,17.1-39.6c3-12.7,2.9-26.6-2.8-38.5c-2.5-5.3-6.8-11.9-13.5-11.5
					c-3,0.2-5.5,2-6.8,4.7c-1.6,3.2-2.4,6.9-3.4,10.3c-0.5,1.7-1.1,3.5-1.6,5.2c-0.6,1.9-1.1,4-1.8,5.8c-1.2,2.9-4.3,2.1-6.2,0.3
					c-2.4-2.1-3.8-5-6.6-6.8c-2.2-1.5-5-2.1-7.7-2c-2.6,0.1-5.3,0.9-7.6,2.1c-1.8,1-3.9,2.4-5,4.1c-0.7,1.2-0.8,2.8-1,4.2
					c-0.5,5.2-0.1,10.5,0.2,15.6c0.9,15.9,2.7,31.7,4.5,47.5c1.3,11.5,2.9,23,3.9,34.6c0,0.4,0.1,0.9,0.1,1.3c0.1,2,3.2,2,3.1,0
					c-0.1-3.3-0.6-6.6-1-9.8c-0.7-6.4-1.5-12.8-2.2-19.1c-1.8-15.7-3.6-31.3-4.8-47c-0.5-6-0.9-12.1-0.9-18.1c0-1.9,0-3.9,0.3-5.8
					c-0.1,0.5,0.1-0.4,0.1-0.6c0.1-0.3,0.1-0.5,0.2-0.8c0.1-0.4,0,0.1,0,0c0,0,0.1-0.2,0.1-0.2c0.3-0.2-0.5,0.5,0.1-0.1
					c0.5-0.5,0.9-1,1.5-1.4c3.8-3.1,9.7-4.5,14-1.8c2.6,1.6,4,4.5,6.2,6.5c2,1.8,4.8,3,7.5,2.3c3.3-0.9,4-4.2,4.9-7.1
					c1.1-3.6,2.2-7.2,3.4-10.9c0.5-1.6,1-3.3,1.5-4.9c0.5-1.4,1.1-2.9,2.2-3.9c2.3-1.9,5.6-1,7.7,0.7c2.4,1.9,4,4.9,5.4,7.6
					c1.4,2.8,2.4,5.9,3.2,8.9c1.5,6.2,1.7,12.7,1.1,19.1c-1.4,13.7-7.2,26.4-13.4,38.5c-1.6,3-3.2,6.1-4.8,9.1
					C488.5,319.1,491.2,320.7,492.2,318.9L492.2,318.9z"/>
			</g>
		</g>
	</g>
	<g>
		<g>
			<path class="st2" d="M210.9,249.3c35.7,28.3,96.9-16.3,96.9-16.3l12.6-10.8c15.2-6.8,20.3-12.1,20.3-12.1l-9.9,4.6l11.8-9.3
				c0.3-0.3-1.1-0.1-1.4,0.1l-11.1,5.7l11.4-10.1c0.3-0.2,0-0.6-0.3-0.5l-13.6,7.5c0,0,10.7-9.9,9-9.6c-1.7,0.3-15.8,10.1-15.8,10.1
				s5.8-9.4,4.1-8.9c-1.1,0.3-5.6,6-8.6,10c-1.9,2.6-1.4,3.4-4.2,5l-20.2,12c-17,10.4-47.1,18.4-69.8-0.4c0,0-8.6-4.5-16.1,4.6
				C198.5,240,210.9,249.3,210.9,249.3z"/>
			<path class="st3" d="M263.1,236.2c-13.6,1.8-24.4-2.3-41.1-10c0,0-8.6-4.5-16.1,4.6c-7.4,9.1,5,18.5,5,18.5
				c12,9.5,19.9,14.1,34.4,11.6L263.1,236.2z"/>
			<path class="st4" d="M263.9,236.2l-7.2,21.4c0,0-5.5,1.2-9,1.3L263.9,236.2z"/>
			<path class="st4" d="M313.1,212.9c0.6,1,1.1,2.5,0.4,2.9c-0.6,0.4-2.2-0.5-2.8-1.5"/>
			<path class="st4" d="M323,206c0,0-1.6,4.6-1.6,4.4l6.4-7.6L323,206z"/>
		</g>
		<g>
			<g>
				<path class="st5" d="M201.2,141.5c10.6,3.3,37.1,39.1,37.1,39.1c3.7,3.2,8,9.6,9.2,15.8c0.4,2.3-1.1,8.9-2.9,10.3l-35.3,28.6
					c0,0-28.4-10.1-21.5-32c6.8-21.9,12.6-17.2,9.3-29.8C193.7,161,201.2,141.5,201.2,141.5z"/>
				<g>
					<g>
						<path class="st5" d="M245.9,193.9c-1.9-5-3.7-10.1-6.2-14.8c-2.6-5-6.1-9.5-9.5-13.9c-4.1-5.4-8.3-10.6-13.5-15
							c-3.9-3.4-8-6.6-12-9.9c-0.6-0.5-1.5,0.4-0.9,0.9c5.9,4.9,12.2,9.4,17.4,15c2.5,2.6,4.7,5.5,6.9,8.3c3.3,4.3,6.7,8.5,9.3,13.2
							c3,5.3,5.1,11,7.3,16.6C245,195,246.2,194.7,245.9,193.9L245.9,193.9z"/>
					</g>
				</g>
			</g>
			<g>
				<path class="st6" d="M222.7,197.9c-0.2,0.2-0.5,0.2-0.7,0c-0.8-0.9-2.9-2.9-5.6-0.9c-2.6,2.1,0.2,5.7,1,7.4
					c1.1,2.5,2,10-0.6,16.1c-1.9,4.5-9.5,12.4-9.5,12.4s10.5,11.7,18.1,6.6c0,0,0.8-16.5,3.3-19.7c0.1-0.1,6.6,3.8,13.9-7.2
					c7-10.4,0.1-16.9-1.6-18.3C239.6,193.1,233.1,187,222.7,197.9z"/>
				<path class="st4" d="M225.9,232.8c-0.3,0-10.7,5.1-10.7,5.1s4.8,4.9,10.2,1.5L225.9,232.8z"/>
				<path class="st7" d="M240.2,215.1l-5.9-3.3c0,0-0.1,3.6,1.8,4.3C238,216.8,240.2,215.1,240.2,215.1z"/>
				<path class="st4" d="M221,199.4c-0.8-0.8-2.3-1.2-3.1-0.4c-0.8,0.8-0.6,2.4,0.2,3.2"/>
				<path class="st4" d="M239.9,210.1l-2,2.8l1.6,0.7c0.3,0.1,0.6-0.1,0.6-0.4L239.9,210.1z"/>
				<path class="st5" d="M245.7,199.3c0,0-17,3.6-23.7-1.4c-6.8-5,10.7-18.1,17.2-10.3C245.6,195.4,245.7,199.3,245.7,199.3z"/>
				<path class="st4" d="M228.7,219.8c0,0-3.8-1.8-5.9-6c-1.2-2.4-1.2,9.2,4,12C226.8,225.7,227.7,222.5,228.7,219.8z"/>
				<path class="st5" d="M237.7,203.5c-0.7,0.1,1-1.2,1.8-1c0.8,0.2,1.4,1,1.2,1.7C240.7,204.2,239.5,203.3,237.7,203.5z"/>
				<path class="st5" d="M245.5,205.9c-0.7-0.6-1.6-0.6-2.1,0c0,0,1,0.3,1.8,1.3"/>
				<path class="st5" d="M237.6,208.2c-0.3,0.5-0.3,1.1,0,1.2c0.3,0.1,0.7-0.2,0.9-0.8c0.3-0.5,0.3-1.1,0-1.2
					C238.3,207.4,237.9,207.7,237.6,208.2z"/>
				<path class="st5" d="M241.3,210.1c-0.2,0.5-0.2,1,0,1.2c0.3,0.1,0.7-0.2,0.9-0.7c0.2-0.5,0.2-1,0-1.2
					C242,209.2,241.6,209.5,241.3,210.1z"/>
				<path class="st8" d="M227.1,208.6c-0.5,1.7,0.4,3.6,2.1,4.1c1.7,0.5,3.6-0.4,4.1-2.1c0.5-1.7-0.4-3.6-2.1-4.1
					C229.5,205.9,227.7,206.8,227.1,208.6z"/>
				<g>
					<g>
						<path class="st5" d="M219.4,194.2c2,2.2,3.6,4.6,5.9,6.4c2.1,1.7,4.5,2.4,7.2,2.2c5.1-0.3,10.8-1.9,14.6-5.4
							c0.5-0.5-0.2-1.2-0.7-0.7c-3.6,3.4-9,4.8-13.8,5.1c-2.8,0.2-5.2-0.7-7.3-2.5c-1.9-1.7-3.4-3.9-5.2-5.8
							C219.7,193,219,193.7,219.4,194.2L219.4,194.2z"/>
					</g>
				</g>
			</g>
			<g>
				<path class="st6" d="M71.3,246.2c-1.2-7.9-1.9-27.4-1.9-27.4l-33.8,1.8c4.3,2.1,19.4,11.5,19.4,11.5l2.7,15.1
					C57.6,247.1,71.3,246.1,71.3,246.2z"/>
				<path class="st9" d="M54.9,232.1L35.1,221c-0.9-0.5-0.7-1.8,0.3-2c8.2-1.3,30.3-4.5,36.1-5.4c0.7-0.1,1.3,0.5,1.2,1.2
					c-0.6,3.9-1.5,14.9-2,18.1c-0.1,0.5-6.6-7.6-8.8-6.3C60,227.8,55.1,232,54.9,232.1z"/>
				<path class="st10" d="M53.7,231.5l3.1-4.2c0.7-1,0.5-2.4-0.5-3.1l0,0c-1-0.7-2.4-0.5-3.1,0.5l-3.5,4.7"/>
				<path class="st4" d="M65.1,237c0.2,4.7,0.5,9.4,0.5,9.4l5.9-0.3l-0.8-13.3c0,0-4.8-5.5-5.6-5.4C64.8,227.6,64.9,232.3,65.1,237"
					/>
			</g>
			<g>
				<path class="st11" d="M47,309.7c-5.2-5.2-10.4-21.1-10.4-21.1S0.7,299.2,1,299.3c0.3,0.1,21.8,8.1,21.8,8.1l13.1,9.8
					C35.9,317.3,45.9,310.3,47,309.7z"/>
				<path class="st9" d="M22.2,308l-21.3-7.9c-1-0.4-0.9-1.7,0-2c7.9-2.4,29.4-8.8,35-10.5c0.7-0.2,1.9,0.9,2.1,1.6
					c1.3,4.3,3.8,11.1,5,13.4c0.2,0.5-12.8-2.3-14.8-0.7C26.4,303.3,22.8,308.4,22.2,308z"/>
				<path class="st10" d="M20.5,307.1l2.1-5.3c0.5-1.1-0.1-2.5-1.2-2.9l0,0c-1.1-0.5-2.5,0.1-2.9,1.2l-2.2,5.4"/>
				<polygon class="st4" points="39,315.9 25.3,304.9 22.2,308 36.1,318.1 				"/>
			</g>
			<g>
				<g>
					<g>
						<path class="st12" d="M179.6,283.6c4.3,1.7,7.5,5.3,9,12.7c1.6,7.4,9-4.6,8.8,2.8c-2.9,1.6-18.8,22-24.2,24.3
							c-24.3,10.1-42.7,14.4-66.4,9.6c-23.1-4.7-36.3-31-43-48.4c-5.3-13.7-5.2-24.9-7.6-38.9c0.7-1.6,14.4-2,15.1-1.4
							c9.3,28.9,22.2,45,39.7,48.3c16.4,3.1,28,0.6,40-3.3C151,289.3,164.4,277.7,179.6,283.6z"/>
					</g>
					<g class="st13">
						<path class="st14" d="M111,292.6c16.4,3.1,28,0.6,40-3.3c0,0,13.4-11.6,28.6-5.8c4.3,1.7,7.5,5.3,9,12.7
							c1.6,7.4,8.5-3.9,8.3,3.6c-2.9,1.6-18.3,21.3-23.8,23.5"/>
					</g>
				</g>
				<g>
					<g>
						<path class="st15" d="M195.9,296.3c-7.6-7-22-18.2-23.3-17.4c-13,1.6-25.7,11.8-31.6,22.9c-1.1,2.1-2.5,4.2-4.1,6
							c-7.4,8.2-15.7,15.4-29.5,20.7c-16.7,6.4-37,0.6-60.1-19c-2.6,2.7-11.5,6.9-11.3,8.7c9.4,10.6,15.3,19.6,27,28.5
							c14.9,11.3,40,26.7,62.1,18.5c19.9-7.4,36.2-19.4,49.5-36.6L195.9,296.3z"/>
					</g>
					<path class="st16" d="M171.9,331.8c0,0-66.5,64.9-134.9-14.3c0,0,15.9,27.4,48.4,42.6C87.1,358.9,120.9,388.2,171.9,331.8z"/>
				</g>
			</g>
			<g>
				<path class="st2" d="M225.8,234.2c0.5,0.9,3.7,24.5-0.8,32.4c-3.1,5.3-20.4,21.2-28.1,30.9c0,0-15.7-9.7-24.5-18.2
					c2.4-9.2,10.7-44.8,27.6-54.2c0,0,7.6,1.7,10.5,2.9C210.5,228.1,219.7,243.7,225.8,234.2z"/>
				<polygon class="st4" points="173.1,274.1 172.4,276.9 191.5,293.6 				"/>
			</g>
			<g>
				<path class="st17" d="M225.8,234.2c0.5,0.9,3.7,24.5-0.8,32.4c-3.1,5.3-20.4,21.2-28.1,30.9c0,0-4.8-3.2-26.2-27.2
					c2.4-9.2,12.5-35.8,29.4-45.2c0,0,7.6,1.7,10.5,2.9C210.5,228.1,219.7,243.7,225.8,234.2z"/>
				<path class="st18" d="M196.9,297.5c0,0-4.8-3.2-26.2-27.2c2.4-9.2,12.5-35.8,29.4-45.2c0,0,7.6,1.7,10.5,2.9"/>
			</g>
		</g>
		<g>
			<path class="st19" d="M376.1,450.2l139.4,60.1c5.7,2.4,12.3,0.1,15.2-5.3L620,338.2c3.5-6.5,3.4-13.9-3.6-16.4
				c0,0-30.3-27.5-83.7-43c-15.5-4.5-65.6-8.9-65.6-8.9L376.1,450.2z"/>
			<path class="st19" d="M382.4,452.7l-131.7-76.9c-5.3-3.2-7.3-9.9-4.7-15.4l78.6-168.1c3.2-6.7,10.7-7.2,17.7-4.7
				c21.9,8,41.4,3.9,85.4,38c12.7,9.9,45.8,47.9,45.8,47.9L382.4,452.7z"/>
		</g>
		<g>
			<path class="st20" d="M612,324.3c0,0-29.2-26.4-80.5-41.3c-14.2-4.1-59.1-8.2-62.9-8.5c-4.1-4.7-32.2-36.6-43.5-45.4
				c-42.3-32.7-61-28.8-82.1-36.5c-6.7-2.5-14-1.9-17,4.5l-75.6,161.6c-2.5,5.4-0.6,11.8,4.5,14.8l126.3,73.8l0.2,0L515,505.5
				c5.5,2.3,11.8,0.1,14.6-5.1L615.5,340C618.9,333.7,618.8,326.6,612,324.3z"/>
			<path class="st21" d="M373.6,443.5l14.4,7.5l89.2-175.5c0,0-7.7,0-14.5-6.6L373.6,443.5z"/>
			<path class="st22" d="M602.3,330.5c0,0-60.2-43.4-135.8-52C415.2,222.7,345,199.7,345,199.7L261,362.9
				c16.8,4.5,108.5,66.7,122.2,77.7l-0.1,0.3c0.2,0,0.4,0,0.6,0.1c0.5,0.5,0.9,0.8,1.1,1l0.4-0.7c13.3,2.8,74.1,21.4,134.7,53.1
				L602.3,330.5z"/>
		</g>
		<g>
			<g>
				<path class="st3" d="M424.5,245.4c0,0,8.1-23.7,24.8-30.7c1-0.4,2,0.2,2.1,1.3l0.5,5.3l6.3,0.9c1.3,0.2,1.8,1.7,0.8,2.6
					c-6.2,5.8-22.8,22.9-22.3,29.2L424.5,245.4z"/>
				<g class="st23">
					<g>
						<g>
							<path class="st24" d="M428.5,245.5c0.7-1.8,1.1-3.6,1.9-5.4c0.7-1.6,1.6-3.2,2.6-4.7c2-3,4.3-5.8,6.7-8.5
								c1-1.1-0.7-2.8-1.6-1.6c-2.5,2.9-5,5.8-7.1,9c-1,1.5-1.9,3.1-2.7,4.8c-0.8,1.9-1.3,3.9-2.1,5.8
								C425.7,246.2,427.9,246.8,428.5,245.5L428.5,245.5z"/>
						</g>
					</g>
					<g>
						<g>
							<path class="st24" d="M443.1,222.9c0.9-0.8,1.8-1.5,2.7-2.3c0.2-0.2,0.3-0.5,0.3-0.8c0-0.3-0.1-0.6-0.3-0.8
								c-0.2-0.2-0.5-0.4-0.8-0.3c-0.3,0-0.6,0.1-0.8,0.3c-0.9,0.8-1.8,1.5-2.7,2.3c-0.2,0.2-0.3,0.5-0.3,0.8c0,0.3,0.1,0.6,0.3,0.8
								c0.2,0.2,0.5,0.4,0.8,0.3C442.6,223.2,442.9,223.1,443.1,222.9L443.1,222.9z"/>
						</g>
					</g>
				</g>
			</g>
			<g>
				<path class="st25" d="M347.9,205.8c11.5-2.9,11.8-0.6,23.3,2.3c11.5,3,19.7,6.1,29.9,12c9.5,5.5,20.9,13.3,28.7,20.9
					c12.6,12.3,24,23.7,35.8,36.8l-82.9,159.6c0,0-78.5-94.2-114.4-76.7L347.9,205.8z"/>
				<g>
					<path class="st25" d="M348.1,206.7c3.5-0.9,7.3-1.7,11-1.1c3.5,0.6,6.9,2,10.3,3c4.5,1.2,9.1,2.4,13.5,4
						c4.3,1.5,8.4,3.3,12.5,5.4c8.4,4.3,16.4,9.5,23.9,15.2c7.9,6,14.8,13.1,21.8,20.1c8.2,8.2,16.3,16.6,24.1,25.3
						c0-0.4-0.1-0.7-0.1-1.1c-0.7,1.4-1.5,2.8-2.2,4.3c-2,3.9-4,7.7-6,11.6c-3,5.7-6,11.5-8.9,17.2c-3.6,7-7.2,13.9-10.8,20.9
						c-4,7.7-8,15.3-11.9,23c-4,7.7-8,15.5-12,23.2c-3.7,7.2-7.5,14.4-11.2,21.6c-3.2,6.1-6.3,12.2-9.5,18.3
						c-2.3,4.4-4.5,8.8-6.8,13.1c-0.7,1.4-1.4,2.7-2.1,4.1c-0.4,0.7-0.9,1.4-1.1,2.1c0,0.1-0.1,0.2-0.1,0.3c0.5-0.1,0.9-0.1,1.4-0.2
						c-2.7-3.2-5.4-6.3-8.2-9.4c-6.7-7.5-13.7-14.8-20.9-21.8c-8.9-8.7-18.2-17.2-28-24.9c-9.2-7.2-18.9-14-29.6-18.6
						c-8-3.5-17.5-6.1-26.1-3.3c-0.9,0.3-1.9,0.7-2.8,1.1c0.4,0.4,0.8,0.8,1.2,1.2c0.7-1.4,1.4-2.8,2.1-4.1
						c1.9-3.8,3.8-7.5,5.8-11.3c2.9-5.6,5.7-11.2,8.6-16.7c3.5-6.8,7-13.6,10.4-20.3c3.8-7.4,7.6-14.8,11.4-22.3
						c3.8-7.5,7.7-15,11.5-22.5c3.6-7,7.2-14,10.8-21c3-5.9,6.1-11.9,9.1-17.8c2.2-4.2,4.4-8.5,6.5-12.7c1-2,2.1-4,3.1-6
						c0-0.1,0.1-0.2,0.1-0.3c0.5-1-1-1.9-1.5-0.9c-0.7,1.4-1.4,2.8-2.1,4.1c-1.9,3.8-3.8,7.5-5.8,11.3c-2.9,5.6-5.7,11.2-8.6,16.7
						c-3.5,6.8-7,13.6-10.4,20.3c-3.8,7.4-7.6,14.8-11.4,22.3c-3.8,7.5-7.7,15-11.5,22.5c-3.6,7-7.2,14-10.8,21
						c-3,5.9-6.1,11.9-9.1,17.8c-2.2,4.2-4.4,8.5-6.5,12.7c-1,2-2.1,4-3.1,6c0,0.1-0.1,0.2-0.1,0.3c-0.4,0.8,0.4,1.6,1.2,1.2
						c7.8-3.8,17-1.8,24.8,1.2c10.5,4.1,20.1,10.6,29.1,17.4c9.9,7.5,19.1,15.8,28,24.4c7.4,7.2,14.6,14.6,21.6,22.3
						c2.2,2.5,4.5,5,6.7,7.5c1,1.2,2,2.5,3.1,3.6c0,0,0.1,0.1,0.1,0.2c0.4,0.4,1.2,0.3,1.4-0.2c0.7-1.4,1.5-2.8,2.2-4.3
						c2-3.9,4-7.7,6-11.6c3-5.7,6-11.5,8.9-17.2c3.6-7,7.2-13.9,10.8-20.9c4-7.7,8-15.3,11.9-23c4-7.7,8-15.5,12-23.2
						c3.7-7.2,7.5-14.4,11.2-21.6c3.2-6.1,6.3-12.2,9.5-18.3c2.3-4.4,4.5-8.8,6.8-13.1c1.1-2.1,2.2-4.1,3.2-6.2
						c0-0.1,0.1-0.2,0.1-0.3c0.2-0.4,0.1-0.8-0.1-1.1c-7.1-7.9-14.4-15.5-21.8-23c-7.1-7.2-14.2-14.6-22.2-20.9
						c-7.6-6-15.8-11.4-24.2-16c-8.1-4.4-16.7-7.5-25.6-9.9c-2.5-0.7-5-1.4-7.5-2.2c-1.7-0.5-3.4-1.1-5.1-1.5c-4.1-0.8-8.3,0-12.3,1
						C346.5,205.2,347,206.9,348.1,206.7z"/>
				</g>
			</g>
			<g>
				<g>
					<g>
						<path class="st25" d="M508.4,479c-13.6-8.8-28-16.3-43.1-22.5c-15.1-6.2-30.9-11-46.9-14.2c-8.9-1.8-17.9-3.1-27-4
							c-1.1-0.1-1.1,1.7,0,1.8c16.1,1.5,32,4.6,47.4,9.1c15.5,4.5,30.6,10.4,44.9,17.7c8.1,4.1,16,8.7,23.6,13.6
							C508.5,481.2,509.4,479.6,508.4,479L508.4,479z"/>
					</g>
				</g>
				<g>
					<g>
						<path class="st25" d="M384.3,440.8c17.5,3.5,34.8,8.2,51.8,13.8c17.6,5.8,35,12.5,51.8,20.4c8.9,4.2,17.7,8.7,26.3,13.6
							c1,0.6,1.9-1,0.9-1.5c-15.5-9-31.8-16.5-48.4-23.2c-17.2-6.9-34.9-12.9-52.8-17.8c-9.6-2.6-19.3-5-29-6.9
							C383.6,438.8,383.1,440.5,384.3,440.8L384.3,440.8z"/>
					</g>
				</g>
				<g>
					<g>
						<path class="st25" d="M273.2,361.8c8.2,1.3,15.7,4.9,23,8.7c7,3.7,13.8,7.6,20.5,11.8c13.3,8.5,25.9,18,37.6,28.5
							c6.6,5.9,12.8,12.1,18.8,18.6c0.8,0.8,2.1-0.4,1.3-1.3c-10.8-11.7-22.6-22.4-35.1-32.2c-12.5-9.7-25.8-18.3-39.8-25.8
							c-8.1-4.4-16.5-8.7-25.7-10.1C272.5,359.9,272,361.6,273.2,361.8L273.2,361.8z"/>
					</g>
				</g>
				<g>
					<g>
						<path class="st25" d="M268.6,362.6c16.6,7.3,32.4,16.1,47.7,25.8c16,10.1,31.4,21.3,46,33.3c7.7,6.3,15.2,12.9,22.5,19.7
							c0.8,0.8,2.1-0.5,1.3-1.3c-13.2-12.5-27.3-24.1-42-34.9c-15.2-11.2-31.1-21.6-47.7-30.8c-8.8-4.9-17.7-9.4-26.9-13.4
							C268.5,360.6,267.5,362.2,268.6,362.6L268.6,362.6z"/>
					</g>
				</g>
				<g>
					<g>
						<path class="st25" d="M596.9,332.6c-8.1,15.3-16.3,30.7-24.4,46c-8.1,15.3-16.3,30.7-24.4,46c-4.6,8.7-9.2,17.3-13.8,26
							c-0.5,1,1,1.9,1.5,0.9c8.1-15.3,16.3-30.7,24.4-46c8.1-15.3,16.3-30.7,24.4-46c4.6-8.7,9.2-17.3,13.8-26
							C598.9,332.5,597.4,331.6,596.9,332.6L596.9,332.6z"/>
					</g>
				</g>
			</g>
			<g>
				<path class="st25" d="M594.3,330.4c-4.4-11-6.5-9.9-15.6-17.5c-9.1-7.5-16.5-12.3-27.4-17.1c-10-4.4-23.1-9.1-33.8-10.9
					c-17.4-3-33.2-4.9-50.7-6.7L383,438.5c0,0,127,11.5,134,50.8L594.3,330.4z"/>
				<g>
					<path class="st25" d="M595.2,330.1c-1.3-3.1-2.6-6.3-4.8-8.9c-1.7-2.1-4-3.6-6.1-5.2c-3.6-2.6-6.9-5.5-10.4-8.1
						c-3.7-2.8-7.6-5.4-11.7-7.8c-8.5-4.8-17.7-8.5-27-11.6c-4.8-1.6-9.7-3-14.7-4c-5.3-1.1-10.8-1.9-16.1-2.7
						c-12.5-1.9-25-3.3-37.6-4.6c-0.3,0-0.6,0.2-0.8,0.4c-0.7,1.4-1.5,2.9-2.2,4.3c-2,3.9-4.1,7.8-6.1,11.7c-3,5.8-6,11.5-9,17.3
						c-3.7,7-7.3,14-11,21.1c-4,7.7-8,15.4-12,23.1c-4.1,7.8-8.1,15.5-12.2,23.3c-3.8,7.2-7.6,14.5-11.3,21.7
						c-3.2,6.1-6.4,12.2-9.6,18.4c-2.3,4.4-4.6,8.8-6.9,13.2c-1.1,2.1-2.2,4.2-3.3,6.3c0,0.1-0.1,0.2-0.1,0.3
						c-0.3,0.6,0.1,1.3,0.8,1.3c4.2,0.4,8.4,0.9,12.6,1.4c10.2,1.3,20.3,2.9,30.4,4.7c12.6,2.3,25.1,5.1,37.4,8.8
						c11.5,3.4,23.1,7.5,33.5,13.5c7.5,4.3,15.7,10.3,18.5,18.9c0.3,0.9,0.5,1.8,0.7,2.8c0.1,0.7,1.3,0.9,1.6,0.2
						c0.7-1.4,1.4-2.8,2.1-4.2c1.9-3.8,3.7-7.7,5.6-11.5c2.8-5.7,5.5-11.4,8.3-17.1c3.4-7,6.8-14,10.2-21
						c3.7-7.6,7.4-15.2,11.1-22.8c3.7-7.7,7.5-15.4,11.2-23.1c3.5-7.2,7-14.3,10.5-21.5c2.9-6.1,5.9-12.1,8.8-18.2
						c2.1-4.4,4.2-8.7,6.4-13.1c1-2.1,2-4.1,3-6.2c0-0.1,0.1-0.2,0.1-0.3c0.5-1-1-1.9-1.5-0.9c-0.7,1.4-1.4,2.8-2.1,4.2
						c-1.9,3.8-3.7,7.7-5.6,11.5c-2.8,5.7-5.5,11.4-8.3,17.1c-3.4,7-6.8,14-10.2,21c-3.7,7.6-7.4,15.2-11.1,22.8
						c-3.7,7.7-7.5,15.4-11.2,23.1c-3.5,7.2-7,14.3-10.5,21.5c-2.9,6.1-5.9,12.1-8.8,18.2c-2.1,4.4-4.2,8.7-6.4,13.1
						c-0.7,1.4-1.3,2.7-2,4.1c-0.3,0.7-0.8,1.4-1,2.1c0,0.1-0.1,0.2-0.1,0.3c0.5,0.1,1.1,0.1,1.6,0.2c-1.6-8.9-8.9-15.5-16.1-20.3
						c-9.9-6.6-21.3-10.9-32.5-14.5c-12.4-4-25.1-7-37.8-9.5c-10.8-2.1-21.6-3.9-32.5-5.3c-3.5-0.5-7.1-0.9-10.6-1.3
						c-1.1-0.1-2.2-0.2-3.3-0.4c-0.5-0.1-1.2-0.2-1.7-0.2c-0.1,0-0.1,0-0.2,0c0.3,0.4,0.5,0.9,0.8,1.3c0.7-1.4,1.5-2.9,2.2-4.3
						c2-3.9,4.1-7.8,6.1-11.7c3-5.8,6-11.5,9-17.3c3.7-7,7.3-14,11-21.1c4-7.7,8-15.4,12-23.1c4.1-7.8,8.1-15.5,12.2-23.3
						c3.8-7.2,7.6-14.5,11.3-21.7c3.2-6.1,6.4-12.2,9.6-18.4c2.3-4.4,4.6-8.8,6.9-13.2c0.7-1.4,1.4-2.7,2.1-4.1
						c0.4-0.7,0.9-1.4,1.1-2.2c0-0.1,0.1-0.2,0.1-0.3c-0.3,0.1-0.5,0.3-0.8,0.4c11,1.1,22,2.4,32.9,4c10.3,1.5,20.6,2.9,30.6,5.9
						c9.3,2.8,18.6,6.4,27.3,10.8c4,2,7.8,4.4,11.5,6.9c3.9,2.7,7.5,5.8,11.2,8.7c2.6,2,5.4,3.7,7.7,6c2.6,2.6,4.1,6,5.4,9.3
						C593.9,331.7,595.6,331.2,595.2,330.1z"/>
				</g>
			</g>
			<g>
				<g>
					<path class="st26" d="M464.9,278.3c0,0-49.7,81.8-77.9,93.2c-38.8,15.6-88.8-8.9-88.8-8.9s76.1,49.1,84.5,75L464.9,278.3z"/>
					<path class="st26" d="M472.4,276.9c0,0-35.3,89-27.3,118.3c11,40.4,60.6,65.4,60.6,65.4s-85.1-31.1-110.8-22.2L472.4,276.9z"/>
				</g>
				<g class="st27">
					<g>
						<g>
							<path class="st1" d="M352.5,223.9c1.8-0.2,3.4,0,5,0.3c0.8,0.1,1.6,0.4,2.4,0.5c0.8,0.2,1.5,0.5,2.3,0.7
								c0.7,0.3,1.5,0.6,2.2,0.9c0.7,0.4,1.5,0.7,2.2,1.1c1.4,0.8,2.8,1.7,4.1,3l-0.1,0.2c-3.1-1-6.1-2.1-9.1-3.2
								c-3-1.1-6-2.2-9-3.4L352.5,223.9z"/>
						</g>
						<g>
							<path class="st1" d="M380.3,236.4l2.5,1l2.5,1l4.8,2.2l4.7,2.4c1.6,0.8,3.1,1.7,4.6,2.6c1.5,0.9,3,1.8,4.6,2.8l4.5,2.9
								l4.3,3.1l4.2,3.2l4.1,3.4c1.3,1.2,2.7,2.3,4,3.5l3.9,3.7c1.3,1.2,2.5,2.5,3.7,3.8c1.2,1.3,2.4,2.6,3.6,3.9l3.4,4.1l3.2,4.2
								c1.1,1.4,2.1,2.9,3.1,4.3l-0.2,0.1c-9-10.8-19.2-20.7-30.2-29.4c-11-8.8-22.9-16.4-35.5-22.7L380.3,236.4z"/>
						</g>
						<g>
							<path class="st1" d="M341.1,243.8l2.2,0l2.2,0.1l4.3,0.4l4.3,0.7c1.4,0.3,2.8,0.6,4.3,0.9c1.4,0.4,2.8,0.8,4.2,1.2l4.1,1.4
								c1.4,0.5,2.7,1.1,4,1.6l4,1.8l3.8,2.1c1.2,0.8,2.5,1.5,3.7,2.3l3.6,2.5c1.2,0.9,2.3,1.8,3.5,2.7c1.1,1,2.2,1.9,3.3,2.8l3.1,3
								l2.9,3.2c0.9,1.1,1.8,2.2,2.7,3.4l-0.2,0.1c-7.8-8.3-17.2-15.2-27.4-20.2c-10.2-5.1-21.3-8.5-32.6-9.8L341.1,243.8z"/>
						</g>
						<g>
							<path class="st1" d="M411.9,285.7c2.3,0.9,4.5,2.2,6.5,3.5c1,0.6,2,1.4,3,2c1,0.7,1.9,1.5,2.9,2.2c0.9,0.8,1.8,1.5,2.7,2.4
								c0.9,0.8,1.8,1.6,2.6,2.5c1.7,1.7,3.3,3.5,4.7,5.6l-0.1,0.2l-11.3-9l-11.1-9.2L411.9,285.7z"/>
						</g>
						<g>
							<path class="st1" d="M325.5,286.8c2.4,0.6,4.8,1.2,7.1,2l3.5,1.1c1.2,0.4,2.3,0.8,3.5,1.2c4.6,1.7,9.2,3.6,13.7,5.6
								c9,4.1,17.6,8.9,25.8,14.4c8.1,5.6,16,11.6,23.1,18.5c3.6,3.4,7,6.9,10.3,10.5c1.6,1.8,3.3,3.7,4.9,5.5
								c1.6,1.8,3.2,3.7,4.7,5.6l-0.2,0.1c-6.8-7-13.6-14.1-20.9-20.6c-7.3-6.5-15.1-12.5-23.2-17.9c-8.1-5.5-16.6-10.4-25.3-14.7
								c-8.8-4.3-17.8-8-27.1-11.2L325.5,286.8z"/>
						</g>
						<g>
							<path class="st1" d="M318.9,304.7c2.9,0.3,5.7,1,8.5,2c1.4,0.4,2.7,1,4.1,1.5c1.3,0.6,2.6,1.2,3.9,1.8
								c1.3,0.7,2.5,1.4,3.8,2.1c1.2,0.8,2.5,1.5,3.6,2.4c2.4,1.7,4.6,3.5,6.6,5.7l-0.1,0.2c-4.8-3.1-9.8-5.9-14.9-8.4
								c-5.1-2.6-10.3-4.9-15.6-7L318.9,304.7z"/>
						</g>
						<g>
							<path class="st1" d="M362.5,331.1l1.5,0.9l1.5,0.9l3,1.9c2,1.3,3.9,2.6,5.8,3.9c1.9,1.3,3.8,2.7,5.6,4.1l5.5,4.3
								c1.8,1.5,3.6,2.9,5.4,4.4c1.8,1.5,3.6,3,5.3,4.6c1.7,1.5,3.4,3.1,5.1,4.8c1.6,1.7,3.3,3.3,4.9,5L406,366l-21.9-17.3
								l-21.8-17.5L362.5,331.1z"/>
						</g>
						<g>
							<path class="st1" d="M331.7,356.6c2-0.2,4.1,0.1,6,0.7c1,0.3,1.9,0.7,2.8,1.1c0.9,0.4,1.7,1,2.6,1.5c0.8,0.6,1.6,1.1,2.4,1.7
								c0.7,0.7,1.5,1.3,2.2,2c1.4,1.4,2.6,3,3.5,4.8l-0.1,0.2c-2.9-2.5-5.8-4.9-9-6.9c-1.6-1-3.2-2-4.9-2.8
								c-1.7-0.8-3.5-1.5-5.3-2.1L331.7,356.6z"/>
						</g>
						<g>
							<path class="st1" d="M357.5,375.2c2.6,1.5,5,3.3,7.3,5.1c1.2,0.9,2.2,1.9,3.4,2.8c1.1,1,2.2,2,3.2,3c1,1,2.1,2.1,3.1,3.1
								c1,1.1,2,2.1,3,3.3c1.9,2.2,3.8,4.6,5.4,7.1l-0.1,0.2L370,387.7l-12.6-12.3L357.5,375.2z"/>
						</g>
					</g>
					<g>
						<g>
							<path class="st1" d="M477,300.1c1.9-0.5,3.9-0.6,5.8-0.5c1,0,1.9,0.2,2.8,0.3c0.9,0.1,1.9,0.3,2.8,0.5
								c0.9,0.3,1.8,0.5,2.7,0.8c0.9,0.3,1.8,0.6,2.6,1c1.7,0.8,3.4,1.7,4.9,3l-0.1,0.2c-3.5-1.1-7.1-2.2-10.7-3
								c-3.6-0.9-7.2-1.6-10.9-2.2L477,300.1z"/>
						</g>
						<g>
							<path class="st1" d="M511.8,309.4c2.8,0.3,5.6,0.9,8.4,1.4l4.2,1c1.4,0.4,2.7,0.8,4.1,1.2c1.4,0.4,2.7,0.9,4.1,1.4l4,1.5
								c1.3,0.5,2.6,1.1,3.9,1.7l3.9,1.8l3.8,2c1.2,0.7,2.5,1.4,3.7,2.1l3.6,2.3c1.2,0.8,2.4,1.6,3.5,2.4c1.1,0.9,2.3,1.7,3.4,2.6
								l3.3,2.7c2.1,1.9,4.3,3.8,6.2,5.9l-0.1,0.2c-8.8-7.1-18.3-13.2-28.4-18.2c-10.1-5.1-20.7-9-31.6-11.8L511.8,309.4z"/>
						</g>
						<g>
							<path class="st1" d="M467.5,321.7c3.8-0.5,7.7-0.4,11.5,0.1c1.9,0.2,3.8,0.6,5.7,1c0.9,0.2,1.9,0.5,2.8,0.7l2.8,0.8l2.7,1
								c0.9,0.4,1.8,0.7,2.7,1.1c1.7,0.8,3.5,1.6,5.2,2.5c3.4,1.8,6.6,4,9.4,6.6l-0.1,0.2c-6.4-3.9-13.3-7.1-20.5-9.3
								c-7.1-2.3-14.6-3.8-22.1-4.4L467.5,321.7z"/>
						</g>
						<g>
							<path class="st1" d="M525.2,341.4c3.8,0.9,7.5,2.2,11.2,3.7c1.8,0.7,3.6,1.6,5.4,2.4c1.8,0.9,3.5,1.8,5.2,2.7
								c1.7,1,3.4,1.9,5.1,2.9c1.6,1,3.3,2.1,4.9,3.2c3.2,2.2,6.3,4.6,9.2,7.3l-0.1,0.2c-6.6-4.1-13.3-8.1-20.1-11.7
								c-6.8-3.7-13.7-7.2-20.8-10.4L525.2,341.4z"/>
						</g>
						<g>
							<path class="st1" d="M454.2,347.1c2-0.1,3.9,0.2,5.8,0.5c0.9,0.2,1.8,0.4,2.7,0.6c0.9,0.3,1.8,0.6,2.7,0.8
								c0.9,0.3,1.8,0.7,2.6,1c0.9,0.4,1.7,0.7,2.5,1.2c1.7,0.9,3.3,1.9,4.8,3.2l-0.1,0.2c-3.6-1.2-7.1-2.4-10.6-3.6
								c-3.5-1.3-7.1-2.5-10.6-3.8L454.2,347.1z"/>
						</g>
						<g>
							<path class="st1" d="M483.2,358.3c1.1-0.2,2-0.1,2.8,0c0.8,0.1,1.5,0.4,2.2,0.7c0.7,0.3,1.4,0.7,2,1.2c0.6,0.5,1.3,1.1,1.9,2
								l0,0.2c-1.6-0.3-3.2-0.8-4.7-1.4c-1.5-0.7-3-1.4-4.3-2.4L483.2,358.3z"/>
						</g>
						<g>
							<path class="st1" d="M434.4,382.7l3.3,0.4l3.3,0.5l6.5,1.1l6.5,1.5l6.4,1.7c2.1,0.6,4.3,1.3,6.4,1.9l6.3,2.2l6.2,2.4l6.1,2.6
								c8.1,3.7,15.9,7.9,23.4,12.8l5.5,3.7l5.4,3.9l5.2,4.2c1.7,1.4,3.4,2.9,5,4.4l-0.1,0.2c-13.9-10.8-29.1-19.9-45.1-27.2
								c-16-7.3-32.9-12.7-50.2-16.1L434.4,382.7z"/>
						</g>
						<g>
							<path class="st1" d="M460.8,410.1c2.1-0.9,4.5-0.9,6.6-0.4c1.1,0.2,2.1,0.6,3.2,0.9c1,0.4,2,0.9,3,1.3
								c0.9,0.5,1.9,1.1,2.8,1.7c0.9,0.6,1.8,1.2,2.6,1.9c1.6,1.4,3.2,2.8,4.5,4.6l-0.1,0.2c-3.5-2.3-7-4.6-10.7-6.5
								c-1.8-1-3.7-1.9-5.7-2.5c-2-0.7-4-1.1-6.1-1L460.8,410.1z"/>
						</g>
						<g>
							<path class="st1" d="M493.3,424.9c2.7,0.7,5.3,1.6,7.8,2.7c1.3,0.5,2.5,1.1,3.7,1.7c1.2,0.6,2.4,1.3,3.6,1.9
								c1.2,0.7,2.3,1.3,3.5,2.1c1.1,0.7,2.3,1.4,3.4,2.2c2.2,1.5,4.4,3.2,6.4,5.2l-0.1,0.2l-14.2-7.8l-14.1-8L493.3,424.9z"/>
						</g>
					</g>
				</g>
			</g>
		</g>
		<g>
			<path class="st2" d="M192.1,237.3c-3.3,45.4,68.1,70.8,68.1,70.8l16,4.3c14.2,8.8,21.4,9.9,21.4,9.9l-9.3-5.6l14.4,4.5
				c0.4,0.1-0.5-0.9-0.9-1.1l-11-5.9l14.8,3.7c0.3,0.1,0.5-0.4,0.2-0.5l-13.8-7c0,0,14.2,3.3,13,2c-1.2-1.3-15.2-6.8-15.2-6.8
				s4.6-6.8,4.2-7.4c-0.7-1-5.6,1.9-10.6,2.7c-3.2,0.5-26.9-9.6-26.9-9.6c-18.2-8.2-41.7-28.6-39-57.8c0,0-1.1-9.7-12.9-10.7
				C192.8,221.8,192.1,237.3,192.1,237.3z"/>
			<path class="st3" d="M232.3,273.1c-9.2-10.2-11.8-21.4-14.9-39.6c0,0-1.1-9.7-12.9-10.7c-11.7-1-12.5,14.5-12.5,14.5
				c-1.1,15.3-0.4,24.4,9.8,35L232.3,273.1z"/>
			<path class="st4" d="M233.2,273.8l-22.5,5.4c0,0-3.7-3.2-5.7-6L233.2,273.8z"/>
		</g>
	</g>
	<g>
		<g>
			<path class="st28" d="M356.7,425.7c-9.1,25.6-26.7,41.7-52,39.9c-20.3-1.4-39.1-10.7-57.4-19.7c-6.2-3.1-12.6-6.3-17.3-11.5
				c-6.9-7.6-9.1-18.2-11.1-28.3c-1.9-10-3.9-20.1-5.8-30.1c-1.5-7.7-3.1-15.6-7.6-22c-4.5-6.4-12.7-10.8-20.2-8.4
				c-7.4,2.4-11.2,13.4-5.4,18.5c12.4-7.4,11.5-25.6,7.3-39.4c-7-23-19-44.5-35-62.5c-11-12.3-25.1-23.6-41.6-24.3
				c-21.3-1-39.3,15.8-51.6,33.2c-12.7,18.1-22.6,39-23.9,61.1c-0.7,11.1,1.5,23.6,10.4,30.3c8.9,6.7,25.2,2.2,25.6-8.9"/>
			<path class="st29" d="M571.8,336.1c6,2.5,13,1.2,18.6-2.2c5.5-3.4,9.7-8.6,13.2-14c4.9-7.7,8.7-16.8,6.8-25.6
				c-1-4.7-3.5-8.8-6.3-12.7c-3.5-4.8-7.4-9.4-12.3-12.8c-9.7-6.6-23-7.7-33.7-2.8c-10.7,4.9-18.4,15.7-19.7,27.5"/>
		</g>
		<g>
			<path class="st1" d="M653.2,398.2c-0.4,2.3-2.6,3.8-4.9,3.4c-2.3-0.4-3.8-2.6-3.4-4.9s2.6-3.8,4.9-3.4
				C652.2,393.7,653.7,395.9,653.2,398.2z"/>
			<circle class="st30" cx="605.3" cy="382" r="5.6"/>
			<path class="st31" d="M417,201c-0.5,2.9-3.3,4.8-6.2,4.2c-2.9-0.5-4.8-3.3-4.2-6.2c0.5-2.9,3.3-4.8,6.2-4.2
				C415.7,195.4,417.5,198.2,417,201z"/>
			<path class="st32" d="M382.8,465.5c-0.6,3.1-3.5,5.1-6.6,4.5c-3.1-0.6-5.1-3.5-4.5-6.6c0.6-3.1,3.5-5.1,6.6-4.5
				C381.4,459.5,383.4,462.5,382.8,465.5z"/>
			<path class="st33" d="M240.1,335.6c-0.7,3.6-4.2,6-7.8,5.3c-3.6-0.7-6-4.2-5.3-7.8c0.7-3.6,4.2-6,7.8-5.3
				C238.4,328.4,240.8,331.9,240.1,335.6z"/>
		</g>
		<circle class="st31" cx="116.6" cy="416.1" r="4.4"/>
		<circle class="st34" cx="17.6" cy="376.4" r="5.2"/>
	</g>
</g>
<g>
	<path d="M186.6,100.8h-7.3c-2.8,0-5.3-0.5-7.6-1.6c-2.2-1-4.1-2.4-5.7-4.1c-1.6-1.7-2.7-3.6-3.6-5.7c-0.8-2.1-1.2-4.3-1.2-6.4v-2.3
		c0-1.3,0.2-2.6,0.7-3.9c0.5-1.3,1.2-2.4,2.1-3.4c0.9-1,2.1-1.9,3.4-2.5c1.3-0.6,2.8-0.9,4.5-0.9h8.8v-3.8h-23.1v-5.1h35.3v5.1h-6.5
		V100.8z M180.9,95.2V75.6h-8.8c-0.8,0-1.5,0.2-2.1,0.5c-0.6,0.3-1.1,0.7-1.5,1.2c-0.4,0.5-0.7,1.1-1,1.7c-0.2,0.6-0.3,1.2-0.3,1.9
		v2.3c0,1.5,0.3,3,0.8,4.4c0.6,1.5,1.4,2.8,2.4,3.9c1.1,1.1,2.3,2.1,3.8,2.8c1.5,0.7,3.2,1.1,5.1,1.1H180.9z"/>
	<path d="M224.4,61.1v5.1h-34.6v-5.1h24.4v-1.7c0-1.1-0.4-2-1.1-2.7c-0.7-0.7-1.6-1.1-2.7-1.1H203c-1.2,0-2.3-0.2-3.3-0.7
		c-1-0.5-1.8-1.1-2.5-1.8c-0.7-0.8-1.3-1.7-1.6-2.7c-0.4-1-0.6-2.1-0.6-3.3V47h5.6v0.2c0,0.7,0.2,1.4,0.6,2c0.4,0.6,1,0.9,1.8,0.9
		h7.4c1.4,0,2.7,0.2,3.8,0.7c1.1,0.5,2,1.2,2.9,2.1c0.7,0.7,1.2,1.3,1.6,2c0.4,0.6,0.7,1.3,0.8,1.9c0.2,0.6,0.3,1.3,0.3,2
		c0,0.7,0.1,1.5,0.1,2.4H224.4z M206.2,90.8l17.7,10h-11.3L195,90.8v-5.6h13c0.9,0,1.6-0.2,2.3-0.5c0.7-0.3,1.3-0.7,1.8-1.3
		c0.5-0.5,0.9-1.1,1.1-1.8c0.3-0.7,0.4-1.3,0.4-2v-0.7c0-0.7-0.3-1.4-0.8-2.1c-0.6-0.7-1.3-1-2.2-1h-9.4v6.2h-5.6V70.1h15
		c1.4,0,2.6,0.2,3.7,0.7c1.1,0.5,2,1.2,2.7,2c0.7,0.8,1.3,1.8,1.7,2.8c0.4,1,0.6,2.1,0.6,3.2v0.7c0,1.4-0.3,2.7-0.8,4.1
		c-0.5,1.3-1.3,2.6-2.2,3.6c-1,1.1-2.2,1.9-3.6,2.6c-1.4,0.7-3,1-4.8,1H206.2z"/>
	<path d="M273.7,66.3v34.6h-5l-25.9-13.6V82h6.8c0.9,0,1.7-0.2,2.4-0.5c0.7-0.3,1.3-0.8,1.9-1.3c0.5-0.6,0.9-1.2,1.2-1.9
		c0.3-0.7,0.5-1.4,0.5-2.2c-0.8,0.4-1.6,0.6-2.4,0.7c-0.8,0.1-1.6,0.2-2.5,0.2c-1.2,0-2.3-0.2-3.3-0.7c-1-0.4-1.8-1-2.5-1.7
		c-0.7-0.7-1.2-1.5-1.6-2.4c-0.4-0.9-0.6-1.8-0.6-2.8v-8.4h5.8v8.4c0,0.5,0.2,1,0.6,1.4c0.4,0.4,0.9,0.6,1.5,0.6h0.7
		c1.2,0,2.1-0.5,2.9-1.4c0.8-0.9,1.2-1.9,1.2-3v-6h5.8v14.8c0,2.3-0.6,4.4-1.9,6.4c-1.3,2-3.1,3.5-5.6,4.5l14.2,7.4V55.9h5.6v5.3h6
		v5.1H273.7z"/>
	<path d="M274.2,110c-0.1,1.2-0.4,2.3-1,3.4c-0.5,1.1-1.2,2.1-2.1,3c-0.9,0.9-1.9,1.6-3.2,2.1c-1.2,0.5-2.6,0.8-4.1,0.8
		c-1.5,0-2.8-0.3-4-0.8c-1.2-0.5-2.2-1.2-3-2.1c-0.8-0.9-1.5-1.9-1.9-2.9c-0.4-1.1-0.7-2.2-0.7-3.4c0-1.1,0.2-2.1,0.6-3.2
		c0.4-1,1-2,1.8-2.8c0.8-0.8,1.7-1.5,2.8-2c1.1-0.5,2.3-0.7,3.7-0.7h1.7c3.3,0,6.4,0.7,9.2,2c2.8,1.4,5.2,3.2,7.1,5.4l2.5,3
		c0.5,0.7,1,1.2,1.5,1.7c0.4,0.5,0.7,0.8,0.8,0.9l0.2,0.2l-4.3,3.6l-0.2-0.2c-0.5-0.4-0.9-0.8-1.3-1.3c-0.4-0.5-0.8-0.9-1.1-1.4
		l-0.9-1.1c-0.6-0.8-1.3-1.5-1.9-2.3C275.7,111.3,275,110.6,274.2,110z M260.1,110.1c0,0.9,0.3,1.8,1,2.5c0.7,0.7,1.6,1.1,2.8,1.1
		c1.2,0,2.2-0.4,2.9-1.2c0.8-0.8,1.2-1.7,1.4-2.7c0.1-0.4,0.1-0.8,0.2-1.2c0-0.4,0.1-0.8,0.1-1.1c-1.1-0.3-2.3-0.4-3.6-0.4h-1.7
		c-0.9,0-1.7,0.3-2.2,0.9C260.4,108.6,260.1,109.3,260.1,110.1z"/>
	<path d="M291.7,48.1c0,1.2-0.2,2.4-0.7,3.6c-0.5,1.2-1.1,2.2-2,3.1c-0.8,0.9-1.9,1.6-3.1,2.2c-1.2,0.6-2.6,0.8-4.2,0.8h-6.6
		c-1.6,0-3-0.3-4.3-0.9c-1.2-0.6-2.3-1.4-3.1-2.4c-0.8-1-1.4-2.1-1.8-3.3c-0.4-1.2-0.6-2.4-0.6-3.7v-0.2h5.8v0.2
		c0,0.5,0.1,1.1,0.2,1.7c0.1,0.6,0.4,1.1,0.7,1.5c0.3,0.4,0.7,0.8,1.2,1.1c0.5,0.3,1.1,0.4,1.8,0.4h6.6c0.7,0,1.4-0.1,1.9-0.4
		c0.5-0.3,0.9-0.7,1.3-1.1c0.3-0.4,0.6-0.9,0.7-1.5c0.1-0.6,0.2-1.1,0.2-1.7v-0.2h5.8V48.1z M282.2,46.9c0,0.5-0.2,1-0.6,1.4
		c-0.4,0.4-0.9,0.6-1.6,0.6h-2.7c-0.6,0-1.1-0.2-1.5-0.6c-0.4-0.4-0.6-0.9-0.6-1.4v-2.6c0-0.5,0.2-0.9,0.6-1.4
		c0.4-0.5,0.9-0.7,1.6-0.7h2.7c0.7,0,1.2,0.2,1.6,0.7c0.4,0.5,0.6,0.9,0.6,1.4V46.9z"/>
	<path d="M299.5,96.6v5.5h-0.7c-0.3,0-0.6,0-1.1-0.1c-0.4-0.1-0.8-0.2-1.3-0.3c-0.4-0.1-0.9-0.2-1.3-0.3c-0.4-0.1-0.8-0.2-1.1-0.3
		c-1.7-0.6-3.1-1.5-4.3-2.5c-1.2-1.1-2.3-2.2-3.1-3.5c-0.8-1.3-1.5-2.7-1.9-4.2c-0.4-1.5-0.7-3-0.7-4.5v-9.2c0-1.9,0.3-3.8,0.9-5.6
		c0.6-1.9,1.5-3.6,2.8-5.2h-7.9v-5.1h21.3v5.1h-5c-2.1,1.2-3.7,2.8-4.8,4.7c-1.1,2-1.6,4-1.6,6.1v9.2c0,2.4,0.7,4.4,2.1,6.2
		c1.4,1.8,3.2,3,5.5,3.5c0.2,0.1,0.5,0.1,0.8,0.2c0.3,0,0.5,0.1,0.8,0.2c0,0,0.1,0,0.1,0.1h0.1h0.1l0.1,0.1h0.1L299.5,96.6z"/>
	<path d="M337.4,100.9v-0.2c0-1.3,0-2.6,0-3.8c0-1.3,0-2.6,0-3.8c0-4.8,0.5-9.6,1.5-14.3h-0.4c-1.7,0-3.2-0.2-4.7-0.7
		c-1.5-0.4-2.8-1-4.1-1.8c-1.2-0.7-2.4-1.6-3.3-2.7c-1-1-1.9-2.1-2.6-3.3c-0.6,1.2-1.1,2.1-1.4,2.9c-0.3,0.8-0.6,1.6-0.7,2.4
		c-0.2,0.9-0.3,1.8-0.3,2.8c0,1,0,2.1,0,3.5c0,0.5,0.2,0.9,0.5,1.2c0.4,0.4,0.8,0.6,1.3,0.6h0.8c1,0,1.8-0.2,2.3-0.7
		c0.5-0.5,0.9-1.2,1.1-2l0.1-0.1h5.8V89c0,1.4-0.3,2.7-0.8,4c-0.5,1.3-1.3,2.5-2.3,3.6c-1,1.1-2.2,1.9-3.6,2.6c-1.4,0.7-3,1-4.7,1
		h-1.4c-2.5,0-4.7-0.5-6.7-1.4s-3.6-2.1-5-3.6s-2.4-3.2-3.1-5.1c-0.7-1.9-1.1-3.8-1.1-5.7v-12h5.7v12c0,1.4,0.2,2.6,0.7,3.8
		c0.5,1.2,1.2,2.3,2.3,3.3c0.7,0.6,1.3,1.1,1.9,1.5c0.6,0.4,1.2,0.7,1.9,0.9c0.7,0.2,1.4,0.4,2.2,0.4c0.8,0.1,1.6,0.1,2.6,0.1
		c1.7,0,3.1-0.6,4.1-1.7c1-1.1,1.5-2.4,1.5-3.8v-0.2c-0.7,0.3-1.4,0.5-2.1,0.6c-0.7,0.1-1.5,0.1-2.3,0.1c-1.2,0-2.2-0.2-3.2-0.7
		c-1-0.5-1.8-1-2.4-1.7c-0.7-0.7-1.2-1.5-1.5-2.4c-0.4-0.9-0.5-1.8-0.5-2.7v-3.2c0-1.2,0.1-2.4,0.3-3.4c0.2-1,0.5-2,0.8-3
		c0.4-1,0.8-2,1.2-2.9c0.5-1,1-2,1.6-3.1h-18.7v-5.1h49v5.1h-21.4c1,2,2.2,3.6,3.9,4.9c1.6,1.3,3.8,1.9,6.4,1.9h6.6v0.2
		c0,0.4,0,0.8,0,1.3c0,0.4,0,0.9,0,1.3c0,1-0.1,1.9-0.2,2.9c-0.1,1-0.3,1.9-0.5,2.9c-0.2,1-0.4,1.9-0.6,2.8
		c-0.2,0.9-0.3,1.9-0.4,2.8c-0.1,2.1-0.2,4.3-0.2,6.4c0,1.2,0,2.4,0.1,3.5c0,1.2,0.1,2.3,0.1,3.5v0.2H337.4z"/>
	<path d="M396,66.3v34.6h-5.8V80.2l-16.9,9.7l-5.8-3.3l8.4-4.6l-7.9-4.6v-5.7c0-1.2,0.2-2.5,0.7-3.7c0.5-1.2,1.2-2.4,2.1-3.3
		c0.9-1,2-1.8,3.3-2.4c1.3-0.6,2.7-0.9,4.3-0.9h2.4c1.9,0,3.7,0.3,5.3,0.9c1.6,0.6,3.1,1.5,4.4,2.5c-0.2-0.5-0.3-1.1-0.3-1.7
		c0-0.6-0.1-1.2-0.1-1.7v-5.4h5.8v5.3h6.1v5.1H396z M373.9,74l7.7,4.6l8.1-4.8c-0.2-1-0.6-1.8-1.1-2.7c-0.5-0.8-1.1-1.6-1.9-2.3
		c-0.8-0.7-1.6-1.2-2.6-1.6c-1-0.4-2.1-0.6-3.3-0.6h-2.4c-0.7,0-1.3,0.1-1.9,0.4c-0.6,0.3-1,0.7-1.5,1.1c-0.4,0.5-0.7,1-0.9,1.6
		c-0.2,0.6-0.3,1.2-0.3,1.7V74z"/>
	<path d="M412.8,66.3v34.6h-5.6V72c0-0.6-0.1-1.3-0.2-2c-0.1-0.7-0.3-1.3-0.7-1.9c-0.3-0.6-0.7-1-1.3-1.4c-0.6-0.4-1.3-0.6-2.1-0.6
		h-3.8v-5.1h4c0.9,0,1.8,0.2,2.6,0.7c0.8,0.4,1.5,0.9,2,1.5c-0.3-1.2-0.5-2.4-0.6-3.6c0-1.2-0.1-2.4-0.1-3.6v-0.2h5.6v5.3h6.2v5.1
		H412.8z"/>
	<path d="M450.9,61.1v5.1h-34.6v-5.1h24.4v-1.7c0-1.1-0.4-2-1.1-2.7c-0.7-0.7-1.6-1.1-2.7-1.1h-7.4c-1.2,0-2.3-0.2-3.3-0.7
		c-1-0.5-1.8-1.1-2.5-1.8c-0.7-0.8-1.3-1.7-1.6-2.7c-0.4-1-0.6-2.1-0.6-3.3V47h5.6v0.2c0,0.7,0.2,1.4,0.6,2c0.4,0.6,1,0.9,1.8,0.9
		h7.4c1.4,0,2.7,0.2,3.8,0.7c1.1,0.5,2,1.2,2.9,2.1c0.7,0.7,1.2,1.3,1.5,2c0.4,0.6,0.7,1.3,0.8,1.9c0.2,0.6,0.3,1.3,0.3,2
		c0,0.7,0.1,1.5,0.1,2.4H450.9z M432.7,90.8l17.7,10h-11.3l-17.7-10.1v-5.6h13c0.9,0,1.6-0.2,2.3-0.5c0.7-0.3,1.3-0.7,1.8-1.3
		c0.5-0.5,0.9-1.1,1.1-1.8c0.3-0.7,0.4-1.3,0.4-2v-0.7c0-0.7-0.3-1.4-0.8-2.1c-0.6-0.7-1.3-1-2.2-1h-9.4v6.2H422V70.1h15
		c1.4,0,2.6,0.2,3.7,0.7c1.1,0.5,2,1.2,2.7,2c0.7,0.8,1.3,1.8,1.7,2.8c0.4,1,0.6,2.1,0.6,3.2v0.7c0,1.4-0.3,2.7-0.8,4.1
		c-0.5,1.3-1.3,2.6-2.2,3.6c-1,1.1-2.2,1.9-3.6,2.6c-1.4,0.7-3,1-4.8,1H432.7z"/>
	<path d="M461.3,100.9h-5.6V66.3h-5.2v-5.1h5.2c0.1-1.9,0.5-3.6,1.2-5.3c0.7-1.7,1.8-3.2,3.1-4.5c1.3-1.3,2.9-2.3,4.8-3.1
		c1.9-0.8,3.9-1.2,6.3-1.2h16.6v5.1h-16.6c-1.4,0-2.7,0.3-3.9,0.8c-1.2,0.5-2.2,1.2-3,2c-0.8,0.8-1.5,1.8-2,2.9
		c-0.5,1.1-0.8,2.2-0.9,3.4h5.8v5.1h-5.8V100.9z"/>
	<path d="M497.7,66.3v34.6h-5.6V89c0-1.5-0.3-2.9-0.9-4.2c-0.6-1.3-1.4-2.5-2.4-3.5c-1-1-2.2-1.8-3.5-2.4c-1.3-0.6-2.8-0.9-4.2-0.9
		h-3.1c-0.8,0-1.4,0.3-1.8,0.8c-0.4,0.5-0.6,1.1-0.6,1.8v3.8c0,1.2,0.4,2.2,1.1,3.2c0.8,1,1.8,1.4,3.3,1.4h2.8v5.5h-2.8
		c-1.6,0-3-0.3-4.3-0.9c-1.3-0.6-2.3-1.3-3.2-2.3c-0.9-0.9-1.5-2-2-3.3c-0.5-1.2-0.7-2.4-0.7-3.7v-3.8c0-1,0.2-2,0.6-2.9
		c0.4-0.9,0.9-1.8,1.6-2.6c0.7-0.8,1.6-1.4,2.6-1.9c1-0.5,2.1-0.7,3.4-0.7h3.1c4.4,0,8.1,1.3,11.1,3.9V66.3h-26.3v-5.1h37.9v5.1
		H497.7z"/>
</g>
</svg>
