<?xml version="1.0" encoding="utf-8"?>
<!-- Generator: Adobe Illustrator 23.1.0, SVG Export Plug-In . SVG Version: 6.00 Build 0)  -->
<svg version="1.1" id="Layer_1" xmlns="http://www.w3.org/2000/svg" xmlns:xlink="http://www.w3.org/1999/xlink" x="0px" y="0px"
	 viewBox="0 0 43.1 20.3" style="enable-background:new 0 0 43.1 20.3;" xml:space="preserve">
<style type="text/css">
	.st0{fill:#1D70B7;}
</style>
<g>
	<path class="st0" d="M27.5,11c0,0.4-0.5,0.7-0.9,0.5l-0.2-0.1c-0.2-0.1-0.2-0.3-0.2-0.5v-7l-0.5-0.4l-5-3.2c-1.3-0.8-3,0.1-3,1.7
		l-0.1,12.2c0,0.7,0.4,1.4,0.9,1.7l7.1,4.5v-3.9l-2.4-1.5c0,0.5-0.5,0.7-0.9,0.5l-2-1.3v-9l2.9,2l1,1.8l-1.9,1v3.3
		c0,0.3,0.2,0.6,0.4,0.8l4.7,2.9c0.6,0.4,1.4-0.1,1.4-0.8v-5l0.7,0.5v1.2l1.8,1.7V9l-3.9-2.8L27.5,11L27.5,11z"/>
	<polygon class="st0" points="9.9,19.6 11,20.3 17.6,18.6 9.9,13.6 	"/>
	<path class="st0" d="M16.6,15.2C16.6,15.2,16.6,15.2,16.6,15.2V8.4c0-0.4-0.2-0.8-0.5-1.1V4.9c0-0.5-0.2-0.9-0.7-1.2L10.2,0v1.8
		L13,3.8c0.5,0.3,0.7,0.8,0.7,1.2v0.6L9.9,3v1.7v2.8V9l1.8,1.3V8.7l0.9,0.6c0.2,0.1,0.3,0.3,0.3,0.5v1.8l0,0c0,0.2-0.4,0.4-0.7,0.2
		l-2.3-1.5v2.3l4.6,3.1C15.3,16.4,16.6,16,16.6,15.2"/>
	<polygon class="st0" points="0,16.8 5.6,20.3 5.6,0.3 0.1,4.2 	"/>
	<path class="st0" d="M5.9,0.8L6,0.8v18.9l-0.1,0.1v0.5l3-1.8V1.8l-3-1.5V0.8z M8.2,1.9L8.4,2v16.4l-0.1,0.1V1.9z M7.9,1.8l0.3,0.1
		v16.6l-0.3,0.2V1.8z M7.6,1.6l0.3,0.1v16.9l-0.3,0.2V1.6z M7.3,1.5l0.3,0.1v17.2L7.3,19C7.3,19,7.3,1.5,7.3,1.5z M7,1.3l0.3,0.1V19
		L7,19.2V1.3z M6.7,1.2L7,1.3v17.9l-0.3,0.2V1.2z M6.4,1l0.3,0.1v18.2l-0.3,0.2V1z M6.1,0.9L6.3,1v18.6l-0.3,0.2V0.9z"/>
	<path class="st0" d="M35.8,17.5c-0.8,0-1.4,0.6-1.4,1.4c0,0.8,0.6,1.4,1.4,1.4c0.8,0,1.4-0.6,1.4-1.4
		C37.1,18.1,36.5,17.5,35.8,17.5"/>
	<path class="st0" d="M42.8,0.4c0-0.1-0.1-0.1-0.2-0.2C42.4,0,42.1,0,41.8,0c-0.9,0.2-2.8,0.6-2.8,0.6L30,3l2,1.7l6-1.6h0
		c0.9-0.2,1.8,0.5,1.8,1.4v13.4l3.3,2.4V1.7C43.1,1.3,43,0.8,42.8,0.4"/>
	<path class="st0" d="M35.3,4.8v11.8c0.2,0,0.3-0.1,0.5-0.1c1,0,1.9,0.7,2.2,1.6l0.9-0.5l0-11.3L35.3,4.8z"/>
	<path class="st0" d="M34.4,17V5.8l0.3-0.1v11.1c0,0,0,0,0,0V5.8l0.3-0.1v11c0,0,0,0,0,0v-11l0.1,0V4.8l-2.6,0.6v13l0.9,0.4
		c0,0,0,0,0-0.1c0-0.3,0.1-0.5,0.1-0.8l-0.1-0.1V6L33.7,6v11.8c0,0,0-0.1,0-0.1V6L34,5.9v11.4c0,0,0,0,0,0V5.9l0.3-0.1L34.4,17
		C34.3,17.1,34.4,17.1,34.4,17 M33.1,17.9L33.1,17.9l-0.2-0.1V6.2l0.2,0L33.1,17.9L33.1,17.9z M33.4,18.1L33.4,18.1l-0.3-0.1V6.1
		l0.3-0.1V18.1z"/>
</g>
</svg>
