<?xml version="1.0" encoding="utf-8"?>
<!-- Generator: Adobe Illustrator 23.1.0, SVG Export Plug-In . SVG Version: 6.00 Build 0)  -->
<svg version="1.1" id="Layer_1" xmlns="http://www.w3.org/2000/svg" xmlns:xlink="http://www.w3.org/1999/xlink" x="0px" y="0px"
	 viewBox="0 0 86.7 86.7" style="enable-background:new 0 0 86.7 86.7;" xml:space="preserve">
<style type="text/css">
	.st0{fill:#1D70B7;}
	.st1{fill:none;stroke:#000000;stroke-miterlimit:10;}
</style>
<g>
	<path class="st0" d="M9,40.2c0,2.4,0.7,4.5,1.5,6.5c2.7,6.6,6.2,12.9,9.4,19.3c0.1,0.1,0.1,0.2,0.2,0.4c0.7,1.2,0.8,2.2-0.2,3.3
		c-0.8,0.8-1.3,1.9-1.4,3.1c-0.1,0.5-0.3,1,0.2,1.3c0.4,0.3,0.9,0.1,1.3-0.1c1.7-0.7,3.2-1.7,4.6-2.8c5.8-4.6,11.3-9.4,16.5-14.6
		c1.1-1.1,1.1-1.2,0.3-2.5c-7.3-12.4-14-25-20.1-37.9c-0.4-0.9-0.9-1.7-1.4-2.5c-0.2-0.4-0.4-0.8-0.9-0.8c-0.5,0.1-0.5,0.6-0.7,0.9
		c-1.1,2.8-2.2,5.7-3.3,8.5c-1.9,5-3.8,10-5.5,15.1C9.1,38.4,8.9,39.4,9,40.2z"/>
	<path class="st0" d="M51.6,75.1c1.2,0,2.2-0.4,3.3-0.9c5.2-2.5,10.2-5.3,15.3-8c2.1-1.1,4.3-2.2,6.4-3.3c0.4-0.2,0.8-0.4,1.1-0.6
		c0.3-0.2,0.9-0.4,0.8-0.8C78.4,61,77.8,61,77.4,61c-6.2-1.2-12.3-2.3-18.5-3.5c-3.8-0.7-7.5-1.4-11.3-2.1c-1.4-0.3-2.5-0.1-3.7,0.9
		c-5,4.5-10,9.1-15.2,13.5c-0.9,0.8-0.9,1,0.4,1.4c2.5,0.7,5.1,1,7.6,1.5c4,0.7,7.9,1.5,11.9,2.2C49.7,75,50.6,75,51.6,75.1z"/>
	<path class="st0" d="M23.3,17.1c0,0.6,0.2,1.1,0.4,1.5C28,27.3,32.5,36,37,44.6c1.1,2.1,2.2,4.1,3.3,6.1c0.1,0.2,0.3,0.5,0.4,0.7
		c0.1,0.1,0.2,0.4,0.4,0.3c0.3-0.1,0.2-0.4,0.1-0.6c-0.3-0.7-0.5-1.5-0.8-2.2C35.8,37.1,31,25.2,26.2,13.3c-0.2-0.5-0.4-1.4-1-1.4
		c-0.7,0-0.7,0.9-0.9,1.4C23.8,14.6,23.5,15.9,23.3,17.1z"/>
	<path class="st0" d="M61,29.8c-0.4,0.6-0.3,1.1-0.2,1.6c0.5,5.9-1.8,10.5-6.5,14c-1.9,1.4-3.7,2.8-5.7,4c-0.2,0.1-0.3,0.2-0.5,0.3
		s-0.4,0.3-0.2,0.6c0.1,0.2,0.4,0.1,0.5,0c4.2-2.6,8.5-5.1,11.1-9.4c1.9-3.1,2.2-6.6,1.9-10.2C61.5,30.4,61.5,30.4,61,29.8z"/>
	<path class="st0" d="M44.3,34.4c0.4,1.4,0.7,2.9,1,4.4c0.6,3.1-0.2,6-1.4,8.8c-0.3,0.7-0.6,1.3-0.9,2c-0.1,0.3-0.2,0.5,0.1,0.7
		c0.4,0.2,0.5-0.2,0.6-0.4c2.7-5,3.4-10.2,1.6-15.6c-0.1-0.3-0.2-0.7-0.6-0.7C44.2,33.7,44.3,34.1,44.3,34.4z"/>
</g>
<path class="st1" d="M19.6,76.1c5-2.7,7.4-5.5,9-4.4C59,82.3,66.2,67.5,80,62.4c-54.4-8-37.1-22.3-54.6-55.1
	c-5.4,9,1.2,16.8,2.6,20.8L17,9.9c-23.3,54.4,21.7,49.4-0.8,64.5L19.6,76.1z"/>
</svg>
