<?xml version="1.0" encoding="utf-8"?>
<!-- Generator: Adobe Illustrator 23.1.0, SVG Export Plug-In . SVG Version: 6.00 Build 0)  -->
<svg version="1.1" id="Layer_1" xmlns="http://www.w3.org/2000/svg" xmlns:xlink="http://www.w3.org/1999/xlink" x="0px" y="0px"
	 viewBox="0 0 225.9 95.5" style="enable-background:new 0 0 225.9 95.5;" xml:space="preserve">
<style type="text/css">
	.st0{fill:#FFFFFF;}
</style>
<path class="st0" d="M131.7,90.5c-4.7-0.2-9-0.8-13.1-1.8c-4.1-1-7.7-2.3-11-3.9c-3.3-1.6-6.1-3.5-8.5-5.7c-2.4-2.2-4.2-4.6-5.5-7.3
	l-1.4-2.7c0.5,0.1,1,0.1,1.4,0.1c0.4,0,0.9,0,1.3,0h2.9c2.4,0,4.6-0.1,6.6-0.2c2-0.1,3.7-0.2,5.2-0.4c3-0.3,5.6-0.9,7.9-1.9
	c2.3-1,4.3-2.2,5.9-3.6c1.6-1.4,2.9-3,3.7-4.7c0.9-1.7,1.3-3.4,1.3-5.2c0-1.2-0.5-2.7-1.4-4.7c-0.9-1.9-2.2-3.9-3.8-6.1
	c-1.6-2.1-3.5-4.2-5.6-6.3c-2.1-2.1-4.4-4-6.8-5.6h22l-4.1-5.3h-0.8c0.5-1.6,0.8-3.8,0.8-6.5c0-2.9-0.5-5.5-1.4-7.7
	c-1-2.2-2.5-4.1-4.7-5.7c-2.2-1.6-5-2.8-8.5-3.7c-3.5-0.9-7.8-1.4-13-1.7C88.2,0,79,1.4,73.5,4.1c-2.7,1.3-4.7,2.5-6.2,3.4
	c-1.5,1-2.6,1.8-3.2,2.5c-0.7,0.7-1.1,1.4-1.2,2c-0.1,0.6-0.2,1.3-0.2,1.9c6.2,0,10.5-1.1,12.8-3.4h0.1c0.4-0.6,1.4-1.2,2.9-1.7
	c1.5-0.6,3.2-1,5.3-1.4c2-0.4,4.2-0.7,6.6-1C92.6,6.1,94.9,6,97.1,6c6.5,0,11,0.8,13.6,2.4c2.6,1.6,3.9,4.1,3.9,7.5
	c0,1.7-0.3,3.4-0.8,5.2c-0.5,1.8-1,3.1-1.4,4H95.8c-2.2-0.4-4.2-0.6-5.9-0.8c-1.7-0.2-3.2-0.3-4.3-0.3h-1.1c-0.4,0-0.8,0-1,0.1
	l-0.3,5.7c-2-2.7-4.9-4.3-8.7-4.7h-8.9H64H0l4.4,5.3h43.7v0.8L34.3,41.5c-4.6,3.4-8.5,6.3-11.7,8.7c-3.2,2.4-5.8,4.4-7.8,6
	c-2,1.6-3.4,2.8-4.3,3.7c-0.9,0.9-1.3,1.5-1.3,1.8c6.5,5.3,13.4,9.9,20.5,13.7c7.2,3.8,14.7,7.1,22.5,9.8c3,1,5.2,1.8,6.8,2.3
	c1.6,0.5,2.7,0.8,3.3,0.8V30.5h6.1c1.9,0,3.7,0.3,5.5,0.9c1.7,0.6,3.2,1.4,4.5,2.4c1.3,1,2.3,2,3.1,3.2c0.7,1.2,1.1,2.3,1.1,3.3
	l-0.9,15.4h0.2c0,0.1,0.7,0.4,2.1,0.7c1.4,0.3,2.9,0.6,4.6,0.9c1.7,0.3,3.3,0.6,4.9,0.9c1.6,0.3,2.5,0.4,2.9,0.4
	c1.1,0,2.3-0.5,3.5-1.5c1.2-1,2.3-2.1,3.3-3.4c1-1.3,1.8-2.5,2.5-3.7c0.7-1.2,1-2,1-2.4c0-2-3-4-8.9-5.9L97,41.4V32l0.2,0.1
	c2.4,1.7,4.6,3.3,6.6,4.7c1.9,1.4,3.5,2.8,4.8,4.2c1.3,1.4,2.2,2.8,2.9,4.3c0.7,1.5,1,3.1,1,4.9c0,2.2-0.6,4-1.7,5.6
	c-1.2,1.6-2.7,2.8-4.7,3.8c-2,1-4.3,1.7-7,2.2c-2.7,0.5-5.6,0.7-8.7,0.7c-1.9,0-4.1-0.1-6.6-0.2c-2.5-0.1-5.2-0.2-8.2-0.4
	c-0.4,0-0.6,0.4-0.6,1.3c0,1.6,0.5,3.6,1.4,5.8c1,2.3,2.4,4.6,4.4,7c2,2.4,4.5,4.7,7.6,7.1c3.1,2.3,6.8,4.4,11.1,6.2
	c4.3,1.8,9.2,3.3,14.7,4.4c5.5,1.1,11.7,1.7,18.6,1.7l6.3-0.1C139.1,92.7,136.7,91.1,131.7,90.5z M48.2,76.6c-3-0.4-7-2.3-12-5.7
	l-7-4.7l8.8-7.1c2.3-1.9,4.3-3.5,6-4.8c1.7-1.4,3.1-2.5,4.2-3.3V76.6z"/>
<g>
	<path class="st0" d="M152.8,64.5c4.6,0,8.6,0,13,0c0.1-1.3,0.2-2.5,0.2-3.7c0-7-0.1-14.1,0.1-21.1c0-1.1,0.9-2.8,1.8-3.3
		c5.3-2.4,11.7-0.6,15.4,4c3.7,4.6,3.9,11,0.3,16c-1.6-1.1-3.3-2.2-4.8-3.3c1.2-7.3-0.3-10-5.9-10.7c0,9.5,0,18.9,0,28.6
		c-9.9,0-19.4,0-29.2,0c0.1-3.8-1.4-7.4,2.9-10.6c4.9-3.6,6.2-9.2,4.6-15.1c-1.7-6-5.7-9.7-11.9-11c-0.9-0.2-1.7-0.4-2.8-0.6
		c0-2,0-4,0-6.3c7.5-0.1,13.4,2.9,17.6,8.8C160.8,45.5,159.8,54.9,152.8,64.5z"/>
	<path class="st0" d="M174.9,75c1.8,1.2,3.4,2.3,5,3.4c-4.6,8.7-16.6,13.9-27.6,12.2c-11.6-1.8-21-11-23.2-22.7
		c-2.2-11.3,3.1-23.1,13.1-28.9c1.1,1.7,2.2,3.5,3.4,5.4c-6.3,4.5-10,10.2-10.2,18c-0.1,6,2,11.2,6.2,15.4
		C150.8,87.3,163.7,86.2,174.9,75z"/>
	<path class="st0" d="M186.3,23.3c1.8,1.2,3.5,2.4,5.3,3.6c4.5-5.3,10.1-7.9,17-5.8c6.7,2.1,9.9,7.2,10.9,14c2.2,0,4.1,0,6.1,0
		c0.9-8.1-5.3-17-13.9-20.1C202.1,11.6,192,14.9,186.3,23.3z"/>
	<path class="st0" d="M202.2,73.8c-5.2-0.1-9.2,3.8-9.2,9c0,5.1,4,9.2,9.1,9.1c5,0,9.1-4.2,9.1-9.2
		C211.1,77.7,207.3,73.9,202.2,73.8z M202.1,86.6c-2.1,0-3.8-1.7-3.8-3.8s1.7-3.8,3.8-3.8c2.1,0,3.8,1.7,3.8,3.8
		S204.2,86.6,202.1,86.6z"/>
	<path class="st0" d="M220.9,36c-0.9,0-1.7,0.2-2.9,0.3c0,1.6-0.1,3,0,4.5c0.3,2.6,1.1,5.1,1.2,7.7c0.2,6,0.1,12.1,0.1,18.1
		c0,3.1,0,6.2,0,9.4c2.3,0,4.2,0,6.6,0c0-10.5,0-20.8,0-31.2c0-0.5,0-1.1,0-1.6V36C224.2,36,222.6,36,220.9,36z"/>
	<g>
		<path class="st0" d="M212.5,36c-9.6,0-19.1,0-28.7,0c1.6,1.3,3.4,3.4,4.2,6.4c0,0,0.1,0.2,0.2,0.7c4.9,0,9.7,0,14.7,0
			c-2.5,7.8-7.2,13.5-13.9,17.4c-0.9,0.5-2.2,1.3-2.3,2.1c-0.3,2.8-0.1,5.7-0.1,8.6c9.9,0,19.3,0,28.7,0c0.2-0.5,0.4-0.8,0.4-1.1
			c0-10.6,0-21.2,0.1-31.9C215.7,35.6,214,36,212.5,36z M208.5,64.4c-4,0-8,0-11.7,0c4-5,8-10.1,11.7-14.9
			C208.5,53.8,208.5,59,208.5,64.4z"/>
	</g>
</g>
</svg>
