<?xml version="1.0" encoding="utf-8"?>
<!-- Generator: Adobe Illustrator 23.1.0, SVG Export Plug-In . SVG Version: 6.00 Build 0)  -->
<svg version="1.1" id="Layer_1" xmlns="http://www.w3.org/2000/svg" xmlns:xlink="http://www.w3.org/1999/xlink" x="0px" y="0px"
	 viewBox="0 0 242.9 114.6" style="enable-background:new 0 0 242.9 114.6;" xml:space="preserve">
<style type="text/css">
	.st0{fill:#FFFFFF;}
</style>
<g>
	<path class="st0" d="M154.9,62.1c0,2.5-2.8,4-4.9,2.6l-1.1-0.7c-0.9-0.6-1.4-1.6-1.4-2.6V21.9l-3-2L116.3,1.8
		c-7.2-4.7-16.7,0.6-16.8,9.4L99,79.7c0,4,2,7.7,5.3,9.7l40.1,25.2V92.4L131,83.8c0,2.6-2.8,4.2-4.9,2.7L115,79.2V28.6l16.1,11.2
		l5.4,10.2l-10.8,5.7v18.5c0,1.8,0.9,3.5,2.5,4.5l26.6,16.5c3.5,2.2,8-0.3,8-4.5V62.5l4,2.9v6.9l10.1,9.3V50.9l-22-15.8V62.1z"/>
	<polygon class="st0" points="55.7,110.2 62,114.5 99.1,104.5 55.7,76.4 	"/>
	<path class="st0" d="M93.2,85.7C93.2,85.6,93.2,85.6,93.2,85.7l0-38.3c0-2.3-1-4.6-2.7-6.4V27.7c0-2.6-1.4-5-3.9-6.8L57.7,0.3v10.3
		l15.4,10.7c2.6,1.8,4,4.3,4,6.9v3.5L55.5,17.2v9.6v15.8v8l9.9,7.3v-8.6l4.9,3.4c1.1,0.7,1.7,1.8,1.7,2.9v10.1v0
		c0,1.4-2.4,2.2-3.9,1.3l-12.7-8.3v12.9l26.1,17.7C86.2,92.2,93.2,89.9,93.2,85.7"/>
	<polygon class="st0" points="0,94.7 31.8,114.2 31.8,1.5 0.5,23.9 	"/>
	<path class="st0" d="M33,4.4l0.9,0.4v106.6l-0.8,0.5v2.6l16.9-9.9V9.9L33,1.7V4.4z M46.4,10.8l0.7,0.3v92.2l-0.7,0.4V10.8z
		 M44.7,10l1.6,0.8v93.2l-1.6,0.9V10z M42.9,9.1l1.6,0.8V105l-1.6,0.9V9.1z M41.1,8.3L42.7,9v97l-1.6,0.9V8.3z M39.4,7.4L41,8.2
		v98.9l-1.6,0.9V7.4z M37.6,6.6l1.6,0.8v100.8l-1.6,0.9V6.6z M35.9,5.7l1.6,0.8v102.7l-1.6,0.9V5.7z M34.1,4.9l1.6,0.8v104.6
		l-1.6,0.9V4.9z"/>
	<path class="st0" d="M201.3,98.7c-4.3,0-7.9,3.5-7.9,7.9c0,4.3,3.5,7.8,7.9,7.8c4.3,0,7.8-3.5,7.8-7.8
		C209.1,102.2,205.6,98.7,201.3,98.7"/>
	<path class="st0" d="M240.8,2.5c-0.2-0.4-0.5-0.7-0.9-1c-1.3-1.2-3.1-1.7-4.8-1.3c-5.2,1.2-16,3.6-16,3.6l-50.4,12.9l11.5,9.7
		l33.6-9.1c0,0,0.1,0,0.1,0c5.3-1.4,10.4,2.7,10.4,8.1V101l18.5,13.3V9.6C242.9,7.1,242.2,4.6,240.8,2.5"/>
	<path class="st0" d="M198.6,27.2v66.6c0.9-0.2,1.8-0.3,2.7-0.3c5.7,0,10.6,3.7,12.4,8.8l4.8-2.9l-0.2-63.8L198.6,27.2z"/>
	<path class="st0" d="M193.5,96V32.9l1.5-0.3v62.5c0.1,0,0.2-0.1,0.2-0.1V32.5l1.5-0.3v62.1c0.1,0,0.1-0.1,0.2-0.1V32.1l0.6-0.1
		v-4.7l-14.4,3.6v73.4l5.1,2.5c0-0.1,0-0.2,0-0.3c0-1.6,0.3-3,0.8-4.4l-0.6-0.3V34.1l1.5-0.3v66.5c0.1-0.1,0.1-0.3,0.2-0.4V33.7
		l1.5-0.3v64.4c0.1-0.1,0.1-0.2,0.2-0.2V33.3l1.5-0.3v63.2C193.3,96.2,193.4,96.1,193.5,96 M186.4,100.9l-0.5-0.2l-0.5-0.2V34.8
		l0.9-0.2V100.9z M188.1,101.7l-0.5-0.2l-1-0.5V34.5l1.5-0.3V101.7z"/>
</g>
</svg>
