<?xml version="1.0" encoding="utf-8"?>
<!-- Generator: Adobe Illustrator 25.0.1, SVG Export Plug-In . SVG Version: 6.00 Build 0)  -->
<svg version="1.1" id="Layer_1" xmlns="http://www.w3.org/2000/svg" xmlns:xlink="http://www.w3.org/1999/xlink" x="0px" y="0px"
	 viewBox="0 0 242.81 114.55" style="enable-background:new 0 0 242.81 114.55;" xml:space="preserve">
<style type="text/css">
	.st0{fill:none;}
	.st1{fill:#020203;}
</style>
<polygon class="st0" points="37.5,6.45 35.9,5.65 35.9,5.73 37.5,6.49 "/>
<polygon class="st0" points="33.9,4.75 33,4.35 33.9,4.78 "/>
<polygon class="st0" points="41,8.15 39.4,7.35 39.4,7.39 41,8.15 "/>
<polygon class="st0" points="42.9,9.05 42.9,9.06 43.07,9.14 "/>
<polygon class="st0" points="42.7,8.95 42.46,8.85 42.7,8.96 "/>
<polygon class="st0" points="34.1,4.85 34.1,4.88 35.01,5.31 "/>
<path class="st1" d="M154.9,62.05c0,2.5-2.8,4-4.9,2.6l-1.1-0.7c-0.9-0.6-1.4-1.6-1.4-2.6v-39.5l-3-2l-28.2-18.1
	c-7.2-4.7-16.7,0.6-16.8,9.4L99,79.65c0,4,2,7.7,5.3,9.7l40.1,25.2v-22.2l-13.4-8.6c0,2.6-2.8,4.2-4.9,2.7l-11.1-7.3v-50.6
	l16.1,11.2l5.4,10.2l-10.8,5.7v18.5c0,1.8,0.9,3.5,2.5,4.5l26.6,16.5c3.5,2.2,8-0.3,8-4.5v-28.2l4,2.9v6.9l10.1,9.3v-30.7l-22-15.8
	V62.05z"/>
<polygon class="st1" points="55.7,110.15 62,114.45 99.1,104.45 55.7,76.35 "/>
<path class="st1" d="M93.2,85.65c0-0.05,0-0.08,0-0.08V47.35c0-2.3-1-4.6-2.7-6.4v-13.3c0-2.6-1.4-5-3.9-6.8L57.7,0.25v10.3
	l15.4,10.7c2.6,1.8,4,4.3,4,6.9v3.5l-21.6-14.5v9.6v15.8v8l9.9,7.3v-8.6l4.9,3.4c1.1,0.7,1.7,1.8,1.7,2.9v10.1
	c0,1.4-2.4,2.2-3.9,1.3l-12.7-8.3v12.9l26.1,17.7C86.2,92.15,93.2,89.85,93.2,85.65z"/>
<polygon class="st1" points="0,94.65 31.8,114.15 31.8,1.45 0.5,23.85 "/>
<path class="st1" d="M33,4.35l0.9,0.4v0.03l0.2,0.1V4.85l0.91,0.46l0.89,0.42V5.65l1.6,0.8v0.04l1.9,0.9V7.35l1.6,0.8v0l1.46,0.69
	l0.24,0.11v0.01l0.2,0.1v0l0.17,0.09l4.03,1.91c0,0.56,0,92.12,0,92.6l-14,8.2v2.6l16.9-9.9V9.85l-17-8.2V4.35z"/>
<path class="st1" d="M240.8,2.45c-0.2-0.4-0.5-0.7-0.9-1c-1.3-1.2-3.1-1.7-4.8-1.3c-5.2,1.2-16,3.6-16,3.6l-50.4,12.9l11.5,9.7
	l33.6-9.1h0.1c5.3-1.4,10.4,2.7,10.4,8.1v75.6l18.5,13.3V9.55C242.9,7.05,242.2,4.55,240.8,2.45z"/>
<g>
	<polygon class="st0" points="190.1,33.67 190.5,33.57 190.1,33.65 	"/>
	<polygon class="st0" points="196.9,32.09 197.5,31.95 196.9,32.05 	"/>
	<polygon class="st0" points="188.4,34.06 188.58,34.02 188.4,34.05 	"/>
	<polygon class="st0" points="191.8,33.27 192.41,33.13 191.8,33.25 	"/>
	<polygon class="st0" points="193.5,32.85 193.5,32.88 194.32,32.69 	"/>
	<polygon class="st0" points="195.2,32.45 195.2,32.48 196.23,32.25 	"/>
	<polygon class="st0" points="187.6,101.45 188.1,101.65 187.2,101.25 	"/>
	<polygon class="st0" points="186.6,34.47 187.31,34.31 186.6,34.45 	"/>
	<path class="st1" d="M201.3,98.65c-4.3,0-7.9,3.5-7.9,7.9c0,4.3,3.5,7.8,7.9,7.8c4.3,0,7.8-3.5,7.8-7.8
		C209.1,102.15,205.6,98.65,201.3,98.65z"/>
	<path class="st1" d="M218.3,35.55l-19.7-8.4v66.6c0.9-0.2,1.8-0.3,2.7-0.3c5.7,0,10.6,3.7,12.4,8.8l4.8-2.9L218.3,35.55z"/>
	<path class="st1" d="M187.6,101.45l-0.4-0.2l-1.8-0.8v-65.7l1.2-0.28v-0.02l0.71-0.14l1.09-0.25v-0.01l0.18-0.04l1.52-0.35v-0.01
		l0.4-0.08l1.3-0.3v-0.02l0.61-0.12l1.09-0.25v-0.03l0.82-0.16l0.88-0.2v-0.03l1.03-0.21l0.67-0.16v-0.04l0.6-0.1v-4.7l-14.4,3.6
		v73.4l5.1,2.5c0-0.1,0-0.2,0-0.3c0-1.6,0.3-3,0.8-4.4l-0.9-0.4L187.6,101.45z"/>
	<polygon class="st1" points="186.4,100.85 186.3,100.81 186.3,100.85 	"/>
</g>
</svg>
